<?xml version="1.0" encoding="UTF-8" standalone="no"?>
<!DOCTYPE svg PUBLIC "-//W3C//DTD SVG 1.1//EN"
"http://www.w3.org/Graphics/SVG/1.1/DTD/svg11.dtd">


<!-- Page 10 -->
<svg x="0" y="0" width="935" height="1210" viewBox="0 0 935 1210" version="1.1" xmlns="http://www.w3.org/2000/svg" xmlns:xlink="http://www.w3.org/1999/xlink"
style="display: block;margin-left: auto;margin-right: auto;">
<defs>

<style type="text/css"><![CDATA[

.g1_10{
fill: #D9D9D9;
}
.g2_10{
fill: #4DA4D8;
}
.g3_10{
fill: #00000A;
}

.s1_10{
font-size: 18.33px;
font-family: ArialNovaCond-Bold_d;
fill: #5A5A5A;
}
.s2_10{
font-size: 12.10px;
font-family: ArialNova-Light_n;
fill: #7F7F7F;
}
.s3_10{
font-size: 21.27px;
font-family: Calibri-Light_r;
fill: #323E4F;
}
.s4_10{
font-size: 16.87px;
font-family: Calibri-Light_r;
fill: #323E4F;
}
.s5_10{
font-size: 17.97px;
font-family: ArialNovaCond-Light_9;
fill: #FFFFFF;
}
.s6_10{
font-size: 18.33px;
font-family: ArialNovaCond-Light_9;
fill: #5A5A5A;
}
.s7_10{
font-size: 19.36px;
font-family: DengXian-Regular_ia;
fill: #5A5A5A;
}
.s8_10{
font-size: 17.97px;
font-family: ArialNovaCond-LightItalic_v;
fill: #5A5A5A;
}
.s9_10{
font-size: 18.33px;
font-family: ArialNovaCond-LightItalic_v;
fill: #5A5A5A;
}
.s10_10{
font-size: 17.97px;
font-family: ArialNovaCond-Light_9;
fill: #5A5A5A;
}

]]></style>

</defs>
<path d="M0,0
L0,1210
L935,1210
L935,0 Z " 
fill="#FFFFFF" stroke="none" />
<text 
x="110" 
y="1106" 
dx="0,0,0,0.2" 
class="s1_10"
>10 |</text>

<text 
x="141" 
y="1106" 
dx="0,4.3,4.9,0,1.9,0,1.6,0,1.3,0,1.7,0,1.7,0,1.2,0,1.9,0,1.6,4.7,4.9,0,1.3,0,1.7,0,1.6,0,1.5,0,1.6,0,1.9,0,1.2,0,1.5,0,1.9,0,1.5,4.5,4.9,0,1.7,0,1.2,0,1.9,0,1.9,0,1.2,4.5,4.5,0,1.9,0,1.5,4.7,4.9,0,1.3,0,1.5,0,1.9,0,1.5,0,1.5,0,1.5,0,1.5,0,1.9,0,1.3,0,1.9,0,1.6,4.6,4.5,0,1.9,0,1.5,0,1.7,0,1.6,0,1.4,0,1.9,0,1.3,0,1.9,0,1.5,0,1.7,0,1.5,0,1.5,0,1.9" 
class="s2_10"
>A W e b - b a s e d T r a n s l a t i o n S y s t e m f o r M u l t i l i n g u a l C o d e - s w i t c h i n g</text>

<path d="M107.8,1086.4l719.4,0l0,-0.7l-719.4,0l0,0.7Z" class="g1_10" />
<text 
x="110" 
y="130" 
class="s3_10"
>T</text>

<text 
x="121" 
y="130" 
dx="0,1.6,1.3,1.7,1.5,1.3,1.4,1.4,1.3,1.6,1.4,1.5" 
class="s4_10"
>YPES OF CODE</text>

<text 
x="236" 
y="130" 
class="s3_10"
>-</text>

<text 
x="244" 
y="130" 
dx="0,1.5,1.6,1.4,1.4,1.6,1.7,1.4,1.3" 
class="s4_10"
>SWITCHING</text>

<path d="M110,205.7l237.2,0l0,-25.3l-237.2,0l0,25.3Z" class="g2_10" />
<path d="M117,205.7l222.5,0l0,-25.3l-222.5,0l0,25.3Z" class="g2_10" />
<text 
transform="matrix(1.02, 0, 0, 1, 116, 198)"
dx="0,-0.1,0.2,0,0.2,-0.1,-0.1,0.2,0.2,-0.3,0.2,0.2,0,0,-0.1,-0.4,0.2,-0.1,0,0,0,-0.1" 
class="s5_10"
>Intersentential switch</text>

<path d="M348,205.7l237.2,0l0,-25.3l-237.2,0l0,25.3Z" class="g2_10" />
<path d="M355.3,205.7l222.2,0l0,-25.3l-222.2,0l0,25.3Z" class="g2_10" />
<text 
transform="matrix(1.02, 0, 0, 1, 355, 198)"
dx="0,-0.1,0.2,0,-0.1,-0.1,0.1,-0.1,0.2,0.2,0,-0.2,0.2,0,0,-0.1,0,0.2,-0.1,0,0,0,-0.1,-0.2" 
class="s5_10"
>Intra-sentential switch </text>

<path d="M586.3,205.7l237.2,0l0,-25.3l-237.2,0l0,25.3Z" class="g2_10" />
<path d="M593.3,205.7l222.2,0l0,-25.3l-222.2,0l0,25.3Z" class="g2_10" />
<text 
transform="matrix(1.02, 0, 0, 1, 593, 198)"
dx="0,-0.1,0.2,0,-0.1,-0.1,0.1,0,0.2,-0.1,-0.1,0.2,-0.1,0,0,0,-0.1,0.2" 
class="s5_10"
>Intra-word switch </text>

<path d="M109.3,180.4l0.7,0l0,-0.7l-0.7,0l0,0.7Z" class="g3_10" />
<path d="M109.3,180.4l0.7,0l0,-0.7l-0.7,0l0,0.7Z" class="g3_10" />
<path d="M110,180.4l237.2,0l0,-0.7l-237.2,0l0,0.7Z" class="g3_10" />
<path d="M347.2,180.4l0.8,0l0,-0.7l-0.8,0l0,0.7Z" class="g3_10" />
<path d="M348,180.4l237.6,0l0,-0.7l-237.6,0l0,0.7Z" class="g3_10" />
<path d="M585.6,180.4l0.7,0l0,-0.7l-0.7,0l0,0.7Z" class="g3_10" />
<path d="M586.3,180.4l237.2,0l0,-0.7l-237.2,0l0,0.7Z" class="g3_10" />
<path d="M823.5,180.4l0.8,0l0,-0.7l-0.8,0l0,0.7Z" class="g3_10" />
<path d="M823.5,180.4l0.8,0l0,-0.7l-0.8,0l0,0.7Z" class="g3_10" />
<path d="M109.3,205.7l0.7,0l0,-25.3l-0.7,0l0,25.3Z" class="g3_10" />
<path d="M347.2,205.7l0.8,0l0,-25.3l-0.8,0l0,25.3Z" class="g3_10" />
<path d="M585.6,205.7l0.7,0l0,-25.3l-0.7,0l0,25.3Z" class="g3_10" />
<path d="M823.5,205.7l0.8,0l0,-25.3l-0.8,0l0,25.3Z" class="g3_10" />
<text 
x="116" 
y="224" 
dx="0,0.1,-0.1,-0.1,0.2,-0.1,-0.1,0.2,-0.1,0.2,0,-0.1,0,-0.1,0.2,0.2,-0.1,0.2,-0.2,0,-0.2,0.2,-0.1,0.2,0.2,-0.1,-0.1,0.2,-0.1,0,-0.2,0,-0.2,0.2" 
class="s6_10"
>Occurs outside sentence or at the </text>

<text 
x="116" 
y="246" 
dx="0,-0.1,0,-0.1,0.2,-0.1,0.2,0.2,0,0.2,-0.1,0.2,-0.4" 
class="s6_10"
>clause level </text>

<text 
x="355" 
y="224" 
dx="0,0.1,-0.1,-0.1,0.2,-0.1,-0.1,0.2,0,0,0,0.2,0,-0.2,0.2,0,-0.2,0.2,0.2,-0.5,0.2,0.2,-0.3,0.2,0.2,-0.1,-0.2,0.2,-0.1,-0.1,0.2,0,-0.2,0.2" 
class="s6_10"
>Occurs within the sentence or the </text>

<text 
x="355" 
y="246" 
dx="0,-0.1,0,-0.1,0.2,-0.1,0.2" 
class="s6_10"
>clause </text>

<text 
x="593" 
y="224" 
dx="0,0.1,-0.1,-0.1,0.2,-0.1,-0.1,0.2,0,0,0,0.2,0,-0.2,0.2,0,-0.2,0.2,0.2,0,-0.1,-0.1,-0.1,0.2,0,0,-0.1,0.2,0,0,-0.3,0.2,-0.1,0.2,-0.1,-0.2" 
class="s6_10"
>Occurs within the word itself, such </text>

<text 
x="593" 
y="246" 
dx="0,-0.1,-0.1,0.2,-0.1,0.2,0.1,-0.1,-0.1,-0.1,0.2,0.2,-0.2,0.2,0.2,-0.1,-0.1,0.2,0.2,-0.1,-0.1,-0.1,-0.1" 
class="s6_10"
>as a morpheme boundary </text>

<path d="M109.3,206.4l0.7,0l0,-0.7l-0.7,0l0,0.7Z" class="g3_10" />
<path d="M110,206.4l237.2,0l0,-0.7l-237.2,0l0,0.7Z" class="g3_10" />
<path d="M347.2,206.4l0.8,0l0,-0.7l-0.8,0l0,0.7Z" class="g3_10" />
<path d="M348,206.4l237.6,0l0,-0.7l-237.6,0l0,0.7Z" class="g3_10" />
<path d="M585.6,206.4l0.7,0l0,-0.7l-0.7,0l0,0.7Z" class="g3_10" />
<path d="M586.3,206.4l237.2,0l0,-0.7l-237.2,0l0,0.7Z" class="g3_10" />
<path d="M823.5,206.4l0.8,0l0,-0.7l-0.8,0l0,0.7Z" class="g3_10" />
<path d="M109.3,250.8l0.7,0l0,-44.4l-0.7,0l0,44.4Z" class="g3_10" />
<path d="M347.2,250.8l0.8,0l0,-44.4l-0.8,0l0,44.4Z" class="g3_10" />
<path d="M585.6,250.8l0.7,0l0,-44.4l-0.7,0l0,44.4Z" class="g3_10" />
<path d="M823.5,250.8l0.8,0l0,-44.4l-0.8,0l0,44.4Z" class="g3_10" />
<text 
transform="matrix(0.95, 0, -0.32, 0.95, 116, 269)"
class="s7_10"
>我的天！</text>

<text 
x="195" 
y="269" 
dx="0,0,0.2,-0.1,0,-0.2,0.2,-0.1,-0.1,-0.1,0.2,0.2,0.2,-0.5,0.2,-0.2,0.2,-0.1,0.2,0" 
class="s6_10"
>What happened here? </text>

<text 
x="116" 
y="294" 
dx="0,0,0.1,-0.1,0.2,-0.1,-0.1,-0.1,0,0.2,0.1,-0.1,0.2,-0.1,0,0,-0.1,0.2,0" 
class="s6_10"
>(Mandarin-English) </text>

<text 
x="355" 
y="269" 
dx="0,-0.1,0.2,0,0.1,-0.1,0.2,-0.1,-0.1" 
class="s6_10"
>Let’s go </text>

<text 
transform="matrix(1.02, 0, 0, 1, 409, 269)"
dx="0,0.1,0.3,-0.1,-0.1" 
class="s8_10"
>makan</text>

<text 
x="456" 
y="269" 
dx="0,-0.1,0,-0.2,0.2,0.2,-0.1,-0.3,0.2,-0.1" 
class="s6_10"
>dinner, I </text>

<text 
transform="matrix(1.02, 0, 0, 1, 514, 269)"
dx="0,-0.1,0.2,-0.1,-0.1" 
class="s8_10"
>sudah</text>

<text 
transform="matrix(1.02, 0, 0, 1, 355, 291)"
dx="0,0,0.3,-0.1,-0.1" 
class="s8_10"
>lapar</text>

<text 
x="386" 
y="291" 
class="s6_10"
>. </text>

<text 
x="355" 
y="313" 
dx="0,0,0.1,-0.1,0,-0.1,-0.1,0.1,-0.1,0.2,-0.1,0,0,-0.1,0.2,0" 
class="s6_10"
>(Malay-English) </text>

<text 
x="593" 
y="269" 
dx="0,-0.1" 
class="s6_10"
>I </text>

<text 
transform="matrix(1.02, 0, 0, 1, 602, 269)"
dx="0,0,0.2" 
class="s8_10"
>ter</text>

<text 
x="618" 
y="269" 
class="s9_10"
>-</text>

<text 
x="625" 
y="269" 
dx="0,-0.1,-0.1,0.2,-0.1,-0.1,0.2,-0.1,0.2,-0.3,0.2,-0.2,0.2,-0.1,-0.1,0,0,0.2,-0.1,0.2,0,0,-0.1,0.2,0" 
class="s6_10"
>pressed the call button. </text>

<text 
x="593" 
y="291" 
dx="0,0,0.1,-0.1,0,-0.1,-0.1,0.2,-0.1,-0.1,0.2,0,0,0,0.2,-0.2,-0.1,0,0.2,0.2,-0.1,0.2,0,-0.1,0.2,-0.1,0.2,-0.1,0,0,-0.1,0.2" 
class="s6_10"
>(Malay prefix joined to English </text>

<text 
x="593" 
y="313" 
dx="0,0,-0.1,-0.1,-0.1,0.3" 
class="s6_10"
>word) </text>

<path d="M109.3,251.5l0.7,0l0,-0.7l-0.7,0l0,0.7Z" class="g3_10" />
<path d="M110,251.5l237.2,0l0,-0.7l-237.2,0l0,0.7Z" class="g3_10" />
<path d="M347.2,251.5l0.8,0l0,-0.7l-0.8,0l0,0.7Z" class="g3_10" />
<path d="M348,251.5l237.6,0l0,-0.7l-237.6,0l0,0.7Z" class="g3_10" />
<path d="M585.6,251.5l0.7,0l0,-0.7l-0.7,0l0,0.7Z" class="g3_10" />
<path d="M586.3,251.5l237.2,0l0,-0.7l-237.2,0l0,0.7Z" class="g3_10" />
<path d="M823.5,251.5l0.8,0l0,-0.7l-0.8,0l0,0.7Z" class="g3_10" />
<path d="M109.3,318.3l0.7,0l0,-66.8l-0.7,0l0,66.8Z" class="g3_10" />
<path d="M109.3,319l0.7,0l0,-0.7l-0.7,0l0,0.7Z" class="g3_10" />
<path d="M109.3,319l0.7,0l0,-0.7l-0.7,0l0,0.7Z" class="g3_10" />
<path d="M110,319l237.2,0l0,-0.7l-237.2,0l0,0.7Z" class="g3_10" />
<path d="M347.2,318.3l0.8,0l0,-66.8l-0.8,0l0,66.8Z" class="g3_10" />
<path d="M347.2,319l0.8,0l0,-0.7l-0.8,0l0,0.7Z" class="g3_10" />
<path d="M348,319l237.6,0l0,-0.7l-237.6,0l0,0.7Z" class="g3_10" />
<path d="M585.6,318.3l0.7,0l0,-66.8l-0.7,0l0,66.8Z" class="g3_10" />
<path d="M585.6,319l0.7,0l0,-0.7l-0.7,0l0,0.7Z" class="g3_10" />
<path d="M586.3,319l237.2,0l0,-0.7l-237.2,0l0,0.7Z" class="g3_10" />
<path d="M823.5,318.3l0.8,0l0,-66.8l-0.8,0l0,66.8Z" class="g3_10" />
<path d="M823.5,319l0.8,0l0,-0.7l-0.8,0l0,0.7Z" class="g3_10" />
<path d="M823.5,319l0.8,0l0,-0.7l-0.8,0l0,0.7Z" class="g3_10" />
<text 
x="110" 
y="337" 
dx="0,-0.1,-0.1,-0.1,0,0.2,0.2,-0.1,0.2,0,0.2,-0.1,0.2,-0.1,-0.2,0.2,0.2,-0.1,-0.1,0.1,0.1,-0.1,-0.2,0.2,0,-0.1,-0.1,0.2,-0.1,0.2,-0.1,0,0.2,-0.1,-0.1,-0.1,0.2,0.1,-0.1,0,0,0,-0.1,0.2,0,0.2,-0.1,0.2,-0.3,0.2,-0.1,0,0.2,-0.1,-0.1,-0.1,0.2,-0.1,-0.1,0.2,0,-0.1,0,-0.1,0,0" 
class="s6_10"
>Table 3 – Three common types of code-switching that occurs [8,9]. </text>

<text 
x="163" 
y="376" 
dx="0,0,0.2,-0.2,0.2,0.2,0,-0.3,0.2,-0.1,-0.1,0.1,0.2,-0.1,0.2,0,-0.1,0.2,-0.1,-0.1,-0.1,0.2,0.1,-0.1,0,0,0,-0.1,0.2,0,0.2,-0.1,0,0.2,-0.4,0,0.2,-0.1,-0.1,0.2,0.2,-0.1,-0.1,0,0.1,-0.1,-0.1,0,0,-0.1,0.2,-0.1,0.2,0.2,-0.1,-0.1,-0.1,-0.1,0.2,-0.2,0.2,-0.1,-0.1,0,0.2,0.2,0,0.2,0,-0.1,-0.2,0,0.2,-0.1,-0.2,0.2,0.2,0,-0.1,-0.1,0.2,-0.1,0,-0.2,0.2,-0.1,-0.2,0.2,0" 
class="s6_10"
>When it comes to code-switching, it can primarily be broken down into three types, namely</text>

<text 
x="750" 
y="376" 
class="s9_10"
>, </text>

<text 
x="110" 
y="420" 
dx="0,0,0.2,0,0.2,-0.1,-0.1,-0.2,0.2,0,-0.2,0.2,0,0,-0.1,0,0.2,-0.1,0,0,0,-0.1,0.2,-0.4,0.2,-0.1,0,0.2,0,0.2,0,-0.1,-0.1,0.1,-0.1,-0.2,0.2,-0.3,0.2,0.2,0,0,-0.1,0,0.2,-0.1,0,0,0,-0.1,0.2,-0.4,0.2,-0.1,0" 
class="s9_10"
>intersentential switching, intra-sentential switching, </text>

<text 
x="442" 
y="420" 
dx="0,-0.1,0.2" 
class="s6_10"
>and</text>

<text 
x="470" 
y="420" 
dx="0,-0.4,-0.2,0,-0.1,-0.1,0.1,0,-0.1,-0.1,-0.1,0.2,-0.1,0,0,0,-0.1,0.2,0,0.2" 
class="s9_10"
>intra-word switching</text>

<text 
x="601" 
y="420" 
dx="0,0,0.2,-0.1,0.2,0.2,0.2,-0.1,0.2,-0.1,-0.1,-0.1,-0.1,0.2,0.2,-0.1,0,0.2,-0.3,0.2,0,-0.1,0.2,-0.1,-0.1,-0.1,-0.2,0.2,-0.1,0,0.2,0,-0.1,0.2,0,-0.1" 
class="s6_10"
>. The purpose of this project is to </text>

<text 
x="110" 
y="464" 
dx="0,-0.1,0.2,-0.1,0,-0.1,0.2,0.2,-0.1,0.2,-0.1,-0.1,0,0,0,-0.1,-0.1,0.2,0.2,0,-0.1,-0.1,0.2,-0.1,0,-0.1,0,0,-0.1,0.2,0.2,-0.1,0.2,-0.1,-0.1,0,-0.1,0.2,-0.2,0.2,-0.1,0,0.2,-0.1,0.2,-0.5,0.2,-0.1,-0.1,0.2,0.2,0,0,-0.1,0.2,-0.1,-0.1,-0.1,0,0,-0.1,-0.1,0,0.2,0.2,-0.1,0.2,-0.1,0,0,-0.1,0.2,0,-0.1,-0.1,0.2,-0.1,0,-0.1,0,0,-0.1,0.2,0.2,-0.1,0.2,-0.1,-0.1,0,-0.1,0.2,-0.1,0.2,0,0.2,-0.1,-0.3,0.2,0,-0.1,0.2,-0.1,-0.1,-0.1,-0.1,-0.1,0,0.2,0.2,-0.1,0" 
class="s6_10"
>devise a software translation service using currently available public translation services that is capable of </text>

<text 
x="110" 
y="509" 
dx="0,0,-0.1,-0.1,0.2,-0.1,0,-0.1,0,0,0.2,-0.1,0.2,-0.1,0.2,0.2,-0.3,0.2,0.2,-0.1,0.2,-0.5,0.2,0,0.2,-0.1,0,-0.2,0.2,-0.1,-0.1,0.2,0.2,-0.5,0.2,-0.2,0.2,0.2,-0.1,0,0,0,-0.1,0.2,0.2,-0.5" 
class="s6_10"
>translating sentences that have been switched </text>

<text 
x="409" 
y="509" 
dx="0,0,0.2,-0.3,0.2,-0.1,-0.1,0.2,0.2,-0.3,0.2,0.2,-0.3,0,-0.1,0,0,-0.1,0" 
class="s9_10"
>intersententially, </text>

<text 
x="518" 
y="509" 
dx="0,-0.1,-0.1,0.2,0,0.2,0,0,0.2,-0.1,-0.1" 
class="s6_10"
>as well as </text>

<text 
x="585" 
y="509" 
dx="0,0,0.2,0,-0.1,-0.1,0.1,-0.1,-0.2,0.2,-0.3,0.2,0.2,0,0,-0.1,0,0,-0.1" 
class="s9_10"
>intra-sententially.</text>

<text 
transform="matrix(1.02, 0, 0, 1, 699, 509)"
dx="0,-0.1,0.2,0.2,0.2,-0.1,-0.1,-0.1,0,0.2,-0.2,0.2,0,-0.1" 
class="s10_10"
>The system is </text>

<text 
transform="matrix(1.02, 0, 0, 1, 793, 509)"
dx="0,0.2,-0.1" 
class="s8_10"
>not</text>

<text 
transform="matrix(1.02, 0, 0, 1, 110, 553)"
dx="0,-0.1,0.2,-0.1,0.4,-0.1,0.2,0.2,-0.1,0.2,0,-0.5,0.2,-0.2,0.2,-0.1,0.2,-0.1,-0.1,0,-0.1,0.2,-0.1" 
class="s10_10"
>designed to understand </text>

<text 
transform="matrix(1.02, 0, 0, 1, 266, 553)"
dx="0,0,0.2,0,-0.1,-0.1,0.1,0,-0.1,-0.1" 
class="s8_10"
>intra-word</text>

<text 
transform="matrix(1.02, 0, 0, 1, 337, 553)"
dx="0,-0.1,0,0,0.4,-0.1,0.2,0,0.2" 
class="s8_10"
>switching</text>

<text 
x="398" 
y="553" 
dx="0,0,0.2,0,-0.1,-0.1,0.2,-0.3,0.2,-0.2,0.2,-0.1,-0.1,-0.1,0.2,0.2,0.2,-0.1,0,0.2,-0.3,0.2,0,-0.1,0.2,-0.1,-0.1,-0.1,-0.2,0.2,-0.1,0,0" 
class="s6_10"
>, for the scope of this project. </text>



<!-- Any embedded fonts defined here -->
<style type="text/css" ><![CDATA[

@font-face {
	font-family: ArialNovaCond-Bold_d;
	src: url("fonts/ArialNovaCond-Bold_d.woff") format("woff");
}

@font-face {
	font-family: ArialNova-Light_n;
	src: url("fonts/ArialNova-Light_n.woff") format("woff");
}

@font-face {
	font-family: Calibri-Light_r;
	src: url("fonts/Calibri-Light_r.woff") format("woff");
}

@font-face {
	font-family: ArialNovaCond-Light_9;
	src: url("fonts/ArialNovaCond-Light_9.woff") format("woff");
}

@font-face {
	font-family: ArialNovaCond-LightItalic_v;
	src: url("fonts/ArialNovaCond-LightItalic_v.woff") format("woff");
}

@font-face {
	font-family: DengXian-Regular_ia;
	src: url("fonts/DengXian-Regular_ia.woff") format("woff");
}

]]></style>

</svg>
