<?xml version="1.0" encoding="UTF-8" standalone="no"?>
<!DOCTYPE svg PUBLIC "-//W3C//DTD SVG 1.1//EN"
"http://www.w3.org/Graphics/SVG/1.1/DTD/svg11.dtd">


<!-- Page 17 -->
<svg x="0" y="0" width="935" height="1210" viewBox="0 0 935 1210" version="1.1" xmlns="http://www.w3.org/2000/svg" xmlns:xlink="http://www.w3.org/1999/xlink"
style="display: block;margin-left: auto;margin-right: auto;">
<defs>

<style type="text/css"><![CDATA[

.g1_17{
fill: #D9D9D9;
}
.g2_17{
fill: #70AD47;
}
.g3_17{
}

.s1_17{
font-size: 18.33px;
font-family: ArialNovaCond-Bold_d;
fill: #5A5A5A;
}
.s2_17{
font-size: 12.10px;
font-family: ArialNova-Light_n;
fill: #7F7F7F;
}
.s3_17{
font-size: 24.57px;
font-family: Calibri-Light_r;
fill: #212934;
}
.s4_17{
font-size: 19.80px;
font-family: Calibri-Light_r;
fill: #212934;
}
.s5_17{
font-size: 17.97px;
font-family: ArialNovaCond-Light_9;
fill: #FFFFFF;
}
.s6_17{
font-size: 17.97px;
font-family: ArialNovaCond-Light_9;
fill: #5A5A5A;
}
.s7_17{
font-size: 18.33px;
font-family: ArialNovaCond-Light_9;
fill: #5A5A5A;
}
.s8_17{
font-size: 18.33px;
font-family: ArialNovaCond-LightItalic_v;
fill: #5A5A5A;
}

]]></style>

</defs>
<path d="M0,0
L0,1210
L935,1210
L935,0 Z " 
fill="#FFFFFF" stroke="none" />
<text 
x="110" 
y="1106" 
dx="0,0,0,0.2" 
class="s1_17"
>17 |</text>

<text 
x="141" 
y="1106" 
dx="0,4.3,4.9,0,1.9,0,1.6,0,1.3,0,1.7,0,1.7,0,1.2,0,1.9,0,1.6,4.7,4.9,0,1.3,0,1.7,0,1.6,0,1.5,0,1.6,0,1.9,0,1.2,0,1.5,0,1.9,0,1.5,4.5,4.9,0,1.7,0,1.2,0,1.9,0,1.9,0,1.2,4.5,4.5,0,1.9,0,1.5,4.7,4.9,0,1.3,0,1.5,0,1.9,0,1.5,0,1.5,0,1.5,0,1.5,0,1.9,0,1.3,0,1.9,0,1.6,4.6,4.5,0,1.9,0,1.5,0,1.7,0,1.6,0,1.4,0,1.9,0,1.3,0,1.9,0,1.5,0,1.7,0,1.5,0,1.5,0,1.9" 
class="s2_17"
>A W e b - b a s e d T r a n s l a t i o n S y s t e m f o r M u l t i l i n g u a l C o d e - s w i t c h i n g</text>

<path d="M107.8,1086.4l719.4,0l0,-0.7l-719.4,0l0,0.7Z" class="g1_17" />
<text 
x="110" 
y="133" 
class="s3_17"
>S</text>

<text 
x="122" 
y="133" 
dx="0,1.7,1.3,1.8,1.3,1.6" 
class="s4_17"
>YSTEM </text>

<text 
x="190" 
y="133" 
class="s3_17"
>C</text>

<text 
x="204" 
y="133" 
dx="0,1.4,2,1.7,1.4,1.7,1.3,1.7,1.8" 
class="s4_17"
>OMPONENTS</text>

<path d="M238.3,212.3l228.8,0l0,-28.2l-228.8,0l0,28.2Z" class="g2_17" />
<path d="M246,209.4l213.1,0l0,-22.4L246,187l0,22.4Z" class="g2_17" />
<text 
transform="matrix(1.02, 0, 0, 1, 311, 204)"
dx="0,0.1,-0.1,0.1,0.2,-0.1,0.2,-0.2,0.2,0" 
class="s5_17"
>Components</text>

<path d="M467.9,212.3l228.8,0l0,-28.2l-228.8,0l0,28.2Z" class="g2_17" />
<path d="M475.6,209.4l213.4,0L689,187l-213.4,0l0,22.4Z" class="g2_17" />
<text 
transform="matrix(1.02, 0, 0, 1, 545, 204)"
dx="0,0.2,0.2,-0.1,-0.1,-0.1,0,-0.1,0,0.4,-0.1,-0.2" 
class="s5_17"
>Description </text>

<path d="M237.6,184.1l0.7,0l0,-0.8l-0.7,0l0,0.8Z" class="g3_17" />
<path d="M237.6,184.1l0.7,0l0,-0.8l-0.7,0l0,0.8Z" class="g3_17" />
<path d="M238.3,184.1l228.8,0l0,-0.8l-228.8,0l0,0.8Z" class="g3_17" />
<path d="M467.1,184.1l0.8,0l0,-0.8l-0.8,0l0,0.8Z" class="g3_17" />
<path d="M467.9,184.1l229.1,0l0,-0.8l-229.1,0l0,0.8Z" class="g3_17" />
<path d="M697,184.1l0.8,0l0,-0.8l-0.8,0l0,0.8Z" class="g3_17" />
<path d="M697,184.1l0.8,0l0,-0.8l-0.8,0l0,0.8Z" class="g3_17" />
<path d="M237.6,212.3l0.7,0l0,-28.2l-0.7,0l0,28.2Z" class="g3_17" />
<path d="M467.1,212.3l0.8,0l0,-28.2l-0.8,0l0,28.2Z" class="g3_17" />
<path d="M697,212.3l0.8,0l0,-28.2l-0.8,0l0,28.2Z" class="g3_17" />
<text 
transform="matrix(1.02, 0, 0, 1, 288, 236)"
dx="0,-0.1,-0.1,0.2,-0.1,0.2,-0.1,-0.1,0.2,0.2,0.2,0.2,-0.3,0.2,-0.1,0,0,-0.1,-0.2" 
class="s6_17"
>Language Detection </text>

<text 
x="475" 
y="231" 
dx="0,0.1,-0.1,0,0.1,0,0,0,-0.1,0.2,0.2,0,-0.5,0.2,-0.1,0.2,-0.1,-0.1,0.2,0.2,-0.1,0.2,-0.3,0.2,-0.1,0,0,-0.1,0.2,0.2,-0.1,0" 
class="s7_17"
>Primitive language detection of </text>

<text 
x="475" 
y="253" 
dx="0,0.2,-0.1,0.2,-0.1,-0.1,0.2,0,-0.1,-0.1,-0.1,0.2,0,0.2,0.2,-0.3,0.2,-0.2,0.2,-0.1,-0.2,0.2,0,-0.2,0.2,-0.1,0.2,-0.3" 
class="s7_17"
>every word in the sentence. </text>

<path d="M237.6,213l0.7,0l0,-0.7l-0.7,0l0,0.7Z" class="g3_17" />
<path d="M238.3,213l228.8,0l0,-0.7l-228.8,0l0,0.7Z" class="g3_17" />
<path d="M467.1,213l0.8,0l0,-0.7l-0.8,0l0,0.7Z" class="g3_17" />
<path d="M467.9,213L697,213l0,-0.7l-229.1,0l0,0.7Z" class="g3_17" />
<path d="M697,213l0.8,0l0,-0.7l-0.8,0l0,0.7Z" class="g3_17" />
<path d="M237.6,257.4l0.7,0l0,-44.4l-0.7,0l0,44.4Z" class="g3_17" />
<path d="M467.1,257.4l0.8,0l0,-44.4l-0.8,0l0,44.4Z" class="g3_17" />
<path d="M697,257.4l0.8,0l0,-44.4l-0.8,0l0,44.4Z" class="g3_17" />
<text 
transform="matrix(1.02, 0, 0, 1, 292, 326)"
dx="0,0.1,-0.1,0.1,-0.1,0.2,-0.1,-0.1,-0.1,0.2,0.2,0.1,-0.2,0.2,-0.1,-0.1" 
class="s6_17"
>Homograph Check </text>

<text 
x="475" 
y="276" 
dx="0,0.1,0.2,0.2,-0.1,-0.1,0.2,0,-0.1,-0.1,0.2,-0.1,-0.1,-0.1,-0.1,0,-0.1,0,0.2,0.2,0.2,-0.1,0.1,-0.1,-0.1,-0.1,-0.1,-0.1,0.2,-0.1" 
class="s7_17"
>Check for possible homographs </text>

<text 
x="475" 
y="298" 
dx="0,-0.1,-0.1,0.2,-0.1,-0.1,0.1,-0.1,0.3,-0.1,0,0.2,-0.1,0.2,0,-0.1,0.2,-0.1,0.2,-0.1,-0.1,0.2" 
class="s7_17"
>by comparing language </text>

<text 
x="475" 
y="320" 
dx="0,-0.1,0.2,-0.1,0.2,0.2,0.2,-0.1,-0.2,0.2,0,-0.2,0,-0.1,0" 
class="s7_17"
>sequence (e.g. </text>

<text 
x="575" 
y="320" 
dx="0,0,-0.2,0.2,0,0.2,-0.4,0.2,0.2,-0.4,0.1,-0.2" 
class="s8_17"
>“me” in “me </text>

<text 
x="475" 
y="342" 
dx="0,0,0,-0.1,0.1,-0.1,0,0.2,0,-0.1,0.2,0.2,0,-0.1,0.2,0,-0.1,0.2,-0.1,-0.1,-0.1,-0.1,-0.1,-0.1,0,0.2,0.2,0,-0.1,0.2,-0.1,0.2,0.2,-0.1" 
class="s8_17"
>llamo” is highly probable to be a </text>

<text 
x="475" 
y="364" 
dx="0,0,-0.1,-0.1,0.2,0,-0.1,0.2,0.2,0,-0.1,-0.1,-0.1,0.2,-0.1,0.2,-0.1,-0.1,0.2,-0.1,0.2,0.2,0,0,0.2,0,-0.5" 
class="s8_17"
>Spanish word because it is </text>

<text 
x="475" 
y="387" 
dx="0,0,-0.1,0,0,-0.1,0,0.2,-0.1,0.2,-0.1,-0.1,0.2,-0.1,0.2,0,-0.1,-0.1,0.2,0,-0.1,0.2,0.2,0,-0.1,-0.1,-0.1,0" 
class="s8_17"
>followed by a Spanish word).</text>

<path d="M237.6,258.1l0.7,0l0,-0.7l-0.7,0l0,0.7Z" class="g3_17" />
<path d="M238.3,258.1l228.8,0l0,-0.7l-228.8,0l0,0.7Z" class="g3_17" />
<path d="M467.1,258.1l0.8,0l0,-0.7l-0.8,0l0,0.7Z" class="g3_17" />
<path d="M467.9,258.1l229.1,0l0,-0.7l-229.1,0l0,0.7Z" class="g3_17" />
<path d="M697,258.1l0.8,0l0,-0.7l-0.8,0l0,0.7Z" class="g3_17" />
<path d="M237.6,391.2l0.7,0l0,-133.1l-0.7,0l0,133.1Z" class="g3_17" />
<path d="M467.1,391.2l0.8,0l0,-133.1l-0.8,0l0,133.1Z" class="g3_17" />
<path d="M697,391.2l0.8,0l0,-133.1l-0.8,0l0,133.1Z" class="g3_17" />
<text 
transform="matrix(1.02, 0, 0, 1, 301, 415)"
dx="0,0,0.2,-0.1,-0.1,0.2,0.1,-0.2,0.2,0.2,-0.1,0,0.2,-0.5" 
class="s6_17"
>Word Chunking </text>

<text 
x="475" 
y="409" 
dx="0,0.1,-0.1,-0.1,0.2,-0.1,0,0.2,-0.1,0.2,0,-0.1,-0.1,-0.1,-0.1,0.2,-0.1,0,0.2,0,0.2,-0.2,0.2,-0.1,-0.1,0.1,0.2" 
class="s7_17"
>Grouping words of the same </text>

<text 
x="475" 
y="432" 
dx="0,0,-0.1,0.2,-0.1,0.2,-0.1,-0.1,0.2,0.2,0,0.2,0,-0.5,0.2,0,0,-0.1,0.2,-0.1,0,0.2,0.2,-0.5,0.2,-0.2,0.2,-0.1" 
class="s7_17"
>language into its own chunk </text>

<path d="M237.6,392l0.7,0l0,-0.8l-0.7,0l0,0.8Z" class="g3_17" />
<path d="M238.3,392l228.8,0l0,-0.8l-228.8,0l0,0.8Z" class="g3_17" />
<path d="M467.1,392l0.8,0l0,-0.8l-0.8,0l0,0.8Z" class="g3_17" />
<path d="M467.9,392L697,392l0,-0.8l-229.1,0l0,0.8Z" class="g3_17" />
<path d="M697,392l0.8,0l0,-0.8l-0.8,0l0,0.8Z" class="g3_17" />
<path d="M237.6,436.3l0.7,0l0,-44.3l-0.7,0l0,44.3Z" class="g3_17" />
<path d="M467.1,436.3l0.8,0l0,-44.3l-0.8,0l0,44.3Z" class="g3_17" />
<path d="M697,436.3l0.8,0l0,-44.3l-0.8,0l0,44.3Z" class="g3_17" />
<text 
transform="matrix(1.02, 0, 0, 1, 317, 460)"
dx="0,0.2,-0.1,-0.1,0.2,-0.1,0,-0.1,0,0,-0.1,0.2" 
class="s6_17"
>Translation </text>

<text 
x="475" 
y="455" 
dx="0,-0.1,-0.1,-0.1,0.2,-0.1,0,-0.1,0,0,0.2,-0.1,0.2,0.2,-0.1,-0.1,0.2,0.2,0,-0.1,0.2,-0.1,0.2,-0.1,-0.1,-0.2,0.2,-0.1,0.2,-0.2,0.2,-0.1" 
class="s7_17"
>Translating each language chunk </text>

<text 
x="475" 
y="477" 
dx="0,-0.1,-0.1,-0.1,0.2,-0.1,-0.1,0,0.2,-0.1,0.2,0,-0.1,0.2,0,0,-0.1,0.2,0,-0.1,0.2,-0.1,0.2,-0.1,-0.1,0.2,0.2,-0.1,-0.1,-0.1,0.2,-0.1" 
class="s7_17"
>according to its language group </text>

<path d="M237.6,437.1l0.7,0l0,-0.8l-0.7,0l0,0.8Z" class="g3_17" />
<path d="M238.3,437.1l228.8,0l0,-0.8l-228.8,0l0,0.8Z" class="g3_17" />
<path d="M467.1,437.1l0.8,0l0,-0.8l-0.8,0l0,0.8Z" class="g3_17" />
<path d="M467.9,437.1l229.1,0l0,-0.8l-229.1,0l0,0.8Z" class="g3_17" />
<path d="M697,437.1l0.8,0l0,-0.8l-0.8,0l0,0.8Z" class="g3_17" />
<path d="M237.6,481.4l0.7,0l0,-44.3l-0.7,0l0,44.3Z" class="g3_17" />
<path d="M237.6,482.2l0.7,0l0,-0.8l-0.7,0l0,0.8Z" class="g3_17" />
<path d="M237.6,482.2l0.7,0l0,-0.8l-0.7,0l0,0.8Z" class="g3_17" />
<path d="M238.3,482.2l228.8,0l0,-0.8l-228.8,0l0,0.8Z" class="g3_17" />
<path d="M467.1,481.4l0.8,0l0,-44.3l-0.8,0l0,44.3Z" class="g3_17" />
<path d="M467.1,482.2l0.8,0l0,-0.8l-0.8,0l0,0.8Z" class="g3_17" />
<path d="M467.9,482.2l229.1,0l0,-0.8l-229.1,0l0,0.8Z" class="g3_17" />
<path d="M697,481.4l0.8,0l0,-44.3l-0.8,0l0,44.3Z" class="g3_17" />
<path d="M697,482.2l0.8,0l0,-0.8l-0.8,0l0,0.8Z" class="g3_17" />
<path d="M697,482.2l0.8,0l0,-0.8l-0.8,0l0,0.8Z" class="g3_17" />
<text 
x="163" 
y="539" 
dx="0,-0.1,0.2,0,-0.1,0.2,0,-0.1,-0.1,0.2,-0.1,0,-0.1,0,0,-0.1,0.2,0.2,-0.1,-0.1,-0.1,0,0.2,0.1,0.2,0,-0.1,0.2,-0.5,0.2,0,0.2,-0.1,0.1,-0.1,-0.1,-0.1,0.2,-0.1,0.2,0,-0.1,-0.1,0.2,-0.1,0,-0.1,0,-0.1,-0.1,0,0.2,-0.1,0.2,0,0,0,-0.2,0.2,-0.1,0,0.2,-0.1,0.2,0,-0.2,0.2,0.2,-0.4,0.2,-0.1,0.2,0,-0.1,-0.1,0.2,0,-0.1,-0.1,0.2,0,-0.3,0.2,0.2,-0.5,0.2,0,0.2,-0.1,0.2,-0.1,-0.1,-0.1,0,0,-0.1,-0.1,0,0,-0.1,0.2" 
class="s7_17"
>This translation system is a web-based translator, built using the Angular front-end web application </text>

<text 
x="110" 
y="583" 
dx="0,-0.1,0,-0.1,0,0,-0.1,-0.1,0.1,0,0.2,-0.1,0.2,-0.1,0.2,-0.1,0.2,-0.1,0,-0.1,-0.1,0.2,-0.1,0.2,0.2,-0.1,0,0.2,-0.1,0.2,0,-0.2,0.2,0.2,-0.1,0,-0.1,0.2,-0.1,-0.1,-0.1,0.2,0.2,-0.1,0,-0.1,0,0,-0.1,-0.1,0.1,0,0.2,-0.1,-0.2,0.2,0.2,0,-0.4,-0.1,0.2,-0.1,0,-0.1,0,-0.1,-0.1,0.2,-0.1,-0.1,-0.1,0,0.2,0.1,0.2,-0.1,-0.1,0.2,-0.1,0,-0.1,0,-0.1,0.2,-0.1,0,0.2,-0.1,0.2,-0.1,0.2,-0.1,-0.1,0.2,-0.1,0.1,-0.1,0,-0.1,0.2,0.2,-0.1,-0.1,-0.1,-0.1,-0.1,-0.1,0.1" 
class="s7_17"
>platform, and deployed using the Firebase platform. The translator system consists of a server-side program </text>

<text 
x="110" 
y="628" 
dx="0,0,0.2,-0.1,0,0.2,-0.1,-0.1,0.2,0,-0.1,0,0.2,-0.1,0.2,-0.3,0.2,-0.2,0.2,-0.1,-0.1,-0.1,0,0.2,0.1,0.2,-0.1,-0.1,0.1,-0.1,-0.1,0.2,-0.2,0.2,0,-0.1,0.2,-0.1,0.2,-0.1,0.2,-0.1,-0.1,0.1,-0.2,0.2,0.2,0,-0.1,-0.1,0,0.2,-0.5,-0.2,-0.1,0,-0.1,0.2,-0.1,0.2,-0.1,0,-0.1,0.2,-0.1,-0.1,-0.1,0.2,0.2,0.1,0,-0.1,0.2,-0.1,0.2,-0.1,-0.2,0.2,-0.1,0,0,-0.1,0.2,0.2,0,0.1,-0.1,0.2,0,0,-0.3,0.2,0.2,-0.3,0.2,-0.2,0.2,-0.4,0.2,-0.1,0.2,0,-0.1,-0.1" 
class="s7_17"
>that contains the system components and communicates via a Firebase Cloud Function API with the Angular </text>

<text 
x="110" 
y="672" 
dx="0,0,-0.1,-0.1,0.2,0,0.1,0.2,0.2,-0.1,-0.3,0.2,-0.1,0.2,-0.2,0.2,-0.1,-0.1,-0.1,0.2,0.2,-0.1,0,0.2,-0.3,0.2,0,-0.1,0.2,0,-0.1,-0.1,0.2,-0.1,0,-0.1,0,-0.1,-0.1,0.2,0,-0.1,0.2,0.1,-0.1,-0.1,0.2,-0.2,0.2,-0.1,0.2,-0.1,0,0.2,-0.1,0.2,-0.5,0.2,-0.1,-0.1,0,0.2,-0.1,0,0,0,0.2,-0.1,-0.2,0.2,0,0.2,-0.1,-0.1,0.1,-0.1,-0.1,0.2,-0.2,0.2,0,-0.1,0,0.2,0.2,-0.1,-0.1,-0.2,0.2,0,0,0,-0.2,0.2,0,0,-0.1,0.2,-0.1,0,-0.2,0.2,-0.1,-0.1,0.2,-0.1,0,0,0,-0.1" 
class="s7_17"
>front-end. The core of this translator is made up of several different components, each with its own specific </text>

<text 
x="110" 
y="716" 
dx="0,-0.1,-0.1,0,0.2,0.2,0,0.2,-0.2,0,-0.2,0.2,0.2,0,-0.1,-0.1,0.2,-0.1,0,-0.1,0,0,-0.1,0.2,0.2,-0.1,-0.1,-0.1,-0.1,0.2,-0.1,-0.1,0,0.2,0.2,-0.1,-0.2,0.2,0,-0.1,0" 
class="s7_17"
>role in the translation process, namely, </text>

<text 
x="364" 
y="716" 
dx="0,0,-0.1,0.2,-0.1,0.2,-0.1,-0.1,-0.2,0.2,-0.1,0.2,0,0.2,-0.1,0,0,-0.5" 
class="s8_17"
>language detection</text>

<text 
x="485" 
y="716" 
class="s7_17"
>, </text>

<text 
x="494" 
y="716" 
dx="0,0.2,-0.1,0.1,-0.1,-0.1,-0.1,-0.1,-0.1,0.2,0.2,-0.1,0.2,0.2,-0.1,-0.1,0,0.2" 
class="s8_17"
>homograph checking</text>

<text 
x="629" 
y="716" 
class="s7_17"
>, </text>

<text 
x="638" 
y="716" 
dx="0,0,-0.1,-0.1,-0.1,0.2,-0.1,0.2,0.2,0.2,-0.1,-0.4,0.2" 
class="s8_17"
>word chunking</text>

<text 
x="734" 
y="716" 
dx="0,0,0.2,-0.1,-0.1,0.2,0,0.2,0,-0.4,0.2,-0.1,-0.1" 
class="s7_17"
>, as well as </text>

<text 
x="110" 
y="760" 
dx="0,0,-0.1,-0.1,0.2,-0.1,0,-0.1,0,0,-0.1" 
class="s8_17"
>translation</text>

<text 
x="176" 
y="760" 
class="s7_17"
>. </text>



<!-- Any embedded fonts defined here -->
<style type="text/css" ><![CDATA[

@font-face {
	font-family: ArialNovaCond-Bold_d;
	src: url("fonts/ArialNovaCond-Bold_d.woff") format("woff");
}

@font-face {
	font-family: ArialNova-Light_n;
	src: url("fonts/ArialNova-Light_n.woff") format("woff");
}

@font-face {
	font-family: Calibri-Light_r;
	src: url("fonts/Calibri-Light_r.woff") format("woff");
}

@font-face {
	font-family: ArialNovaCond-Light_9;
	src: url("fonts/ArialNovaCond-Light_9.woff") format("woff");
}

@font-face {
	font-family: ArialNovaCond-LightItalic_v;
	src: url("fonts/ArialNovaCond-LightItalic_v.woff") format("woff");
}

]]></style>

</svg>
