<?xml version="1.0" encoding="UTF-8" standalone="no"?>
<!DOCTYPE svg PUBLIC "-//W3C//DTD SVG 1.1//EN"
"http://www.w3.org/Graphics/SVG/1.1/DTD/svg11.dtd">


<!-- Page 19 -->
<svg x="0" y="0" width="935" height="1210" viewBox="0 0 935 1210" version="1.1" xmlns="http://www.w3.org/2000/svg" xmlns:xlink="http://www.w3.org/1999/xlink"
style="display: block;margin-left: auto;margin-right: auto;">
<defs>

<style type="text/css"><![CDATA[

.g1_19{
fill: #D9D9D9;
}
.g2_19{
fill: #FFFFFF;
}
.g3_19{
fill: none;
stroke: #70AD47;
stroke-width: 1.5277778;
stroke-linecap: butt;
stroke-linejoin: miter;
stroke-miterlimit: 8;
}
.g4_19{
fill: #5A5A5A;
}

.s1_19{
font-size: 18.33px;
font-family: ArialNovaCond-Bold_d;
fill: #5A5A5A;
}
.s2_19{
font-size: 12.10px;
font-family: ArialNova-Light_n;
fill: #7F7F7F;
}
.s3_19{
font-size: 21.27px;
font-family: Calibri-Light_r;
fill: #323E4F;
}
.s4_19{
font-size: 16.87px;
font-family: Calibri-Light_r;
fill: #323E4F;
}
.s5_19{
font-size: 18.33px;
font-family: ArialNovaCond-Light_9;
fill: #5A5A5A;
}
.s6_19{
font-size: 10.63px;
font-family: ArialNovaCond-Light_9;
fill: #5A5A5A;
}
.s7_19{
font-size: 18.33px;
font-family: ArialNovaCond-LightItalic_v;
fill: #5A5A5A;
}

]]></style>

</defs>
<path d="M0,0
L0,1210
L935,1210
L935,0 Z " 
fill="#FFFFFF" stroke="none" />
<text 
x="110" 
y="1106" 
dx="0,0,0,0.2" 
class="s1_19"
>19 |</text>

<text 
x="141" 
y="1106" 
dx="0,4.3,4.9,0,1.9,0,1.6,0,1.3,0,1.7,0,1.7,0,1.2,0,1.9,0,1.6,4.7,4.9,0,1.3,0,1.7,0,1.6,0,1.5,0,1.6,0,1.9,0,1.2,0,1.5,0,1.9,0,1.5,4.5,4.9,0,1.7,0,1.2,0,1.9,0,1.9,0,1.2,4.5,4.5,0,1.9,0,1.5,4.7,4.9,0,1.3,0,1.5,0,1.9,0,1.5,0,1.5,0,1.5,0,1.5,0,1.9,0,1.3,0,1.9,0,1.6,4.6,4.5,0,1.9,0,1.5,0,1.7,0,1.6,0,1.4,0,1.9,0,1.3,0,1.9,0,1.5,0,1.7,0,1.5,0,1.5,0,1.9" 
class="s2_19"
>A W e b - b a s e d T r a n s l a t i o n S y s t e m f o r M u l t i l i n g u a l C o d e - s w i t c h i n g</text>

<path d="M107.8,1086.4l719.4,0l0,-0.7l-719.4,0l0,0.7Z" class="g1_19" />
<text 
x="110" 
y="130" 
class="s3_19"
>H</text>

<text 
x="124" 
y="130" 
dx="0,1.4,1.5,1.4,1.5,1.7,1.5,1.3,1.7" 
class="s4_19"
>OMOGRAPH </text>

<text 
x="226" 
y="130" 
class="s3_19"
>C</text>

<text 
x="239" 
y="130" 
dx="0,1.7,1.7,1.6" 
class="s4_19"
>HECK</text>

<text 
x="165" 
y="159" 
dx="0,0.1,0.2,0,-0.1,-0.1,0.2,0.2,-0.1,-0.2,0.2,-0.1,0.1,-0.1,-0.1,-0.1,-0.1,-0.1,0.2,0.2,-0.1,0.2,0.2,-0.1,-0.1,0.2,-0.1,-0.1,0.2,0.2,0,-0.1,-0.1,-0.2,0.2,-0.1,0,-0.1,-0.1,0.2,0" 
class="s5_19"
>Before a homograph check can take place, </text>

<text 
x="110" 
y="203" 
dx="0,0,0,0.2,0,-0.1,0.2,-0.2,0.2,-0.1,0.2,-0.1,-0.1,-0.1,-0.1,-0.1,0.2,0,-0.1,0.2,-0.1,0.2,0,0,-0.1,0.2,-0.1,0.2,0,0,-0.1,-0.1,-0.1,-0.1,-0.1,0.2,-0.1,0,0.2,0.2,-0.1,0.1,-0.1,-0.1,-0.1,-0.1,-0.1,0.2,-0.1,0.2,0,-0.1" 
class="s5_19"
>it is necessary to build a library of homographs to </text>

<text 
x="110" 
y="247" 
dx="0,-0.1,0.2,0.2,-0.1,-0.1,0.2,-0.1,-0.1,-0.1,0,0.2,-0.1,0,0.2,0,0.2,-0.2,0,-0.2,0.2,0.2,0,0,-0.1,-0.1,0,0.2,-0.1,0,-0.1,-0.1,0.2,0,0.2,-0.1,0.2,0,-0.5,0.2,0,-0.1,-0.1,0.2,-0.1,-0.1,0.2,0.2" 
class="s5_19"
>check against in the first place. This was done </text>

<text 
x="110" 
y="292" 
dx="0,0.2,-0.1,0,0.2,-0.1,0.2,-0.1,0.2,-0.1,-0.1,-0.1,0,-0.1,0,0.2,0,0.2,-0.1,0,0.2,-0.1,-0.1,0.1,-0.1,-0.1,-0.1,0.2,-0.1,0.2,0,0,-0.1,0.2,-0.1,-0.1,-0.1,-0.1,0.2,-0.1,0.2,-0.1,0.2,-0.1,0.2,-0.1" 
class="s5_19"
>using a script that compared two corpuses and </text>

<text 
x="110" 
y="336" 
dx="0,0,-0.1,0.2,0.2,0,0,0,-0.1,0,0.2,-0.1,0.2,0,-0.1,-0.1,-0.1,-0.1,0.2,0,0.2,-0.1,0,-0.2,0.2,0,0,-0.1,0,0.2,-0.1,0.2,-0.1,-0.1,-0.1,-0.1,-0.1,-0.1,0.2,-0.1,-0.1,0,0.2" 
class="s5_19"
>identifying words that existed across both </text>

<text 
x="110" 
y="380" 
dx="0,-0.1,-0.1,-0.1,-0.1,0.2,-0.1,0.2,-0.1,0,0.2,-0.1,-0.1,-0.1,0.2,0,0.2,-0.1,0,-0.1,0.2,-0.1,0.2,0,0.2,0,-0.1,0.2,0,-0.1,0.2,0.2,0,0,0,-0.5,0.2,0.2,-0.1,0.1,-0.1,-0.1,-0.1,-0.1,-0.1,0.2,-0.1,0.2,0,0.2,-0.1,0,-0.2,0.2,0,0,-0.1,0,-0.2,-0.1,-0.1,-0.1,0.2,-0.1,-0.1,0.2,0,0.2,0.2,0.2,0.1,-0.1,0,-0.1,-0.1,0.2,-0.1,0.2,-0.1,0.2,-0.5,0.2,-0.1,0,0,-0.1,0.2,0.2,0,-0.1,0.2,-0.1,0.2,-0.1,-0.1,0.2,-0.3,0.2,-0.1,-0.2,0.2,0.2,0.1,0,-0.5,0.2,0" 
class="s5_19"
>corpuses. For instance, to identify homographs that exist across the Malay and English language, one might </text>

<text 
x="110" 
y="424" 
dx="0,0,0.2,0.2,-0.1,0.2,-0.1,0.2,-0.1,0,-0.1,0,0,-0.1,0.2,-0.1,-0.1,-0.1,0.2,0,0,-0.1,0,0.2,-0.1,0,0.2,-0.1,-0.1,0,0.2,-0.2,0.1,-0.1,0,-0.1,-0.1,0.2,-0.1,0.2,-0.1,0.2,-0.1,0.2,-0.1,0,0,-0.1" 
class="s5_19"
>feed a dictionary list of both Malay and English</text>

<text 
x="411" 
y="418" 
dx="0,-0.1,0,0" 
class="s6_19"
>[13]</text>

<text 
x="431" 
y="424" 
dx="0,0,-0.1,-0.1,-0.1,-0.1,0.2,0,-0.1,0.2,0,-0.1,0.2,0.2,0,0,0,-0.1,0.2,-0.3,0.2,-0.2,0.2,0,-0.1,-0.1,-0.1,-0.1,0.2,0,0.2,-0.1,0,0.2,0.2,0,0,-0.1,-0.3,0.2,-0.1,-0.1,-0.1,-0.1,-0.1,-0.1,0.2,-0.1,-0.1,0,0.2,0.2,0,0.2,0.2,-0.1,0.2" 
class="s5_19"
>words to identify the words that exist across both these </text>

<text 
x="110" 
y="468" 
dx="0,0,-0.1,0.2,-0.1,0.2,-0.1,-0.1,0.2,-0.1,0,0.2,-0.1,0.2,0.2,-0.1,-0.2,0.2,0,-0.1,-0.1,-0.1,-0.1,0.2,-0.1,-0.1,0.2,0.2,0,-0.2,0.2,-0.2,0.2,-0.1,0.2,-0.1,-0.1,-0.1,-0.1,0.2,-0.1,0.2,-0.1,0.2,-0.1,0.2,-0.1,-0.1,-0.1,0,0.2,-0.1,0.2,-0.1,0,-0.1,0.2,-0.1,-0.1,0.2,0,0,-0.1,-0.1,0,0,-0.1,0.2,0,0.2,0,-0.1,0.2,-0.1,0.2,0.2,-0.1,-0.1,-0.1,-0.1,-0.1,0.2,-0.1,0,0.2,-0.1,0,0.1,-0.2,0.2,-0.1,-0.1,-0.2,0.2,-0.1,0,-0.1,0" 
class="s5_19"
>languages. These words are then recorded and sorted alphabetically into an array of JSON objects. </text>

<text 
x="165" 
y="526" 
dx="0,0,0,0.2,0,0.2,0,-0.1,0.2,-0.1,0,-0.1,-0.1,-0.2,0.2,-0.1,0,0.2,0,-0.2,0.2,0.2,-0.1,-0.1,-0.1,-0.1,0.2,-0.1,-0.1,0,0.2,0,-0.2,0.2,0.2,0,0,-0.1,0,0.2,-0.1,-0.3,0.2,0,-0.1,0.2,-0.1,0.2,-0.1,-0.1,0.2,-0.1,0.2,-0.1,0.2,-0.3,0.2,-0.1,0,0.2,-0.5,0.2,0,-0.2,0.2,0,-0.2,0.2,0.2,-0.1,-0.1,0.2,-0.1,0,-0.1,0.2,-0.1,0.2,-0.1,-0.1,-0.1,-0.1,0.2,-0.1,-0.1,0.2,-0.1,0,-0.1,-0.1,-0.1,0.2,-0.1,0.2,-0.1,0,-0.1,0.2,0,0,0,-0.1,-0.1,0.2,0" 
class="s5_19"
>At this stage of the process, the list of languages detected in the previous process plays a significant </text>

<text 
x="110" 
y="570" 
dx="0,-0.1,-0.1,0,0.2,0,0.2,-0.1,0.2,-0.2,0.2,-0.1,-0.1,-0.1,-0.1,0.2,-0.1,-0.1,0.2,-0.1,0,0.2,0.2,-0.1,0.1,-0.1,-0.1,-0.1,-0.1,-0.1,0.2,0.2,-0.1,0.2,0,0.2,-0.1,0,0,-0.1,0.2,0.2,0,-0.1,-0.1,-0.1,-0.1,0.2,-0.1,0.2,0.2,-0.1,0.2,-0.1,0,-0.2,-0.1,0,0.2,0.2,-0.1,-0.1,0,0.2,-0.1,0,-0.1,0,0.2,0" 
class="s5_19"
>role. The process of homograph detection works on a simple principle: </text>

<text 
x="571" 
y="570" 
dx="0,-0.1,-0.1,-0.1,0.2,0.2,-0.1,0.2,-0.1,-0.1,0.2,0,-0.1,0.2,-0.5,0.2,-0.1,-0.1,0.2,0.2,-0.1,0.2,-0.3,0.2,-0.1,0,0.2,-0.1,0.2,0,0,-0.3,0.2,0,-0.2,0.2,-0.1" 
class="s7_19"
>For every language detected within a </text>

<text 
x="110" 
y="614" 
dx="0,-0.1,-0.1,0.1,-0.1,0,0.2,0.2,-0.1,0.2,0.2,-0.3,0.2,0.2,-0.1,0.2,-0.3,0.2,0.2,-0.1,-0.1,-0.2,0.2,0,-0.1,-0.1,-0.1,0.2,-0.1,0,0.2,0,0.2,-0.1,0,0.2,-0.1,-0.1,-0.2,0.2,0.2,-0.1,-0.2,0.2,-0.3,0.2,0.2,-0.1,-0.2,0.2,0,0,0,0,0.2,-0.1,-0.2,0.2,0,0.2,-0.1,0,0.2,-0.5,0.2,-0.1,-0.1,-0.1,0,0.2,-0.1,0,0.2,0,0.2,-0.1,0,0.2,0,0,-0.1,-0.3,0.2,-0.1,0,0.2,0,-0.1,0.2,-0.1,0.2,-0.1,-0.1,0.2,-0.1,0.2,0,-0.1,-0.1,0.2,-0.3,-0.2,0.2,0.2,-0.1,-0.1,0.2,-0.1,-0.2,0.2,-0.1,0.2" 
class="s7_19"
>sample sentence, each word of that same sentence will be tested against that list of languages for the presence </text>

<text 
x="110" 
y="658" 
dx="0,-0.1,0,0.2,0.2,-0.1,0.1,-0.1,-0.1,-0.1,-0.1,-0.1,0.2,-0.1" 
class="s7_19"
>of homographs.</text>

<text 
x="216" 
y="658" 
dx="0,0,-0.1,0.2,-0.1,0.2,0.2,0.2,0,-0.5,0.1,-0.1,0,0.2,0,0.2,-0.1,0,0.2,-0.1,-0.1,-0.2,0.2,-0.1,-0.1,0.2,-0.1,0,-0.1,0.2,-0.1,0.2,0,-0.2,0.2,0.2,0,-0.1,0,0,-0.5,0,0,0.2,-0.1,0.2,-0.1,0.2,0.2,-0.3,0.2,0.2,-0.5,0.2,-0.3" 
class="s5_19"
>As an example, please consider the following sentence. </text>

<path d="M454.4,237.8l378.5,0l0,-94.6l-378.5,0l0,94.6Z" class="g2_19" />
<path d="M454.4,143.2l378.5,0l0,94.6l-378.5,0l0,-94.6Z" class="g3_19" />
<image preserveAspectRatio="none" x="455" y="150" width="377" height="81" xlink:href="19/img/1.png" />
<path d="M469.8,170.9l-0.8,0l-1.9,-5.3l-0.4,0c-0.1,0,-0.2,-0.1,-0.3,-0.1c0,-0.1,0,-0.2,0,-0.2c0,-0.1,0,-0.2,0,-0.2c0.1,-0.1,0.2,-0.1,0.3,-0.1l1.7,0c0.1,0,0.2,0,0.2,0.1c0.1,0,0.1,0.1,0.1,0.2c0,0,0,0.1,-0.1,0.2c0,0,-0.1,0.1,-0.2,0.1l-0.8,0l1.7,4.7l0.2,0l1.6,-4.7l-0.7,0c-0.1,0,-0.2,-0.1,-0.3,-0.1c0,-0.1,0,-0.2,0,-0.2c0,-0.1,0,-0.2,0,-0.2c0.1,-0.1,0.2,-0.1,0.3,-0.1l1.7,0c0.1,0,0.2,0,0.2,0.1c0.1,0,0.1,0.1,0.1,0.2c0,0,0,0.1,-0.1,0.2c0,0,-0.1,0.1,-0.2,0.1l-0.5,0Zm7.5,0l0,-0.9c-0.7,0.7,-1.4,1.1,-2.1,1.1c-0.6,0,-1,-0.2,-1.3,-0.5c-0.3,-0.4,-0.5,-0.8,-0.5,-1.3c0,-0.6,0.2,-1,0.6,-1.5c0.4,-0.4,1,-0.6,1.8,-0.6c0.2,0,0.4,0,0.7,0.1c0.2,0,0.5,0.1,0.8,0.1l0,-0.9c0,-0.3,-0.1,-0.6,-0.4,-0.8c-0.2,-0.2,-0.5,-0.4,-1,-0.4c-0.4,0,-0.9,0.2,-1.5,0.4c-0.1,0.1,-0.2,0.1,-0.2,0.1c-0.1,0,-0.1,0,-0.2,-0.1c0,0,0,-0.1,0,-0.2c0,-0.1,0,-0.1,0,-0.2c0.1,0,0.3,-0.1,0.6,-0.2c0.6,-0.2,1,-0.3,1.3,-0.3c0.6,0,1,0.1,1.4,0.5c0.3,0.4,0.5,0.8,0.5,1.2l0,3.8l0.6,0c0.1,0,0.2,0,0.2,0.1c0.1,0,0.1,0.1,0.1,0.2c0,0.1,0,0.1,-0.1,0.2c0,0,-0.1,0.1,-0.2,0.1Zm0,-2.9c-0.2,-0.1,-0.4,-0.1,-0.7,-0.1c-0.2,-0.1,-0.5,-0.1,-0.7,-0.1c-0.7,0,-1.2,0.2,-1.6,0.5c-0.3,0.3,-0.4,0.6,-0.4,1c0,0.3,0.1,0.6,0.3,0.9c0.2,0.2,0.5,0.3,0.9,0.3c0.4,0,0.8,-0.1,1.1,-0.3c0.4,-0.2,0.7,-0.5,1.1,-0.9Zm4.7,-3l0,1.4c0.6,-0.7,1.1,-1.1,1.4,-1.3c0.3,-0.2,0.5,-0.3,0.8,-0.3c0.3,0,0.5,0.1,0.7,0.4c0.3,0.2,0.4,0.4,0.4,0.5c0,0.1,0,0.2,-0.1,0.2c0,0.1,-0.1,0.1,-0.1,0.1c-0.1,0,-0.1,0,-0.1,0c-0.1,0,-0.1,-0.1,-0.2,-0.2c-0.1,-0.1,-0.2,-0.2,-0.3,-0.3c-0.1,-0.1,-0.2,-0.1,-0.3,-0.1c-0.2,0,-0.4,0.1,-0.7,0.3c-0.3,0.2,-0.8,0.7,-1.5,1.5l0,3.1l2.1,0c0.1,0,0.1,0,0.2,0.1c0,0,0.1,0.1,0.1,0.2c0,0.1,-0.1,0.1,-0.1,0.2c-0.1,0,-0.1,0.1,-0.2,0.1l-3.6,0c-0.1,0,-0.2,-0.1,-0.3,-0.1c0,-0.1,0,-0.1,0,-0.2c0,-0.1,0,-0.2,0,-0.2c0.1,-0.1,0.2,-0.1,0.3,-0.1l1.1,0l0,-4.7l-0.9,0c-0.1,0,-0.2,-0.1,-0.2,-0.1c-0.1,-0.1,-0.1,-0.2,-0.1,-0.2c0,-0.1,0,-0.2,0.1,-0.2c0,-0.1,0.1,-0.1,0.2,-0.1Zm12.3,-2.7l0,3.5c0.3,-0.3,0.5,-0.6,0.8,-0.8c0.3,-0.1,0.6,-0.2,0.9,-0.2c0.4,0,0.7,0,0.9,0.2c0.3,0.2,0.5,0.4,0.6,0.7c0.2,0.4,0.3,0.7,0.3,1.1l0,3.5l0.5,0c0.1,0,0.2,0,0.2,0.1c0.1,0,0.1,0.1,0.1,0.2c0,0.1,0,0.1,-0.1,0.2c0,0,-0.1,0.1,-0.2,0.1l-1.5,0c-0.1,0,-0.2,-0.1,-0.2,-0.1c-0.1,-0.1,-0.1,-0.1,-0.1,-0.2c0,-0.1,0,-0.2,0.1,-0.2c0,-0.1,0.1,-0.1,0.2,-0.1l0.5,0l0,-3.5c0,-0.4,-0.1,-0.8,-0.3,-1c-0.3,-0.3,-0.6,-0.5,-1,-0.5c-0.4,0,-0.6,0.1,-0.9,0.3c-0.2,0.2,-0.4,0.5,-0.8,1.1l0,3.6l0.5,0c0.1,0,0.2,0,0.2,0.1c0.1,0,0.1,0.1,0.1,0.2c0,0.1,0,0.1,-0.1,0.2c0,0,-0.1,0.1,-0.2,0.1l-1.5,0c-0.1,0,-0.2,-0.1,-0.2,-0.1C493,170.7,493,170.7,493,170.6c0,-0.1,0,-0.2,0.1,-0.2c0,-0.1,0.1,-0.1,0.2,-0.1l0.5,0l0,-7.4l-0.6,0c-0.1,0,-0.2,0,-0.2,-0.1c-0.1,0,-0.1,-0.1,-0.1,-0.2c0,-0.1,0,-0.1,0.1,-0.2c0,0,0.1,-0.1,0.2,-0.1Zm10.6,5.6c0,0.9,-0.2,1.6,-0.7,2.3c-0.5,0.6,-1.1,0.9,-1.8,0.9c-0.7,0,-1.3,-0.3,-1.8,-0.9c-0.5,-0.7,-0.8,-1.4,-0.8,-2.3c0,-0.8,0.3,-1.6,0.8,-2.2c0.5,-0.6,1.1,-0.9,1.8,-0.9c0.7,0,1.3,0.3,1.8,0.9c0.5,0.6,0.7,1.4,0.7,2.2Zm-0.4,0c0,-0.7,-0.2,-1.3,-0.6,-1.8c-0.4,-0.5,-0.9,-0.8,-1.5,-0.8c-0.6,0,-1.1,0.3,-1.5,0.8c-0.4,0.5,-0.6,1.1,-0.6,1.8c0,0.7,0.2,1.3,0.6,1.9c0.4,0.5,0.9,0.7,1.5,0.7c0.6,0,1.1,-0.2,1.5,-0.7c0.4,-0.5,0.6,-1.2,0.6,-1.9Zm2.4,-2.9l0,0.6c0.4,-0.6,0.8,-0.8,1.2,-0.8c0.2,0,0.4,0,0.6,0.2c0.2,0.2,0.3,0.4,0.4,0.7c0.2,-0.3,0.4,-0.5,0.7,-0.7c0.2,-0.2,0.4,-0.2,0.6,-0.2c0.3,0,0.6,0.1,0.8,0.4c0.2,0.3,0.4,0.7,0.4,1.1l0,4l0.3,0c0.2,0,0.2,0,0.3,0.1c0,0,0,0.1,0,0.2c0,0.1,0,0.1,0,0.2c-0.1,0,-0.1,0.1,-0.3,0.1l-0.8,0l0,-4.5c0,-0.3,-0.1,-0.6,-0.2,-0.8c-0.2,-0.2,-0.3,-0.3,-0.5,-0.3c-0.2,0,-0.3,0.1,-0.5,0.3c-0.2,0.1,-0.4,0.4,-0.7,0.9l0,3.8l0.4,0c0.1,0,0.2,0,0.3,0.1c0,0,0,0.1,0,0.2c0,0.1,0,0.1,0,0.2c-0.1,0,-0.2,0.1,-0.3,0.1l-0.8,0l0,-4.5c0,-0.3,-0.1,-0.6,-0.2,-0.8c-0.2,-0.2,-0.3,-0.3,-0.5,-0.3c-0.2,0,-0.3,0.1,-0.5,0.2c-0.2,0.2,-0.5,0.6,-0.7,1l0,3.8l0.4,0c0.1,0,0.2,0,0.2,0.1c0.1,0,0.1,0.1,0.1,0.2c0,0.1,0,0.1,-0.1,0.2c0,0,-0.1,0.1,-0.2,0.1l-1.2,0c-0.2,0,-0.2,-0.1,-0.3,-0.1c0,-0.1,-0.1,-0.1,-0.1,-0.2c0,-0.1,0.1,-0.2,0.1,-0.2c0.1,-0.1,0.1,-0.1,0.3,-0.1l0.3,0l0,-4.7l-0.3,0c-0.2,0,-0.2,-0.1,-0.3,-0.1c0,-0.1,-0.1,-0.2,-0.1,-0.2c0,-0.1,0.1,-0.2,0.1,-0.2c0.1,-0.1,0.1,-0.1,0.3,-0.1Zm11.2,2.9c0,0.9,-0.2,1.6,-0.7,2.3c-0.5,0.6,-1.1,0.9,-1.8,0.9c-0.7,0,-1.3,-0.3,-1.8,-0.9c-0.5,-0.7,-0.8,-1.4,-0.8,-2.3c0,-0.8,0.3,-1.6,0.8,-2.2c0.5,-0.6,1.1,-0.9,1.8,-0.9c0.7,0,1.3,0.3,1.8,0.9c0.5,0.6,0.7,1.4,0.7,2.2Zm-0.4,0c0,-0.7,-0.2,-1.3,-0.6,-1.8c-0.4,-0.5,-0.9,-0.8,-1.5,-0.8c-0.6,0,-1.1,0.3,-1.5,0.8c-0.4,0.5,-0.6,1.1,-0.6,1.8c0,0.7,0.2,1.3,0.6,1.9c0.4,0.5,0.9,0.7,1.5,0.7c0.6,0,1.1,-0.2,1.5,-0.7c0.4,-0.5,0.6,-1.2,0.6,-1.9Zm6,-1.9l0,-1l1.1,0c0.1,0,0.2,0,0.2,0.1c0.1,0,0.1,0.1,0.1,0.2c0,0,0,0.1,-0.1,0.2c0,0,-0.1,0.1,-0.2,0.1l-0.6,0l0,5.7c0,0.3,-0.1,0.7,-0.2,1c-0.1,0.2,-0.3,0.4,-0.5,0.6c-0.2,0.2,-0.3,0.4,-0.5,0.5c-0.2,0,-0.4,0.1,-0.7,0.1l-1.3,0c-0.1,0,-0.2,0,-0.2,-0.1c-0.1,0,-0.1,-0.1,-0.1,-0.2c0,-0.1,0,-0.1,0.1,-0.2c0,-0.1,0.1,-0.1,0.2,-0.1l1.3,0c0.3,0,0.5,-0.1,0.8,-0.2c0.2,-0.2,0.4,-0.5,0.5,-0.8c0.1,-0.2,0.1,-0.4,0.1,-0.7l0,-1.7c-0.5,0.8,-1.1,1.2,-1.9,1.2c-0.6,0,-1.1,-0.3,-1.6,-0.9c-0.5,-0.5,-0.7,-1.2,-0.7,-2.1c0,-0.8,0.2,-1.5,0.7,-2.1c0.5,-0.5,1,-0.8,1.6,-0.8c0.8,0,1.4,0.4,1.9,1.2Zm0,1.7c0,-0.6,-0.2,-1.2,-0.5,-1.7c-0.4,-0.4,-0.8,-0.7,-1.4,-0.7c-0.5,0,-0.9,0.3,-1.3,0.7c-0.3,0.5,-0.5,1.1,-0.5,1.7c0,0.7,0.2,1.3,0.5,1.7c0.4,0.5,0.8,0.7,1.3,0.7c0.6,0,1,-0.2,1.4,-0.7c0.3,-0.4,0.5,-1,0.5,-1.7Zm4.5,-2.7l0,1.4c0.6,-0.7,1.1,-1.1,1.4,-1.3c0.3,-0.2,0.5,-0.3,0.8,-0.3c0.3,0,0.5,0.1,0.7,0.4c0.3,0.2,0.4,0.4,0.4,0.5c0,0.1,0,0.2,-0.1,0.2c0,0.1,-0.1,0.1,-0.1,0.1c-0.1,0,-0.1,0,-0.1,0c-0.1,0,-0.1,-0.1,-0.2,-0.2c-0.1,-0.1,-0.2,-0.2,-0.3,-0.3c-0.1,-0.1,-0.2,-0.1,-0.3,-0.1c-0.2,0,-0.4,0.1,-0.7,0.3c-0.3,0.2,-0.8,0.7,-1.5,1.5l0,3.1l2.1,0c0.1,0,0.1,0,0.2,0.1c0,0,0.1,0.1,0.1,0.2c0,0.1,-0.1,0.1,-0.1,0.2c-0.1,0,-0.1,0.1,-0.2,0.1l-3.6,0c-0.1,0,-0.2,-0.1,-0.3,-0.1c0,-0.1,0,-0.1,0,-0.2c0,-0.1,0,-0.2,0,-0.2c0.1,-0.1,0.2,-0.1,0.3,-0.1l1.1,0l0,-4.7l-0.9,0c-0.1,0,-0.2,-0.1,-0.2,-0.1c-0.1,-0.1,-0.1,-0.2,-0.1,-0.2c0,-0.1,0,-0.2,0.1,-0.2c0,-0.1,0.1,-0.1,0.2,-0.1Zm8.5,5.9l0,-0.9c-0.7,0.7,-1.4,1.1,-2.1,1.1c-0.6,0,-1,-0.2,-1.3,-0.5c-0.3,-0.4,-0.5,-0.8,-0.5,-1.3c0,-0.6,0.2,-1,0.6,-1.5c0.4,-0.4,1,-0.6,1.8,-0.6c0.2,0,0.4,0,0.7,0.1c0.2,0,0.5,0.1,0.8,0.1l0,-0.9c0,-0.3,-0.1,-0.6,-0.4,-0.8c-0.2,-0.2,-0.5,-0.4,-1,-0.4c-0.4,0,-0.9,0.2,-1.5,0.4c-0.1,0.1,-0.2,0.1,-0.2,0.1c-0.1,0,-0.1,0,-0.2,-0.1c0,0,0,-0.1,0,-0.2c0,-0.1,0,-0.1,0,-0.2c0.1,0,0.3,-0.1,0.6,-0.2c0.6,-0.2,1,-0.3,1.3,-0.3c0.6,0,1,0.1,1.4,0.5c0.3,0.4,0.5,0.8,0.5,1.2l0,3.8l0.6,0c0.1,0,0.2,0,0.2,0.1c0.1,0,0.1,0.1,0.1,0.2c0,0.1,0,0.1,-0.1,0.2c0,0,-0.1,0.1,-0.2,0.1Zm0,-2.9c-0.2,-0.1,-0.4,-0.1,-0.7,-0.1c-0.2,-0.1,-0.5,-0.1,-0.7,-0.1c-0.7,0,-1.2,0.2,-1.6,0.5c-0.3,0.3,-0.4,0.6,-0.4,1c0,0.3,0.1,0.6,0.3,0.9c0.2,0.2,0.5,0.3,0.9,0.3c0.4,0,0.8,-0.1,1.1,-0.3c0.4,-0.2,0.7,-0.5,1.1,-0.9Zm3.6,-3l0,1c0.2,-0.4,0.5,-0.7,0.8,-0.9c0.3,-0.2,0.7,-0.3,1.1,-0.3c0.5,0,0.9,0.1,1.3,0.4c0.4,0.2,0.7,0.6,0.9,1.1c0.2,0.4,0.3,0.9,0.3,1.4c0,0.9,-0.3,1.6,-0.7,2.1c-0.5,0.6,-1.1,0.9,-1.8,0.9c-0.8,0,-1.4,-0.4,-1.9,-1.2l0,3.4l1.1,0c0.1,0,0.2,0,0.2,0.1c0,0.1,0.1,0.1,0.1,0.2c0,0.1,-0.1,0.2,-0.1,0.2c0,0.1,-0.1,0.1,-0.2,0.1l-2.2,0c-0.1,0,-0.2,0,-0.3,-0.1c0,0,0,-0.1,0,-0.2c0,-0.1,0,-0.1,0,-0.2c0.1,-0.1,0.2,-0.1,0.3,-0.1l0.6,0l0,-7.3l-0.6,0c-0.1,0,-0.2,-0.1,-0.3,-0.1c0,-0.1,0,-0.2,0,-0.2c0,-0.1,0,-0.2,0,-0.2c0.1,-0.1,0.2,-0.1,0.3,-0.1Zm3.9,2.7c0,-0.6,-0.2,-1.2,-0.6,-1.6c-0.3,-0.5,-0.8,-0.8,-1.4,-0.8c-0.5,0,-1,0.3,-1.4,0.8c-0.4,0.4,-0.5,1,-0.5,1.6c0,0.7,0.1,1.3,0.5,1.7c0.4,0.5,0.9,0.7,1.4,0.7c0.6,0,1.1,-0.2,1.4,-0.7c0.4,-0.4,0.6,-1,0.6,-1.7Zm2.9,-5.4l0,3.5c0.3,-0.3,0.5,-0.6,0.8,-0.8c0.3,-0.1,0.6,-0.2,0.9,-0.2c0.4,0,0.7,0,0.9,0.2c0.3,0.2,0.5,0.4,0.6,0.7c0.2,0.4,0.3,0.7,0.3,1.1l0,3.5l0.5,0c0.1,0,0.2,0,0.2,0.1c0.1,0,0.1,0.1,0.1,0.2c0,0.1,0,0.1,-0.1,0.2c0,0,-0.1,0.1,-0.2,0.1l-1.5,0c-0.1,0,-0.2,-0.1,-0.2,-0.1c-0.1,-0.1,-0.1,-0.1,-0.1,-0.2c0,-0.1,0,-0.2,0.1,-0.2c0,-0.1,0.1,-0.1,0.2,-0.1l0.5,0l0,-3.5c0,-0.4,-0.1,-0.8,-0.3,-1c-0.3,-0.3,-0.6,-0.5,-1,-0.5c-0.4,0,-0.6,0.1,-0.9,0.3c-0.2,0.2,-0.4,0.5,-0.8,1.1l0,3.6l0.5,0c0.1,0,0.2,0,0.2,0.1c0.1,0,0.1,0.1,0.1,0.2c0,0.1,0,0.1,-0.1,0.2c0,0,-0.1,0.1,-0.2,0.1l-1.5,0c-0.1,0,-0.2,-0.1,-0.2,-0.1c-0.1,-0.1,-0.1,-0.1,-0.1,-0.2c0,-0.1,0,-0.2,0.1,-0.2c0,-0.1,0.1,-0.1,0.2,-0.1l0.5,0l0,-7.4l-0.6,0c-0.1,0,-0.2,0,-0.2,-0.1c-0.1,0,-0.1,-0.1,-0.1,-0.2c0,-0.1,0,-0.1,0.1,-0.2c0,0,0.1,-0.1,0.2,-0.1Zm9.6,3c0,-0.1,0,-0.2,0.1,-0.2c0,-0.1,0.1,-0.1,0.1,-0.1c0.1,0,0.1,0,0.2,0.1c0,0,0.1,0.1,0.1,0.3l0,0.9c0,0.2,-0.1,0.3,-0.1,0.3c-0.1,0.1,-0.1,0.1,-0.2,0.1c0,0,-0.1,0,-0.1,-0.1c-0.1,0,-0.1,-0.1,-0.1,-0.2c0,-0.3,-0.1,-0.5,-0.3,-0.7c-0.3,-0.2,-0.7,-0.4,-1.2,-0.4c-0.5,0,-0.9,0.2,-1.2,0.4c-0.2,0.2,-0.3,0.4,-0.3,0.7c0,0.3,0.1,0.5,0.3,0.7c0.2,0.1,0.5,0.2,1,0.3c0.7,0,1.1,0.1,1.4,0.3c0.3,0.1,0.6,0.3,0.7,0.6c0.2,0.3,0.3,0.6,0.3,0.9c0,0.5,-0.2,0.9,-0.6,1.3c-0.3,0.4,-0.9,0.6,-1.6,0.6c-0.7,0,-1.3,-0.2,-1.8,-0.7c0,0.2,0,0.3,0,0.3c0,0,0,0.1,-0.1,0.1c0,0.1,-0.1,0.1,-0.1,0.1c-0.1,0,-0.1,-0.1,-0.2,-0.1c0,-0.1,0,-0.2,0,-0.3l0,-1.2c0,-0.1,0,-0.2,0,-0.3c0.1,0,0.1,-0.1,0.2,-0.1c0.1,0,0.1,0.1,0.2,0.1c0,0.1,0,0.1,0,0.2c0,0.2,0.1,0.4,0.1,0.6c0.2,0.2,0.4,0.4,0.7,0.5c0.2,0.1,0.6,0.2,1,0.2c0.6,0,1,-0.1,1.3,-0.4c0.3,-0.3,0.4,-0.6,0.4,-0.9c0,-0.3,-0.1,-0.6,-0.4,-0.8c-0.3,-0.2,-0.7,-0.4,-1.3,-0.5c-0.6,0,-1,-0.1,-1.2,-0.2c-0.3,-0.2,-0.5,-0.3,-0.6,-0.6c-0.1,-0.2,-0.2,-0.5,-0.2,-0.7c0,-0.5,0.2,-0.9,0.6,-1.2c0.4,-0.3,0.8,-0.4,1.3,-0.4c0.7,0,1.2,0.2,1.6,0.5Zm14.2,0.8l-5,0c-0.1,0,-0.2,0,-0.2,0c-0.1,-0.1,-0.1,-0.2,-0.1,-0.3c0,0,0,-0.1,0.1,-0.2c0,0,0.1,0,0.2,0l5,0c0.1,0,0.2,0,0.2,0c0.1,0.1,0.1,0.2,0.1,0.3c0,0,0,0.1,-0.1,0.2c0,0,-0.1,0,-0.2,0Zm0,2.1l-5,0c-0.1,0,-0.2,0,-0.2,-0.1c-0.1,0,-0.1,-0.1,-0.1,-0.2c0,-0.1,0,-0.2,0.1,-0.2c0,-0.1,0.1,-0.1,0.2,-0.1l5,0c0.1,0,0.2,0,0.2,0.1c0.1,0,0.1,0.1,0.1,0.2c0,0.1,0,0.2,-0.1,0.2c0,0.1,-0.1,0.1,-0.2,0.1Zm10.9,-5.3l0,9.2l1.1,0c0.1,0,0.2,0,0.3,0c0,0.1,0,0.2,0,0.2c0,0.1,0,0.2,0,0.3c-0.1,0,-0.2,0,-0.3,0l-1.5,0l0,-10.3l1.5,0c0.1,0,0.2,0.1,0.3,0.1c0,0.1,0,0.1,0,0.2c0,0.1,0,0.2,0,0.2c-0.1,0.1,-0.2,0.1,-0.3,0.1Z" class="g4_19" />
<path d="M524.1,182.9c0.2,0.2,0.3,0.3,0.4,0.5c0.1,0.2,0.1,0.4,0.1,0.7l0,2.4c0,0.3,0.1,0.5,0.2,0.7c0.1,0.1,0.3,0.2,0.4,0.3c0.1,0,0.2,0,0.3,0c0,0.1,0,0.2,0,0.2c0,0.1,0,0.2,0,0.3c-0.1,0,-0.2,0,-0.2,0c-0.3,0,-0.6,-0.1,-0.8,-0.3c-0.2,-0.3,-0.4,-0.7,-0.4,-1.2l0,-2.4c0,-0.3,0,-0.5,-0.1,-0.6c-0.2,-0.2,-0.3,-0.3,-0.5,-0.3c-0.1,0,-0.2,-0.1,-0.2,-0.1c0,-0.1,-0.1,-0.1,-0.1,-0.2c0,-0.1,0.1,-0.2,0.1,-0.2c0,-0.1,0.1,-0.1,0.2,-0.1c0.2,0,0.4,-0.1,0.5,-0.3c0.1,-0.2,0.1,-0.4,0.1,-0.6l0,-2.5c0,-0.4,0.2,-0.8,0.4,-1c0.2,-0.3,0.5,-0.5,0.8,-0.5c0,0,0.1,0.1,0.2,0.1c0,0.1,0,0.1,0,0.2c0,0.1,0,0.2,0,0.2c-0.1,0.1,-0.1,0.1,-0.3,0.1c-0.1,0,-0.3,0.1,-0.4,0.3c-0.1,0.2,-0.2,0.4,-0.2,0.6l0,2.5c0,0.3,0,0.5,-0.1,0.7c-0.1,0.1,-0.2,0.3,-0.4,0.5Zm8.5,3.4l-0.6,0l-1,-3.7l-1,3.7l-0.6,0L528.5,181l-0.3,0c-0.1,0,-0.1,-0.1,-0.2,-0.1c0,-0.1,-0.1,-0.2,-0.1,-0.2c0,-0.1,0.1,-0.2,0.1,-0.2c0.1,-0.1,0.1,-0.1,0.2,-0.1l1.3,0c0.1,0,0.2,0,0.2,0.1c0.1,0,0.1,0.1,0.1,0.2c0,0,0,0.1,-0.1,0.2c0,0,-0.1,0.1,-0.2,0.1l-0.6,0l0.8,4.5l1,-3.6l0.5,0l1,3.6L533,181l-0.5,0c-0.2,0,-0.2,-0.1,-0.3,-0.1c0,-0.1,-0.1,-0.2,-0.1,-0.2c0,-0.1,0.1,-0.2,0.1,-0.2c0.1,-0.1,0.1,-0.1,0.3,-0.1l1.2,0c0.1,0,0.2,0,0.2,0.1c0.1,0,0.1,0.1,0.1,0.2c0,0,0,0.1,-0.1,0.2c0,0,-0.1,0.1,-0.2,0.1l-0.2,0Zm7.5,-3c0,0.9,-0.2,1.6,-0.7,2.3c-0.5,0.6,-1.1,0.9,-1.8,0.9c-0.7,0,-1.3,-0.3,-1.8,-0.9c-0.5,-0.7,-0.8,-1.4,-0.8,-2.3c0,-0.8,0.3,-1.6,0.8,-2.2c0.5,-0.6,1.1,-0.9,1.8,-0.9c0.7,0,1.3,0.3,1.8,0.9c0.5,0.6,0.7,1.4,0.7,2.2Zm-0.4,0c0,-0.7,-0.2,-1.3,-0.6,-1.8c-0.4,-0.5,-0.9,-0.8,-1.5,-0.8c-0.6,0,-1.1,0.3,-1.5,0.8c-0.4,0.5,-0.6,1.1,-0.6,1.8c0,0.7,0.2,1.3,0.6,1.9c0.4,0.5,0.9,0.7,1.5,0.7c0.6,0,1.1,-0.2,1.5,-0.7c0.4,-0.5,0.6,-1.2,0.6,-1.9Zm3.9,-2.9l0,1.4c0.6,-0.7,1.1,-1.1,1.4,-1.3c0.3,-0.2,0.5,-0.3,0.8,-0.3c0.3,0,0.5,0.1,0.7,0.4c0.3,0.2,0.4,0.4,0.4,0.5c0,0.1,0,0.2,-0.1,0.2c0,0.1,-0.1,0.1,-0.1,0.1c-0.1,0,-0.1,0,-0.1,0c-0.1,0,-0.1,-0.1,-0.2,-0.2c-0.1,-0.1,-0.2,-0.2,-0.3,-0.3c-0.1,-0.1,-0.2,-0.1,-0.3,-0.1c-0.2,0,-0.4,0.1,-0.7,0.3c-0.3,0.2,-0.8,0.7,-1.5,1.5l0,3.1l2.1,0c0.1,0,0.1,0,0.2,0.1c0,0,0.1,0.1,0.1,0.2c0,0.1,-0.1,0.1,-0.1,0.2c-0.1,0,-0.1,0.1,-0.2,0.1l-3.6,0c-0.1,0,-0.2,-0.1,-0.3,-0.1c0,-0.1,0,-0.1,0,-0.2c0,-0.1,0,-0.2,0,-0.2c0.1,-0.1,0.2,-0.1,0.3,-0.1l1.1,0l0,-4.7l-0.9,0c-0.1,0,-0.2,-0.1,-0.2,-0.1C542,180.8,542,180.7,542,180.7c0,-0.1,0,-0.2,0.1,-0.2c0,-0.1,0.1,-0.1,0.2,-0.1Zm9.4,-2.7l0,8l0.6,0c0.1,0,0.2,0,0.3,0.1c0,0,0,0.1,0,0.2c0,0.1,0,0.1,0,0.2c-0.1,0,-0.2,0.1,-0.3,0.1l-1,0l0,-1.2c-0.6,0.9,-1.2,1.4,-2.1,1.4c-0.4,0,-0.8,-0.1,-1.2,-0.4c-0.3,-0.3,-0.6,-0.7,-0.9,-1.2c-0.2,-0.5,-0.3,-1,-0.3,-1.6c0,-0.5,0.1,-1,0.3,-1.5c0.3,-0.5,0.6,-0.9,0.9,-1.2c0.4,-0.3,0.8,-0.4,1.2,-0.4c0.8,0,1.5,0.4,2.1,1.3l0,-3.2l-0.7,0c-0.1,0,-0.1,0,-0.2,-0.1c0,0,-0.1,-0.1,-0.1,-0.2c0,-0.1,0.1,-0.1,0.1,-0.2c0.1,0,0.1,-0.1,0.2,-0.1Zm-0.4,5.6c0,-0.7,-0.2,-1.3,-0.6,-1.8c-0.4,-0.5,-0.9,-0.8,-1.4,-0.8c-0.6,0,-1,0.3,-1.4,0.8c-0.4,0.5,-0.6,1.1,-0.6,1.8c0,0.8,0.2,1.4,0.6,1.9c0.4,0.5,0.8,0.7,1.4,0.7c0.5,0,1,-0.2,1.4,-0.7c0.4,-0.5,0.6,-1.1,0.6,-1.9Zm4.7,-2.9l0.2,0c0.2,0,0.4,0.1,0.5,0.2c0.1,0.2,0.2,0.4,0.2,0.7c0,0.3,-0.1,0.5,-0.2,0.7c-0.1,0.1,-0.3,0.2,-0.5,0.2l-0.2,0c-0.2,0,-0.4,-0.1,-0.5,-0.2c-0.2,-0.2,-0.3,-0.4,-0.3,-0.7c0,-0.3,0.1,-0.5,0.3,-0.7c0.1,-0.1,0.3,-0.2,0.5,-0.2Zm0,4.2l0.2,0c0.2,0,0.4,0.1,0.5,0.3c0.1,0.2,0.2,0.4,0.2,0.6c0,0.3,-0.1,0.5,-0.2,0.7c-0.1,0.2,-0.3,0.3,-0.5,0.3l-0.2,0c-0.2,0,-0.4,-0.1,-0.5,-0.3c-0.2,-0.2,-0.3,-0.4,-0.3,-0.6c0,-0.3,0.1,-0.5,0.3,-0.7c0.1,-0.2,0.3,-0.3,0.5,-0.3ZM570,177.7l1.5,0l0.8,3.6c0,0,0,0.1,0,0.1c0,0.1,0,0.2,-0.1,0.3c-0.1,0.1,-0.1,0.1,-0.2,0.1c-0.2,0,-0.3,-0.1,-0.4,-0.3Zm8.5,8.6l0,-0.9c-0.7,0.7,-1.4,1.1,-2.1,1.1c-0.6,0,-1,-0.2,-1.3,-0.5c-0.3,-0.4,-0.5,-0.8,-0.5,-1.3c0,-0.6,0.2,-1,0.6,-1.5c0.4,-0.4,1,-0.6,1.8,-0.6c0.2,0,0.4,0,0.7,0.1c0.2,0,0.5,0.1,0.8,0.1l0,-0.9c0,-0.3,-0.1,-0.6,-0.4,-0.8c-0.2,-0.2,-0.5,-0.4,-1,-0.4c-0.4,0,-0.9,0.2,-1.5,0.4c-0.1,0.1,-0.2,0.1,-0.2,0.1c-0.1,0,-0.1,0,-0.2,-0.1c0,0,0,-0.1,0,-0.2c0,-0.1,0,-0.1,0,-0.2c0.1,0,0.3,-0.1,0.6,-0.2c0.6,-0.2,1,-0.3,1.3,-0.3c0.6,0,1,0.1,1.4,0.5c0.3,0.4,0.5,0.8,0.5,1.2l0,3.8l0.6,0c0.1,0,0.2,0,0.2,0.1c0.1,0,0.1,0.1,0.1,0.2c0,0.1,0,0.1,-0.1,0.2c0,0,-0.1,0.1,-0.2,0.1Zm0,-2.9c-0.2,-0.1,-0.4,-0.1,-0.7,-0.1c-0.2,-0.1,-0.5,-0.1,-0.7,-0.1c-0.7,0,-1.2,0.2,-1.6,0.5c-0.3,0.3,-0.4,0.6,-0.4,1c0,0.3,0.1,0.6,0.3,0.9c0.2,0.2,0.5,0.3,0.9,0.3c0.4,0,0.8,-0.1,1.1,-0.3c0.4,-0.2,0.7,-0.5,1.1,-0.9Zm5.5,-6l0,1.5l-0.7,0l0,-1.5Zm0,3l0,5.3l1.8,0c0.1,0,0.2,0,0.3,0.1c0,0,0,0.1,0,0.2c0,0.1,0,0.1,0,0.2c-0.1,0,-0.2,0.1,-0.3,0.1l-4,0c-0.1,0,-0.2,-0.1,-0.3,-0.1c0,-0.1,0,-0.1,0,-0.2c0,-0.1,0,-0.2,0,-0.2c0.1,-0.1,0.2,-0.1,0.3,-0.1l1.8,0l0,-4.7l-1.4,0c-0.1,0,-0.2,-0.1,-0.2,-0.1c-0.1,-0.1,-0.1,-0.2,-0.1,-0.2c0,-0.1,0,-0.2,0.1,-0.2c0,-0.1,0.1,-0.1,0.2,-0.1Zm5.8,0l0,1.4c0.6,-0.7,1.1,-1.1,1.4,-1.3c0.3,-0.2,0.5,-0.3,0.8,-0.3c0.3,0,0.5,0.1,0.7,0.4c0.3,0.2,0.4,0.4,0.4,0.5c0,0.1,0,0.2,-0.1,0.2c0,0.1,-0.1,0.1,-0.1,0.1c-0.1,0,-0.1,0,-0.1,0c-0.1,0,-0.1,-0.1,-0.2,-0.2c-0.1,-0.1,-0.2,-0.2,-0.3,-0.3c-0.1,-0.1,-0.2,-0.1,-0.3,-0.1c-0.2,0,-0.4,0.1,-0.7,0.3c-0.3,0.2,-0.8,0.7,-1.5,1.5l0,3.1l2.1,0c0.1,0,0.1,0,0.2,0.1c0,0,0.1,0.1,0.1,0.2c0,0.1,-0.1,0.1,-0.1,0.2c-0.1,0,-0.1,0.1,-0.2,0.1l-3.6,0c-0.1,0,-0.2,-0.1,-0.3,-0.1c0,-0.1,0,-0.1,0,-0.2c0,-0.1,0,-0.2,0,-0.2c0.1,-0.1,0.2,-0.1,0.3,-0.1l1.1,0l0,-4.7l-0.9,0c-0.1,0,-0.2,-0.1,-0.2,-0.1c-0.1,-0.1,-0.1,-0.2,-0.1,-0.2c0,-0.1,0,-0.2,0.1,-0.2c0,-0.1,0.1,-0.1,0.2,-0.1Zm6.2,-2.7l1.5,0l-1.6,3.8c-0.1,0.2,-0.2,0.3,-0.3,0.3c-0.1,0,-0.2,0,-0.3,-0.1c0,-0.1,-0.1,-0.2,-0.1,-0.3c0,0,0,-0.1,0,-0.1Zm6.7,6.5l1.5,0l-1.7,3.8c-0.1,0.2,-0.2,0.3,-0.3,0.3c-0.1,0,-0.2,0,-0.2,-0.1c-0.1,-0.1,-0.1,-0.2,-0.1,-0.3c0,0,0,-0.1,0,-0.2ZM617,177.7l0,8l1.8,0c0.1,0,0.2,0,0.2,0.1c0.1,0,0.1,0.1,0.1,0.2c0,0.1,0,0.1,-0.1,0.2c0,0,-0.1,0.1,-0.2,0.1l-4,0c-0.2,0,-0.2,-0.1,-0.3,-0.1c0,-0.1,0,-0.1,0,-0.2c0,-0.1,0,-0.2,0,-0.2c0.1,-0.1,0.1,-0.1,0.3,-0.1l1.8,0l0,-7.4l-1.4,0c-0.1,0,-0.2,0,-0.2,-0.1c-0.1,0,-0.1,-0.1,-0.1,-0.2c0,-0.1,0,-0.1,0.1,-0.2c0,0,0.1,-0.1,0.2,-0.1Zm7.7,8.6l0,-0.9c-0.7,0.7,-1.4,1.1,-2.1,1.1c-0.6,0,-1,-0.2,-1.3,-0.5c-0.3,-0.4,-0.5,-0.8,-0.5,-1.3c0,-0.6,0.2,-1,0.6,-1.5c0.4,-0.4,1,-0.6,1.8,-0.6c0.2,0,0.4,0,0.7,0.1c0.2,0,0.5,0.1,0.8,0.1l0,-0.9c0,-0.3,-0.1,-0.6,-0.4,-0.8c-0.2,-0.2,-0.5,-0.4,-1,-0.4c-0.4,0,-0.9,0.2,-1.5,0.4c-0.1,0.1,-0.2,0.1,-0.2,0.1c-0.1,0,-0.1,0,-0.2,-0.1c0,0,0,-0.1,0,-0.2c0,-0.1,0,-0.1,0,-0.2c0.1,0,0.3,-0.1,0.6,-0.2c0.6,-0.2,1,-0.3,1.3,-0.3c0.6,0,1,0.1,1.4,0.5c0.3,0.4,0.5,0.8,0.5,1.2l0,3.8l0.6,0c0.1,0,0.2,0,0.2,0.1c0.1,0,0.1,0.1,0.1,0.2c0,0.1,0,0.1,-0.1,0.2c0,0,-0.1,0.1,-0.2,0.1Zm0,-2.9c-0.2,-0.1,-0.4,-0.1,-0.7,-0.1c-0.2,-0.1,-0.5,-0.1,-0.7,-0.1c-0.7,0,-1.2,0.2,-1.6,0.5c-0.3,0.3,-0.4,0.6,-0.4,1c0,0.3,0.1,0.6,0.3,0.9c0.2,0.2,0.5,0.3,0.9,0.3c0.4,0,0.8,-0.1,1.1,-0.3c0.4,-0.2,0.7,-0.5,1.1,-0.9Zm3.8,-3l0,0.8c0.3,-0.4,0.6,-0.6,0.9,-0.8c0.2,-0.2,0.5,-0.2,0.8,-0.2c0.4,0,0.7,0.1,1,0.2c0.2,0.2,0.4,0.4,0.5,0.7c0.2,0.3,0.3,0.7,0.3,1l0,3.6l0.4,0c0.1,0,0.2,0,0.2,0.1c0.1,0,0.1,0.1,0.1,0.2c0,0.1,0,0.1,-0.1,0.2c0,0,-0.1,0.1,-0.2,0.1l-1.2,0c-0.2,0,-0.2,-0.1,-0.3,-0.1c0,-0.1,-0.1,-0.1,-0.1,-0.2c0,-0.1,0.1,-0.2,0.1,-0.2c0.1,-0.1,0.1,-0.1,0.3,-0.1l0.3,0l0,-3.5c0,-0.4,-0.1,-0.8,-0.3,-1c-0.3,-0.3,-0.6,-0.5,-1,-0.5c-0.3,0,-0.5,0.1,-0.8,0.3c-0.2,0.1,-0.5,0.5,-0.9,1.1l0,3.6l0.5,0c0.1,0,0.2,0,0.3,0.1c0,0,0,0.1,0,0.2c0,0.1,0,0.1,0,0.2c-0.1,0,-0.2,0.1,-0.3,0.1l-1.5,0c-0.1,0,-0.2,-0.1,-0.2,-0.1c-0.1,-0.1,-0.1,-0.1,-0.1,-0.2c0,-0.1,0,-0.2,0.1,-0.2c0,-0.1,0.1,-0.1,0.2,-0.1l0.5,0l0,-4.7l-0.3,0c-0.2,0,-0.2,-0.1,-0.3,-0.1c0,-0.1,0,-0.2,0,-0.2c0,-0.1,0,-0.2,0,-0.2c0.1,-0.1,0.1,-0.1,0.3,-0.1Zm9.6,1l0,-1l1.1,0c0.1,0,0.2,0,0.2,0.1c0.1,0,0.1,0.1,0.1,0.2c0,0,0,0.1,-0.1,0.2c0,0,-0.1,0.1,-0.2,0.1l-0.6,0l0,5.7c0,0.3,-0.1,0.7,-0.2,1c-0.1,0.2,-0.3,0.4,-0.5,0.6c-0.2,0.2,-0.3,0.4,-0.5,0.5c-0.2,0,-0.4,0.1,-0.7,0.1l-1.3,0c-0.1,0,-0.2,0,-0.2,-0.1c-0.1,0,-0.1,-0.1,-0.1,-0.2c0,-0.1,0,-0.1,0.1,-0.2c0,-0.1,0.1,-0.1,0.2,-0.1l1.3,0c0.3,0,0.5,-0.1,0.8,-0.2c0.2,-0.2,0.4,-0.5,0.5,-0.8c0.1,-0.2,0.1,-0.4,0.1,-0.7l0,-1.7c-0.5,0.8,-1.1,1.2,-1.9,1.2c-0.6,0,-1.1,-0.3,-1.6,-0.9c-0.5,-0.5,-0.7,-1.2,-0.7,-2.1c0,-0.8,0.2,-1.5,0.7,-2.1c0.5,-0.5,1,-0.8,1.6,-0.8c0.8,0,1.4,0.4,1.9,1.2Zm0,1.7c0,-0.6,-0.2,-1.2,-0.5,-1.7c-0.4,-0.4,-0.8,-0.7,-1.4,-0.7c-0.5,0,-0.9,0.3,-1.3,0.7c-0.3,0.5,-0.5,1.1,-0.5,1.7c0,0.7,0.2,1.3,0.5,1.7c0.4,0.5,0.8,0.7,1.3,0.7c0.6,0,1,-0.2,1.4,-0.7c0.3,-0.4,0.5,-1,0.5,-1.7Zm6.6,3.2l0,-0.9c-0.6,0.7,-1.3,1.1,-2,1.1c-0.4,0,-0.8,-0.2,-1,-0.5c-0.3,-0.4,-0.5,-0.8,-0.5,-1.4l0,-3.6l-0.6,0c-0.1,0,-0.2,-0.1,-0.2,-0.1c0,-0.1,-0.1,-0.2,-0.1,-0.2c0,-0.1,0.1,-0.2,0.1,-0.2c0,-0.1,0.1,-0.1,0.2,-0.1l1.1,0l0,4.2c0,0.4,0.1,0.7,0.3,1c0.2,0.2,0.4,0.3,0.7,0.3c0.7,0,1.4,-0.4,2,-1.3l0,-3.6l-0.8,0c-0.1,0,-0.2,-0.1,-0.2,-0.1c-0.1,-0.1,-0.1,-0.2,-0.1,-0.2c0,-0.1,0,-0.2,0.1,-0.2c0,-0.1,0.1,-0.1,0.2,-0.1l1.3,0l0,5.3l0.4,0c0.1,0,0.2,0,0.2,0.1c0.1,0,0.1,0.1,0.1,0.2c0,0.1,0,0.1,-0.1,0.2c0,0,-0.1,0.1,-0.2,0.1Zm6.4,0l0,-0.9c-0.7,0.7,-1.4,1.1,-2.1,1.1c-0.6,0,-1,-0.2,-1.3,-0.5c-0.3,-0.4,-0.5,-0.8,-0.5,-1.3c0,-0.6,0.2,-1,0.6,-1.5c0.4,-0.4,1,-0.6,1.8,-0.6c0.2,0,0.4,0,0.7,0.1c0.2,0,0.5,0.1,0.8,0.1l0,-0.9c0,-0.3,-0.1,-0.6,-0.4,-0.8c-0.2,-0.2,-0.5,-0.4,-1,-0.4c-0.4,0,-0.9,0.2,-1.5,0.4c-0.1,0.1,-0.2,0.1,-0.2,0.1c-0.1,0,-0.1,0,-0.2,-0.1c0,0,0,-0.1,0,-0.2c0,-0.1,0,-0.1,0,-0.2c0.1,0,0.3,-0.1,0.6,-0.2c0.6,-0.2,1,-0.3,1.3,-0.3c0.6,0,1,0.1,1.4,0.5c0.3,0.4,0.5,0.8,0.5,1.2l0,3.8l0.6,0c0.1,0,0.2,0,0.2,0.1c0.1,0,0.1,0.1,0.1,0.2c0,0.1,0,0.1,-0.1,0.2c0,0,-0.1,0.1,-0.2,0.1Zm0,-2.9c-0.2,-0.1,-0.4,-0.1,-0.7,-0.1c-0.2,-0.1,-0.5,-0.1,-0.7,-0.1c-0.7,0,-1.2,0.2,-1.6,0.5c-0.3,0.3,-0.4,0.6,-0.4,1c0,0.3,0.1,0.6,0.3,0.9c0.2,0.2,0.5,0.3,0.9,0.3c0.4,0,0.8,-0.1,1.1,-0.3c0.4,-0.2,0.7,-0.5,1.1,-0.9Zm6.8,-2l0,-1l1.1,0c0.1,0,0.2,0,0.2,0.1c0.1,0,0.1,0.1,0.1,0.2c0,0,0,0.1,-0.1,0.2c0,0,-0.1,0.1,-0.2,0.1l-0.6,0l0,5.7c0,0.3,-0.1,0.7,-0.2,1c-0.1,0.2,-0.3,0.4,-0.5,0.6c-0.2,0.2,-0.3,0.4,-0.5,0.5c-0.2,0,-0.4,0.1,-0.7,0.1l-1.3,0c-0.1,0,-0.2,0,-0.2,-0.1c-0.1,0,-0.1,-0.1,-0.1,-0.2c0,-0.1,0,-0.1,0.1,-0.2c0,-0.1,0.1,-0.1,0.2,-0.1l1.3,0c0.3,0,0.5,-0.1,0.8,-0.2c0.2,-0.2,0.4,-0.5,0.5,-0.8c0.1,-0.2,0.1,-0.4,0.1,-0.7l0,-1.7c-0.5,0.8,-1.1,1.2,-1.9,1.2c-0.6,0,-1.1,-0.3,-1.6,-0.9c-0.5,-0.5,-0.7,-1.2,-0.7,-2.1c0,-0.8,0.2,-1.5,0.7,-2.1c0.5,-0.5,1,-0.8,1.6,-0.8c0.8,0,1.4,0.4,1.9,1.2Zm0,1.7c0,-0.6,-0.2,-1.2,-0.5,-1.7C657,181,656.6,180.7,656,180.7c-0.5,0,-0.9,0.3,-1.3,0.7c-0.3,0.5,-0.5,1.1,-0.5,1.7c0,0.7,0.2,1.3,0.5,1.7c0.4,0.5,0.8,0.7,1.3,0.7c0.6,0,1,-0.2,1.4,-0.7c0.3,-0.4,0.5,-1,0.5,-1.7Zm7.6,0.4l-4.7,0c0.1,0.7,0.3,1.3,0.7,1.7c0.5,0.5,1,0.7,1.6,0.7c0.3,0,0.7,-0.1,1.1,-0.2c0.3,-0.1,0.6,-0.3,0.9,-0.5c0,-0.1,0.1,-0.2,0.1,-0.2c0.1,0,0.2,0.1,0.2,0.1c0,0.1,0.1,0.2,0.1,0.2c0,0.1,-0.1,0.2,-0.1,0.3c-0.2,0.2,-0.5,0.4,-1,0.6c-0.4,0.2,-0.9,0.3,-1.3,0.3c-0.8,0,-1.5,-0.3,-2,-1c-0.5,-0.6,-0.8,-1.4,-0.8,-2.3c0,-0.8,0.3,-1.5,0.8,-2.1c0.5,-0.6,1.1,-0.9,1.8,-0.9c0.7,0,1.4,0.3,1.8,0.9c0.5,0.6,0.8,1.4,0.8,2.4ZM665,182.9c-0.1,-0.7,-0.3,-1.2,-0.7,-1.6c-0.4,-0.4,-0.9,-0.6,-1.4,-0.6c-0.5,0,-1,0.2,-1.4,0.6c-0.4,0.4,-0.6,0.9,-0.7,1.6Zm4.5,-2.5l0.2,0c0.2,0,0.4,0.1,0.5,0.2c0.1,0.2,0.2,0.4,0.2,0.7c0,0.3,-0.1,0.5,-0.2,0.7c-0.1,0.1,-0.3,0.2,-0.5,0.2l-0.2,0c-0.2,0,-0.4,-0.1,-0.5,-0.2c-0.2,-0.2,-0.3,-0.4,-0.3,-0.7c0,-0.3,0.1,-0.5,0.3,-0.7c0.1,-0.1,0.3,-0.2,0.5,-0.2Zm0,4.2l0.2,0c0.2,0,0.4,0.1,0.5,0.3c0.1,0.2,0.2,0.4,0.2,0.6c0,0.3,-0.1,0.5,-0.2,0.7c-0.1,0.2,-0.3,0.3,-0.5,0.3l-0.2,0c-0.2,0,-0.4,-0.1,-0.5,-0.3c-0.2,-0.2,-0.3,-0.4,-0.3,-0.6c0,-0.3,0.1,-0.5,0.3,-0.7c0.1,-0.2,0.3,-0.3,0.5,-0.3ZM683,178.3l0,9.2l1.1,0c0.1,0,0.2,0,0.3,0c0,0.1,0,0.2,0,0.2c0,0.1,0,0.2,0,0.3c-0.1,0,-0.2,0,-0.3,0l-1.5,0l0,-10.3l1.5,0c0.1,0,0.2,0.1,0.3,0.1c0,0.1,0,0.1,0,0.2c0,0.1,0,0.2,0,0.2c-0.1,0.1,-0.2,0.1,-0.3,0.1Zm5.8,-0.6l1.5,0l0.8,3.6c0,0,0,0.1,0,0.1c0,0.1,0,0.2,-0.1,0.3c-0.1,0.1,-0.1,0.1,-0.2,0.1c-0.2,0,-0.3,-0.1,-0.4,-0.3Zm5.1,2.7l0,0.6c0.4,-0.6,0.8,-0.8,1.2,-0.8c0.2,0,0.4,0,0.6,0.2c0.2,0.2,0.3,0.4,0.4,0.7c0.2,-0.3,0.4,-0.5,0.7,-0.7c0.2,-0.2,0.4,-0.2,0.6,-0.2c0.3,0,0.6,0.1,0.8,0.4c0.2,0.3,0.4,0.7,0.4,1.1l0,4l0.3,0c0.2,0,0.2,0,0.3,0.1c0,0,0,0.1,0,0.2c0,0.1,0,0.1,0,0.2c-0.1,0,-0.1,0.1,-0.3,0.1l-0.8,0l0,-4.5c0,-0.3,-0.1,-0.6,-0.2,-0.8c-0.2,-0.2,-0.3,-0.3,-0.5,-0.3c-0.2,0,-0.3,0.1,-0.5,0.3c-0.2,0.1,-0.4,0.4,-0.7,0.9l0,3.8l0.4,0c0.1,0,0.2,0,0.3,0.1c0,0,0,0.1,0,0.2c0,0.1,0,0.1,0,0.2c-0.1,0,-0.2,0.1,-0.3,0.1l-0.8,0l0,-4.5c0,-0.3,-0.1,-0.6,-0.2,-0.8c-0.2,-0.2,-0.3,-0.3,-0.5,-0.3c-0.2,0,-0.3,0.1,-0.5,0.2c-0.2,0.2,-0.5,0.6,-0.7,1l0,3.8l0.4,0c0.1,0,0.2,0,0.2,0.1c0.1,0,0.1,0.1,0.1,0.2c0,0.1,0,0.1,-0.1,0.2c0,0,-0.1,0.1,-0.2,0.1l-1.2,0c-0.2,0,-0.2,-0.1,-0.3,-0.1c0,-0.1,-0.1,-0.1,-0.1,-0.2c0,-0.1,0.1,-0.2,0.1,-0.2c0.1,-0.1,0.1,-0.1,0.3,-0.1l0.3,0l0,-4.7l-0.3,0c-0.2,0,-0.2,-0.1,-0.3,-0.1c0,-0.1,-0.1,-0.2,-0.1,-0.2c0,-0.1,0.1,-0.2,0.1,-0.2c0.1,-0.1,0.1,-0.1,0.3,-0.1Zm10.2,0.3c0,-0.1,0,-0.2,0.1,-0.2c0,-0.1,0.1,-0.1,0.1,-0.1c0.1,0,0.1,0,0.2,0.1c0,0,0.1,0.1,0.1,0.3l0,0.9c0,0.2,-0.1,0.3,-0.1,0.3c-0.1,0.1,-0.1,0.1,-0.2,0.1c0,0,-0.1,0,-0.1,-0.1c-0.1,0,-0.1,-0.1,-0.1,-0.2c0,-0.3,-0.1,-0.5,-0.3,-0.7c-0.3,-0.2,-0.7,-0.4,-1.2,-0.4c-0.5,0,-0.9,0.2,-1.2,0.4c-0.2,0.2,-0.3,0.4,-0.3,0.7c0,0.3,0.1,0.5,0.3,0.7c0.2,0.1,0.5,0.2,1,0.3c0.7,0,1.1,0.1,1.4,0.3c0.3,0.1,0.6,0.3,0.7,0.6c0.2,0.3,0.3,0.6,0.3,0.9c0,0.5,-0.2,0.9,-0.6,1.3c-0.3,0.4,-0.9,0.6,-1.6,0.6c-0.7,0,-1.3,-0.2,-1.8,-0.7c0,0.2,0,0.3,0,0.3c0,0,0,0.1,-0.1,0.1c0,0.1,-0.1,0.1,-0.1,0.1c-0.1,0,-0.1,-0.1,-0.2,-0.1c0,-0.1,0,-0.2,0,-0.3l0,-1.2c0,-0.1,0,-0.2,0,-0.3c0.1,0,0.1,-0.1,0.2,-0.1c0.1,0,0.1,0.1,0.2,0.1c0,0.1,0,0.1,0,0.2c0,0.2,0.1,0.4,0.1,0.6c0.2,0.2,0.4,0.4,0.7,0.5c0.2,0.1,0.6,0.2,1,0.2c0.6,0,1,-0.1,1.3,-0.4c0.3,-0.3,0.4,-0.6,0.4,-0.9c0,-0.3,-0.1,-0.6,-0.4,-0.8c-0.3,-0.2,-0.7,-0.4,-1.3,-0.5c-0.6,0,-1,-0.1,-1.2,-0.2c-0.3,-0.2,-0.5,-0.3,-0.6,-0.6c-0.1,-0.2,-0.2,-0.5,-0.2,-0.7c0,-0.5,0.2,-0.9,0.6,-1.2c0.4,-0.3,0.8,-0.4,1.3,-0.4c0.7,0,1.2,0.2,1.6,0.5Zm4.1,-3l1.5,0l-1.6,3.8c-0.1,0.2,-0.2,0.3,-0.3,0.3c-0.1,0,-0.2,0,-0.3,-0.1c0,-0.1,-0.1,-0.2,-0.1,-0.3c0,0,0,-0.1,0,-0.1Zm7.4,9.8l0,-9.2l-1.1,0c-0.2,0,-0.2,0,-0.3,-0.1c0,0,0,-0.1,0,-0.2c0,-0.1,0,-0.1,0,-0.2c0.1,0,0.1,-0.1,0.3,-0.1l1.5,0l0,10.3l-1.5,0c-0.2,0,-0.2,0,-0.3,0c0,-0.1,0,-0.2,0,-0.3c0,0,0,-0.1,0,-0.2c0.1,0,0.1,0,0.3,0Zm7,-4.6c-0.1,-0.2,-0.3,-0.4,-0.3,-0.5c-0.1,-0.2,-0.1,-0.5,-0.1,-0.7l0,-2.5c0,-0.2,-0.1,-0.4,-0.2,-0.6c-0.1,-0.2,-0.3,-0.3,-0.5,-0.3c-0.1,0,-0.2,0,-0.2,-0.1c0,0,-0.1,-0.1,-0.1,-0.2c0,-0.1,0.1,-0.1,0.1,-0.2c0,0,0.1,-0.1,0.2,-0.1c0.3,0,0.5,0.1,0.7,0.4c0.3,0.3,0.4,0.7,0.4,1.1l0,2.5c0,0.2,0.1,0.4,0.2,0.6c0.1,0.2,0.3,0.3,0.5,0.3c0,0,0.1,0,0.2,0.1c0,0,0,0.1,0,0.2c0,0.1,0,0.1,0,0.2c-0.1,0,-0.2,0.1,-0.2,0.1c-0.2,0,-0.4,0.1,-0.5,0.3c-0.1,0.1,-0.2,0.3,-0.2,0.6l0,2.4c0,0.5,-0.1,0.8,-0.3,1.1c-0.2,0.3,-0.5,0.4,-0.8,0.4c-0.1,0,-0.2,0,-0.2,0c0,-0.1,-0.1,-0.2,-0.1,-0.3c0,0,0.1,-0.1,0.1,-0.2c0,0,0.1,0,0.2,0c0.2,-0.1,0.4,-0.2,0.5,-0.3c0.1,-0.2,0.2,-0.4,0.2,-0.7l0,-2.4c0,-0.3,0,-0.5,0.1,-0.7c0,-0.2,0.2,-0.3,0.3,-0.5Zm5.5,1.3l1.5,0l-1.7,3.8c-0.1,0.2,-0.2,0.3,-0.3,0.3c-0.1,0,-0.2,0,-0.2,-0.1c-0.1,-0.1,-0.1,-0.2,-0.1,-0.3c0,0,0,-0.1,0,-0.2Z" class="g4_19" />
<path d="M524.1,198.3c0.2,0.2,0.3,0.3,0.4,0.5c0.1,0.2,0.1,0.4,0.1,0.7l0,2.4c0,0.3,0.1,0.5,0.2,0.7c0.1,0.1,0.3,0.2,0.4,0.3c0.1,0,0.2,0,0.3,0c0,0.1,0,0.2,0,0.2c0,0.1,0,0.2,0,0.3c-0.1,0,-0.2,0,-0.2,0c-0.3,0,-0.6,-0.1,-0.8,-0.3c-0.2,-0.3,-0.4,-0.7,-0.4,-1.2l0,-2.4c0,-0.3,0,-0.5,-0.1,-0.6c-0.2,-0.2,-0.3,-0.3,-0.5,-0.3c-0.1,0,-0.2,-0.1,-0.2,-0.1c0,-0.1,-0.1,-0.1,-0.1,-0.2c0,-0.1,0.1,-0.2,0.1,-0.2c0,-0.1,0.1,-0.1,0.2,-0.1c0.2,0,0.4,-0.1,0.5,-0.3c0.1,-0.2,0.1,-0.4,0.1,-0.6l0,-2.5c0,-0.4,0.2,-0.8,0.4,-1c0.2,-0.3,0.5,-0.5,0.8,-0.5c0,0,0.1,0.1,0.2,0.1c0,0.1,0,0.1,0,0.2c0,0.1,0,0.2,0,0.2c-0.1,0.1,-0.1,0.1,-0.3,0.1c-0.1,0,-0.3,0.1,-0.4,0.3c-0.1,0.2,-0.2,0.4,-0.2,0.6l0,2.5c0,0.3,0,0.5,-0.1,0.7c-0.1,0.1,-0.2,0.3,-0.4,0.5Zm8.5,3.4l-0.6,0L531,198l-1,3.7l-0.6,0l-0.9,-5.3l-0.3,0c-0.1,0,-0.1,-0.1,-0.2,-0.1c0,-0.1,-0.1,-0.2,-0.1,-0.2c0,-0.1,0.1,-0.2,0.1,-0.2c0.1,-0.1,0.1,-0.1,0.2,-0.1l1.3,0c0.1,0,0.2,0,0.2,0.1c0.1,0,0.1,0.1,0.1,0.2c0,0,0,0.1,-0.1,0.2c0,0,-0.1,0.1,-0.2,0.1l-0.6,0l0.8,4.5l1,-3.6l0.5,0l1,3.6l0.8,-4.5l-0.5,0c-0.2,0,-0.2,-0.1,-0.3,-0.1c0,-0.1,-0.1,-0.2,-0.1,-0.2c0,-0.1,0.1,-0.2,0.1,-0.2c0.1,-0.1,0.1,-0.1,0.3,-0.1l1.2,0c0.1,0,0.2,0,0.2,0.1c0.1,0,0.1,0.1,0.1,0.2c0,0,0,0.1,-0.1,0.2c0,0,-0.1,0.1,-0.2,0.1l-0.2,0Zm7.5,-3c0,0.9,-0.2,1.6,-0.7,2.3c-0.5,0.6,-1.1,0.9,-1.8,0.9c-0.7,0,-1.3,-0.3,-1.8,-0.9c-0.5,-0.7,-0.8,-1.4,-0.8,-2.3c0,-0.8,0.3,-1.6,0.8,-2.2c0.5,-0.6,1.1,-0.9,1.8,-0.9c0.7,0,1.3,0.3,1.8,0.9c0.5,0.6,0.7,1.4,0.7,2.2Zm-0.4,0c0,-0.7,-0.2,-1.3,-0.6,-1.8c-0.4,-0.5,-0.9,-0.8,-1.5,-0.8c-0.6,0,-1.1,0.3,-1.5,0.8c-0.4,0.5,-0.6,1.1,-0.6,1.8c0,0.7,0.2,1.3,0.6,1.9c0.4,0.5,0.9,0.7,1.5,0.7c0.6,0,1.1,-0.2,1.5,-0.7c0.4,-0.5,0.6,-1.2,0.6,-1.9Zm3.9,-2.9l0,1.4c0.6,-0.7,1.1,-1.1,1.4,-1.3c0.3,-0.2,0.5,-0.3,0.8,-0.3c0.3,0,0.5,0.1,0.7,0.4c0.3,0.2,0.4,0.4,0.4,0.5c0,0.1,0,0.2,-0.1,0.2c0,0.1,-0.1,0.1,-0.1,0.1c-0.1,0,-0.1,0,-0.1,0c-0.1,0,-0.1,-0.1,-0.2,-0.2c-0.1,-0.1,-0.2,-0.2,-0.3,-0.3c-0.1,-0.1,-0.2,-0.1,-0.3,-0.1c-0.2,0,-0.4,0.1,-0.7,0.3c-0.3,0.2,-0.8,0.7,-1.5,1.5l0,3.1l2.1,0c0.1,0,0.1,0,0.2,0.1c0,0,0.1,0.1,0.1,0.2c0,0.1,-0.1,0.1,-0.1,0.2c-0.1,0,-0.1,0.1,-0.2,0.1l-3.6,0c-0.1,0,-0.2,-0.1,-0.3,-0.1c0,-0.1,0,-0.1,0,-0.2c0,-0.1,0,-0.2,0,-0.2c0.1,-0.1,0.2,-0.1,0.3,-0.1l1.1,0l0,-4.7l-0.9,0c-0.1,0,-0.2,-0.1,-0.2,-0.1C542,196.2,542,196.1,542,196.1c0,-0.1,0,-0.2,0.1,-0.2c0,-0.1,0.1,-0.1,0.2,-0.1Zm9.4,-2.7l0,8l0.6,0c0.1,0,0.2,0,0.3,0.1c0,0,0,0.1,0,0.2c0,0.1,0,0.1,0,0.2c-0.1,0,-0.2,0.1,-0.3,0.1l-1,0l0,-1.2c-0.6,0.9,-1.2,1.4,-2.1,1.4c-0.4,0,-0.8,-0.1,-1.2,-0.4c-0.3,-0.3,-0.6,-0.7,-0.9,-1.2c-0.2,-0.5,-0.3,-1,-0.3,-1.6c0,-0.5,0.1,-1,0.3,-1.5c0.3,-0.5,0.6,-0.9,0.9,-1.2c0.4,-0.3,0.8,-0.4,1.2,-0.4c0.8,0,1.5,0.4,2.1,1.3l0,-3.2l-0.7,0c-0.1,0,-0.1,0,-0.2,-0.1c0,0,-0.1,-0.1,-0.1,-0.2c0,-0.1,0.1,-0.1,0.1,-0.2c0.1,0,0.1,-0.1,0.2,-0.1Zm-0.4,5.6c0,-0.7,-0.2,-1.3,-0.6,-1.8c-0.4,-0.5,-0.9,-0.8,-1.4,-0.8c-0.6,0,-1,0.3,-1.4,0.8c-0.4,0.5,-0.6,1.1,-0.6,1.8c0,0.8,0.2,1.4,0.6,1.9c0.4,0.5,0.8,0.7,1.4,0.7c0.5,0,1,-0.2,1.4,-0.7c0.4,-0.5,0.6,-1.1,0.6,-1.9Zm4.7,-2.9l0.2,0c0.2,0,0.4,0.1,0.5,0.2c0.1,0.2,0.2,0.4,0.2,0.7c0,0.3,-0.1,0.5,-0.2,0.7c-0.1,0.1,-0.3,0.2,-0.5,0.2l-0.2,0c-0.2,0,-0.4,-0.1,-0.5,-0.2c-0.2,-0.2,-0.3,-0.4,-0.3,-0.7c0,-0.3,0.1,-0.5,0.3,-0.7c0.1,-0.1,0.3,-0.2,0.5,-0.2Zm0,4.2l0.2,0c0.2,0,0.4,0.1,0.5,0.3c0.1,0.2,0.2,0.4,0.2,0.6c0,0.3,-0.1,0.5,-0.2,0.7c-0.1,0.2,-0.3,0.3,-0.5,0.3l-0.2,0c-0.2,0,-0.4,-0.1,-0.5,-0.3c-0.2,-0.2,-0.3,-0.4,-0.3,-0.6c0,-0.3,0.1,-0.5,0.3,-0.7c0.1,-0.2,0.3,-0.3,0.5,-0.3ZM570,193.1l1.5,0l0.8,3.6c0,0,0,0.1,0,0.1c0,0.1,0,0.2,-0.1,0.3c-0.1,0.1,-0.1,0.1,-0.2,0.1c-0.2,0,-0.3,-0.1,-0.4,-0.3Zm9.7,5.8l-4.7,0c0.1,0.7,0.3,1.3,0.7,1.7c0.5,0.5,1,0.7,1.6,0.7c0.3,0,0.7,-0.1,1.1,-0.2c0.3,-0.1,0.6,-0.3,0.9,-0.5c0,-0.1,0.1,-0.2,0.1,-0.2c0.1,0,0.2,0.1,0.2,0.1c0,0.1,0.1,0.2,0.1,0.2c0,0.1,-0.1,0.2,-0.1,0.3c-0.2,0.2,-0.5,0.4,-1,0.6c-0.4,0.2,-0.9,0.3,-1.3,0.3c-0.8,0,-1.5,-0.3,-2,-1c-0.5,-0.6,-0.8,-1.4,-0.8,-2.3c0,-0.8,0.3,-1.5,0.8,-2.1c0.5,-0.6,1.1,-0.9,1.8,-0.9c0.7,0,1.4,0.3,1.8,0.9c0.5,0.6,0.8,1.4,0.8,2.4Zm-0.5,-0.6c-0.1,-0.7,-0.3,-1.2,-0.7,-1.6c-0.4,-0.4,-0.9,-0.6,-1.4,-0.6c-0.5,0,-1,0.2,-1.4,0.6c-0.4,0.4,-0.6,0.9,-0.7,1.6Zm2.5,-2.5l0,0.6c0.4,-0.6,0.8,-0.8,1.2,-0.8c0.2,0,0.4,0,0.6,0.2c0.2,0.2,0.3,0.4,0.4,0.7c0.2,-0.3,0.4,-0.5,0.7,-0.7c0.2,-0.2,0.4,-0.2,0.6,-0.2c0.3,0,0.6,0.1,0.8,0.4c0.2,0.3,0.4,0.7,0.4,1.1l0,4l0.3,0c0.2,0,0.2,0,0.3,0.1c0,0,0,0.1,0,0.2c0,0.1,0,0.1,0,0.2c-0.1,0,-0.1,0.1,-0.3,0.1l-0.8,0l0,-4.5c0,-0.3,-0.1,-0.6,-0.2,-0.8c-0.2,-0.2,-0.3,-0.3,-0.5,-0.3c-0.2,0,-0.3,0.1,-0.5,0.3c-0.2,0.1,-0.4,0.4,-0.7,0.9l0,3.8l0.4,0c0.1,0,0.2,0,0.3,0.1c0,0,0,0.1,0,0.2c0,0.1,0,0.1,0,0.2c-0.1,0,-0.2,0.1,-0.3,0.1l-0.8,0l0,-4.5c0,-0.3,-0.1,-0.6,-0.2,-0.8c-0.2,-0.2,-0.3,-0.3,-0.5,-0.3c-0.2,0,-0.3,0.1,-0.5,0.2c-0.2,0.2,-0.5,0.6,-0.7,1l0,3.8l0.4,0c0.1,0,0.2,0,0.2,0.1c0.1,0,0.1,0.1,0.1,0.2c0,0.1,0,0.1,-0.1,0.2c0,0,-0.1,0.1,-0.2,0.1l-1.2,0c-0.2,0,-0.2,-0.1,-0.3,-0.1c0,-0.1,-0.1,-0.1,-0.1,-0.2c0,-0.1,0.1,-0.2,0.1,-0.2c0.1,-0.1,0.1,-0.1,0.3,-0.1l0.3,0l0,-4.7l-0.3,0c-0.2,0,-0.2,-0.1,-0.3,-0.1c0,-0.1,-0.1,-0.2,-0.1,-0.2c0,-0.1,0.1,-0.2,0.1,-0.2c0.1,-0.1,0.1,-0.1,0.3,-0.1Zm7,-2.7l0,3.8c0.5,-0.9,1.2,-1.3,2,-1.3c0.6,0,1.2,0.3,1.7,0.9c0.4,0.6,0.7,1.3,0.7,2.2c0,0.9,-0.3,1.6,-0.7,2.3c-0.5,0.6,-1.1,0.9,-1.7,0.9c-0.8,0,-1.5,-0.5,-2,-1.4l0,1.2l-1.1,0c-0.1,0,-0.2,-0.1,-0.3,-0.1c0,-0.1,0,-0.1,0,-0.2c0,-0.1,0,-0.2,0,-0.2c0.1,-0.1,0.2,-0.1,0.3,-0.1l0.6,0l0,-7.4l-0.6,0c-0.1,0,-0.2,0,-0.3,-0.1c0,0,0,-0.1,0,-0.2c0,-0.1,0,-0.1,0,-0.2c0.1,0,0.2,-0.1,0.3,-0.1Zm3.9,5.6c0,-0.7,-0.2,-1.3,-0.6,-1.8c-0.4,-0.5,-0.8,-0.8,-1.4,-0.8c-0.5,0,-1,0.3,-1.3,0.8c-0.4,0.5,-0.6,1.1,-0.6,1.8c0,0.8,0.2,1.4,0.6,1.9c0.3,0.5,0.8,0.7,1.3,0.7c0.6,0,1,-0.2,1.4,-0.7c0.4,-0.5,0.6,-1.1,0.6,-1.9Zm6.9,0.2l-4.7,0c0.1,0.7,0.3,1.3,0.7,1.7c0.5,0.5,1,0.7,1.6,0.7c0.3,0,0.7,-0.1,1.1,-0.2c0.3,-0.1,0.6,-0.3,0.9,-0.5c0,-0.1,0.1,-0.2,0.1,-0.2c0.1,0,0.2,0.1,0.2,0.1c0,0.1,0.1,0.2,0.1,0.2c0,0.1,-0.1,0.2,-0.1,0.3c-0.2,0.2,-0.5,0.4,-1,0.6c-0.4,0.2,-0.9,0.3,-1.3,0.3c-0.8,0,-1.5,-0.3,-2,-1c-0.5,-0.6,-0.8,-1.4,-0.8,-2.3c0,-0.8,0.3,-1.5,0.8,-2.1c0.5,-0.6,1.1,-0.9,1.8,-0.9c0.7,0,1.4,0.3,1.8,0.9c0.5,0.6,0.8,1.4,0.8,2.4ZM599,198.3c-0.1,-0.7,-0.3,-1.2,-0.7,-1.6c-0.4,-0.4,-0.9,-0.6,-1.4,-0.6c-0.5,0,-1,0.2,-1.4,0.6c-0.4,0.4,-0.6,0.9,-0.7,1.6Zm4,-2.5l0,1.4c0.6,-0.7,1.1,-1.1,1.4,-1.3c0.3,-0.2,0.5,-0.3,0.8,-0.3c0.3,0,0.5,0.1,0.7,0.4c0.3,0.2,0.4,0.4,0.4,0.5c0,0.1,0,0.2,-0.1,0.2c0,0.1,-0.1,0.1,-0.1,0.1c-0.1,0,-0.1,0,-0.1,0c-0.1,0,-0.1,-0.1,-0.2,-0.2c-0.1,-0.1,-0.2,-0.2,-0.3,-0.3c-0.1,-0.1,-0.2,-0.1,-0.3,-0.1c-0.2,0,-0.4,0.1,-0.7,0.3c-0.3,0.2,-0.8,0.7,-1.5,1.5l0,3.1l2.1,0c0.1,0,0.1,0,0.2,0.1c0,0,0.1,0.1,0.1,0.2c0,0.1,-0.1,0.1,-0.1,0.2c-0.1,0,-0.1,0.1,-0.2,0.1l-3.6,0c-0.1,0,-0.2,-0.1,-0.3,-0.1c0,-0.1,0,-0.1,0,-0.2c0,-0.1,0,-0.2,0,-0.2c0.1,-0.1,0.2,-0.1,0.3,-0.1l1.1,0l0,-4.7l-0.9,0c-0.1,0,-0.2,-0.1,-0.2,-0.1c-0.1,-0.1,-0.1,-0.2,-0.1,-0.2c0,-0.1,0,-0.2,0.1,-0.2c0,-0.1,0.1,-0.1,0.2,-0.1Zm6.2,-2.7l1.5,0l-1.6,3.8c-0.1,0.2,-0.2,0.3,-0.3,0.3c-0.1,0,-0.2,0,-0.3,-0.1c0,-0.1,-0.1,-0.2,-0.1,-0.3c0,0,0,-0.1,0,-0.1Zm6.7,6.5l1.5,0l-1.7,3.8c-0.1,0.2,-0.2,0.3,-0.3,0.3c-0.1,0,-0.2,0,-0.2,-0.1c-0.1,-0.1,-0.1,-0.2,-0.1,-0.3c0,0,0,-0.1,0,-0.2Zm14.3,-6.5l0,8l1.8,0c0.1,0,0.2,0,0.2,0.1c0.1,0,0.1,0.1,0.1,0.2c0,0.1,0,0.1,-0.1,0.2c0,0,-0.1,0.1,-0.2,0.1l-4,0c-0.2,0,-0.2,-0.1,-0.3,-0.1c0,-0.1,0,-0.1,0,-0.2c0,-0.1,0,-0.2,0,-0.2c0.1,-0.1,0.1,-0.1,0.3,-0.1l1.8,0l0,-7.4l-1.4,0c-0.1,0,-0.2,0,-0.2,-0.1c-0.1,0,-0.1,-0.1,-0.1,-0.2c0,-0.1,0,-0.1,0.1,-0.2c0,0,0.1,-0.1,0.2,-0.1Zm7.7,8.6l0,-0.9c-0.7,0.7,-1.4,1.1,-2.1,1.1c-0.6,0,-1,-0.2,-1.3,-0.5C634.2,201,634,200.6,634,200.1c0,-0.6,0.2,-1,0.6,-1.5c0.4,-0.4,1,-0.6,1.8,-0.6c0.2,0,0.4,0,0.7,0.1c0.2,0,0.5,0.1,0.8,0.1l0,-0.9c0,-0.3,-0.1,-0.6,-0.4,-0.8c-0.2,-0.2,-0.5,-0.4,-1,-0.4c-0.4,0,-0.9,0.2,-1.5,0.4c-0.1,0.1,-0.2,0.1,-0.2,0.1c-0.1,0,-0.1,0,-0.2,-0.1c0,0,0,-0.1,0,-0.2c0,-0.1,0,-0.1,0,-0.2c0.1,0,0.3,-0.1,0.6,-0.2c0.6,-0.2,1,-0.3,1.3,-0.3c0.6,0,1,0.1,1.4,0.5c0.3,0.4,0.5,0.8,0.5,1.2l0,3.8l0.6,0c0.1,0,0.2,0,0.2,0.1c0.1,0,0.1,0.1,0.1,0.2c0,0.1,0,0.1,-0.1,0.2c0,0,-0.1,0.1,-0.2,0.1Zm0,-2.9c-0.2,-0.1,-0.4,-0.1,-0.7,-0.1c-0.2,-0.1,-0.5,-0.1,-0.7,-0.1c-0.7,0,-1.2,0.2,-1.6,0.5c-0.3,0.3,-0.4,0.6,-0.4,1c0,0.3,0.1,0.6,0.3,0.9c0.2,0.2,0.5,0.3,0.9,0.3c0.4,0,0.8,-0.1,1.1,-0.3c0.4,-0.2,0.7,-0.5,1.1,-0.9Zm3.8,-3l0,0.8c0.3,-0.4,0.6,-0.6,0.9,-0.8c0.2,-0.2,0.5,-0.2,0.8,-0.2c0.4,0,0.7,0.1,1,0.2c0.2,0.2,0.4,0.4,0.5,0.7c0.2,0.3,0.3,0.7,0.3,1l0,3.6l0.4,0c0.1,0,0.2,0,0.2,0.1c0.1,0,0.1,0.1,0.1,0.2c0,0.1,0,0.1,-0.1,0.2c0,0,-0.1,0.1,-0.2,0.1l-1.2,0c-0.2,0,-0.2,-0.1,-0.3,-0.1c0,-0.1,-0.1,-0.1,-0.1,-0.2c0,-0.1,0.1,-0.2,0.1,-0.2c0.1,-0.1,0.1,-0.1,0.3,-0.1l0.3,0l0,-3.5c0,-0.4,-0.1,-0.8,-0.3,-1c-0.3,-0.3,-0.6,-0.5,-1,-0.5c-0.3,0,-0.5,0.1,-0.8,0.3c-0.2,0.1,-0.5,0.5,-0.9,1.1l0,3.6l0.5,0c0.1,0,0.2,0,0.3,0.1c0,0,0,0.1,0,0.2c0,0.1,0,0.1,0,0.2c-0.1,0,-0.2,0.1,-0.3,0.1l-1.5,0c-0.1,0,-0.2,-0.1,-0.2,-0.1c-0.1,-0.1,-0.1,-0.1,-0.1,-0.2c0,-0.1,0,-0.2,0.1,-0.2c0,-0.1,0.1,-0.1,0.2,-0.1l0.5,0l0,-4.7l-0.3,0c-0.2,0,-0.2,-0.1,-0.3,-0.1c0,-0.1,0,-0.2,0,-0.2c0,-0.1,0,-0.2,0,-0.2c0.1,-0.1,0.1,-0.1,0.3,-0.1Zm9.6,1l0,-1l1.1,0c0.1,0,0.2,0,0.2,0.1c0.1,0,0.1,0.1,0.1,0.2c0,0,0,0.1,-0.1,0.2c0,0,-0.1,0.1,-0.2,0.1l-0.6,0l0,5.7c0,0.3,-0.1,0.7,-0.2,1c-0.1,0.2,-0.3,0.4,-0.5,0.6c-0.2,0.2,-0.3,0.4,-0.5,0.5c-0.2,0,-0.4,0.1,-0.7,0.1l-1.3,0c-0.1,0,-0.2,0,-0.2,-0.1c-0.1,0,-0.1,-0.1,-0.1,-0.2c0,-0.1,0,-0.1,0.1,-0.2c0,-0.1,0.1,-0.1,0.2,-0.1l1.3,0c0.3,0,0.5,-0.1,0.8,-0.2c0.2,-0.2,0.4,-0.5,0.5,-0.8c0.1,-0.2,0.1,-0.4,0.1,-0.7l0,-1.7c-0.5,0.8,-1.1,1.2,-1.9,1.2c-0.6,0,-1.1,-0.3,-1.6,-0.9c-0.5,-0.5,-0.7,-1.2,-0.7,-2.1c0,-0.8,0.2,-1.5,0.7,-2.1c0.5,-0.5,1,-0.8,1.6,-0.8c0.8,0,1.4,0.4,1.9,1.2Zm0,1.7c0,-0.6,-0.2,-1.2,-0.5,-1.7c-0.4,-0.4,-0.8,-0.7,-1.4,-0.7c-0.5,0,-0.9,0.3,-1.3,0.7c-0.3,0.5,-0.5,1.1,-0.5,1.7c0,0.7,0.2,1.3,0.5,1.7c0.4,0.5,0.8,0.7,1.3,0.7c0.6,0,1,-0.2,1.4,-0.7c0.3,-0.4,0.5,-1,0.5,-1.7Zm6.6,3.2l0,-0.9c-0.6,0.7,-1.3,1.1,-2,1.1c-0.4,0,-0.8,-0.2,-1,-0.5c-0.3,-0.4,-0.5,-0.8,-0.5,-1.4l0,-3.6l-0.6,0c-0.1,0,-0.2,-0.1,-0.2,-0.1c0,-0.1,-0.1,-0.2,-0.1,-0.2c0,-0.1,0.1,-0.2,0.1,-0.2c0,-0.1,0.1,-0.1,0.2,-0.1l1.1,0l0,4.2c0,0.4,0.1,0.7,0.3,1c0.2,0.2,0.4,0.3,0.7,0.3c0.7,0,1.4,-0.4,2,-1.3l0,-3.6l-0.8,0c-0.1,0,-0.2,-0.1,-0.2,-0.1c-0.1,-0.1,-0.1,-0.2,-0.1,-0.2c0,-0.1,0,-0.2,0.1,-0.2c0,-0.1,0.1,-0.1,0.2,-0.1l1.3,0l0,5.3l0.4,0c0.1,0,0.2,0,0.2,0.1c0.1,0,0.1,0.1,0.1,0.2c0,0.1,0,0.1,-0.1,0.2c0,0,-0.1,0.1,-0.2,0.1Zm6.4,0l0,-0.9c-0.7,0.7,-1.4,1.1,-2.1,1.1c-0.6,0,-1,-0.2,-1.3,-0.5c-0.3,-0.4,-0.5,-0.8,-0.5,-1.3c0,-0.6,0.2,-1,0.6,-1.5c0.4,-0.4,1,-0.6,1.8,-0.6c0.2,0,0.4,0,0.7,0.1c0.2,0,0.5,0.1,0.8,0.1l0,-0.9c0,-0.3,-0.1,-0.6,-0.4,-0.8c-0.2,-0.2,-0.5,-0.4,-1,-0.4c-0.4,0,-0.9,0.2,-1.5,0.4c-0.1,0.1,-0.2,0.1,-0.2,0.1c-0.1,0,-0.1,0,-0.2,-0.1c0,0,0,-0.1,0,-0.2c0,-0.1,0,-0.1,0,-0.2c0.1,0,0.3,-0.1,0.6,-0.2c0.6,-0.2,1,-0.3,1.3,-0.3c0.6,0,1,0.1,1.4,0.5c0.3,0.4,0.5,0.8,0.5,1.2l0,3.8l0.6,0c0.1,0,0.2,0,0.2,0.1c0.1,0,0.1,0.1,0.1,0.2c0,0.1,0,0.1,-0.1,0.2c0,0,-0.1,0.1,-0.2,0.1Zm0,-2.9c-0.2,-0.1,-0.4,-0.1,-0.7,-0.1c-0.2,-0.1,-0.5,-0.1,-0.7,-0.1c-0.7,0,-1.2,0.2,-1.6,0.5c-0.3,0.3,-0.4,0.6,-0.4,1c0,0.3,0.1,0.6,0.3,0.9c0.2,0.2,0.5,0.3,0.9,0.3c0.4,0,0.8,-0.1,1.1,-0.3c0.4,-0.2,0.7,-0.5,1.1,-0.9Zm6.8,-2l0,-1l1.1,0c0.1,0,0.2,0,0.2,0.1c0.1,0,0.1,0.1,0.1,0.2c0,0,0,0.1,-0.1,0.2c0,0,-0.1,0.1,-0.2,0.1l-0.6,0l0,5.7c0,0.3,-0.1,0.7,-0.2,1c-0.1,0.2,-0.3,0.4,-0.5,0.6c-0.2,0.2,-0.3,0.4,-0.5,0.5c-0.2,0,-0.4,0.1,-0.7,0.1l-1.3,0c-0.1,0,-0.2,0,-0.2,-0.1c-0.1,0,-0.1,-0.1,-0.1,-0.2c0,-0.1,0,-0.1,0.1,-0.2c0,-0.1,0.1,-0.1,0.2,-0.1l1.3,0c0.3,0,0.5,-0.1,0.8,-0.2c0.2,-0.2,0.4,-0.5,0.5,-0.8c0.1,-0.2,0.1,-0.4,0.1,-0.7l0,-1.7c-0.5,0.8,-1.1,1.2,-1.9,1.2c-0.6,0,-1.1,-0.3,-1.6,-0.9c-0.5,-0.5,-0.7,-1.2,-0.7,-2.1c0,-0.8,0.2,-1.5,0.7,-2.1c0.5,-0.5,1,-0.8,1.6,-0.8c0.8,0,1.4,0.4,1.9,1.2Zm0,1.7c0,-0.6,-0.2,-1.2,-0.5,-1.7c-0.4,-0.4,-0.8,-0.7,-1.4,-0.7c-0.5,0,-0.9,0.3,-1.3,0.7c-0.3,0.5,-0.5,1.1,-0.5,1.7c0,0.7,0.2,1.3,0.5,1.7c0.4,0.5,0.8,0.7,1.3,0.7c0.6,0,1,-0.2,1.4,-0.7c0.3,-0.4,0.5,-1,0.5,-1.7Zm7.6,0.4l-4.7,0c0.1,0.7,0.3,1.3,0.7,1.7c0.5,0.5,1,0.7,1.6,0.7c0.3,0,0.7,-0.1,1.1,-0.2c0.3,-0.1,0.6,-0.3,0.9,-0.5c0,-0.1,0.1,-0.2,0.1,-0.2c0.1,0,0.2,0.1,0.2,0.1c0,0.1,0.1,0.2,0.1,0.2c0,0.1,-0.1,0.2,-0.1,0.3c-0.2,0.2,-0.5,0.4,-1,0.6c-0.4,0.2,-0.9,0.3,-1.3,0.3c-0.8,0,-1.5,-0.3,-2,-1c-0.5,-0.6,-0.8,-1.4,-0.8,-2.3c0,-0.8,0.3,-1.5,0.8,-2.1c0.5,-0.6,1.1,-0.9,1.8,-0.9c0.7,0,1.4,0.3,1.8,0.9c0.5,0.6,0.8,1.4,0.8,2.4Zm-0.5,-0.6c-0.1,-0.7,-0.3,-1.2,-0.7,-1.6c-0.4,-0.4,-0.9,-0.6,-1.4,-0.6c-0.5,0,-1,0.2,-1.4,0.6c-0.4,0.4,-0.6,0.9,-0.7,1.6Zm4.5,-2.5l0.2,0c0.2,0,0.4,0.1,0.5,0.2c0.1,0.2,0.2,0.4,0.2,0.7c0,0.3,-0.1,0.5,-0.2,0.7c-0.1,0.1,-0.3,0.2,-0.5,0.2l-0.2,0c-0.2,0,-0.4,-0.1,-0.5,-0.2c-0.2,-0.2,-0.3,-0.4,-0.3,-0.7c0,-0.3,0.1,-0.5,0.3,-0.7c0.1,-0.1,0.3,-0.2,0.5,-0.2Zm0,4.2l0.2,0c0.2,0,0.4,0.1,0.5,0.3c0.1,0.2,0.2,0.4,0.2,0.6c0,0.3,-0.1,0.5,-0.2,0.7c-0.1,0.2,-0.3,0.3,-0.5,0.3l-0.2,0c-0.2,0,-0.4,-0.1,-0.5,-0.3c-0.2,-0.2,-0.3,-0.4,-0.3,-0.6c0,-0.3,0.1,-0.5,0.3,-0.7c0.1,-0.2,0.3,-0.3,0.5,-0.3Zm13.5,-6.3l0,9.2l1.1,0c0.1,0,0.2,0,0.3,0c0,0.1,0,0.2,0,0.2c0,0.1,0,0.2,0,0.3c-0.1,0,-0.2,0,-0.3,0l-1.5,0l0,-10.3l1.5,0c0.1,0,0.2,0.1,0.3,0.1c0,0.1,0,0.1,0,0.2c0,0.1,0,0.2,0,0.2c-0.1,0.1,-0.2,0.1,-0.3,0.1Zm5.8,-0.6l1.5,0l0.8,3.6c0,0,0,0.1,0,0.1c0,0.1,0,0.2,-0.1,0.3c-0.1,0.1,-0.1,0.1,-0.2,0.1c-0.2,0,-0.3,-0.1,-0.4,-0.3Zm7.4,-0.3l0,1.5l-0.7,0l0,-1.5Zm0,3l0,5.3l1.8,0c0.1,0,0.2,0,0.3,0.1c0,0,0,0.1,0,0.2c0,0.1,0,0.1,0,0.2c-0.1,0,-0.2,0.1,-0.3,0.1l-4,0c-0.1,0,-0.2,-0.1,-0.3,-0.1c0,-0.1,0,-0.1,0,-0.2c0,-0.1,0,-0.2,0,-0.2c0.1,-0.1,0.2,-0.1,0.3,-0.1l1.8,0l0,-4.7l-1.4,0c-0.1,0,-0.2,-0.1,-0.2,-0.1c-0.1,-0.1,-0.1,-0.2,-0.1,-0.2c0,-0.1,0,-0.2,0.1,-0.2c0,-0.1,0.1,-0.1,0.2,-0.1Zm8.6,-2.7l0,8l0.6,0c0.1,0,0.2,0,0.3,0.1c0,0,0,0.1,0,0.2c0,0.1,0,0.1,0,0.2c-0.1,0,-0.2,0.1,-0.3,0.1l-1,0l0,-1.2c-0.6,0.9,-1.2,1.4,-2.1,1.4c-0.4,0,-0.8,-0.1,-1.2,-0.4c-0.3,-0.3,-0.6,-0.7,-0.9,-1.2c-0.2,-0.5,-0.3,-1,-0.3,-1.6c0,-0.5,0.1,-1,0.3,-1.5c0.3,-0.5,0.6,-0.9,0.9,-1.2c0.4,-0.3,0.8,-0.4,1.2,-0.4c0.8,0,1.5,0.4,2.1,1.3l0,-3.2l-0.7,0c-0.1,0,-0.1,0,-0.2,-0.1c0,0,-0.1,-0.1,-0.1,-0.2c0,-0.1,0.1,-0.1,0.1,-0.2c0.1,0,0.1,-0.1,0.2,-0.1Zm-0.4,5.6c0,-0.7,-0.2,-1.3,-0.6,-1.8c-0.4,-0.5,-0.9,-0.8,-1.4,-0.8c-0.6,0,-1,0.3,-1.4,0.8c-0.4,0.5,-0.6,1.1,-0.6,1.8c0,0.8,0.2,1.4,0.6,1.9c0.4,0.5,0.8,0.7,1.4,0.7c0.5,0,1,-0.2,1.4,-0.7c0.4,-0.5,0.6,-1.1,0.6,-1.9Zm3.8,-5.6l1.5,0l-1.6,3.8c-0.1,0.2,-0.2,0.3,-0.3,0.3c-0.1,0,-0.2,0,-0.3,-0.1c0,-0.1,-0.1,-0.2,-0.1,-0.3c0,0,0,-0.1,0,-0.1Zm6.7,6.5l1.5,0l-1.7,3.8c-0.1,0.2,-0.2,0.3,-0.3,0.3c-0.1,0,-0.2,0,-0.2,-0.1c-0.1,-0.1,-0.1,-0.2,-0.1,-0.3c0,0,0,-0.1,0,-0.2Zm13.5,-6.5l1.5,0l0.8,3.6c0,0,0,0.1,0,0.1c0,0.1,0,0.2,-0.1,0.3c-0.1,0.1,-0.1,0.1,-0.2,0.1c-0.2,0,-0.3,-0.1,-0.4,-0.3Zm5.7,0l0,3.5c0.3,-0.3,0.5,-0.6,0.8,-0.8c0.3,-0.1,0.6,-0.2,0.9,-0.2c0.4,0,0.7,0,0.9,0.2c0.3,0.2,0.5,0.4,0.6,0.7c0.2,0.4,0.3,0.7,0.3,1.1l0,3.5l0.5,0c0.1,0,0.2,0,0.2,0.1c0.1,0,0.1,0.1,0.1,0.2c0,0.1,0,0.1,-0.1,0.2c0,0,-0.1,0.1,-0.2,0.1l-1.5,0c-0.1,0,-0.2,-0.1,-0.2,-0.1c-0.1,-0.1,-0.1,-0.1,-0.1,-0.2c0,-0.1,0,-0.2,0.1,-0.2c0,-0.1,0.1,-0.1,0.2,-0.1l0.5,0l0,-3.5c0,-0.4,-0.1,-0.8,-0.3,-1c-0.3,-0.3,-0.6,-0.5,-1,-0.5c-0.4,0,-0.6,0.1,-0.9,0.3c-0.2,0.2,-0.4,0.5,-0.8,1.1l0,3.6l0.5,0c0.1,0,0.2,0,0.2,0.1c0.1,0,0.1,0.1,0.1,0.2c0,0.1,0,0.1,-0.1,0.2c0,0,-0.1,0.1,-0.2,0.1l-1.5,0c-0.1,0,-0.2,-0.1,-0.2,-0.1C746,201.5,746,201.5,746,201.4c0,-0.1,0,-0.2,0.1,-0.2c0,-0.1,0.1,-0.1,0.2,-0.1l0.5,0l0,-7.4l-0.6,0c-0.1,0,-0.2,0,-0.2,-0.1c-0.1,0,-0.1,-0.1,-0.1,-0.2c0,-0.1,0,-0.1,0.1,-0.2c0,0,0.1,-0.1,0.2,-0.1Zm9.6,8.6l0,-0.9c-0.6,0.7,-1.3,1.1,-2,1.1c-0.4,0,-0.8,-0.2,-1,-0.5c-0.3,-0.4,-0.5,-0.8,-0.5,-1.4l0,-3.6l-0.6,0c-0.1,0,-0.2,-0.1,-0.2,-0.1c0,-0.1,-0.1,-0.2,-0.1,-0.2c0,-0.1,0.1,-0.2,0.1,-0.2c0,-0.1,0.1,-0.1,0.2,-0.1l1.1,0l0,4.2c0,0.4,0.1,0.7,0.3,1c0.2,0.2,0.4,0.3,0.7,0.3c0.7,0,1.4,-0.4,2,-1.3l0,-3.6l-0.8,0c-0.1,0,-0.2,-0.1,-0.2,-0.1c-0.1,-0.1,-0.1,-0.2,-0.1,-0.2c0,-0.1,0,-0.2,0.1,-0.2c0,-0.1,0.1,-0.1,0.2,-0.1l1.3,0l0,5.3l0.4,0c0.1,0,0.2,0,0.2,0.1c0.1,0,0.1,0.1,0.1,0.2c0,0.1,0,0.1,-0.1,0.2c0,0,-0.1,0.1,-0.2,0.1Zm4.1,-8.6l1.5,0l-1.6,3.8c-0.1,0.2,-0.2,0.3,-0.3,0.3c-0.1,0,-0.2,0,-0.3,-0.1c0,-0.1,-0.1,-0.2,-0.1,-0.3c0,0,0,-0.1,0,-0.1Zm7.4,9.8l0,-9.2l-1.1,0c-0.2,0,-0.2,0,-0.3,-0.1c0,0,0,-0.1,0,-0.2c0,-0.1,0,-0.1,0,-0.2c0.1,0,0.1,-0.1,0.3,-0.1l1.5,0l0,10.3l-1.5,0c-0.2,0,-0.2,0,-0.3,0c0,-0.1,0,-0.2,0,-0.3c0,0,0,-0.1,0,-0.2c0.1,0,0.1,0,0.3,0Zm7,-4.6c-0.1,-0.2,-0.3,-0.4,-0.3,-0.5C775,197.6,775,197.3,775,197.1l0,-2.5c0,-0.2,-0.1,-0.4,-0.2,-0.6c-0.1,-0.2,-0.3,-0.3,-0.5,-0.3c-0.1,0,-0.2,0,-0.2,-0.1c0,0,-0.1,-0.1,-0.1,-0.2c0,-0.1,0.1,-0.1,0.1,-0.2c0,0,0.1,-0.1,0.2,-0.1c0.3,0,0.5,0.1,0.7,0.4c0.3,0.3,0.4,0.7,0.4,1.1l0,2.5c0,0.2,0.1,0.4,0.2,0.6c0.1,0.2,0.3,0.3,0.5,0.3c0,0,0.1,0,0.2,0.1c0,0,0,0.1,0,0.2c0,0.1,0,0.1,0,0.2c-0.1,0,-0.2,0.1,-0.2,0.1c-0.2,0,-0.4,0.1,-0.5,0.3c-0.1,0.1,-0.2,0.3,-0.2,0.6l0,2.4c0,0.5,-0.1,0.8,-0.3,1.1c-0.2,0.3,-0.5,0.4,-0.8,0.4c-0.1,0,-0.2,0,-0.2,0c0,-0.1,-0.1,-0.2,-0.1,-0.3c0,0,0.1,-0.1,0.1,-0.2c0,0,0.1,0,0.2,0c0.2,-0.1,0.4,-0.2,0.5,-0.3c0.1,-0.2,0.2,-0.4,0.2,-0.7l0,-2.4c0,-0.3,0,-0.5,0.1,-0.7c0,-0.2,0.2,-0.3,0.3,-0.5Z" class="g4_19" />
<path d="M469.2,219l0,-9.2l-1.1,0c-0.2,0,-0.2,0,-0.3,0c0,-0.1,0,-0.2,0,-0.2c0,-0.1,0,-0.2,0,-0.3c0.1,0,0.1,0,0.3,0l1.5,0l0,10.3l-1.5,0c-0.2,0,-0.2,-0.1,-0.3,-0.1c0,-0.1,0,-0.1,0,-0.2c0,-0.1,0,-0.2,0,-0.2c0.1,-0.1,0.1,-0.1,0.3,-0.1Z" class="g4_19" />
<path d="M454.4,336.6l378.5,0l0,-92l-378.5,0l0,92Z" class="g2_19" />
<image preserveAspectRatio="none" x="454" y="245" width="379" height="92" xlink:href="19/img/2.png" />
<text 
x="454" 
y="262" 
dx="0,-0.1,0,-0.1,0.2,-0.1,0.2,0.2,-0.1,0,-0.1,0.2,0,0.2,-0.1,0,-0.1,0.1,-0.1,0,0.2,-0.1,0.2,-0.1,0,-0.2,0.2,0.2,0,-0.1,-0.4,0.2,-0.1,0.2,-0.4,0.2,0.2,-0.3,0.2,-0.2,0.2,0.2,-0.1,0.1,-0.1,-0.1,-0.1,-0.1,-0.1,0.2,0.2,0,0,-0.1,-0.1,-0.1,-0.1,0.2" 
class="s5_19"
>Figure 9.2  Examples of entries in the homograph library </text>

<text 
x="454" 
y="289" 
dx="0,0.2,-0.1,0.2,-0.1,0.2,0,-0.2,0.2,0,-0.2,-0.2,0.2,-0.1,-0.1,-0.1,0,-0.1,0,-0.1,-0.1,0.2,0,0.2,-0.1,-0.1,-0.1,0.2,0.2,0.2,0.2,0,-0.1,-0.1,0.2,0,-0.1,0.2,-0.1,0.2,-0.1,0,-0.2,0.1,0.2,-0.1,-0.1,-0.2,0.2,-0.1,0,0.2,0,0.2,-0.1,-0.3,0.2,0,-0.1" 
class="s5_19"
>used in the prototype. Each entry is a JSON object that is </text>

<text 
x="454" 
y="316" 
dx="0,-0.1,-0.1,-0.1,0,0.2,-0.1,0.2,-0.1,0,-0.1,0.2,-0.1,-0.1,0.2,0,0,-0.1,-0.1,0,0,-0.1,0.2,0.2,-0.1,0.2,0,-0.1,-0.1,-0.1,0.2,0,0,0,0.2,0,0.2,0.2,-0.1,-0.2,0.2,-0.1,-0.1,-0.1,-0.1,-0.1,0.4" 
class="s5_19"
>sorted alphabetically by word within an array. </text>

<image preserveAspectRatio="none" x="339" y="698" width="254" height="97" xlink:href="19/img/3.png" />
<path d="M162.9,866.4l620.7,0l0,-65.5l-620.7,0l0,65.5Z" class="g2_19" />
<image preserveAspectRatio="none" x="163" y="801" width="621" height="65" xlink:href="19/img/4.png" />
<text 
x="162" 
y="819" 
dx="0,-0.1,0,-0.1,0.2,-0.1,0.2,0.2,-0.1,0,-0.1,0.2,0,0.2,0,-0.1,0.1,-0.1,0,-0.2,0.2,-0.1,-0.1,-0.1,0.2,0.1,-0.1,0,0,0,-0.1,0.2,0.2,-0.1,0.2,-0.2,0,-0.2,0.2,-0.1,0.2,0.2,-0.1,0,0.2,-0.1,0.2,-0.1,0,0,-0.1,-0.2,0.2,-0.1,0.2,-0.5,0.2,0.1,-0.1,0,-0.1,-0.1,0,0.2,-0.1,0.2,-0.2,0.2,0,-0.1,-0.1,-0.1,0.2,0.1,-0.1,0,-0.1,0.1,0.2,-0.2,0.2,-0.1,0.2,-0.1,0.2,0.1,0,-0.1,0,0.2,-0.4,0.1,0.2,-0.4,0.2" 
class="s5_19"
>Figure 9.3  Sample code-switch sentence of English and Malay. The word air means water in </text>

<text 
x="162" 
y="845" 
dx="0,0.1,-0.1,0,-0.1,-0.1" 
class="s5_19"
>Malay </text>



<!-- Any embedded fonts defined here -->
<style type="text/css" ><![CDATA[

@font-face {
	font-family: ArialNovaCond-Bold_d;
	src: url("fonts/ArialNovaCond-Bold_d.woff") format("woff");
}

@font-face {
	font-family: ArialNova-Light_n;
	src: url("fonts/ArialNova-Light_n.woff") format("woff");
}

@font-face {
	font-family: Calibri-Light_r;
	src: url("fonts/Calibri-Light_r.woff") format("woff");
}

@font-face {
	font-family: ArialNovaCond-Light_9;
	src: url("fonts/ArialNovaCond-Light_9.woff") format("woff");
}

@font-face {
	font-family: ArialNovaCond-LightItalic_v;
	src: url("fonts/ArialNovaCond-LightItalic_v.woff") format("woff");
}

]]></style>

</svg>
