<?xml version="1.0" encoding="UTF-8" standalone="no"?>
<!DOCTYPE svg PUBLIC "-//W3C//DTD SVG 1.1//EN"
"http://www.w3.org/Graphics/SVG/1.1/DTD/svg11.dtd">


<!-- Page 47 -->
<svg x="0" y="0" width="935" height="1210" viewBox="0 0 935 1210" version="1.1" xmlns="http://www.w3.org/2000/svg" xmlns:xlink="http://www.w3.org/1999/xlink"
style="display: block;margin-left: auto;margin-right: auto;">
<defs>

<style type="text/css"><![CDATA[

.g1_47{
fill: #D9D9D9;
}
.g2_47{
fill: #FFFFFF;
}
.g3_47{
}

.s1_47{
font-size: 18.33px;
font-family: ArialNovaCond-Bold_d;
fill: #5A5A5A;
}
.s2_47{
font-size: 12.10px;
font-family: ArialNova-Light_n;
fill: #7F7F7F;
}
.s3_47{
font-size: 21.27px;
font-family: Calibri-Light_r;
fill: #323E4F;
}
.s4_47{
font-size: 16.87px;
font-family: Calibri-Light_r;
fill: #323E4F;
}
.s5_47{
font-size: 18.33px;
font-family: Calibri-Light_r;
fill: #44546A;
}
.s6_47{
font-size: 14.67px;
font-family: Calibri-Light_r;
fill: #44546A;
}
.s7_47{
font-size: 13.93px;
font-family: Menlo-Bold_bt;
fill: #800000;
}
.s8_47{
font-size: 13.93px;
font-family: Menlo-Regular_bu;
fill: #000000;
}
.s9_47{
font-size: 13.93px;
font-family: Menlo-Regular_bu;
fill: #800000;
}
.s10_47{
font-size: 13.93px;
font-family: Menlo-Regular_bu;
fill: #A31515;
}

]]></style>

</defs>
<path d="M0,0
L0,1210
L935,1210
L935,0 Z " 
fill="#FFFFFF" stroke="none" />
<text 
x="110" 
y="1106" 
dx="0,0,0,0.2" 
class="s1_47"
>47 |</text>

<text 
x="141" 
y="1106" 
dx="0,4.3,4.9,0,1.9,0,1.6,0,1.3,0,1.7,0,1.7,0,1.2,0,1.9,0,1.6,4.7,4.9,0,1.3,0,1.7,0,1.6,0,1.5,0,1.6,0,1.9,0,1.2,0,1.5,0,1.9,0,1.5,4.5,4.9,0,1.7,0,1.2,0,1.9,0,1.9,0,1.2,4.5,4.5,0,1.9,0,1.5,4.7,4.9,0,1.3,0,1.5,0,1.9,0,1.5,0,1.5,0,1.5,0,1.5,0,1.9,0,1.3,0,1.9,0,1.6,4.6,4.5,0,1.9,0,1.5,0,1.7,0,1.6,0,1.4,0,1.9,0,1.3,0,1.9,0,1.5,0,1.7,0,1.5,0,1.5,0,1.9" 
class="s2_47"
>A W e b - b a s e d T r a n s l a t i o n S y s t e m f o r M u l t i l i n g u a l C o d e - s w i t c h i n g</text>

<path d="M107.8,1086.4l719.4,0l0,-0.7l-719.4,0l0,0.7Z" class="g1_47" />
<text 
x="110" 
y="130" 
class="s3_47"
>A</text>

<text 
x="123" 
y="130" 
dx="0,1.3,1.3,1.7,1.3,1.5,1.4,1.8" 
class="s4_47"
>PPENDIX </text>

<text 
x="198" 
y="130" 
class="s3_47"
>A</text>

<text 
x="217" 
y="130" 
class="s3_47"
>–</text>

<text 
x="234" 
y="130" 
class="s3_47"
>S</text>

<text 
x="245" 
y="130" 
dx="0,1.4,1.4,1.7,1.6,1.7" 
class="s4_47"
>OURCE </text>

<text 
x="306" 
y="130" 
class="s3_47"
>C</text>

<text 
x="319" 
y="130" 
dx="0,1.4,1.5,1.7,1.3,1.8,1.4,1.7" 
class="s4_47"
>ODE FOR </text>

<text 
x="396" 
y="130" 
class="s3_47"
>F</text>

<text 
x="407" 
y="130" 
dx="0,1.7,1.4,1.3" 
class="s4_47"
>RONT</text>

<text 
x="452" 
y="130" 
class="s3_47"
>-</text>

<text 
x="460" 
y="130" 
dx="0,1.7,1.7,1.5" 
class="s4_47"
>END </text>

<text 
x="499" 
y="130" 
class="s3_47"
>C</text>

<text 
x="512" 
y="130" 
dx="0,1.7,1.4,1.6,1.3" 
class="s4_47"
>LIENT</text>

<text 
x="110" 
y="163" 
class="s5_47"
>F</text>

<text 
x="119" 
y="163" 
dx="0,1.6,1.6" 
class="s6_47"
>ILE</text>

<text 
x="141" 
y="163" 
class="s5_47"
>:</text>

<text 
x="152" 
y="163" 
dx="0,1.6,1.3,1.4,1.3,1.7,1.3" 
class="s5_47"
>README.</text>

<text 
x="231" 
y="163" 
dx="0,1.5" 
class="s6_47"
>MD</text>

<path d="M107.8,192.9l719.4,0l0,-16.2l-719.4,0l0,16.2Z" class="g2_47" />
<text 
x="110" 
y="189" 
dx="0,0,0,-0.3,0,-0.3,0,0,-0.3,0,-0.3,0,-0.3,0,0,-0.3,0,-0.3,0,-0.3,0,0,-0.3" 
class="s7_47"
># Codeswitch Translator</text>

<path d="M107.8,213.4l719.4,0l0,-20.5l-719.4,0l0,20.5Z" class="g2_47" />
<path d="M107.8,233.9l719.4,0l0,-20.5l-719.4,0l0,20.5Z" class="g2_47" />
<text 
x="110" 
y="230" 
dx="0,0,0,-0.3,0,-0.3,0,0,-0.3,0,-0.3,0,-0.3,0,0,-0.3,0,-0.3,0,-0.3,0,0,-0.3,0,-0.3,0,-0.3,0,0,-0.3,0,-0.3,0,-0.3,0,0,-0.3,0,-0.3,0,0,-0.3,0,-0.3,0,-0.3,0,0,-0.4,0,-0.3,0,0,-0.3,0,-0.3,0,-0.3,0,0,-0.3,0,-0.3,0,-0.3,0,0,-0.3,0.1,-0.3,0,-0.3,0,0,-0.3,0,-0.3,0,-0.3,0,0,-0.3,0,-0.3,0,0" 
class="s8_47"
>A translator that is capable of translating code-switched sentences - sentences which </text>

<path d="M107.8,254.8l719.4,0l0,-20.9l-719.4,0l0,20.9Z" class="g2_47" />
<text 
x="110" 
y="251" 
dx="0,0,0,-0.3,0,-0.3,0,0,-0.3,0,-0.3,0,-0.3,0,0,-0.3,0,-0.3,0,-0.3,0,0,-0.3,0,-0.3,0,-0.3,0,0,-0.3,0,-0.3,0,-0.3,0,0,-0.3,0,-0.3,-0.4" 
class="s8_47"
>are composed of more than one language. </text>

<path d="M107.8,275.4l719.4,0l0,-20.6l-719.4,0l0,20.6Z" class="g2_47" />
<path d="M107.8,295.9l719.4,0l0,-20.5l-719.4,0l0,20.5Z" class="g2_47" />
<text 
x="110" 
y="292" 
dx="0,0,0,-0.3,0,-0.3,0,0" 
class="s7_47"
>## Setup</text>

<path d="M107.8,316.4l719.4,0l0,-20.5l-719.4,0l0,20.5Z" class="g2_47" />
<path d="M107.8,337.3l719.4,0l0,-20.9l-719.4,0l0,20.9Z" class="g2_47" />
<text 
x="110" 
y="333" 
dx="0,0,0,-0.3,0,-0.3,0,0,-0.3,0,-0.3,0,-0.3,0,0,-0.3,0,-0.3,0,-0.3,0,0,-0.3,0,-0.3,0,-0.3,0,0,-0.3,0,-0.3,0,-0.3,0,0,-0.3,0,-0.3,0,0,-0.3,0,-0.3,0,-0.3,0,0,-0.3,0,-0.3,0,0" 
class="s8_47"
>This project requires API keys for Google, Firebase. </text>

<path d="M107.8,376.2l719.4,0l0,-38.9l-719.4,0l0,38.9Z" class="g2_47" />
<path d="M107.8,396.7l719.4,0l0,-20.5l-719.4,0l0,20.5Z" class="g2_47" />
<text 
x="110" 
y="393" 
dx="0,0,0,-0.3,0,-0.3,0,0,-0.3,0,-0.3,0,-0.3,0,0,-0.3,0,-0.3,0" 
class="s7_47"
>## Code scaffolding</text>

<path d="M107.8,417.3l719.4,0l0,-20.6l-719.4,0l0,20.6Z" class="g2_47" />
<path d="M107.8,438.2l719.4,0l0,-20.9l-719.4,0l0,20.9Z" class="g2_47" />
<text 
x="110" 
y="434" 
dx="0,0,0,-0.3" 
class="s8_47"
>Run </text>

<text 
x="143" 
y="434" 
dx="0,-0.3,0,0,-0.3,0,-0.3,0,-0.3,0,0,-0.3,0,-0.3,0,-0.3,0,0,-0.3,0,-0.3,0,-0.3,0,0,-0.3,0,-0.3,0,-0.3,0,0,-0.2,0,-0.3,0,0,-0.3,0.1" 
class="s9_47"
>`ng generate component component-name` </text>

<text 
x="466" 
y="434" 
dx="0,0,-0.3,0,0,-0.3,0,-0.3,0,0,-0.3,0,-0.3,0,-0.3,0,0,-0.3,0,-0.3,0,-0.3,0,0,-0.3,0,-0.3,0,-0.3,0,0,-0.3,0,-0.3,0,-0.3,0,0,-0.3,0,-0.3,0" 
class="s8_47"
>to generate a new component. You can also </text>

<path d="M107.8,458.7l719.4,0l0,-20.5l-719.4,0l0,20.5Z" class="g2_47" />
<text 
x="110" 
y="455" 
dx="0,0,0,-0.3" 
class="s8_47"
>use </text>

<text 
x="143" 
y="455" 
dx="0,-0.3,0,0,-0.3,0,-0.3,0,-0.3,0,0,-0.3,0,-0.3,0,-0.3,0,0,-0.3,0,-0.3,0,-0.3,0,0,-0.3,0,-0.3,0,-0.3,0,0,-0.3,0,-0.3,0,0,-0.3,0,-0.3,0,-0.2,0,0,-0.3,0,-0.3,0,0,-0.3,0,-0.3,0,-0.3,0,0,-0.3,0,-0.3,0,-0.3,0,0,-0.3,0,-0.3,0,-0.3,0,0" 
class="s9_47"
>`ng generate directive|pipe|service|class|guard|interface|enum|module`</text>

<text 
x="722" 
y="455" 
dx="0,-0.3" 
class="s8_47"
>. </text>

<path d="M107.8,479.2l719.4,0l0,-20.5l-719.4,0l0,20.5Z" class="g2_47" />
<path d="M107.8,499.8l719.4,0l0,-20.6l-719.4,0l0,20.6Z" class="g2_47" />
<text 
x="110" 
y="496" 
dx="0,0,0,-0.3,0,-0.3,0,0" 
class="s7_47"
>## Build</text>

<path d="M107.8,520.7l719.4,0l0,-20.9l-719.4,0l0,20.9Z" class="g2_47" />
<path d="M107.8,541.2l719.4,0l0,-20.5l-719.4,0l0,20.5Z" class="g2_47" />
<text 
x="110" 
y="537" 
dx="0,0,0,-0.3" 
class="s8_47"
>Run </text>

<text 
x="143" 
y="537" 
dx="0,-0.3,0,0,-0.3,0,-0.3,0,-0.3,0,0.1" 
class="s9_47"
>`ng build` </text>

<text 
x="234" 
y="537" 
dx="0,0,-0.3,0,-0.3,0,0,-0.3,0,-0.3,0,-0.3,0,0,-0.3,0,-0.3,0,-0.3,0,0,-0.3,0,-0.3,0,0,-0.3,0,-0.3,0,-0.3,0,0,-0.3,0,-0.3,0,0,-0.3,0,-0.3,0,-0.3,0,0,-0.3,0,-0.3,0,-0.3,0,0,-0.3,0,-0.3,0,-0.3,0,0,-0.3,0,-0.3,0,-0.3" 
class="s8_47"
>to build the project. The build artifacts will be stored in the </text>

<text 
x="764" 
y="537" 
dx="0,0,-0.3,0,-0.3,0,0,-0.3" 
class="s9_47"
>`dist/` </text>

<path d="M107.8,561.7l719.4,0l0,-20.5l-719.4,0l0,20.5Z" class="g2_47" />
<text 
x="110" 
y="558" 
dx="0,0,0,-0.3,0,-0.3,0,0,-0.3,0,-0.3,0,-0.3,0,0,-0.3,0,-0.3,0" 
class="s8_47"
>directory. Use the </text>

<text 
x="267" 
y="558" 
dx="0,0,0,-0.3,0,-0.3,0,-0.3" 
class="s9_47"
>`-prod` </text>

<text 
x="333" 
y="558" 
dx="0,0,-0.3,0,-0.3,0,-0.3,0,0,-0.3,0,-0.3,0,0,-0.3,0,-0.3,0,-0.3,0,0,-0.3,0,-0.3,0,0,-0.3,0,-0.4" 
class="s8_47"
>flag for a production build. </text>

<path d="M107.8,582.3l719.4,0l0,-20.6l-719.4,0l0,20.6Z" class="g2_47" />
<path d="M107.8,603.2l719.4,0l0,-20.9l-719.4,0l0,20.9Z" class="g2_47" />
<text 
x="110" 
y="599" 
dx="0,0,0,-0.3,0,-0.3,0,0,-0.3,0,-0.3,0,-0.3,0,0,-0.3,0,-0.3,0,-0.3,0" 
class="s7_47"
>## Running unit tests</text>

<path d="M107.8,623.7l719.4,0l0,-20.5l-719.4,0l0,20.5Z" class="g2_47" />
<path d="M107.8,644.2l719.4,0l0,-20.5l-719.4,0l0,20.5Z" class="g2_47" />
<text 
x="110" 
y="640" 
dx="0,0,0,-0.3" 
class="s8_47"
>Run </text>

<text 
x="143" 
y="640" 
dx="0,-0.3,0,0,-0.3,0,-0.3,0,-0.3,0.1" 
class="s9_47"
>`ng test` </text>

<text 
x="226" 
y="640" 
dx="0,-0.3,0,-0.3,0,-0.3,0,0,-0.3,0,-0.3,0,-0.3,0,0,-0.3,0,-0.3,0,-0.3,0,0,-0.3,0,-0.3,0,0,-0.3,0,-0.3,0" 
class="s8_47"
>to execute the unit tests via [</text>

<text 
x="482" 
y="640" 
dx="0,0,0,-0.3,0" 
class="s10_47"
>Karma</text>

<text 
x="523" 
y="640" 
dx="0,0,0,-0.3,0,-0.3,0,-0.3,0,0,-0.3,0,-0.3,0,-0.3,0.1,0,-0.3,0,-0.3,0,-0.3,0,0,-0.3,0,-0.3,0,-0.3,0,0,-0.3,0.1,-0.3,-0.3" 
class="s8_47"
>](https://karma-runner.github.io). </text>

<path d="M540.8,642.4l248.3,0l0,-0.7l-248.3,0l0,0.7Z" class="g3_47" />
<path d="M107.8,664.8l719.4,0l0,-20.6l-719.4,0l0,20.6Z" class="g2_47" />
<path d="M107.8,685.7l719.4,0l0,-20.9l-719.4,0l0,20.9Z" class="g2_47" />
<text 
x="110" 
y="682" 
dx="0,0,0,-0.3,0,-0.3,0,0,-0.3,0,-0.3,0,-0.3,0,0,-0.3,0,-0.3,0,-0.3,0,0,-0.3,0,-0.3,0,-0.3" 
class="s7_47"
>## Running end-to-end tests</text>

<path d="M107.8,706.2l719.4,0l0,-20.5l-719.4,0l0,20.5Z" class="g2_47" />
<path d="M107.8,726.7l719.4,0l0,-20.5l-719.4,0l0,20.5Z" class="g2_47" />
<text 
x="110" 
y="723" 
dx="0,0,0,-0.3" 
class="s8_47"
>Run </text>

<text 
x="143" 
y="723" 
dx="0,-0.3,0,0,-0.3,0,-0.3,0,-0.3" 
class="s9_47"
>`ng e2e` </text>

<text 
x="217" 
y="723" 
dx="0,0,-0.3,0,-0.3,0,-0.3,0,0,-0.3,0,-0.3,0,-0.3,0,0,-0.3,0,-0.4,0,-0.3,0,0,-0.3,0,-0.3,0,0,-0.3,0,-0.3,0,-0.3,0,0,-0.3" 
class="s8_47"
>to execute the end-to-end tests via </text>

<path d="M107.8,747.3l719.4,0l0,-20.6l-719.4,0l0,20.6Z" class="g2_47" />
<text 
x="110" 
y="743" 
class="s8_47"
>[</text>

<text 
x="118" 
y="743" 
dx="0,0,-0.3,0,-0.3,0,0,-0.3,0,-0.3" 
class="s10_47"
>Protractor</text>

<text 
x="201" 
y="743" 
dx="0,-0.3,0,0,-0.3,0,-0.3,0,-0.3,0,0,-0.3,0,-0.3,0,-0.3,0,0,-0.3,0,-0.3,0,-0.3,0,0,-0.3,0,-0.3,0,0,-0.3,0,-0.4,0,-0.3" 
class="s8_47"
>](http://www.protractortest.org/). </text>

<path d="M217.8,745.4l248.2,0l0,-0.7l-248.2,0l0,0.7Z" class="g3_47" />
<path d="M107.8,768.2l719.4,0l0,-20.9l-719.4,0l0,20.9Z" class="g2_47" />
<path d="M107.8,788.7l719.4,0l0,-20.5l-719.4,0l0,20.5Z" class="g2_47" />
<text 
x="110" 
y="785" 
dx="0,0,0,-0.3,0,-0.3,0,0,-0.3,0,-0.3,0,-0.3,0,0" 
class="s7_47"
>## Further help</text>

<path d="M107.8,809.2l719.4,0l0,-20.5l-719.4,0l0,20.5Z" class="g2_47" />
<path d="M107.8,829.8l719.4,0l0,-20.6l-719.4,0l0,20.6Z" class="g2_47" />
<text 
x="110" 
y="826" 
dx="0,0,0,-0.3,0,-0.3,0,0,-0.3,0,-0.3,0,-0.3,0,0,-0.3,0,-0.3,0,-0.3,0,0,-0.3,0,-0.3,0,-0.3,0,0,-0.3,0,-0.3,0,-0.3,0,0,-0.3,0,-0.3,0" 
class="s8_47"
>To get more help on the Angular CLI use </text>

<text 
x="441" 
y="826" 
dx="0,-0.3,0,-0.3,0,-0.3,0,0,-0.3,0.1" 
class="s9_47"
>`ng help` </text>

<text 
x="523" 
y="826" 
dx="0,0,0,-0.3,0,-0.3,0,-0.3,0,0,-0.3,0,-0.3,0,-0.3,0,0,-0.3,0,-0.3,0" 
class="s8_47"
>or go check out the [</text>

<text 
x="697" 
y="826" 
dx="0,0,0,-0.3,0,-0.3,0,-0.3,0,0,-0.3,0" 
class="s10_47"
>Angular CLI </text>

<path d="M107.8,850.7l719.4,0l0,-20.9l-719.4,0l0,20.9Z" class="g2_47" />
<text 
x="110" 
y="847" 
dx="0,0,0,-0.3,0,-0.3" 
class="s10_47"
>README</text>

<text 
x="159" 
y="847" 
dx="0,0,-0.3,0,-0.3,0,-0.3,0,0,-0.3,0,-0.3,0,-0.3,0,0,-0.3,0,-0.3,0,-0.3,0,0,-0.3,0,-0.3,0,-0.3,0,0,-0.3,0,-0.3,0,0,-0.3,0,-0.3,0,-0.3,0,0,-0.3,0,-0.3,0,0,-0.3,0,-0.3,0,-0.3,0,0,-0.3,0,-0.3,0,-0.3,0,0,-0.3,0,-0.3,-0.3" 
class="s8_47"
>](https://github.com/angular/angular-cli/blob/master/README.md). </text>

<path d="M176.4,848.5l496.8,0l0,-0.8l-496.8,0l0,0.8Z" class="g3_47" />
<path d="M107.8,871.2l719.4,0l0,-20.5l-719.4,0l0,20.5Z" class="g2_47" />


<!-- Any embedded fonts defined here -->
<style type="text/css" ><![CDATA[

@font-face {
	font-family: ArialNovaCond-Bold_d;
	src: url("fonts/ArialNovaCond-Bold_d.woff") format("woff");
}

@font-face {
	font-family: Menlo-Regular_bu;
	src: url("fonts/Menlo-Regular_bu.woff") format("woff");
}

@font-face {
	font-family: ArialNova-Light_n;
	src: url("fonts/ArialNova-Light_n.woff") format("woff");
}

@font-face {
	font-family: Calibri-Light_r;
	src: url("fonts/Calibri-Light_r.woff") format("woff");
}

@font-face {
	font-family: Menlo-Bold_bt;
	src: url("fonts/Menlo-Bold_bt.woff") format("woff");
}

]]></style>

</svg>
