<?xml version="1.0" encoding="UTF-8" standalone="no"?>
<!DOCTYPE svg PUBLIC "-//W3C//DTD SVG 1.1//EN"
"http://www.w3.org/Graphics/SVG/1.1/DTD/svg11.dtd">


<!-- Page 48 -->
<svg x="0" y="0" width="935" height="1210" viewBox="0 0 935 1210" version="1.1" xmlns="http://www.w3.org/2000/svg" xmlns:xlink="http://www.w3.org/1999/xlink"
style="display: block;margin-left: auto;margin-right: auto;">
<defs>

<style type="text/css"><![CDATA[

.g1_48{
fill: #D9D9D9;
}
.g2_48{
fill: #FFFFFF;
}

.s1_48{
font-size: 18.33px;
font-family: ArialNovaCond-Bold_d;
fill: #5A5A5A;
}
.s2_48{
font-size: 12.10px;
font-family: ArialNova-Light_n;
fill: #7F7F7F;
}
.s3_48{
font-size: 18.33px;
font-family: Calibri-Light_r;
fill: #44546A;
}
.s4_48{
font-size: 14.67px;
font-family: Calibri-Light_r;
fill: #44546A;
}
.s5_48{
font-size: 13.93px;
font-family: Menlo-Regular_bu;
fill: #000000;
}
.s6_48{
font-size: 13.93px;
font-family: Menlo-Regular_bu;
fill: #0451A5;
}
.s7_48{
font-size: 13.93px;
font-family: Menlo-Regular_bu;
fill: #A31515;
}
.s8_48{
font-size: 13.93px;
font-family: Menlo-Regular_bu;
fill: #0000FF;
}

]]></style>

</defs>
<path d="M0,0
L0,1210
L935,1210
L935,0 Z " 
fill="#FFFFFF" stroke="none" />
<text 
x="110" 
y="1106" 
dx="0,0,0,0.2" 
class="s1_48"
>48 |</text>

<text 
x="141" 
y="1106" 
dx="0,4.3,4.9,0,1.9,0,1.6,0,1.3,0,1.7,0,1.7,0,1.2,0,1.9,0,1.6,4.7,4.9,0,1.3,0,1.7,0,1.6,0,1.5,0,1.6,0,1.9,0,1.2,0,1.5,0,1.9,0,1.5,4.5,4.9,0,1.7,0,1.2,0,1.9,0,1.9,0,1.2,4.5,4.5,0,1.9,0,1.5,4.7,4.9,0,1.3,0,1.5,0,1.9,0,1.5,0,1.5,0,1.5,0,1.5,0,1.9,0,1.3,0,1.9,0,1.6,4.6,4.5,0,1.9,0,1.5,0,1.7,0,1.6,0,1.4,0,1.9,0,1.3,0,1.9,0,1.5,0,1.7,0,1.5,0,1.5,0,1.9" 
class="s2_48"
>A W e b - b a s e d T r a n s l a t i o n S y s t e m f o r M u l t i l i n g u a l C o d e - s w i t c h i n g</text>

<path d="M107.8,1086.4l719.4,0l0,-0.7l-719.4,0l0,0.7Z" class="g1_48" />
<text 
x="110" 
y="127" 
class="s3_48"
>F</text>

<text 
x="119" 
y="127" 
dx="0,1.6,1.6" 
class="s4_48"
>ILE</text>

<text 
x="141" 
y="127" 
class="s3_48"
>:</text>

<text 
x="152" 
y="127" 
dx="0,1.3,1.6,1.3,1.4,1.6,1.4" 
class="s4_48"
>PACKAGE</text>

<text 
x="218" 
y="127" 
class="s3_48"
>.</text>

<text 
x="224" 
y="127" 
dx="0,1.6,1.4,1" 
class="s4_48"
>JSON</text>

<path d="M107.8,157.7l719.4,0l0,-16.2l-719.4,0l0,16.2Z" class="g2_48" />
<text 
x="110" 
y="154" 
class="s5_48"
>{ </text>

<path d="M107.8,178.2l719.4,0l0,-20.5l-719.4,0l0,20.5Z" class="g2_48" />
<text 
x="126" 
y="174" 
dx="0,-0.3,0,-0.3,0,0" 
class="s6_48"
>"name"</text>

<text 
x="176" 
y="174" 
class="s5_48"
>: </text>

<text 
x="192" 
y="174" 
dx="0,0,-0.3,0,0,-0.3,0,-0.3,0,-0.3,0,0,-0.3,0,-0.3,0,-0.3" 
class="s7_48"
>"angular-project"</text>

<text 
x="333" 
y="174" 
dx="0,-0.3" 
class="s5_48"
>, </text>

<path d="M107.8,198.7l719.4,0l0,-20.5l-719.4,0l0,20.5Z" class="g2_48" />
<text 
x="126" 
y="195" 
dx="0,-0.3,0,-0.3,0,0,-0.3,0,-0.3" 
class="s6_48"
>"version"</text>

<text 
x="201" 
y="195" 
dx="0,-0.3" 
class="s5_48"
>: </text>

<text 
x="217" 
y="195" 
dx="0,0,-0.3,0,-0.3,0,-0.3" 
class="s7_48"
>"0.0.0"</text>

<text 
x="275" 
y="195" 
dx="0,-0.3" 
class="s5_48"
>, </text>

<path d="M107.8,219.6l719.4,0l0,-20.9l-719.4,0l0,20.9Z" class="g2_48" />
<text 
x="126" 
y="215" 
dx="0,-0.3,0,-0.3,0,0,-0.3,0,-0.3" 
class="s6_48"
>"license"</text>

<text 
x="201" 
y="215" 
dx="0,-0.3" 
class="s5_48"
>: </text>

<text 
x="217" 
y="215" 
dx="0,0,-0.3,0,-0.3" 
class="s7_48"
>"MIT"</text>

<text 
x="259" 
y="215" 
dx="0,-0.3" 
class="s5_48"
>, </text>

<path d="M107.8,240.2l719.4,0l0,-20.6l-719.4,0l0,20.6Z" class="g2_48" />
<text 
x="126" 
y="236" 
dx="0,-0.3,0,-0.3,0,0,-0.3,0,-0.3" 
class="s6_48"
>"scripts"</text>

<text 
x="201" 
y="236" 
dx="0,-0.3,0,-0.3" 
class="s5_48"
>: { </text>

<path d="M107.8,260.7l719.4,0l0,-20.5l-719.4,0l0,20.5Z" class="g2_48" />
<text 
x="143" 
y="257" 
dx="0,-0.3,0,0" 
class="s6_48"
>"ng"</text>

<text 
x="176" 
y="257" 
class="s5_48"
>: </text>

<text 
x="192" 
y="257" 
dx="0,0,-0.3,0" 
class="s7_48"
>"ng"</text>

<text 
x="226" 
y="257" 
dx="0,-0.3" 
class="s5_48"
>, </text>

<path d="M107.8,281.2l719.4,0l0,-20.5l-719.4,0l0,20.5Z" class="g2_48" />
<text 
x="143" 
y="277" 
dx="0,-0.3,0,0,-0.3,0,-0.3,0,-0.3,0,0,-0.3,0,-0.3,0,-0.3,0,0,-0.3" 
class="s6_48"
>"install-functions"</text>

<text 
x="300" 
y="277" 
dx="0,-0.3" 
class="s5_48"
>: </text>

<text 
x="317" 
y="277" 
dx="0,-0.3,0,0,-0.3,0,-0.3,0,-0.3,0,0,-0.3,0,-0.3,0,0,-0.3,0,-0.3,0,-0.3,0,0,-0.3,0.1,-0.3,0,0,-0.3,0,-0.3,0,-0.3,0,0,-0.3,0,-0.3" 
class="s7_48"
>"cd functions &amp;&amp; npm install &amp;&amp; cd .."</text>

<text 
x="631" 
y="277" 
dx="0,-0.3" 
class="s5_48"
>, </text>

<path d="M107.8,302.1l719.4,0l0,-20.9l-719.4,0l0,20.9Z" class="g2_48" />
<text 
x="143" 
y="298" 
dx="0,-0.3,0,0,-0.3,0,-0.3" 
class="s6_48"
>"setup"</text>

<text 
x="201" 
y="298" 
dx="0,-0.3" 
class="s5_48"
>: </text>

<text 
x="217" 
y="298" 
dx="0,0,-0.3,0,-0.3,0,-0.3,0,0,-0.3,0,-0.3,0,-0.3,0,0,-0.3,0,-0.3,0,-0.3,0,0,-0.3,0,-0.4,0,0,-0.3,0,-0.3,0,-0.3,0,0,-0.3,0,-0.3,0,0,-0.3,0,-0.3,0,-0.3,0,0,-0.3,0,-0.3,0,-0.3,0,0,-0.3,0,-0.3,0,-0.3,0,0,-0.3,0,-0.3,0,-0.3,0,0,-0.3" 
class="s7_48"
>"npm i &amp;&amp; npm run install-functions &amp;&amp; firebase functions:config:set </text>

<path d="M107.8,322.7l719.4,0l0,-20.6l-719.4,0l0,20.6Z" class="g2_48" />
<text 
x="110" 
y="319" 
dx="0,0,0,-0.3,0,-0.3,0,0,-0.3,0,-0.3,0,-0.3,0,0,-0.3,0,-0.3,0,-0.3,0,0,-0.3,0,-0.3,0,-0.3,0,0,-0.4,0,-0.3,0,-0.3,0,0,-0.3,0,-0.3,0,0,-0.3,0,-0.3,0,-0.3,0,0,-0.3,0,-0.3,0.1,0,-0.3,0,-0.3,0,-0.3,0,0,-0.3,0,-0.3,0,-0.3,0,0,-0.3" 
class="s7_48"
>environment=\"$(cat env.json)\" &amp;&amp; firebase deploy --only functions"</text>

<text 
x="673" 
y="319" 
dx="0,-0.3" 
class="s5_48"
>, </text>

<path d="M107.8,343.2l719.4,0l0,-20.5l-719.4,0l0,20.5Z" class="g2_48" />
<text 
x="143" 
y="339" 
dx="0,-0.3,0,0,-0.3,0,-0.3" 
class="s6_48"
>"start"</text>

<text 
x="201" 
y="339" 
dx="0,-0.3" 
class="s5_48"
>: </text>

<text 
x="217" 
y="339" 
dx="0,0,-0.3,0,-0.3,0,-0.3,0,0,-0.3,0,-0.3,0,-0.3,0,0,-0.3,0,-0.3" 
class="s7_48"
>"ng serve –prod -o"</text>

<text 
x="375" 
y="339" 
dx="0,-0.3" 
class="s5_48"
>, </text>

<path d="M107.8,363.7l719.4,0l0,-20.5l-719.4,0l0,20.5Z" class="g2_48" />
<text 
x="143" 
y="360" 
dx="0,-0.3,0,0,-0.3,0,-0.3" 
class="s6_48"
>"serve"</text>

<text 
x="201" 
y="360" 
dx="0,-0.3" 
class="s5_48"
>: </text>

<text 
x="217" 
y="360" 
dx="0,0,-0.3,0,-0.3,0,-0.3,0,0,-0.3,0,-0.3,0,-0.3,0,0,-0.3,0,-0.3,0,-0.3,0,0,-0.3,0,-0.3,0,0,-0.3,0,-0.3,0" 
class="s7_48"
>"npm run gulp &amp;&amp; firebase serve"</text>

<text 
x="482" 
y="360" 
class="s5_48"
>, </text>

<path d="M107.8,384.6l719.4,0l0,-20.9l-719.4,0l0,20.9Z" class="g2_48" />
<text 
x="143" 
y="380" 
dx="0,-0.3,0,0.1,-0.3,0" 
class="s6_48"
>"copy"</text>

<text 
x="192" 
y="380" 
class="s5_48"
>: </text>

<text 
x="209" 
y="380" 
dx="0,0,0,-0.3,0,-0.3,0,-0.3,0,0,-0.3,0,-0.3,0,-0.3,0,0,-0.3,0" 
class="s7_48"
>"cp 404.html dist/"</text>

<text 
x="366" 
y="380" 
dx="0,-0.3" 
class="s5_48"
>, </text>

<path d="M107.8,405.2l719.4,0l0,-20.6l-719.4,0l0,20.6Z" class="g2_48" />
<text 
x="143" 
y="401" 
dx="0,-0.3,0,0,-0.3,0,-0.3" 
class="s6_48"
>"build"</text>

<text 
x="201" 
y="401" 
dx="0,-0.3" 
class="s5_48"
>: </text>

<text 
x="217" 
y="401" 
dx="0,0,-0.3,0,-0.3,0,-0.3,0,0,-0.3,0,-0.3,0,-0.3,0,0,-0.3,0.1,-0.3,0,-0.3,0,0,-0.3,0,-0.3,0,0,-0.3,0,-0.3,0,-0.3,0,0,-0.3,0,-0.3,0" 
class="s7_48"
>"ng build --prod --aot &amp;&amp; npm run copy"</text>

<text 
x="540" 
y="401" 
dx="0,-0.3" 
class="s5_48"
>, </text>

<path d="M107.8,425.7l719.4,0l0,-20.5l-719.4,0l0,20.5Z" class="g2_48" />
<text 
x="143" 
y="422" 
dx="0,-0.3,0,0,-0.3,0" 
class="s6_48"
>"test"</text>

<text 
x="192" 
y="422" 
class="s5_48"
>: </text>

<text 
x="209" 
y="422" 
dx="0,0,0,-0.3,0,-0.3,0,-0.3,0" 
class="s7_48"
>"ng test"</text>

<text 
x="284" 
y="422" 
dx="0,-0.3" 
class="s5_48"
>, </text>

<path d="M107.8,446.2l719.4,0l0,-20.5l-719.4,0l0,20.5Z" class="g2_48" />
<text 
x="143" 
y="442" 
dx="0,-0.3,0,0,-0.3,0" 
class="s6_48"
>"lint"</text>

<text 
x="192" 
y="442" 
class="s5_48"
>: </text>

<text 
x="209" 
y="442" 
dx="0,0,0,-0.3,0,-0.3,0,-0.3,0" 
class="s7_48"
>"ng lint"</text>

<text 
x="284" 
y="442" 
dx="0,-0.3" 
class="s5_48"
>, </text>

<path d="M107.8,467.1l719.4,0l0,-20.9l-719.4,0l0,20.9Z" class="g2_48" />
<text 
x="143" 
y="463" 
dx="0,-0.3,0,0,-0.3" 
class="s6_48"
>"e2e"</text>

<text 
x="184" 
y="463" 
dx="0,-0.3" 
class="s5_48"
>: </text>

<text 
x="201" 
y="463" 
dx="0,-0.3,0,0,-0.3,0,-0.3,0" 
class="s7_48"
>"ng e2e"</text>

<text 
x="267" 
y="463" 
dx="0,-0.3" 
class="s5_48"
>, </text>

<path d="M107.8,487.7l719.4,0l0,-20.6l-719.4,0l0,20.6Z" class="g2_48" />
<text 
x="143" 
y="484" 
dx="0,-0.3,0,0,-0.3,0" 
class="s6_48"
>"gulp"</text>

<text 
x="192" 
y="484" 
class="s5_48"
>: </text>

<text 
x="209" 
y="484" 
dx="0,0,0,-0.3,0,-0.3,0,-0.3,0,0,-0.3,0,-0.3,0,-0.3,0,0,-0.3,0,-0.3,0,-0.3,0,0,-0.3,0,-0.3,0,0,-0.3,0" 
class="s7_48"
>"cd functions &amp;&amp; gulp &amp;&amp; cd .."</text>

<text 
x="466" 
y="484" 
dx="0,-0.3" 
class="s5_48"
>, </text>

<path d="M107.8,508.2l719.4,0l0,-20.5l-719.4,0l0,20.5Z" class="g2_48" />
<text 
x="143" 
y="504" 
dx="0,-0.3,0,0,-0.3,0,-0.3,0.1,-0.3,0,0,-0.3,0,-0.3,0,-0.3,0,0" 
class="s6_48"
>"deploy-functions"</text>

<text 
x="292" 
y="504" 
class="s5_48"
>: </text>

<text 
x="308" 
y="504" 
dx="0,0,-0.3,0,0,-0.3,0,-0.3,0,-0.3,0,0,-0.3,0,-0.3,0,0,-0.3,0,-0.3,0,-0.3,0,0,-0.3,0,-0.3,0,0,-0.3,0,-0.3,0,-0.4,0,0,-0.3,0,-0.3,0,-0.3,0,0,-0.3,0,-0.3,0,-0.3,0,0" 
class="s7_48"
>"npm run gulp &amp;&amp; firebase deploy --only functions"</text>

<text 
x="722" 
y="504" 
dx="0,-0.3" 
class="s5_48"
>, </text>

<path d="M107.8,528.7l719.4,0l0,-20.5l-719.4,0l0,20.5Z" class="g2_48" />
<text 
x="143" 
y="525" 
dx="0,-0.3,0,0,-0.3,0,-0.3,0.1,-0.3,0,0,-0.3,0,-0.3,0,-0.3" 
class="s6_48"
>"deploy-hosting"</text>

<text 
x="275" 
y="525" 
class="s5_48"
>: </text>

<text 
x="292" 
y="525" 
dx="0,0,-0.3,0,-0.3,0,0,-0.3,0,-0.3,0,-0.3,0,0,-0.3,0,-0.3,0,0,-0.3,0,-0.3,0,-0.3,0,0,-0.3,0,-0.3,0,0,-0.3,0,-0.3,0,-0.3,0,0,-0.3,0,-0.3,0,-0.3,0,0,-0.3,0,-0.3,0" 
class="s7_48"
>"npm run build &amp;&amp; firebase deploy --only hosting"</text>

<text 
x="697" 
y="525" 
dx="0,-0.3" 
class="s5_48"
>, </text>

<path d="M107.8,549.6l719.4,0l0,-20.9l-719.4,0l0,20.9Z" class="g2_48" />
<text 
x="143" 
y="545" 
dx="0,-0.3,0,0,-0.3,0,-0.3,0" 
class="s6_48"
>"deploy"</text>

<text 
x="209" 
y="545" 
class="s5_48"
>: </text>

<text 
x="226" 
y="545" 
dx="0,-0.3,0,-0.3,0,-0.3,0,0,-0.3,0,-0.3,0,-0.3,0,0,-0.3,0,-0.3,0,-0.3,0,0,-0.3,0,-0.3,0,0,-0.3,0,-0.3,0,-0.3,0,0,-0.3,0,-0.3,0,0,-0.3,0,-0.3,0,-0.3,0,0,-0.3,0,-0.3,0,-0.2" 
class="s7_48"
>"npm run gulp &amp;&amp; npm run build &amp;&amp; firebase deploy" </text>

<path d="M107.8,570.2l719.4,0l0,-20.6l-719.4,0l0,20.6Z" class="g2_48" />
<text 
x="126" 
y="566" 
dx="0,-0.3,-0.3" 
class="s5_48"
>}, </text>

<path d="M107.8,590.7l719.4,0l0,-20.5l-719.4,0l0,20.5Z" class="g2_48" />
<text 
x="126" 
y="587" 
dx="0,-0.3,0,-0.3,0,0,-0.3,0,-0.3" 
class="s6_48"
>"private"</text>

<text 
x="201" 
y="587" 
dx="0,-0.3" 
class="s5_48"
>: </text>

<text 
x="217" 
y="587" 
dx="0,0,-0.3,0" 
class="s8_48"
>true</text>

<text 
x="250" 
y="587" 
dx="0,-0.3" 
class="s5_48"
>, </text>

<path d="M107.8,611.2l719.4,0l0,-20.5l-719.4,0l0,20.5Z" class="g2_48" />
<text 
x="126" 
y="607" 
dx="0,-0.3,0,-0.3,0,0,-0.3,0,-0.3,0,-0.3,0,0,-0.3" 
class="s6_48"
>"dependencies"</text>

<text 
x="242" 
y="607" 
dx="0,-0.3,0,-0.3" 
class="s5_48"
>: { </text>

<path d="M107.8,632.1l719.4,0l0,-20.9l-719.4,0l0,20.9Z" class="g2_48" />
<text 
x="143" 
y="628" 
dx="0,-0.3,0,0,-0.3,0,-0.3,0,-0.3,0,0,-0.3,0,-0.3,0,-0.3,0,0,-0.3,0,-0.3" 
class="s6_48"
>"@angular/animations"</text>

<text 
x="317" 
y="628" 
dx="0,-0.3" 
class="s5_48"
>: </text>

<text 
x="333" 
y="628" 
dx="0,0,-0.3,0,-0.3,0,-0.3,0" 
class="s7_48"
>"^4.2.4"</text>

<text 
x="400" 
y="628" 
dx="0,-0.3" 
class="s5_48"
>, </text>

<path d="M107.8,652.7l719.4,0l0,-20.6l-719.4,0l0,20.6Z" class="g2_48" />
<text 
x="143" 
y="649" 
dx="0,-0.3,0,0,-0.3,0,-0.3,0,-0.3,0,0,-0.3,0,-0.3,0,-0.3,0" 
class="s6_48"
>"@angular/common"</text>

<text 
x="284" 
y="649" 
dx="0,-0.3" 
class="s5_48"
>: </text>

<text 
x="300" 
y="649" 
dx="0,-0.3,0,-0.3,0,0,-0.3,0" 
class="s7_48"
>"^4.2.4"</text>

<text 
x="366" 
y="649" 
dx="0,-0.3" 
class="s5_48"
>, </text>

<path d="M107.8,673.2l719.4,0l0,-20.5l-719.4,0l0,20.5Z" class="g2_48" />
<text 
x="143" 
y="669" 
dx="0,-0.3,0,0,-0.3,0,-0.3,0,-0.3,0,0,-0.3,0,-0.3,0,-0.3,0,0,-0.3" 
class="s6_48"
>"@angular/compiler"</text>

<text 
x="300" 
y="669" 
dx="0,-0.3" 
class="s5_48"
>: </text>

<text 
x="317" 
y="669" 
dx="0,-0.3,0,0,-0.3,0,-0.3,0" 
class="s7_48"
>"^4.2.4"</text>

<text 
x="383" 
y="669" 
dx="0,-0.3" 
class="s5_48"
>, </text>

<path d="M107.8,693.7l719.4,0l0,-20.5l-719.4,0l0,20.5Z" class="g2_48" />
<text 
x="143" 
y="690" 
dx="0,-0.3,0,0,-0.3,0,-0.3,0,-0.3,0,0,-0.3,0,-0.3,0" 
class="s6_48"
>"@angular/core"</text>

<text 
x="267" 
y="690" 
class="s5_48"
>: </text>

<text 
x="284" 
y="690" 
dx="0,-0.3,0,-0.3,0,-0.3,0,0" 
class="s7_48"
>"^4.2.4"</text>

<text 
x="350" 
y="690" 
dx="0,-0.3" 
class="s5_48"
>, </text>

<path d="M107.8,714.6l719.4,0l0,-20.9l-719.4,0l0,20.9Z" class="g2_48" />
<text 
x="143" 
y="710" 
dx="0,-0.3,0,0,-0.3,0,-0.3,0,-0.3,0,0,-0.3,0,-0.3,0,-0.3" 
class="s6_48"
>"@angular/forms"</text>

<text 
x="275" 
y="710" 
class="s5_48"
>: </text>

<text 
x="292" 
y="710" 
dx="0,0,-0.3,0,-0.3,0,0,-0.3" 
class="s7_48"
>"^4.2.4"</text>

<text 
x="358" 
y="710" 
dx="0,-0.3" 
class="s5_48"
>, </text>

<path d="M107.8,735.2l719.4,0l0,-20.6l-719.4,0l0,20.6Z" class="g2_48" />
<text 
x="143" 
y="731" 
dx="0,-0.3,0,0,-0.3,0,-0.3,0,-0.3,0,0,-0.3,0,-0.3,0" 
class="s6_48"
>"@angular/http"</text>

<text 
x="267" 
y="731" 
class="s5_48"
>: </text>

<text 
x="284" 
y="731" 
dx="0,-0.3,0,-0.3,0,-0.3,0,0" 
class="s7_48"
>"^4.2.4"</text>

<text 
x="350" 
y="731" 
dx="0,-0.3" 
class="s5_48"
>, </text>

<path d="M107.8,755.7l719.4,0l0,-20.5l-719.4,0l0,20.5Z" class="g2_48" />
<text 
x="143" 
y="752" 
dx="0,-0.3,0,0,-0.3,0,-0.3,0,-0.3,0,0,-0.3,0,-0.3,0,-0.3,0,0,-0.3,0,-0.3,0,-0.3,0,0,-0.3,0" 
class="s6_48"
>"@angular/platform-browser"</text>

<text 
x="366" 
y="752" 
class="s5_48"
>: </text>

<text 
x="383" 
y="752" 
dx="0,0,0,-0.3,0,-0.3,0,0" 
class="s7_48"
>"^4.2.4"</text>

<text 
x="449" 
y="752" 
dx="0,-0.3" 
class="s5_48"
>, </text>

<path d="M107.8,776.2l719.4,0l0,-20.5l-719.4,0l0,20.5Z" class="g2_48" />
<text 
x="143" 
y="772" 
dx="0,-0.3,0,0,-0.3,0,-0.3,0,-0.3,0,0,-0.3,0,-0.3,0,-0.3,0,0,-0.3,0,-0.3,0,-0.3,0,0,-0.3,0.1,-0.3,0,-0.3,0,0,-0.3,0,-0.3" 
class="s6_48"
>"@angular/platform-browser-dynamic"</text>

<text 
x="433" 
y="772" 
class="s5_48"
>: </text>

<text 
x="449" 
y="772" 
dx="0,0,-0.3,0,-0.3,0,0,-0.3" 
class="s7_48"
>"^4.2.4"</text>

<text 
x="515" 
y="772" 
dx="0,-0.3" 
class="s5_48"
>, </text>

<path d="M107.8,797.1l719.4,0l0,-20.9l-719.4,0l0,20.9Z" class="g2_48" />
<text 
x="143" 
y="793" 
dx="0,-0.3,0,0,-0.3,0,-0.3,0,-0.3,0,0,-0.3,0,-0.3,0,-0.3,0" 
class="s6_48"
>"@angular/router"</text>

<text 
x="284" 
y="793" 
dx="0,-0.3" 
class="s5_48"
>: </text>

<text 
x="300" 
y="793" 
dx="0,-0.3,0,-0.3,0,0,-0.3,0" 
class="s7_48"
>"^4.2.4"</text>

<text 
x="366" 
y="793" 
dx="0,-0.3" 
class="s5_48"
>, </text>

<path d="M107.8,817.7l719.4,0l0,-20.6l-719.4,0l0,20.6Z" class="g2_48" />
<text 
x="143" 
y="814" 
dx="0,-0.3,0,0,-0.3,0" 
class="s6_48"
>"args"</text>

<text 
x="192" 
y="814" 
class="s5_48"
>: </text>

<text 
x="209" 
y="814" 
dx="0,0,0,-0.3,0,-0.3,0,-0.3" 
class="s7_48"
>"^3.0.8"</text>

<text 
x="275" 
y="814" 
dx="0,-0.3" 
class="s5_48"
>, </text>

<path d="M107.8,838.2l719.4,0l0,-20.5l-719.4,0l0,20.5Z" class="g2_48" />
<text 
x="143" 
y="834" 
dx="0,-0.3,0,0,-0.3,0,-0.3,0,-0.3,0,0" 
class="s6_48"
>"bootstrap"</text>

<text 
x="234" 
y="834" 
class="s5_48"
>: </text>

<text 
x="250" 
y="834" 
dx="0,0,-0.3,0,0,-0.3,0,-0.3" 
class="s7_48"
>"^3.3.7"</text>

<text 
x="317" 
y="834" 
dx="0,-0.3" 
class="s5_48"
>, </text>

<path d="M107.8,858.7l719.4,0l0,-20.5l-719.4,0l0,20.5Z" class="g2_48" />
<text 
x="143" 
y="855" 
dx="0,-0.3,0,0,-0.3,0.1,-0.3,0,-0.3" 
class="s6_48"
>"core-js"</text>

<text 
x="217" 
y="855" 
class="s5_48"
>: </text>

<text 
x="234" 
y="855" 
dx="0,0,-0.3,0,-0.3,0,0,-0.3" 
class="s7_48"
>"^2.4.1"</text>

<text 
x="300" 
y="855" 
dx="0,-0.3" 
class="s5_48"
>, </text>

<path d="M107.8,879.6l719.4,0l0,-20.9l-719.4,0l0,20.9Z" class="g2_48" />
<text 
x="143" 
y="875" 
dx="0,-0.3,0,0,-0.3,0" 
class="s6_48"
>"cors"</text>

<text 
x="192" 
y="875" 
class="s5_48"
>: </text>

<text 
x="209" 
y="875" 
dx="0,0,0,-0.3,0,-0.3,0,-0.3" 
class="s7_48"
>"^2.8.4"</text>

<text 
x="275" 
y="875" 
dx="0,-0.3" 
class="s5_48"
>, </text>

<path d="M107.8,900.2l719.4,0l0,-20.6l-719.4,0l0,20.6Z" class="g2_48" />
<text 
x="143" 
y="896" 
dx="0,-0.3,0,0,-0.3,0,-0.3,0,-0.3,0.1,0,-0.3,0,-0.3,0,-0.3" 
class="s6_48"
>"firebase-admin"</text>

<text 
x="275" 
y="896" 
class="s5_48"
>: </text>

<text 
x="292" 
y="896" 
dx="0,0,-0.3,0,-0.3,0,0,-0.3,0" 
class="s7_48"
>"^5.10.0"</text>

<text 
x="366" 
y="896" 
dx="0,-0.3" 
class="s5_48"
>, </text>

<path d="M107.8,920.7l719.4,0l0,-20.5l-719.4,0l0,20.5Z" class="g2_48" />
<text 
x="143" 
y="917" 
dx="0,-0.3,0,0,-0.3,0,-0.3,0,-0.3,0.1,0,-0.3,0,-0.3,0,-0.3,0,0,-0.3,0" 
class="s6_48"
>"firebase-functions"</text>

<text 
x="308" 
y="917" 
class="s5_48"
>: </text>

<text 
x="325" 
y="917" 
dx="0,0,0,-0.3,0,-0.3,0,-0.3" 
class="s7_48"
>"^0.9.1"</text>

<text 
x="391" 
y="917" 
dx="0,-0.3" 
class="s5_48"
>, </text>

<path d="M107.8,941.2l719.4,0l0,-20.5l-719.4,0l0,20.5Z" class="g2_48" />
<text 
x="143" 
y="937" 
dx="0,-0.3,0,0,-0.3,0,-0.3,0,-0.3,0.1,0,-0.3,0,-0.3,0,-0.3" 
class="s6_48"
>"firebase-tools"</text>

<text 
x="275" 
y="937" 
class="s5_48"
>: </text>

<text 
x="292" 
y="937" 
dx="0,0,-0.3,0,-0.3,0,0,-0.3,0" 
class="s7_48"
>"^3.17.6"</text>

<text 
x="366" 
y="937" 
dx="0,-0.3" 
class="s5_48"
>, </text>

<path d="M107.8,962.1l719.4,0l0,-20.9l-719.4,0l0,20.9Z" class="g2_48" />
<text 
x="143" 
y="958" 
dx="0,-0.3,0,0,-0.3,0" 
class="s6_48"
>"gulp"</text>

<text 
x="192" 
y="958" 
class="s5_48"
>: </text>

<text 
x="209" 
y="958" 
dx="0,0,0,-0.3,0,-0.3,0,-0.3" 
class="s7_48"
>"^4.0.0"</text>

<text 
x="275" 
y="958" 
dx="0,-0.3" 
class="s5_48"
>, </text>

<path d="M107.8,982.7l719.4,0l0,-20.6l-719.4,0l0,20.6Z" class="g2_48" />
<text 
x="143" 
y="979" 
dx="0,-0.3,0,0,-0.3,0.1,-0.3,0,-0.3,0" 
class="s6_48"
>"gulp-cli"</text>

<text 
x="226" 
y="979" 
dx="0,-0.3" 
class="s5_48"
>: </text>

<text 
x="242" 
y="979" 
dx="0,-0.3,0,-0.3,0,0,-0.3,0" 
class="s7_48"
>"^2.0.1"</text>

<text 
x="308" 
y="979" 
dx="0,-0.3" 
class="s5_48"
>, </text>

<path d="M107.8,1003.2l719.4,0l0,-20.5l-719.4,0l0,20.5Z" class="g2_48" />
<text 
x="143" 
y="999" 
dx="0,-0.3,0,0,-0.3,0.1,-0.3,0,-0.3,0,0,-0.3,0,-0.3,0" 
class="s6_48"
>"html-entities"</text>

<text 
x="267" 
y="999" 
class="s5_48"
>: </text>

<text 
x="284" 
y="999" 
dx="0,-0.3,0,-0.3,0,-0.3,0,0" 
class="s7_48"
>"^1.2.1"</text>

<text 
x="350" 
y="999" 
dx="0,-0.3" 
class="s5_48"
>, </text>

<path d="M107.8,1023.7l719.4,0l0,-20.5l-719.4,0l0,20.5Z" class="g2_48" />
<text 
x="143" 
y="1020" 
dx="0,-0.3,0,0,-0.3,0,-0.3,0,-0.3,0,0,-0.3,0,-0.3,0" 
class="s6_48"
>"ngx-bootstrap"</text>

<text 
x="267" 
y="1020" 
class="s5_48"
>: </text>

<text 
x="284" 
y="1020" 
dx="0,-0.3,0,-0.3,0,-0.3,0,0" 
class="s7_48"
>"^1.9.3"</text>

<text 
x="350" 
y="1020" 
dx="0,-0.3" 
class="s5_48"
>, </text>

<path d="M107.8,1044.6l719.4,0l0,-20.9l-719.4,0l0,20.9Z" class="g2_48" />
<text 
x="143" 
y="1040" 
dx="0,-0.3,0,0,-0.3,0" 
class="s6_48"
>"rxjs"</text>

<text 
x="192" 
y="1040" 
class="s5_48"
>: </text>

<text 
x="209" 
y="1040" 
dx="0,0,0,-0.3,0,-0.3,0,-0.3" 
class="s7_48"
>"^5.4.2"</text>

<text 
x="275" 
y="1040" 
dx="0,-0.3" 
class="s5_48"
>, </text>

<path d="M107.8,1065.2l719.4,0l0,-20.6l-719.4,0l0,20.6Z" class="g2_48" />
<text 
x="143" 
y="1061" 
dx="0,-0.3,0,0,-0.3,0,-0.3,0,-0.3" 
class="s6_48"
>"webpack"</text>

<text 
x="217" 
y="1061" 
class="s5_48"
>: </text>

<text 
x="234" 
y="1061" 
dx="0,0,-0.3,0,-0.3,0,0,-0.3" 
class="s7_48"
>"3.11.0"</text>

<text 
x="300" 
y="1061" 
dx="0,-0.3" 
class="s5_48"
>, </text>



<!-- Any embedded fonts defined here -->
<style type="text/css" ><![CDATA[

@font-face {
	font-family: ArialNovaCond-Bold_d;
	src: url("fonts/ArialNovaCond-Bold_d.woff") format("woff");
}

@font-face {
	font-family: Menlo-Regular_bu;
	src: url("fonts/Menlo-Regular_bu.woff") format("woff");
}

@font-face {
	font-family: ArialNova-Light_n;
	src: url("fonts/ArialNova-Light_n.woff") format("woff");
}

@font-face {
	font-family: Calibri-Light_r;
	src: url("fonts/Calibri-Light_r.woff") format("woff");
}

]]></style>

</svg>
