<?xml version="1.0" encoding="UTF-8" standalone="no"?>
<!DOCTYPE svg PUBLIC "-//W3C//DTD SVG 1.1//EN"
"http://www.w3.org/Graphics/SVG/1.1/DTD/svg11.dtd">


<!-- Page 49 -->
<svg x="0" y="0" width="935" height="1210" viewBox="0 0 935 1210" version="1.1" xmlns="http://www.w3.org/2000/svg" xmlns:xlink="http://www.w3.org/1999/xlink"
style="display: block;margin-left: auto;margin-right: auto;">
<defs>

<style type="text/css"><![CDATA[

.g1_49{
fill: #D9D9D9;
}
.g2_49{
fill: #FFFFFF;
}

.s1_49{
font-size: 18.33px;
font-family: ArialNovaCond-Bold_d;
fill: #5A5A5A;
}
.s2_49{
font-size: 12.10px;
font-family: ArialNova-Light_n;
fill: #7F7F7F;
}
.s3_49{
font-size: 13.93px;
font-family: Menlo-Regular_bu;
fill: #0451A5;
}
.s4_49{
font-size: 13.93px;
font-family: Menlo-Regular_bu;
fill: #000000;
}
.s5_49{
font-size: 13.93px;
font-family: Menlo-Regular_bu;
fill: #A31515;
}

]]></style>

</defs>
<path d="M0,0
L0,1210
L935,1210
L935,0 Z " 
fill="#FFFFFF" stroke="none" />
<text 
x="110" 
y="1106" 
dx="0,0,0,0.2" 
class="s1_49"
>49 |</text>

<text 
x="141" 
y="1106" 
dx="0,4.3,4.9,0,1.9,0,1.6,0,1.3,0,1.7,0,1.7,0,1.2,0,1.9,0,1.6,4.7,4.9,0,1.3,0,1.7,0,1.6,0,1.5,0,1.6,0,1.9,0,1.2,0,1.5,0,1.9,0,1.5,4.5,4.9,0,1.7,0,1.2,0,1.9,0,1.9,0,1.2,4.5,4.5,0,1.9,0,1.5,4.7,4.9,0,1.3,0,1.5,0,1.9,0,1.5,0,1.5,0,1.5,0,1.5,0,1.9,0,1.3,0,1.9,0,1.6,4.6,4.5,0,1.9,0,1.5,0,1.7,0,1.6,0,1.4,0,1.9,0,1.3,0,1.9,0,1.5,0,1.7,0,1.5,0,1.5,0,1.9" 
class="s2_49"
>A W e b - b a s e d T r a n s l a t i o n S y s t e m f o r M u l t i l i n g u a l C o d e - s w i t c h i n g</text>

<path d="M107.8,1086.4l719.4,0l0,-0.7l-719.4,0l0,0.7Z" class="g1_49" />
<path d="M107.8,130.5l719.4,0l0,-20.5l-719.4,0l0,20.5Z" class="g2_49" />
<text 
x="143" 
y="127" 
dx="0,-0.3,0,0,-0.3,0,-0.3,0,-0.3" 
class="s3_49"
>"zone.js"</text>

<text 
x="217" 
y="127" 
class="s4_49"
>: </text>

<text 
x="234" 
y="127" 
dx="0,0,-0.3,0,-0.3,0,0,-0.3,0,-0.3" 
class="s5_49"
>"^0.8.14" </text>

<path d="M107.8,151.4l719.4,0l0,-20.9l-719.4,0l0,20.9Z" class="g2_49" />
<text 
x="126" 
y="147" 
dx="0,-0.3,-0.3" 
class="s4_49"
>}, </text>

<path d="M107.8,172l719.4,0l0,-20.6l-719.4,0l0,20.6Z" class="g2_49" />
<text 
x="126" 
y="168" 
dx="0,-0.3,0,-0.3,0,0,-0.3,0,-0.3,0,-0.3,0,0,-0.3,0,-0.3,0" 
class="s3_49"
>"devDependencies"</text>

<text 
x="267" 
y="168" 
dx="0,0,0,-0.3" 
class="s4_49"
>: { </text>

<path d="M107.8,192.5l719.4,0l0,-20.5l-719.4,0l0,20.5Z" class="g2_49" />
<text 
x="143" 
y="189" 
dx="0,-0.3,0,0,-0.3,0,-0.3,0,-0.3,0,0,-0.3,0,-0.3" 
class="s3_49"
>"@angular/cli"</text>

<text 
x="259" 
y="189" 
dx="0,-0.3" 
class="s4_49"
>: </text>

<text 
x="275" 
y="189" 
dx="0,0,-0.3,0,-0.3,0,-0.3,0" 
class="s5_49"
>"^1.7.0"</text>

<text 
x="342" 
y="189" 
dx="0,-0.3" 
class="s4_49"
>, </text>

<path d="M107.8,213l719.4,0l0,-20.5l-719.4,0l0,20.5Z" class="g2_49" />
<text 
x="143" 
y="209" 
dx="0,-0.3,0,0,-0.3,0,-0.3,0,-0.3,0,0,-0.3,0,-0.3,0,-0.3,0,0,-0.3,0,-0.3,0,-0.3" 
class="s3_49"
>"@angular/compiler-cli"</text>

<text 
x="333" 
y="209" 
class="s4_49"
>: </text>

<text 
x="350" 
y="209" 
dx="0,0,-0.3,0,-0.3,0,0,-0.3" 
class="s5_49"
>"^4.2.4"</text>

<text 
x="416" 
y="209" 
dx="0,-0.3" 
class="s4_49"
>, </text>

<path d="M107.8,233.9l719.4,0l0,-20.9l-719.4,0l0,20.9Z" class="g2_49" />
<text 
x="143" 
y="230" 
dx="0,-0.3,0,0,-0.3,0,-0.3,0,-0.3,0,0,-0.3,0,-0.3,0,-0.3,0,0,-0.3,0,-0.3,0,-0.3,0.1,0,-0.3,0" 
class="s3_49"
>"@angular/language-service"</text>

<text 
x="366" 
y="230" 
class="s4_49"
>: </text>

<text 
x="383" 
y="230" 
dx="0,0,0,-0.3,0,-0.3,0,0" 
class="s5_49"
>"^4.2.4"</text>

<text 
x="449" 
y="230" 
dx="0,-0.3" 
class="s4_49"
>, </text>

<path d="M107.8,254.5l719.4,0l0,-20.6l-719.4,0l0,20.6Z" class="g2_49" />
<text 
x="143" 
y="251" 
dx="0,-0.3,0,0,-0.3,0,-0.3,0,-0.3,0,0,-0.3,0,-0.3,0,-0.3" 
class="s3_49"
>"@types/jasmine"</text>

<text 
x="275" 
y="251" 
class="s4_49"
>: </text>

<text 
x="292" 
y="251" 
dx="0,0,-0.3,0,-0.3,0,0,-0.3,0" 
class="s5_49"
>"~2.5.53"</text>

<text 
x="366" 
y="251" 
dx="0,-0.3" 
class="s4_49"
>, </text>

<path d="M107.8,275l719.4,0l0,-20.5l-719.4,0l0,20.5Z" class="g2_49" />
<text 
x="143" 
y="271" 
dx="0,-0.3,0,0,-0.3,0,-0.3,0,-0.3,0,0,-0.3,0,-0.3,0,-0.3,0,0,-0.3" 
class="s3_49"
>"@types/jasminewd2"</text>

<text 
x="300" 
y="271" 
dx="0,-0.3" 
class="s4_49"
>: </text>

<text 
x="317" 
y="271" 
dx="0,-0.3,0,0,-0.3,0,-0.3,0" 
class="s5_49"
>"~2.0.2"</text>

<text 
x="383" 
y="271" 
dx="0,-0.3" 
class="s4_49"
>, </text>

<path d="M107.8,295.5l719.4,0l0,-20.5l-719.4,0l0,20.5Z" class="g2_49" />
<text 
x="143" 
y="292" 
dx="0,-0.3,0,0,-0.3,0,-0.3,0,-0.3,0,0,-0.3,0" 
class="s3_49"
>"@types/node"</text>

<text 
x="250" 
y="292" 
class="s4_49"
>: </text>

<text 
x="267" 
y="292" 
dx="0,0,0,-0.3,0,-0.3,0,-0.3,0" 
class="s5_49"
>"~6.0.60"</text>

<text 
x="342" 
y="292" 
dx="0,-0.3" 
class="s4_49"
>, </text>

<path d="M107.8,316.4l719.4,0l0,-20.9l-719.4,0l0,20.9Z" class="g2_49" />
<text 
x="143" 
y="312" 
dx="0,-0.3,0,0,-0.3,0,-0.3,0,-0.3,0,0" 
class="s3_49"
>"codelyzer"</text>

<text 
x="234" 
y="312" 
class="s4_49"
>: </text>

<text 
x="250" 
y="312" 
dx="0,0,-0.3,0,0,-0.3,0,-0.3" 
class="s5_49"
>"~3.1.1"</text>

<text 
x="317" 
y="312" 
dx="0,-0.3" 
class="s4_49"
>, </text>

<path d="M107.8,337l719.4,0l0,-20.6l-719.4,0l0,20.6Z" class="g2_49" />
<text 
x="143" 
y="333" 
dx="0,-0.3,0,0,-0.3,0,-0.3,0,-0.3,0,0,-0.3,0,-0.3" 
class="s3_49"
>"jasmine-core"</text>

<text 
x="259" 
y="333" 
dx="0,-0.3" 
class="s4_49"
>: </text>

<text 
x="275" 
y="333" 
dx="0,0,-0.3,0,-0.3,0,-0.3,0" 
class="s5_49"
>"~2.6.2"</text>

<text 
x="342" 
y="333" 
dx="0,-0.3" 
class="s4_49"
>, </text>

<path d="M107.8,357.5l719.4,0l0,-20.5l-719.4,0l0,20.5Z" class="g2_49" />
<text 
x="143" 
y="354" 
dx="0,-0.3,0,0,-0.3,0,-0.3,0,-0.3,0,0,-0.3,0,-0.3,0,-0.3,0,0,-0.3,0,-0.3,0,-0.3" 
class="s3_49"
>"jasmine-spec-reporter"</text>

<text 
x="333" 
y="354" 
class="s4_49"
>: </text>

<text 
x="350" 
y="354" 
dx="0,0,-0.3,0,-0.3,0,0,-0.3" 
class="s5_49"
>"~4.1.0"</text>

<text 
x="416" 
y="354" 
dx="0,-0.3" 
class="s4_49"
>, </text>

<path d="M107.8,378l719.4,0l0,-20.5l-719.4,0l0,20.5Z" class="g2_49" />
<text 
x="143" 
y="374" 
dx="0,-0.3,0,0,-0.3,0,-0.3" 
class="s3_49"
>"karma"</text>

<text 
x="201" 
y="374" 
dx="0,-0.3" 
class="s4_49"
>: </text>

<text 
x="217" 
y="374" 
dx="0,0,-0.3,0,-0.3,0,-0.3,0" 
class="s5_49"
>"~1.7.0"</text>

<text 
x="284" 
y="374" 
dx="0,-0.3" 
class="s4_49"
>, </text>

<path d="M107.8,398.9l719.4,0l0,-20.9l-719.4,0l0,20.9Z" class="g2_49" />
<text 
x="143" 
y="395" 
dx="0,-0.3,0,0,-0.3,0,-0.3,0,-0.3,0,0,-0.3,0,-0.3,0,-0.3,0,0,-0.3,0.1,-0.3,0,-0.3" 
class="s3_49"
>"karma-chrome-launcher"</text>

<text 
x="333" 
y="395" 
class="s4_49"
>: </text>

<text 
x="350" 
y="395" 
dx="0,0,-0.3,0,-0.3,0,0,-0.3" 
class="s5_49"
>"~2.1.1"</text>

<text 
x="416" 
y="395" 
dx="0,-0.3" 
class="s4_49"
>, </text>

<path d="M107.8,419.5l719.4,0l0,-20.6l-719.4,0l0,20.6Z" class="g2_49" />
<text 
x="143" 
y="416" 
dx="0,-0.3,0,0,-0.3,0,-0.3,0,-0.3,0,0" 
class="s3_49"
>"karma-cli"</text>

<text 
x="234" 
y="416" 
class="s4_49"
>: </text>

<text 
x="250" 
y="416" 
dx="0,0,-0.3,0,0,-0.3,0,-0.3" 
class="s5_49"
>"~1.0.1"</text>

<text 
x="317" 
y="416" 
dx="0,-0.3" 
class="s4_49"
>, </text>

<path d="M107.8,440l719.4,0l0,-20.5l-719.4,0l0,20.5Z" class="g2_49" />
<text 
x="143" 
y="436" 
dx="0,-0.3,0,0,-0.3,0,-0.3,0,-0.3,0,0,-0.3,0,-0.3,0,-0.3,0,0,-0.3,0,-0.3,0,-0.3,0,0,-0.3,0,-0.3,0,-0.3,0,0,-0.3,0" 
class="s3_49"
>"karma-coverage-istanbul-reporter"</text>

<text 
x="424" 
y="436" 
class="s4_49"
>: </text>

<text 
x="441" 
y="436" 
dx="0,-0.3,0,-0.3,0,-0.3,0,0" 
class="s5_49"
>"^1.2.1"</text>

<text 
x="507" 
y="436" 
dx="0,-0.3" 
class="s4_49"
>, </text>

<path d="M107.8,460.5l719.4,0l0,-20.5l-719.4,0l0,20.5Z" class="g2_49" />
<text 
x="143" 
y="457" 
dx="0,-0.3,0,0,-0.3,0,-0.3,0,-0.3,0,0,-0.3,0,-0.3,0" 
class="s3_49"
>"karma-jasmine"</text>

<text 
x="267" 
y="457" 
class="s4_49"
>: </text>

<text 
x="284" 
y="457" 
dx="0,-0.3,0,-0.3,0,-0.3,0,0" 
class="s5_49"
>"~1.1.0"</text>

<text 
x="350" 
y="457" 
dx="0,-0.3" 
class="s4_49"
>, </text>

<path d="M107.8,481.4l719.4,0l0,-20.9l-719.4,0l0,20.9Z" class="g2_49" />
<text 
x="143" 
y="477" 
dx="0,-0.3,0,0,-0.3,0,-0.3,0,-0.3,0,0,-0.3,0,-0.3,0.1,-0.3,0,0,-0.3,0,-0.3,0,-0.3,0,0,-0.3,0,-0.3,0" 
class="s3_49"
>"karma-jasmine-html-reporter"</text>

<text 
x="383" 
y="477" 
class="s4_49"
>: </text>

<text 
x="400" 
y="477" 
dx="0,-0.3,0,-0.3,0,0,-0.3,0" 
class="s5_49"
>"^0.2.2"</text>

<text 
x="466" 
y="477" 
dx="0,-0.3" 
class="s4_49"
>, </text>

<path d="M107.8,502l719.4,0l0,-20.6l-719.4,0l0,20.6Z" class="g2_49" />
<text 
x="143" 
y="498" 
dx="0,-0.3,0,0,-0.3,0,-0.3,0,-0.3,0,0,-0.3" 
class="s3_49"
>"protractor"</text>

<text 
x="242" 
y="498" 
dx="0,-0.3" 
class="s4_49"
>: </text>

<text 
x="259" 
y="498" 
dx="0,-0.3,0,0,-0.3,0,-0.3,0" 
class="s5_49"
>"~5.1.2"</text>

<text 
x="325" 
y="498" 
dx="0,-0.3" 
class="s4_49"
>, </text>

<path d="M107.8,522.5l719.4,0l0,-20.5l-719.4,0l0,20.5Z" class="g2_49" />
<text 
x="143" 
y="519" 
dx="0,-0.3,0,0.1,-0.3,0,-0.3,0,-0.3" 
class="s3_49"
>"ts-node"</text>

<text 
x="217" 
y="519" 
class="s4_49"
>: </text>

<text 
x="234" 
y="519" 
dx="0,0,-0.3,0,-0.3,0,0,-0.3" 
class="s5_49"
>"~3.2.0"</text>

<text 
x="300" 
y="519" 
dx="0,-0.3" 
class="s4_49"
>, </text>

<path d="M107.8,543l719.4,0l0,-20.5l-719.4,0l0,20.5Z" class="g2_49" />
<text 
x="143" 
y="539" 
dx="0,-0.3,0,0,-0.3,0,-0.3,0" 
class="s3_49"
>"tslint"</text>

<text 
x="209" 
y="539" 
class="s4_49"
>: </text>

<text 
x="226" 
y="539" 
dx="0,-0.3,0,-0.3,0,-0.3,0,0" 
class="s5_49"
>"^5.3.2"</text>

<text 
x="292" 
y="539" 
dx="0,-0.3" 
class="s4_49"
>, </text>

<path d="M107.8,563.9l719.4,0l0,-20.9l-719.4,0l0,20.9Z" class="g2_49" />
<text 
x="143" 
y="560" 
dx="0,-0.3,0,0,-0.3,0,-0.3,0,-0.3,0,0,-0.3" 
class="s3_49"
>"typescript"</text>

<text 
x="242" 
y="560" 
dx="0,-0.3" 
class="s4_49"
>: </text>

<text 
x="259" 
y="560" 
dx="0,-0.3,0,0,-0.3,0,-0.3,0,-0.3" 
class="s5_49"
>"~2.3.3" </text>

<path d="M107.8,584.5l719.4,0l0,-20.6l-719.4,0l0,20.6Z" class="g2_49" />
<text 
x="126" 
y="581" 
dx="0,-0.3" 
class="s4_49"
>} </text>

<path d="M107.8,605l719.4,0l0,-20.5l-719.4,0l0,20.5Z" class="g2_49" />
<text 
x="110" 
y="601" 
class="s4_49"
>} </text>

<path d="M107.8,625.5l719.4,0l0,-20.5l-719.4,0l0,20.5Z" class="g2_49" />


<!-- Any embedded fonts defined here -->
<style type="text/css" ><![CDATA[

@font-face {
	font-family: ArialNovaCond-Bold_d;
	src: url("fonts/ArialNovaCond-Bold_d.woff") format("woff");
}

@font-face {
	font-family: Menlo-Regular_bu;
	src: url("fonts/Menlo-Regular_bu.woff") format("woff");
}

@font-face {
	font-family: ArialNova-Light_n;
	src: url("fonts/ArialNova-Light_n.woff") format("woff");
}

]]></style>

</svg>
