<?xml version="1.0" encoding="UTF-8" standalone="no"?>
<!DOCTYPE svg PUBLIC "-//W3C//DTD SVG 1.1//EN"
"http://www.w3.org/Graphics/SVG/1.1/DTD/svg11.dtd">


<!-- Page 50 -->
<svg x="0" y="0" width="935" height="1210" viewBox="0 0 935 1210" version="1.1" xmlns="http://www.w3.org/2000/svg" xmlns:xlink="http://www.w3.org/1999/xlink"
style="display: block;margin-left: auto;margin-right: auto;">
<defs>

<style type="text/css"><![CDATA[

.g1_50{
fill: #D9D9D9;
}
.g2_50{
fill: #FFFFFF;
}

.s1_50{
font-size: 18.33px;
font-family: ArialNovaCond-Bold_d;
fill: #5A5A5A;
}
.s2_50{
font-size: 12.10px;
font-family: ArialNova-Light_n;
fill: #7F7F7F;
}
.s3_50{
font-size: 18.33px;
font-family: Calibri-Light_r;
fill: #44546A;
}
.s4_50{
font-size: 14.67px;
font-family: Calibri-Light_r;
fill: #44546A;
}
.s5_50{
font-size: 16.13px;
font-family: Consolas_c7;
fill: #000000;
}
.s6_50{
font-size: 16.13px;
font-family: Consolas_c7;
fill: #0451A5;
}
.s7_50{
font-size: 16.13px;
font-family: Consolas_c7;
fill: #A31515;
}

]]></style>

</defs>
<path d="M0,0
L0,1210
L935,1210
L935,0 Z " 
fill="#FFFFFF" stroke="none" />
<text 
x="110" 
y="1106" 
dx="0,0,0,0.2" 
class="s1_50"
>50 |</text>

<text 
x="141" 
y="1106" 
dx="0,4.3,4.9,0,1.9,0,1.6,0,1.3,0,1.7,0,1.7,0,1.2,0,1.9,0,1.6,4.7,4.9,0,1.3,0,1.7,0,1.6,0,1.5,0,1.6,0,1.9,0,1.2,0,1.5,0,1.9,0,1.5,4.5,4.9,0,1.7,0,1.2,0,1.9,0,1.9,0,1.2,4.5,4.5,0,1.9,0,1.5,4.7,4.9,0,1.3,0,1.5,0,1.9,0,1.5,0,1.5,0,1.5,0,1.5,0,1.9,0,1.3,0,1.9,0,1.6,4.6,4.5,0,1.9,0,1.5,0,1.7,0,1.6,0,1.4,0,1.9,0,1.3,0,1.9,0,1.5,0,1.7,0,1.5,0,1.5,0,1.9" 
class="s2_50"
>A W e b - b a s e d T r a n s l a t i o n S y s t e m f o r M u l t i l i n g u a l C o d e - s w i t c h i n g</text>

<path d="M107.8,1086.4l719.4,0l0,-0.7l-719.4,0l0,0.7Z" class="g1_50" />
<text 
x="110" 
y="127" 
class="s3_50"
>F</text>

<text 
x="119" 
y="127" 
dx="0,1.6,1.6" 
class="s4_50"
>ILE</text>

<text 
x="141" 
y="127" 
class="s3_50"
>:</text>

<text 
x="152" 
y="127" 
dx="0,1.6,1.6,1.4,1.3,1.2,1.6" 
class="s4_50"
>ANGULAR</text>

<text 
x="221" 
y="127" 
class="s3_50"
>-</text>

<text 
x="228" 
y="127" 
dx="0,1.3,1.6" 
class="s4_50"
>CLI</text>

<text 
x="250" 
y="127" 
class="s3_50"
>.</text>

<text 
x="255" 
y="127" 
dx="0,1.6,1.4,1.4" 
class="s4_50"
>JSON</text>

<path d="M107.8,158.8l719.4,0l0,-18.7l-719.4,0l0,18.7Z" class="g2_50" />
<text 
x="110" 
y="154" 
dx="0,-0.1" 
class="s5_50"
>{ </text>

<path d="M107.8,180.4l719.4,0l0,-21.6l-719.4,0l0,21.6Z" class="g2_50" />
<text 
x="127" 
y="176" 
dx="0,-0.1,-0.1,-0.1,-0.1,-0.1,-0.1,-0.1,-0.1" 
class="s6_50"
>"$schema"</text>

<text 
x="206" 
y="176" 
dx="0,-0.1" 
class="s5_50"
>: </text>

<text 
x="224" 
y="176" 
dx="0,-0.1,-0.1,-0.1,-0.1,-0.1,-0.1,-0.1,-0.1,-0.1,-0.1,-0.1,-0.1,-0.1,-0.1,-0.1,0.3,-0.1,-0.1,-0.1,-0.1,-0.1,-0.1,-0.1,-0.1,-0.1,-0.1,-0.1,-0.1,0.3,-0.1,-0.1,-0.1,-0.1,-0.1,-0.1,-0.1,-0.1,-0.1,-0.1,-0.1,-0.1,-0.1,-0.1,-0.1,-0.1,-0.1,-0.1,-0.1,-0.1,-0.1,-0.1" 
class="s7_50"
>"./node_modules/@angular/cli/lib/config/schema.json"</text>

<text 
x="682" 
y="176" 
dx="0,0.3" 
class="s5_50"
>, </text>

<path d="M107.8,202.4l719.4,0l0,-22l-719.4,0l0,22Z" class="g2_50" />
<text 
x="127" 
y="198" 
dx="0,-0.1,-0.1,-0.1,-0.1,-0.1,-0.1,-0.1,-0.1" 
class="s6_50"
>"project"</text>

<text 
x="206" 
y="198" 
dx="0,-0.1,-0.1,0.3" 
class="s5_50"
>: { </text>

<path d="M107.8,224l719.4,0l0,-21.6l-719.4,0l0,21.6Z" class="g2_50" />
<text 
x="145" 
y="220" 
dx="0,-0.1,-0.1,-0.1,-0.1,-0.1" 
class="s6_50"
>"name"</text>

<text 
x="198" 
y="220" 
dx="0,-0.1" 
class="s5_50"
>: </text>

<text 
x="215" 
y="220" 
dx="0,-0.1,-0.1,-0.1,-0.1,-0.1,-0.1,-0.1,-0.1,-0.1,-0.1,-0.1,-0.1,-0.1,-0.1,-0.1,-0.1,0.3" 
class="s7_50"
>"angular-project" </text>

<path d="M107.8,245.7l719.4,0l0,-21.7l-719.4,0l0,21.7Z" class="g2_50" />
<text 
x="127" 
y="241" 
dx="0,-0.1,-0.1" 
class="s5_50"
>}, </text>

<path d="M107.8,267.7l719.4,0l0,-22l-719.4,0l0,22Z" class="g2_50" />
<text 
x="127" 
y="263" 
dx="0,-0.1,-0.1,-0.1,-0.1,-0.1" 
class="s6_50"
>"apps"</text>

<text 
x="180" 
y="263" 
dx="0,-0.1,-0.1,0.3" 
class="s5_50"
>: [ </text>

<path d="M107.8,289.3l719.4,0l0,-21.6l-719.4,0l0,21.6Z" class="g2_50" />
<text 
x="145" 
y="285" 
dx="0,-0.1" 
class="s5_50"
>{ </text>

<path d="M107.8,311.3l719.4,0l0,-22l-719.4,0l0,22Z" class="g2_50" />
<text 
x="162" 
y="306" 
dx="0,-0.1,-0.1,-0.1,-0.1,-0.1" 
class="s6_50"
>"root"</text>

<text 
x="215" 
y="306" 
dx="0,-0.1" 
class="s5_50"
>: </text>

<text 
x="233" 
y="306" 
dx="0,-0.1,-0.1,-0.1,-0.1" 
class="s7_50"
>"src"</text>

<text 
x="277" 
y="306" 
dx="0,0.3" 
class="s5_50"
>, </text>

<path d="M107.8,332.9l719.4,0l0,-21.6l-719.4,0l0,21.6Z" class="g2_50" />
<text 
x="162" 
y="328" 
dx="0,-0.1,-0.1,-0.1,-0.1,-0.1,-0.1,-0.1" 
class="s6_50"
>"outDir"</text>

<text 
x="233" 
y="328" 
dx="0,-0.1" 
class="s5_50"
>: </text>

<text 
x="250" 
y="328" 
dx="0,-0.1,-0.1,-0.1,-0.1,-0.1" 
class="s7_50"
>"dist"</text>

<text 
x="303" 
y="328" 
dx="0,0.3" 
class="s5_50"
>, </text>

<path d="M107.8,354.6l719.4,0l0,-21.7l-719.4,0l0,21.7Z" class="g2_50" />
<text 
x="162" 
y="350" 
dx="0,-0.1,-0.1,-0.1,-0.1,-0.1,-0.1,-0.1" 
class="s6_50"
>"assets"</text>

<text 
x="233" 
y="350" 
dx="0,-0.1,-0.1,0.3" 
class="s5_50"
>: [ </text>

<path d="M107.8,376.6l719.4,0l0,-22l-719.4,0l0,22Z" class="g2_50" />
<text 
x="180" 
y="372" 
dx="0,-0.1,-0.1,-0.1,-0.1,-0.1,-0.1,-0.1" 
class="s7_50"
>"assets"</text>

<text 
x="250" 
y="372" 
dx="0,0.3" 
class="s5_50"
>, </text>

<path d="M107.8,398.2l719.4,0l0,-21.6l-719.4,0l0,21.6Z" class="g2_50" />
<text 
x="180" 
y="394" 
dx="0,-0.1,-0.1,-0.1,-0.1,-0.1,-0.1,-0.1,-0.1,-0.1,-0.1,-0.1,-0.1,0.3" 
class="s7_50"
>"favicon.ico" </text>

<path d="M107.8,419.8l719.4,0l0,-21.6l-719.4,0l0,21.6Z" class="g2_50" />
<text 
x="162" 
y="415" 
dx="0,-0.1,-0.1" 
class="s5_50"
>], </text>

<path d="M107.8,441.8l719.4,0l0,-22l-719.4,0l0,22Z" class="g2_50" />
<text 
x="162" 
y="437" 
dx="0,-0.1,-0.1,-0.1,-0.1,-0.1,-0.1" 
class="s6_50"
>"index"</text>

<text 
x="224" 
y="437" 
dx="0,-0.1" 
class="s5_50"
>: </text>

<text 
x="242" 
y="437" 
dx="0,-0.1,-0.1,-0.1,-0.1,-0.1,-0.1,-0.1,-0.1,-0.1,-0.1,-0.1" 
class="s7_50"
>"index.html"</text>

<text 
x="347" 
y="437" 
dx="0,0.3" 
class="s5_50"
>, </text>

<path d="M107.8,463.5l719.4,0l0,-21.7l-719.4,0l0,21.7Z" class="g2_50" />
<text 
x="162" 
y="459" 
dx="0,-0.1,-0.1,-0.1,-0.1,-0.1" 
class="s6_50"
>"main"</text>

<text 
x="215" 
y="459" 
dx="0,-0.1" 
class="s5_50"
>: </text>

<text 
x="233" 
y="459" 
dx="0,-0.1,-0.1,-0.1,-0.1,-0.1,-0.1,-0.1,-0.1" 
class="s7_50"
>"main.ts"</text>

<text 
x="312" 
y="459" 
dx="0,0.3" 
class="s5_50"
>, </text>

<path d="M107.8,485.5l719.4,0l0,-22l-719.4,0l0,22Z" class="g2_50" />
<text 
x="162" 
y="481" 
dx="0,-0.1,-0.1,-0.1,-0.1,-0.1,-0.1,-0.1,-0.1,-0.1,-0.1" 
class="s6_50"
>"polyfills"</text>

<text 
x="259" 
y="481" 
dx="0,-0.1" 
class="s5_50"
>: </text>

<text 
x="277" 
y="481" 
dx="0,-0.1,-0.1,-0.1,-0.1,-0.1,-0.1,-0.1,-0.1,-0.1,0.3,-0.1,-0.1,-0.1" 
class="s7_50"
>"polyfills.ts"</text>

<text 
x="400" 
y="481" 
dx="0,0.3" 
class="s5_50"
>, </text>

<path d="M107.8,507.1l719.4,0l0,-21.6l-719.4,0l0,21.6Z" class="g2_50" />
<text 
x="162" 
y="503" 
dx="0,-0.1,-0.1,-0.1,-0.1,-0.1" 
class="s6_50"
>"test"</text>

<text 
x="215" 
y="503" 
dx="0,-0.1" 
class="s5_50"
>: </text>

<text 
x="233" 
y="503" 
dx="0,-0.1,-0.1,-0.1,-0.1,-0.1,-0.1,-0.1,-0.1" 
class="s7_50"
>"test.ts"</text>

<text 
x="312" 
y="503" 
dx="0,0.3" 
class="s5_50"
>, </text>

<path d="M107.8,528.7l719.4,0l0,-21.6l-719.4,0l0,21.6Z" class="g2_50" />
<text 
x="162" 
y="524" 
dx="0,-0.1,-0.1,-0.1,-0.1,-0.1,-0.1,-0.1,-0.1,-0.1" 
class="s6_50"
>"tsconfig"</text>

<text 
x="250" 
y="524" 
dx="0,-0.1" 
class="s5_50"
>: </text>

<text 
x="268" 
y="524" 
dx="0,-0.1,-0.1,-0.1,-0.1,-0.1,-0.1,-0.1,-0.1,-0.1,-0.1,0.3,-0.1,-0.1,-0.1,-0.1,-0.1,-0.1,-0.1" 
class="s7_50"
>"tsconfig.app.json"</text>

<text 
x="435" 
y="524" 
dx="0,0.3" 
class="s5_50"
>, </text>

<path d="M107.8,550.7l719.4,0l0,-22l-719.4,0l0,22Z" class="g2_50" />
<text 
x="162" 
y="546" 
dx="0,-0.1,-0.1,-0.1,-0.1,-0.1,-0.1,-0.1,-0.1,-0.1,-0.1,-0.1,-0.1,-0.1" 
class="s6_50"
>"testTsconfig"</text>

<text 
x="286" 
y="546" 
dx="0,-0.1" 
class="s5_50"
>: </text>

<text 
x="303" 
y="546" 
dx="0,-0.1,-0.1,-0.1,-0.1,-0.1,-0.1,0.3,-0.1,-0.1,-0.1,-0.1,-0.1,-0.1,-0.1,-0.1,-0.1,-0.1,-0.1,-0.1" 
class="s7_50"
>"tsconfig.spec.json"</text>

<text 
x="480" 
y="546" 
dx="0,-0.1" 
class="s5_50"
>, </text>

<path d="M107.8,572.4l719.4,0l0,-21.7l-719.4,0l0,21.7Z" class="g2_50" />
<text 
x="162" 
y="568" 
dx="0,-0.1,-0.1,-0.1,-0.1,-0.1,-0.1,-0.1" 
class="s6_50"
>"prefix"</text>

<text 
x="233" 
y="568" 
dx="0,-0.1" 
class="s5_50"
>: </text>

<text 
x="250" 
y="568" 
dx="0,-0.1,-0.1,-0.1,-0.1" 
class="s7_50"
>"app"</text>

<text 
x="294" 
y="568" 
dx="0,0.3" 
class="s5_50"
>, </text>

<path d="M107.8,594l719.4,0l0,-21.6l-719.4,0l0,21.6Z" class="g2_50" />
<text 
x="162" 
y="589" 
dx="0,-0.1,-0.1,-0.1,-0.1,-0.1,-0.1,-0.1" 
class="s6_50"
>"styles"</text>

<text 
x="233" 
y="589" 
dx="0,-0.1,-0.1,0.3" 
class="s5_50"
>: [ </text>

<path d="M107.8,616l719.4,0l0,-22l-719.4,0l0,22Z" class="g2_50" />
<text 
x="180" 
y="611" 
dx="0,-0.1,-0.1,-0.1,-0.1,-0.1,-0.1,-0.1,-0.1,-0.1,-0.1,-0.1" 
class="s7_50"
>"styles.css"</text>

<text 
x="286" 
y="611" 
dx="0,0.3" 
class="s5_50"
>, </text>

<path d="M107.8,637.6l719.4,0l0,-21.6l-719.4,0l0,21.6Z" class="g2_50" />
<text 
x="180" 
y="633" 
dx="0,-0.1,-0.1,-0.1,-0.1,-0.1,-0.1,-0.1,-0.1,-0.1,-0.1,-0.1,-0.1,-0.1,-0.1,-0.1,-0.1,-0.1,-0.1,-0.1,-0.1,0.3,-0.1,-0.1,-0.1,-0.1,-0.1,-0.1,-0.1,-0.1,-0.1,-0.1,-0.1,-0.1,0.3,-0.1,-0.1,-0.1,-0.1,-0.1,-0.1,-0.1,-0.1,-0.1,-0.1,-0.1,-0.1,-0.1,-0.1,-0.1,-0.1,-0.1,-0.1,-0.1,-0.1" 
class="s7_50"
>"../node_modules/bootstrap/dist/css/bootstrap.min.css" </text>

<path d="M107.8,659.6l719.4,0l0,-22l-719.4,0l0,22Z" class="g2_50" />
<text 
x="162" 
y="655" 
dx="0,-0.1,-0.1" 
class="s5_50"
>], </text>

<path d="M107.8,681.3l719.4,0l0,-21.7l-719.4,0l0,21.7Z" class="g2_50" />
<text 
x="162" 
y="677" 
dx="0,-0.1,-0.1,-0.1,-0.1,-0.1,-0.1,-0.1,-0.1" 
class="s6_50"
>"scripts"</text>

<text 
x="242" 
y="677" 
dx="0,-0.1,-0.1,-0.1,-0.1,0.3" 
class="s5_50"
>: [], </text>

<path d="M107.8,702.9l719.4,0l0,-21.6l-719.4,0l0,21.6Z" class="g2_50" />
<text 
x="162" 
y="698" 
dx="0,-0.1,-0.1,-0.1,-0.1,-0.1,-0.1,-0.1,-0.1,-0.1,-0.1,-0.1,-0.1,-0.1,-0.1,-0.1,-0.1,-0.1,-0.1" 
class="s6_50"
>"environmentSource"</text>

<text 
x="330" 
y="698" 
dx="0,-0.1" 
class="s5_50"
>: </text>

<text 
x="347" 
y="698" 
dx="0,-0.1,0.3,-0.1,-0.1,-0.1,-0.1,-0.1,-0.1,-0.1,-0.1,-0.1,-0.1,-0.1,-0.1,0.3,-0.1,-0.1,-0.1,-0.1,-0.1,-0.1,-0.1,-0.1,-0.1,-0.1,-0.1,-0.1,-0.1" 
class="s7_50"
>"environments/environment.ts"</text>

<text 
x="603" 
y="698" 
dx="0,0.3" 
class="s5_50"
>, </text>

<path d="M107.8,724.9l719.4,0l0,-22l-719.4,0l0,22Z" class="g2_50" />
<text 
x="162" 
y="720" 
dx="0,-0.1,-0.1,-0.1,-0.1,-0.1,-0.1,-0.1,-0.1,-0.1,-0.1,-0.1,-0.1,-0.1" 
class="s6_50"
>"environments"</text>

<text 
x="286" 
y="720" 
dx="0,-0.1,-0.1,0.3" 
class="s5_50"
>: { </text>

<path d="M107.8,746.5l719.4,0l0,-21.6l-719.4,0l0,21.6Z" class="g2_50" />
<text 
x="180" 
y="742" 
dx="0,-0.1,-0.1,-0.1,-0.1" 
class="s6_50"
>"dev"</text>

<text 
x="224" 
y="742" 
dx="0,-0.1" 
class="s5_50"
>: </text>

<text 
x="242" 
y="742" 
dx="0,-0.1,-0.1,-0.1,-0.1,-0.1,-0.1,-0.1,-0.1,-0.1,-0.1,-0.1,-0.1,-0.1,0.3,-0.1,-0.1,-0.1,-0.1,-0.1,-0.1,-0.1,-0.1,-0.1,-0.1,-0.1,-0.1,0.3,-0.1" 
class="s7_50"
>"environments/environment.ts"</text>

<text 
x="497" 
y="742" 
dx="0,-0.1" 
class="s5_50"
>, </text>

<path d="M107.8,768.2l719.4,0l0,-21.7l-719.4,0l0,21.7Z" class="g2_50" />
<text 
x="180" 
y="764" 
dx="0,-0.1,-0.1,-0.1,-0.1,-0.1" 
class="s6_50"
>"prod"</text>

<text 
x="233" 
y="764" 
dx="0,-0.1" 
class="s5_50"
>: </text>

<text 
x="250" 
y="764" 
dx="0,-0.1,-0.1,-0.1,-0.1,-0.1,-0.1,-0.1,-0.1,-0.1,-0.1,-0.1,-0.1,0.3,-0.1,-0.1,-0.1,-0.1,-0.1,-0.1,-0.1,-0.1,-0.1,-0.1,-0.1,-0.1,0.3,-0.1,-0.1,-0.1,-0.1,-0.1,-0.1,-0.1,-0.1" 
class="s7_50"
>"environments/environment.prod.ts" </text>

<path d="M107.8,790.2l719.4,0l0,-22l-719.4,0l0,22Z" class="g2_50" />
<text 
x="162" 
y="785" 
dx="0,-0.1" 
class="s5_50"
>} </text>

<path d="M107.8,811.8l719.4,0l0,-21.6l-719.4,0l0,21.6Z" class="g2_50" />
<text 
x="145" 
y="807" 
dx="0,-0.1" 
class="s5_50"
>} </text>

<path d="M107.8,833.8l719.4,0l0,-22l-719.4,0l0,22Z" class="g2_50" />
<text 
x="127" 
y="829" 
dx="0,-0.1,-0.1" 
class="s5_50"
>], </text>

<path d="M107.8,855.4l719.4,0l0,-21.6l-719.4,0l0,21.6Z" class="g2_50" />
<text 
x="127" 
y="851" 
dx="0,-0.1,-0.1,-0.1,-0.1" 
class="s6_50"
>"e2e"</text>

<text 
x="171" 
y="851" 
dx="0,-0.1,-0.1,0.3" 
class="s5_50"
>: { </text>

<path d="M107.8,877.1l719.4,0l0,-21.7l-719.4,0l0,21.7Z" class="g2_50" />
<text 
x="145" 
y="873" 
dx="0,-0.1,-0.1,-0.1,-0.1,-0.1,-0.1,-0.1,-0.1,-0.1,-0.1,-0.1" 
class="s6_50"
>"protractor"</text>

<text 
x="250" 
y="873" 
dx="0,-0.1,-0.1,0.3" 
class="s5_50"
>: { </text>

<path d="M107.8,899.1l719.4,0l0,-22l-719.4,0l0,22Z" class="g2_50" />
<text 
x="162" 
y="894" 
dx="0,-0.1,-0.1,-0.1,-0.1,-0.1,-0.1,-0.1" 
class="s6_50"
>"config"</text>

<text 
x="233" 
y="894" 
dx="0,-0.1" 
class="s5_50"
>: </text>

<text 
x="250" 
y="894" 
dx="0,-0.1,-0.1,-0.1,-0.1,-0.1,-0.1,-0.1,-0.1,-0.1,-0.1,-0.1,-0.1,0.3,-0.1,-0.1,-0.1,-0.1,-0.1,-0.1,-0.1,-0.1,0.3" 
class="s7_50"
>"./protractor.conf.js" </text>

<path d="M107.8,920.7l719.4,0l0,-21.6l-719.4,0l0,21.6Z" class="g2_50" />
<text 
x="145" 
y="916" 
dx="0,-0.1" 
class="s5_50"
>} </text>

<path d="M107.8,942.3l719.4,0l0,-21.6l-719.4,0l0,21.6Z" class="g2_50" />
<text 
x="127" 
y="938" 
dx="0,-0.1,-0.1" 
class="s5_50"
>}, </text>

<path d="M107.8,964.3l719.4,0l0,-22l-719.4,0l0,22Z" class="g2_50" />
<text 
x="127" 
y="959" 
dx="0,-0.1,-0.1,-0.1,-0.1,-0.1" 
class="s6_50"
>"lint"</text>

<text 
x="180" 
y="959" 
dx="0,-0.1,-0.1,0.3" 
class="s5_50"
>: [ </text>

<path d="M107.8,986l719.4,0l0,-21.7l-719.4,0l0,21.7Z" class="g2_50" />
<text 
x="145" 
y="981" 
dx="0,-0.1" 
class="s5_50"
>{ </text>

<path d="M107.8,1008l719.4,0l0,-22l-719.4,0l0,22Z" class="g2_50" />
<text 
x="162" 
y="1003" 
dx="0,-0.1,-0.1,-0.1,-0.1,-0.1,-0.1,-0.1,-0.1" 
class="s6_50"
>"project"</text>

<text 
x="242" 
y="1003" 
dx="0,-0.1" 
class="s5_50"
>: </text>

<text 
x="259" 
y="1003" 
dx="0,-0.1,-0.1,-0.1,-0.1,-0.1,-0.1,-0.1,-0.1,-0.1,-0.1,-0.1,0.3,-0.1,-0.1,-0.1,-0.1,-0.1,-0.1,-0.1,-0.1,-0.1,-0.1" 
class="s7_50"
>"src/tsconfig.app.json"</text>

<text 
x="462" 
y="1003" 
dx="0,0.3" 
class="s5_50"
>, </text>

<path d="M107.8,1029.6l719.4,0l0,-21.6l-719.4,0l0,21.6Z" class="g2_50" />
<text 
x="162" 
y="1025" 
dx="0,-0.1,-0.1,-0.1,-0.1,-0.1,-0.1,-0.1,-0.1" 
class="s6_50"
>"exclude"</text>

<text 
x="242" 
y="1025" 
dx="0,-0.1" 
class="s5_50"
>: </text>

<text 
x="259" 
y="1025" 
dx="0,-0.1,-0.1,-0.1,-0.1,-0.1,-0.1,-0.1,-0.1,-0.1,-0.1,-0.1,0.3,-0.1,-0.1,-0.1,-0.1,-0.1,-0.1,-0.1,0.3" 
class="s7_50"
>"**/node_modules/**" </text>

<path d="M107.8,1051.2l719.4,0l0,-21.6l-719.4,0l0,21.6Z" class="g2_50" />
<text 
x="145" 
y="1047" 
dx="0,-0.1,-0.1" 
class="s5_50"
>}, </text>

<path d="M107.8,1073.2l719.4,0l0,-22l-719.4,0l0,22Z" class="g2_50" />
<text 
x="145" 
y="1068" 
dx="0,-0.1" 
class="s5_50"
>{ </text>



<!-- Any embedded fonts defined here -->
<style type="text/css" ><![CDATA[

@font-face {
	font-family: ArialNovaCond-Bold_d;
	src: url("fonts/ArialNovaCond-Bold_d.woff") format("woff");
}

@font-face {
	font-family: ArialNova-Light_n;
	src: url("fonts/ArialNova-Light_n.woff") format("woff");
}

@font-face {
	font-family: Calibri-Light_r;
	src: url("fonts/Calibri-Light_r.woff") format("woff");
}

@font-face {
	font-family: Consolas_c7;
	src: url("fonts/Consolas_c7.woff") format("woff");
}

]]></style>

</svg>
