<?xml version="1.0" encoding="UTF-8" standalone="no"?>
<!DOCTYPE svg PUBLIC "-//W3C//DTD SVG 1.1//EN"
"http://www.w3.org/Graphics/SVG/1.1/DTD/svg11.dtd">


<!-- Page 51 -->
<svg x="0" y="0" width="935" height="1210" viewBox="0 0 935 1210" version="1.1" xmlns="http://www.w3.org/2000/svg" xmlns:xlink="http://www.w3.org/1999/xlink"
style="display: block;margin-left: auto;margin-right: auto;">
<defs>

<style type="text/css"><![CDATA[

.g1_51{
fill: #D9D9D9;
}
.g2_51{
fill: #FFFFFF;
}

.s1_51{
font-size: 18.33px;
font-family: ArialNovaCond-Bold_d;
fill: #5A5A5A;
}
.s2_51{
font-size: 12.10px;
font-family: ArialNova-Light_n;
fill: #7F7F7F;
}
.s3_51{
font-size: 16.13px;
font-family: Consolas_c7;
fill: #0451A5;
}
.s4_51{
font-size: 16.13px;
font-family: Consolas_c7;
fill: #000000;
}
.s5_51{
font-size: 16.13px;
font-family: Consolas_c7;
fill: #A31515;
}

]]></style>

</defs>
<path d="M0,0
L0,1210
L935,1210
L935,0 Z " 
fill="#FFFFFF" stroke="none" />
<text 
x="110" 
y="1106" 
dx="0,0,0,0.2" 
class="s1_51"
>51 |</text>

<text 
x="141" 
y="1106" 
dx="0,4.3,4.9,0,1.9,0,1.6,0,1.3,0,1.7,0,1.7,0,1.2,0,1.9,0,1.6,4.7,4.9,0,1.3,0,1.7,0,1.6,0,1.5,0,1.6,0,1.9,0,1.2,0,1.5,0,1.9,0,1.5,4.5,4.9,0,1.7,0,1.2,0,1.9,0,1.9,0,1.2,4.5,4.5,0,1.9,0,1.5,4.7,4.9,0,1.3,0,1.5,0,1.9,0,1.5,0,1.5,0,1.5,0,1.5,0,1.9,0,1.3,0,1.9,0,1.6,4.6,4.5,0,1.9,0,1.5,0,1.7,0,1.6,0,1.4,0,1.9,0,1.3,0,1.9,0,1.5,0,1.7,0,1.5,0,1.5,0,1.9" 
class="s2_51"
>A W e b - b a s e d T r a n s l a t i o n S y s t e m f o r M u l t i l i n g u a l C o d e - s w i t c h i n g</text>

<path d="M107.8,1086.4l719.4,0l0,-0.7l-719.4,0l0,0.7Z" class="g1_51" />
<path d="M107.8,131.6l719.4,0l0,-21.6l-719.4,0l0,21.6Z" class="g2_51" />
<text 
x="162" 
y="127" 
dx="0,-0.1,-0.1,-0.1,-0.1,-0.1,-0.1,-0.1,-0.1" 
class="s3_51"
>"project"</text>

<text 
x="242" 
y="127" 
dx="0,-0.1" 
class="s4_51"
>: </text>

<text 
x="259" 
y="127" 
dx="0,-0.1,-0.1,-0.1,-0.1,-0.1,-0.1,-0.1,-0.1,-0.1,-0.1,-0.1,0.3,-0.1,-0.1,-0.1,-0.1,-0.1,-0.1,-0.1,-0.1,-0.1,-0.1,-0.1" 
class="s5_51"
>"src/tsconfig.spec.json"</text>

<text 
x="471" 
y="127" 
dx="0,0.3" 
class="s4_51"
>, </text>

<path d="M107.8,153.6l719.4,0l0,-22l-719.4,0l0,22Z" class="g2_51" />
<text 
x="162" 
y="149" 
dx="0,-0.1,-0.1,-0.1,-0.1,-0.1,-0.1,-0.1,-0.1" 
class="s3_51"
>"exclude"</text>

<text 
x="242" 
y="149" 
dx="0,-0.1" 
class="s4_51"
>: </text>

<text 
x="259" 
y="149" 
dx="0,-0.1,-0.1,-0.1,-0.1,-0.1,-0.1,-0.1,-0.1,-0.1,-0.1,-0.1,0.3,-0.1,-0.1,-0.1,-0.1,-0.1,-0.1,-0.1,0.3" 
class="s5_51"
>"**/node_modules/**" </text>

<path d="M107.8,175.3l719.4,0l0,-21.7l-719.4,0l0,21.7Z" class="g2_51" />
<text 
x="145" 
y="171" 
dx="0,-0.1,-0.1" 
class="s4_51"
>}, </text>

<path d="M107.8,197.3l719.4,0l0,-22l-719.4,0l0,22Z" class="g2_51" />
<text 
x="145" 
y="192" 
dx="0,-0.1" 
class="s4_51"
>{ </text>

<path d="M107.8,218.9l719.4,0l0,-21.6l-719.4,0l0,21.6Z" class="g2_51" />
<text 
x="162" 
y="214" 
dx="0,-0.1,-0.1,-0.1,-0.1,-0.1,-0.1,-0.1,-0.1" 
class="s3_51"
>"project"</text>

<text 
x="242" 
y="214" 
dx="0,-0.1" 
class="s4_51"
>: </text>

<text 
x="259" 
y="214" 
dx="0,-0.1,-0.1,-0.1,-0.1,-0.1,-0.1,-0.1,-0.1,-0.1,-0.1,-0.1,0.3,-0.1,-0.1,-0.1,-0.1,-0.1,-0.1,-0.1,-0.1,-0.1,-0.1" 
class="s5_51"
>"e2e/tsconfig.e2e.json"</text>

<text 
x="462" 
y="214" 
dx="0,0.3" 
class="s4_51"
>, </text>

<path d="M107.8,240.5l719.4,0l0,-21.6l-719.4,0l0,21.6Z" class="g2_51" />
<text 
x="162" 
y="236" 
dx="0,-0.1,-0.1,-0.1,-0.1,-0.1,-0.1,-0.1,-0.1" 
class="s3_51"
>"exclude"</text>

<text 
x="242" 
y="236" 
dx="0,-0.1" 
class="s4_51"
>: </text>

<text 
x="259" 
y="236" 
dx="0,-0.1,-0.1,-0.1,-0.1,-0.1,-0.1,-0.1,-0.1,-0.1,-0.1,-0.1,0.3,-0.1,-0.1,-0.1,-0.1,-0.1,-0.1,-0.1,0.3" 
class="s5_51"
>"**/node_modules/**" </text>

<path d="M107.8,262.5l719.4,0l0,-22l-719.4,0l0,22Z" class="g2_51" />
<text 
x="145" 
y="258" 
dx="0,-0.1" 
class="s4_51"
>} </text>

<path d="M107.8,284.2l719.4,0l0,-21.7l-719.4,0l0,21.7Z" class="g2_51" />
<text 
x="127" 
y="280" 
dx="0,-0.1,-0.1" 
class="s4_51"
>], </text>

<path d="M107.8,305.8l719.4,0l0,-21.6l-719.4,0l0,21.6Z" class="g2_51" />
<text 
x="127" 
y="301" 
dx="0,-0.1,-0.1,-0.1,-0.1,-0.1" 
class="s3_51"
>"test"</text>

<text 
x="180" 
y="301" 
dx="0,-0.1,-0.1,0.3" 
class="s4_51"
>: { </text>

<path d="M107.8,327.8l719.4,0l0,-22l-719.4,0l0,22Z" class="g2_51" />
<text 
x="145" 
y="323" 
dx="0,-0.1,-0.1,-0.1,-0.1,-0.1,-0.1" 
class="s3_51"
>"karma"</text>

<text 
x="206" 
y="323" 
dx="0,-0.1,-0.1,0.3" 
class="s4_51"
>: { </text>

<path d="M107.8,349.4l719.4,0l0,-21.6l-719.4,0l0,21.6Z" class="g2_51" />
<text 
x="162" 
y="345" 
dx="0,-0.1,-0.1,-0.1,-0.1,-0.1,-0.1,-0.1" 
class="s3_51"
>"config"</text>

<text 
x="233" 
y="345" 
dx="0,-0.1" 
class="s4_51"
>: </text>

<text 
x="250" 
y="345" 
dx="0,-0.1,-0.1,-0.1,-0.1,-0.1,-0.1,-0.1,-0.1,-0.1,-0.1,-0.1,-0.1,0.3,-0.1,-0.1,-0.1,0.3" 
class="s5_51"
>"./karma.conf.js" </text>

<path d="M107.8,371.4l719.4,0l0,-22l-719.4,0l0,22Z" class="g2_51" />
<text 
x="145" 
y="367" 
dx="0,-0.1" 
class="s4_51"
>} </text>

<path d="M107.8,393.1l719.4,0l0,-21.7l-719.4,0l0,21.7Z" class="g2_51" />
<text 
x="127" 
y="389" 
dx="0,-0.1,-0.1" 
class="s4_51"
>}, </text>

<path d="M107.8,414.7l719.4,0l0,-21.6l-719.4,0l0,21.6Z" class="g2_51" />
<text 
x="127" 
y="410" 
dx="0,-0.1,-0.1,-0.1,-0.1,-0.1,-0.1,-0.1,-0.1,-0.1" 
class="s3_51"
>"defaults"</text>

<text 
x="215" 
y="410" 
dx="0,-0.1,-0.1,0.3" 
class="s4_51"
>: { </text>

<path d="M107.8,436.7l719.4,0l0,-22l-719.4,0l0,22Z" class="g2_51" />
<text 
x="145" 
y="432" 
dx="0,-0.1,-0.1,-0.1,-0.1,-0.1,-0.1,-0.1,-0.1,-0.1" 
class="s3_51"
>"styleExt"</text>

<text 
x="233" 
y="432" 
dx="0,-0.1" 
class="s4_51"
>: </text>

<text 
x="250" 
y="432" 
dx="0,-0.1,-0.1,-0.1,-0.1" 
class="s5_51"
>"css"</text>

<text 
x="294" 
y="432" 
dx="0,0.3" 
class="s4_51"
>, </text>

<path d="M107.8,458.3l719.4,0l0,-21.6l-719.4,0l0,21.6Z" class="g2_51" />
<text 
x="145" 
y="454" 
dx="0,-0.1,-0.1,-0.1,-0.1,-0.1,-0.1,-0.1,-0.1,-0.1,-0.1" 
class="s3_51"
>"component"</text>

<text 
x="242" 
y="454" 
dx="0,-0.1,-0.1,-0.1,0.3" 
class="s4_51"
>: {} </text>

<path d="M107.8,480l719.4,0l0,-21.7l-719.4,0l0,21.7Z" class="g2_51" />
<text 
x="127" 
y="475" 
dx="0,-0.1" 
class="s4_51"
>} </text>

<path d="M107.8,502l719.4,0l0,-22l-719.4,0l0,22Z" class="g2_51" />
<text 
x="110" 
y="497" 
dx="0,-0.1" 
class="s4_51"
>} </text>

<path d="M107.8,523.6l719.4,0l0,-21.6l-719.4,0l0,21.6Z" class="g2_51" />


<!-- Any embedded fonts defined here -->
<style type="text/css" ><![CDATA[

@font-face {
	font-family: ArialNovaCond-Bold_d;
	src: url("fonts/ArialNovaCond-Bold_d.woff") format("woff");
}

@font-face {
	font-family: ArialNova-Light_n;
	src: url("fonts/ArialNova-Light_n.woff") format("woff");
}

@font-face {
	font-family: Consolas_c7;
	src: url("fonts/Consolas_c7.woff") format("woff");
}

]]></style>

</svg>
