<?xml version="1.0" encoding="UTF-8" standalone="no"?>
<!DOCTYPE svg PUBLIC "-//W3C//DTD SVG 1.1//EN"
"http://www.w3.org/Graphics/SVG/1.1/DTD/svg11.dtd">


<!-- Page 53 -->
<svg x="0" y="0" width="935" height="1210" viewBox="0 0 935 1210" version="1.1" xmlns="http://www.w3.org/2000/svg" xmlns:xlink="http://www.w3.org/1999/xlink"
style="display: block;margin-left: auto;margin-right: auto;">
<defs>

<style type="text/css"><![CDATA[

.g1_53{
fill: #D9D9D9;
}
.g2_53{
fill: #FFFFFF;
}

.s1_53{
font-size: 18.33px;
font-family: ArialNovaCond-Bold_d;
fill: #5A5A5A;
}
.s2_53{
font-size: 12.10px;
font-family: ArialNova-Light_n;
fill: #7F7F7F;
}
.s3_53{
font-size: 13.93px;
font-family: Menlo-Regular_bu;
fill: #A31515;
}
.s4_53{
font-size: 13.93px;
font-family: Menlo-Regular_bu;
fill: #001080;
}
.s5_53{
font-size: 13.93px;
font-family: Menlo-Regular_bu;
fill: #000000;
}

]]></style>

</defs>
<path d="M0,0
L0,1210
L935,1210
L935,0 Z " 
fill="#FFFFFF" stroke="none" />
<text 
x="110" 
y="1106" 
dx="0,0,0,0.2" 
class="s1_53"
>53 |</text>

<text 
x="141" 
y="1106" 
dx="0,4.3,4.9,0,1.9,0,1.6,0,1.3,0,1.7,0,1.7,0,1.2,0,1.9,0,1.6,4.7,4.9,0,1.3,0,1.7,0,1.6,0,1.5,0,1.6,0,1.9,0,1.2,0,1.5,0,1.9,0,1.5,4.5,4.9,0,1.7,0,1.2,0,1.9,0,1.9,0,1.2,4.5,4.5,0,1.9,0,1.5,4.7,4.9,0,1.3,0,1.5,0,1.9,0,1.5,0,1.5,0,1.5,0,1.5,0,1.9,0,1.3,0,1.9,0,1.6,4.6,4.5,0,1.9,0,1.5,0,1.7,0,1.6,0,1.4,0,1.9,0,1.3,0,1.9,0,1.5,0,1.7,0,1.5,0,1.5,0,1.9" 
class="s2_53"
>A W e b - b a s e d T r a n s l a t i o n S y s t e m f o r M u l t i l i n g u a l C o d e - s w i t c h i n g</text>

<path d="M107.8,1086.4l719.4,0l0,-0.7l-719.4,0l0,0.7Z" class="g1_53" />
<path d="M107.8,130.5l719.4,0l0,-20.5l-719.4,0l0,20.5Z" class="g2_53" />
<text 
x="143" 
y="127" 
dx="0,-0.3,0,0" 
class="s3_53"
>'ja'</text>

<text 
x="176" 
y="127" 
class="s4_53"
>: </text>

<text 
x="192" 
y="127" 
dx="0,0,-0.3,0,0,-0.3,0,-0.3,0,-0.3" 
class="s3_53"
>'Japanese'</text>

<text 
x="275" 
y="127" 
dx="0,-0.3" 
class="s5_53"
>, </text>

<path d="M107.8,151.4l719.4,0l0,-20.9l-719.4,0l0,20.9Z" class="g2_53" />
<text 
x="143" 
y="147" 
dx="0,-0.3,0,0" 
class="s3_53"
>'lt'</text>

<text 
x="176" 
y="147" 
class="s4_53"
>: </text>

<text 
x="192" 
y="147" 
dx="0,0,-0.3,0,0,-0.3,0,-0.3,0,-0.3,0,0" 
class="s3_53"
>'Lithuanian'</text>

<text 
x="292" 
y="147" 
dx="0,-0.3" 
class="s5_53"
>, </text>

<path d="M107.8,172l719.4,0l0,-20.6l-719.4,0l0,20.6Z" class="g2_53" />
<text 
x="143" 
y="168" 
dx="0,-0.3,0,0" 
class="s3_53"
>'ku'</text>

<text 
x="176" 
y="168" 
class="s4_53"
>: </text>

<text 
x="192" 
y="168" 
dx="0,0,-0.3,0,0,-0.3,0,-0.3,0" 
class="s3_53"
>'Kurdish'</text>

<text 
x="267" 
y="168" 
dx="0,-0.3" 
class="s5_53"
>, </text>

<path d="M107.8,192.5l719.4,0l0,-20.5l-719.4,0l0,20.5Z" class="g2_53" />
<text 
x="143" 
y="189" 
dx="0,-0.3,0,0" 
class="s3_53"
>'ms'</text>

<text 
x="176" 
y="189" 
class="s4_53"
>: </text>

<text 
x="192" 
y="189" 
dx="0,0,-0.3,0,0,-0.3,0" 
class="s3_53"
>'Malay'</text>

<text 
x="250" 
y="189" 
dx="0,-0.3" 
class="s5_53"
>, </text>

<path d="M107.8,213l719.4,0l0,-20.5l-719.4,0l0,20.5Z" class="g2_53" />
<text 
x="143" 
y="209" 
dx="0,-0.3,0,0" 
class="s3_53"
>'pl'</text>

<text 
x="176" 
y="209" 
class="s4_53"
>: </text>

<text 
x="192" 
y="209" 
dx="0,0,-0.3,0,0,-0.3,0,-0.3" 
class="s3_53"
>'Polish'</text>

<text 
x="259" 
y="209" 
dx="0,-0.3" 
class="s5_53"
>, </text>

<path d="M107.8,233.9l719.4,0l0,-20.9l-719.4,0l0,20.9Z" class="g2_53" />
<text 
x="143" 
y="230" 
dx="0,-0.3,0,0" 
class="s3_53"
>'pt'</text>

<text 
x="176" 
y="230" 
class="s4_53"
>: </text>

<text 
x="192" 
y="230" 
dx="0,0,-0.3,0,0,-0.3,0,-0.3,0,-0.3,0,0,-0.3,0,-0.3,0,-0.3,0,0,-0.3,0,-0.3,0" 
class="s3_53"
>'Portuguese (Portugal)'</text>

<text 
x="383" 
y="230" 
dx="0,-0.3" 
class="s5_53"
>, </text>

<path d="M107.8,254.5l719.4,0l0,-20.6l-719.4,0l0,20.6Z" class="g2_53" />
<text 
x="143" 
y="251" 
dx="0,-0.3,0,0" 
class="s3_53"
>'ro'</text>

<text 
x="176" 
y="251" 
class="s4_53"
>: </text>

<text 
x="192" 
y="251" 
dx="0,0,-0.3,0,0,-0.3,0,-0.3,0,-0.3" 
class="s3_53"
>'Romanian'</text>

<text 
x="275" 
y="251" 
dx="0,-0.3" 
class="s5_53"
>, </text>

<path d="M107.8,275l719.4,0l0,-20.5l-719.4,0l0,20.5Z" class="g2_53" />
<text 
x="143" 
y="271" 
dx="0,-0.3,0,0" 
class="s3_53"
>'ru'</text>

<text 
x="176" 
y="271" 
class="s4_53"
>: </text>

<text 
x="192" 
y="271" 
dx="0,0,-0.3,0,0,-0.3,0,-0.3,0" 
class="s3_53"
>'Russian'</text>

<text 
x="267" 
y="271" 
dx="0,-0.3" 
class="s5_53"
>, </text>

<path d="M107.8,295.5l719.4,0l0,-20.5l-719.4,0l0,20.5Z" class="g2_53" />
<text 
x="143" 
y="292" 
dx="0,-0.3,0,0" 
class="s3_53"
>'sz'</text>

<text 
x="176" 
y="292" 
class="s4_53"
>: </text>

<text 
x="192" 
y="292" 
dx="0,0,-0.3,0,0,-0.3,0,-0.3,0,-0.3,0,0,-0.3,0,-0.3,0" 
class="s3_53"
>'Sami (Lappish)'</text>

<text 
x="325" 
y="292" 
dx="0,-0.3" 
class="s5_53"
>, </text>

<path d="M107.8,316.4l719.4,0l0,-20.9l-719.4,0l0,20.9Z" class="g2_53" />
<text 
x="143" 
y="312" 
dx="0,-0.3,0,0" 
class="s3_53"
>'sl'</text>

<text 
x="176" 
y="312" 
class="s4_53"
>: </text>

<text 
x="192" 
y="312" 
dx="0,0,-0.3,0,0,-0.3,0,-0.3,0,-0.3,0" 
class="s3_53"
>'Slovenian'</text>

<text 
x="284" 
y="312" 
dx="0,-0.3" 
class="s5_53"
>, </text>

<path d="M107.8,337l719.4,0l0,-20.6l-719.4,0l0,20.6Z" class="g2_53" />
<text 
x="143" 
y="333" 
dx="0,-0.3,0,0" 
class="s3_53"
>'es'</text>

<text 
x="176" 
y="333" 
class="s4_53"
>: </text>

<text 
x="192" 
y="333" 
dx="0,0,-0.3,0,0,-0.3,0,-0.3,0,-0.3,0,0,-0.3,0,-0.3,0,-0.3" 
class="s3_53"
>'Spanish (Spain)'</text>

<text 
x="333" 
y="333" 
dx="0,-0.3" 
class="s5_53"
>, </text>

<path d="M107.8,357.5l719.4,0l0,-20.5l-719.4,0l0,20.5Z" class="g2_53" />
<text 
x="143" 
y="354" 
dx="0,-0.3,0,0" 
class="s3_53"
>'sv'</text>

<text 
x="176" 
y="354" 
class="s4_53"
>: </text>

<text 
x="192" 
y="354" 
dx="0,0,-0.3,0,0,-0.3,0,-0.3,0" 
class="s3_53"
>'Swedish'</text>

<text 
x="267" 
y="354" 
dx="0,-0.3" 
class="s5_53"
>, </text>

<path d="M107.8,378l719.4,0l0,-20.5l-719.4,0l0,20.5Z" class="g2_53" />
<text 
x="143" 
y="374" 
dx="0,-0.3,0,0" 
class="s3_53"
>'th'</text>

<text 
x="176" 
y="374" 
class="s4_53"
>: </text>

<text 
x="192" 
y="374" 
dx="0,0,-0.3,0,0,-0.3" 
class="s3_53"
>'Thai'</text>

<text 
x="242" 
y="374" 
dx="0,-0.3" 
class="s5_53"
>, </text>

<path d="M107.8,398.9l719.4,0l0,-20.9l-719.4,0l0,20.9Z" class="g2_53" />
<text 
x="143" 
y="395" 
dx="0,-0.3,0,0" 
class="s3_53"
>'tn'</text>

<text 
x="176" 
y="395" 
class="s4_53"
>: </text>

<text 
x="192" 
y="395" 
dx="0,0,-0.3,0,0,-0.3,0,-0.3" 
class="s3_53"
>'Tswana'</text>

<text 
x="259" 
y="395" 
dx="0,-0.3" 
class="s5_53"
>, </text>

<path d="M107.8,419.5l719.4,0l0,-20.6l-719.4,0l0,20.6Z" class="g2_53" />
<text 
x="143" 
y="416" 
dx="0,-0.3,0,0" 
class="s3_53"
>'uk'</text>

<text 
x="176" 
y="416" 
class="s4_53"
>: </text>

<text 
x="192" 
y="416" 
dx="0,0,-0.3,0,0,-0.3,0,-0.3,0,-0.3,0" 
class="s3_53"
>'Ukrainian'</text>

<text 
x="284" 
y="416" 
dx="0,-0.3" 
class="s5_53"
>, </text>

<path d="M107.8,440l719.4,0l0,-20.5l-719.4,0l0,20.5Z" class="g2_53" />
<text 
x="143" 
y="436" 
dx="0,-0.3,0,0" 
class="s3_53"
>'ve'</text>

<text 
x="176" 
y="436" 
class="s4_53"
>: </text>

<text 
x="192" 
y="436" 
dx="0,0,-0.3,0,0,-0.3,0" 
class="s3_53"
>'Venda'</text>

<text 
x="250" 
y="436" 
dx="0,-0.3" 
class="s5_53"
>, </text>

<path d="M107.8,460.5l719.4,0l0,-20.5l-719.4,0l0,20.5Z" class="g2_53" />
<text 
x="143" 
y="457" 
dx="0,-0.3,0,0" 
class="s3_53"
>'xh'</text>

<text 
x="176" 
y="457" 
class="s4_53"
>: </text>

<text 
x="192" 
y="457" 
dx="0,0,-0.3,0,0,-0.3,0" 
class="s3_53"
>'Xhosa'</text>

<text 
x="250" 
y="457" 
dx="0,-0.3" 
class="s5_53"
>, </text>

<path d="M107.8,481.4l719.4,0l0,-20.9l-719.4,0l0,20.9Z" class="g2_53" />
<text 
x="143" 
y="477" 
dx="0,-0.3,0,0" 
class="s3_53"
>'zu'</text>

<text 
x="176" 
y="477" 
class="s4_53"
>: </text>

<text 
x="192" 
y="477" 
dx="0,0,-0.3,0,0,-0.3" 
class="s3_53"
>'Zulu'</text>

<text 
x="242" 
y="477" 
dx="0,-0.3" 
class="s5_53"
>, </text>

<path d="M107.8,502l719.4,0l0,-20.6l-719.4,0l0,20.6Z" class="g2_53" />
<text 
x="143" 
y="498" 
dx="0,-0.3,0,0.1,-0.3,0,-0.3" 
class="s3_53"
>'en-tt'</text>

<text 
x="201" 
y="498" 
dx="0,-0.3" 
class="s4_53"
>: </text>

<text 
x="217" 
y="498" 
dx="0,0,-0.3,0,-0.3,0,-0.3,0,0,-0.3,0,-0.3,0,-0.3,0,0,-0.3,0,-0.3,0" 
class="s3_53"
>'English (Trinidad)'</text>

<text 
x="383" 
y="498" 
dx="0,-0.3" 
class="s5_53"
>, </text>

<path d="M107.8,522.5l719.4,0l0,-20.5l-719.4,0l0,20.5Z" class="g2_53" />
<text 
x="143" 
y="519" 
dx="0,-0.3,0,0.1,-0.3,0,-0.3" 
class="s3_53"
>'fr-be'</text>

<text 
x="201" 
y="519" 
dx="0,-0.3" 
class="s4_53"
>: </text>

<text 
x="217" 
y="519" 
dx="0,0,-0.3,0,-0.3,0,-0.3,0,0,-0.3,0,-0.3,0,-0.3,0,0,-0.3,0" 
class="s3_53"
>'French (Belgium)'</text>

<text 
x="366" 
y="519" 
dx="0,-0.3" 
class="s5_53"
>, </text>

<path d="M107.8,543l719.4,0l0,-20.5l-719.4,0l0,20.5Z" class="g2_53" />
<text 
x="143" 
y="539" 
dx="0,-0.3,0,0.1,-0.3,0,-0.3" 
class="s3_53"
>'fr-ch'</text>

<text 
x="201" 
y="539" 
dx="0,-0.3" 
class="s4_53"
>: </text>

<text 
x="217" 
y="539" 
dx="0,0,-0.3,0,-0.3,0,-0.3,0,0,-0.3,0,-0.3,0,-0.3,0,0,-0.3,0,-0.3,0,-0.3,0" 
class="s3_53"
>'French (Switzerland)'</text>

<text 
x="400" 
y="539" 
dx="0,-0.3" 
class="s5_53"
>, </text>

<path d="M107.8,563.9l719.4,0l0,-20.9l-719.4,0l0,20.9Z" class="g2_53" />
<text 
x="143" 
y="560" 
dx="0,-0.3,0,0.1,-0.3,0,-0.3" 
class="s3_53"
>'de-at'</text>

<text 
x="201" 
y="560" 
dx="0,-0.3" 
class="s4_53"
>: </text>

<text 
x="217" 
y="560" 
dx="0,0,-0.3,0,-0.3,0,-0.3,0,0,-0.3,0,-0.3,0,-0.3,0,0,-0.3,0" 
class="s3_53"
>'German (Austria)'</text>

<text 
x="366" 
y="560" 
dx="0,-0.3" 
class="s5_53"
>, </text>

<path d="M107.8,584.5l719.4,0l0,-20.6l-719.4,0l0,20.6Z" class="g2_53" />
<text 
x="143" 
y="581" 
dx="0,-0.3,0,0.1,-0.3,0,-0.3" 
class="s3_53"
>'de-li'</text>

<text 
x="201" 
y="581" 
dx="0,-0.3" 
class="s4_53"
>: </text>

<text 
x="217" 
y="581" 
dx="0,0,-0.3,0,-0.3,0,-0.3,0,0,-0.3,0,-0.3,0,-0.3,0,0,-0.3,0,-0.3,0,-0.3,0,0,-0.3" 
class="s3_53"
>'German (Liechtenstein)'</text>

<text 
x="416" 
y="581" 
dx="0,-0.3" 
class="s5_53"
>, </text>

<path d="M107.8,605l719.4,0l0,-20.5l-719.4,0l0,20.5Z" class="g2_53" />
<text 
x="143" 
y="601" 
dx="0,-0.3,0,0.1,-0.3,0,-0.3" 
class="s3_53"
>'it-ch'</text>

<text 
x="201" 
y="601" 
dx="0,-0.3" 
class="s4_53"
>: </text>

<text 
x="217" 
y="601" 
dx="0,0,-0.3,0,-0.3,0,-0.3,0,0,-0.3,0,-0.3,0,-0.3,0,0,-0.3,0,-0.3,0,-0.3,0,0" 
class="s3_53"
>'Italian (Switzerland)'</text>

<text 
x="408" 
y="601" 
dx="0,-0.3" 
class="s5_53"
>, </text>

<path d="M107.8,625.5l719.4,0l0,-20.5l-719.4,0l0,20.5Z" class="g2_53" />
<text 
x="143" 
y="622" 
dx="0,-0.3,0,0.1,-0.3,0,-0.3" 
class="s3_53"
>'pt-br'</text>

<text 
x="201" 
y="622" 
dx="0,-0.3" 
class="s4_53"
>: </text>

<text 
x="217" 
y="622" 
dx="0,0,-0.3,0,-0.3,0,-0.3,0,0,-0.3,0,-0.3,0,-0.3,0,0,-0.3,0,-0.3,0,-0.3" 
class="s3_53"
>'Portuguese (Brazil)'</text>

<text 
x="391" 
y="622" 
dx="0,-0.3" 
class="s5_53"
>, </text>

<path d="M107.8,646.4l719.4,0l0,-20.9l-719.4,0l0,20.9Z" class="g2_53" />
<text 
x="143" 
y="642" 
dx="0,-0.3,0,0.1,-0.3,0,-0.3" 
class="s3_53"
>'ro-mo'</text>

<text 
x="201" 
y="642" 
dx="0,-0.3" 
class="s4_53"
>: </text>

<text 
x="217" 
y="642" 
dx="0,0,-0.3,0,-0.3,0,-0.3,0,0,-0.3,0,-0.3,0,-0.3,0,0,-0.3,0,-0.3,0,-0.3,0,0,-0.3,0,-0.3,0,0,-0.3,0,-0.3,0" 
class="s3_53"
>'Romanian (Republic of Moldova)'</text>

<text 
x="482" 
y="642" 
class="s5_53"
>, </text>

<path d="M107.8,667l719.4,0l0,-20.6l-719.4,0l0,20.6Z" class="g2_53" />
<text 
x="143" 
y="663" 
dx="0,-0.3,0,0.1,-0.3,0,-0.3" 
class="s3_53"
>'ru-mo'</text>

<text 
x="201" 
y="663" 
dx="0,-0.3" 
class="s4_53"
>: </text>

<text 
x="217" 
y="663" 
dx="0,0,-0.3,0,-0.3,0,-0.3,0,0,-0.3,0,-0.3,0,-0.3,0,0,-0.3,0,-0.3,0,-0.3,0,0,-0.3,0,-0.3,0,0,-0.3,0,-0.3" 
class="s3_53"
>'Russian (Republic of Moldova)'</text>

<text 
x="474" 
y="663" 
dx="0,-0.3" 
class="s5_53"
>, </text>

<path d="M107.8,687.5l719.4,0l0,-20.5l-719.4,0l0,20.5Z" class="g2_53" />
<text 
x="143" 
y="684" 
dx="0,-0.3,0,0.1,-0.3,0,-0.3" 
class="s3_53"
>'nl-be'</text>

<text 
x="201" 
y="684" 
dx="0,-0.3" 
class="s4_53"
>: </text>

<text 
x="217" 
y="684" 
dx="0,0,-0.3,0,-0.3,0,-0.3,0,0,-0.3,0,-0.3,0,-0.3,0,0,-0.3" 
class="s3_53"
>'Dutch (Belgium)'</text>

<text 
x="358" 
y="684" 
dx="0,-0.3" 
class="s5_53"
>, </text>

<path d="M107.8,708l719.4,0l0,-20.5l-719.4,0l0,20.5Z" class="g2_53" />
<text 
x="143" 
y="704" 
dx="0,-0.3,0,0.1,-0.3,0,-0.3" 
class="s3_53"
>'en-us'</text>

<text 
x="201" 
y="704" 
dx="0,-0.3" 
class="s4_53"
>: </text>

<text 
x="217" 
y="704" 
dx="0,0,-0.3,0,-0.3,0,-0.3,0,0,-0.3,0,-0.3,0,-0.3,0,0,-0.3,0,-0.3,0,-0.3,0,0,-0.3,0" 
class="s3_53"
>'English (United States)'</text>

<text 
x="424" 
y="704" 
dx="0,-0.3" 
class="s5_53"
>, </text>

<path d="M107.8,728.9l719.4,0l0,-20.9l-719.4,0l0,20.9Z" class="g2_53" />
<text 
x="143" 
y="725" 
dx="0,-0.3,0,0.1,-0.3,0,-0.3" 
class="s3_53"
>'en-au'</text>

<text 
x="201" 
y="725" 
dx="0,-0.3" 
class="s4_53"
>: </text>

<text 
x="217" 
y="725" 
dx="0,0,-0.3,0,-0.3,0,-0.3,0,0,-0.3,0,-0.3,0,-0.3,0,0,-0.3,0,-0.3,0,-0.3" 
class="s3_53"
>'English (Australia)'</text>

<text 
x="391" 
y="725" 
dx="0,-0.3" 
class="s5_53"
>, </text>

<path d="M107.8,749.5l719.4,0l0,-20.6l-719.4,0l0,20.6Z" class="g2_53" />
<text 
x="143" 
y="746" 
dx="0,-0.3,0,0.1,-0.3,0,-0.3" 
class="s3_53"
>'en-nz'</text>

<text 
x="201" 
y="746" 
dx="0,-0.3" 
class="s4_53"
>: </text>

<text 
x="217" 
y="746" 
dx="0,0,-0.3,0,-0.3,0,-0.3,0,0,-0.3,0,-0.3,0,-0.3,0,0,-0.3,0,-0.3,0,-0.3,0,0" 
class="s3_53"
>'English (New Zealand)'</text>

<text 
x="408" 
y="746" 
dx="0,-0.3" 
class="s5_53"
>, </text>

<path d="M107.8,770l719.4,0l0,-20.5l-719.4,0l0,20.5Z" class="g2_53" />
<text 
x="143" 
y="766" 
dx="0,-0.3,0,0.1,-0.3,0,-0.3" 
class="s3_53"
>'en-za'</text>

<text 
x="201" 
y="766" 
dx="0,-0.3" 
class="s4_53"
>: </text>

<text 
x="217" 
y="766" 
dx="0,0,-0.3,0,-0.3,0,-0.3,0,0,-0.3,0,-0.3,0,-0.3,0,0,-0.3,0,-0.3,0,-0.3,0,0,-0.3" 
class="s3_53"
>'English (South Africa)'</text>

<text 
x="416" 
y="766" 
dx="0,-0.3" 
class="s5_53"
>, </text>

<path d="M107.8,790.5l719.4,0l0,-20.5l-719.4,0l0,20.5Z" class="g2_53" />
<text 
x="143" 
y="787" 
dx="0,-0.3,0,0.1,-0.3,0,-0.3" 
class="s3_53"
>'ar-sa'</text>

<text 
x="201" 
y="787" 
dx="0,-0.3" 
class="s4_53"
>: </text>

<text 
x="217" 
y="787" 
dx="0,0,-0.3,0,-0.3,0,-0.3,0,0,-0.3,0,-0.3,0,-0.3,0,0,-0.3,0,-0.3,0,-0.3,0,0" 
class="s3_53"
>'Arabic (Saudi Arabia)'</text>

<text 
x="408" 
y="787" 
dx="0,-0.3" 
class="s5_53"
>, </text>

<path d="M107.8,811.4l719.4,0l0,-20.9l-719.4,0l0,20.9Z" class="g2_53" />
<text 
x="143" 
y="807" 
dx="0,-0.3,0,0.1,-0.3,0,-0.3" 
class="s3_53"
>'ar-eg'</text>

<text 
x="201" 
y="807" 
dx="0,-0.3" 
class="s4_53"
>: </text>

<text 
x="217" 
y="807" 
dx="0,0,-0.3,0,-0.3,0,-0.3,0,0,-0.3,0,-0.3,0,-0.3,0,0" 
class="s3_53"
>'Arabic (Egypt)'</text>

<text 
x="350" 
y="807" 
dx="0,-0.3" 
class="s5_53"
>, </text>

<path d="M107.8,832l719.4,0l0,-20.6l-719.4,0l0,20.6Z" class="g2_53" />
<text 
x="143" 
y="828" 
dx="0,-0.3,0,0.1,-0.3,0,-0.3" 
class="s3_53"
>'ar-dz'</text>

<text 
x="201" 
y="828" 
dx="0,-0.3" 
class="s4_53"
>: </text>

<text 
x="217" 
y="828" 
dx="0,0,-0.3,0,-0.3,0,-0.3,0,0,-0.3,0,-0.3,0,-0.3,0,0,-0.3,0" 
class="s3_53"
>'Arabic (Algeria)'</text>

<text 
x="366" 
y="828" 
dx="0,-0.3" 
class="s5_53"
>, </text>

<path d="M107.8,852.5l719.4,0l0,-20.5l-719.4,0l0,20.5Z" class="g2_53" />
<text 
x="143" 
y="849" 
dx="0,-0.3,0,0.1,-0.3,0,-0.3" 
class="s3_53"
>'ar-tn'</text>

<text 
x="201" 
y="849" 
dx="0,-0.3" 
class="s4_53"
>: </text>

<text 
x="217" 
y="849" 
dx="0,0,-0.3,0,-0.3,0,-0.3,0,0,-0.3,0,-0.3,0,-0.3,0,0,-0.3,0" 
class="s3_53"
>'Arabic (Tunisia)'</text>

<text 
x="366" 
y="849" 
dx="0,-0.3" 
class="s5_53"
>, </text>

<path d="M107.8,873l719.4,0l0,-20.5l-719.4,0l0,20.5Z" class="g2_53" />
<text 
x="143" 
y="869" 
dx="0,-0.3,0,0.1,-0.3,0,-0.3" 
class="s3_53"
>'ar-ye'</text>

<text 
x="201" 
y="869" 
dx="0,-0.3" 
class="s4_53"
>: </text>

<text 
x="217" 
y="869" 
dx="0,0,-0.3,0,-0.3,0,-0.3,0,0,-0.3,0,-0.3,0,-0.3,0,0" 
class="s3_53"
>'Arabic (Yemen)'</text>

<text 
x="350" 
y="869" 
dx="0,-0.3" 
class="s5_53"
>, </text>

<path d="M107.8,893.9l719.4,0l0,-20.9l-719.4,0l0,20.9Z" class="g2_53" />
<text 
x="143" 
y="890" 
dx="0,-0.3,0,0.1,-0.3,0,-0.3" 
class="s3_53"
>'ar-jo'</text>

<text 
x="201" 
y="890" 
dx="0,-0.3" 
class="s4_53"
>: </text>

<text 
x="217" 
y="890" 
dx="0,0,-0.3,0,-0.3,0,-0.3,0,0,-0.3,0,-0.3,0,-0.3,0,0,-0.3" 
class="s3_53"
>'Arabic (Jordan)'</text>

<text 
x="358" 
y="890" 
dx="0,-0.3" 
class="s5_53"
>, </text>

<path d="M107.8,914.5l719.4,0l0,-20.6l-719.4,0l0,20.6Z" class="g2_53" />
<text 
x="143" 
y="911" 
dx="0,-0.3,0,0.1,-0.3,0,-0.3" 
class="s3_53"
>'ar-kw'</text>

<text 
x="201" 
y="911" 
dx="0,-0.3" 
class="s4_53"
>: </text>

<text 
x="217" 
y="911" 
dx="0,0,-0.3,0,-0.3,0,-0.3,0,0,-0.3,0,-0.3,0,-0.3,0,0,-0.3" 
class="s3_53"
>'Arabic (Kuwait)'</text>

<text 
x="358" 
y="911" 
dx="0,-0.3" 
class="s5_53"
>, </text>

<path d="M107.8,935l719.4,0l0,-20.5l-719.4,0l0,20.5Z" class="g2_53" />
<text 
x="143" 
y="931" 
dx="0,-0.3,0,0.1,-0.3,0,-0.3" 
class="s3_53"
>'ar-bh'</text>

<text 
x="201" 
y="931" 
dx="0,-0.3" 
class="s4_53"
>: </text>

<text 
x="217" 
y="931" 
dx="0,0,-0.3,0,-0.3,0,-0.3,0,0,-0.3,0,-0.3,0,-0.3,0,0,-0.3,0" 
class="s3_53"
>'Arabic (Bahrain)'</text>

<text 
x="366" 
y="931" 
dx="0,-0.3" 
class="s5_53"
>, </text>

<path d="M107.8,955.5l719.4,0l0,-20.5l-719.4,0l0,20.5Z" class="g2_53" />
<text 
x="143" 
y="952" 
dx="0,-0.3,0,0.1,-0.3,0,-0.3" 
class="s3_53"
>'zh-tw'</text>

<text 
x="201" 
y="952" 
dx="0,-0.3" 
class="s4_53"
>: </text>

<text 
x="217" 
y="952" 
dx="0,0,-0.3,0,-0.3,0,-0.3,0,0,-0.3,0,-0.3,0,-0.3,0,0,-0.3,0" 
class="s3_53"
>'Chinese (Taiwan)'</text>

<text 
x="366" 
y="952" 
dx="0,-0.3" 
class="s5_53"
>, </text>

<path d="M107.8,976.4l719.4,0l0,-20.9l-719.4,0l0,20.9Z" class="g2_53" />
<text 
x="143" 
y="972" 
dx="0,-0.3,0,0.1,-0.3,0,-0.3" 
class="s3_53"
>'zh-hk'</text>

<text 
x="201" 
y="972" 
dx="0,-0.3" 
class="s4_53"
>: </text>

<text 
x="217" 
y="972" 
dx="0,0,-0.3,0,-0.3,0,-0.3,0,0,-0.3,0,-0.3,0,-0.3,0,0,-0.3,0,-0.3,0,-0.3,0,0,-0.3,0" 
class="s3_53"
>'Chinese (Hong Kong SAR)'</text>

<text 
x="424" 
y="972" 
dx="0,-0.3" 
class="s5_53"
>, </text>

<path d="M107.8,997l719.4,0l0,-20.6l-719.4,0l0,20.6Z" class="g2_53" />
<text 
x="143" 
y="993" 
dx="0,-0.3,0,0.1,-0.3,0,-0.3" 
class="s3_53"
>'sv-fi'</text>

<text 
x="201" 
y="993" 
dx="0,-0.3" 
class="s4_53"
>: </text>

<text 
x="217" 
y="993" 
dx="0,0,-0.3,0,-0.3,0,-0.3,0,0,-0.3,0,-0.3,0,-0.3,0,0,-0.3,0,-0.3" 
class="s3_53"
>'Swedish (Finland)'</text>

<text 
x="375" 
y="993" 
dx="0,-0.3" 
class="s5_53"
>, </text>

<path d="M107.8,1017.5l719.4,0l0,-20.5l-719.4,0l0,20.5Z" class="g2_53" />
<text 
x="143" 
y="1014" 
dx="0,-0.3,0,0.1,-0.3,0,-0.3" 
class="s3_53"
>'ar-iq'</text>

<text 
x="201" 
y="1014" 
dx="0,-0.3" 
class="s4_53"
>: </text>

<text 
x="217" 
y="1014" 
dx="0,0,-0.3,0,-0.3,0,-0.3,0,0,-0.3,0,-0.3,0,-0.3,0" 
class="s3_53"
>'Arabic (Iraq)'</text>

<text 
x="342" 
y="1014" 
dx="0,-0.3" 
class="s5_53"
>, </text>

<path d="M107.8,1038l719.4,0l0,-20.5l-719.4,0l0,20.5Z" class="g2_53" />
<text 
x="143" 
y="1034" 
dx="0,-0.3,0,0.1,-0.3,0,-0.3" 
class="s3_53"
>'ar-ly'</text>

<text 
x="201" 
y="1034" 
dx="0,-0.3" 
class="s4_53"
>: </text>

<text 
x="217" 
y="1034" 
dx="0,0,-0.3,0,-0.3,0,-0.3,0,0,-0.3,0,-0.3,0,-0.3,0,0" 
class="s3_53"
>'Arabic (Libya)'</text>

<text 
x="350" 
y="1034" 
dx="0,-0.3" 
class="s5_53"
>, </text>

<path d="M107.8,1058.9l719.4,0l0,-20.9l-719.4,0l0,20.9Z" class="g2_53" />
<text 
x="143" 
y="1055" 
dx="0,-0.3,0,0.1,-0.3,0,-0.3" 
class="s3_53"
>'ar-ma'</text>

<text 
x="201" 
y="1055" 
dx="0,-0.3" 
class="s4_53"
>: </text>

<text 
x="217" 
y="1055" 
dx="0,0,-0.3,0,-0.3,0,-0.3,0,0,-0.3,0,-0.3,0,-0.3,0,0,-0.3,0" 
class="s3_53"
>'Arabic (Morocco)'</text>

<text 
x="366" 
y="1055" 
dx="0,-0.3" 
class="s5_53"
>, </text>

<path d="M107.8,1079.5l719.4,0l0,-20.6l-719.4,0l0,20.6Z" class="g2_53" />
<text 
x="143" 
y="1076" 
dx="0,-0.3,0,0.1,-0.3,0,-0.3" 
class="s3_53"
>'ar-om'</text>

<text 
x="201" 
y="1076" 
dx="0,-0.3" 
class="s4_53"
>: </text>

<text 
x="217" 
y="1076" 
dx="0,0,-0.3,0,-0.3,0,-0.3,0,0,-0.3,0,-0.3,0,-0.3,0" 
class="s3_53"
>'Arabic (Oman)'</text>

<text 
x="342" 
y="1076" 
dx="0,-0.3" 
class="s5_53"
>, </text>



<!-- Any embedded fonts defined here -->
<style type="text/css" ><![CDATA[

@font-face {
	font-family: ArialNovaCond-Bold_d;
	src: url("fonts/ArialNovaCond-Bold_d.woff") format("woff");
}

@font-face {
	font-family: Menlo-Regular_bu;
	src: url("fonts/Menlo-Regular_bu.woff") format("woff");
}

@font-face {
	font-family: ArialNova-Light_n;
	src: url("fonts/ArialNova-Light_n.woff") format("woff");
}

]]></style>

</svg>
