<?xml version="1.0" encoding="UTF-8" standalone="no"?>
<!DOCTYPE svg PUBLIC "-//W3C//DTD SVG 1.1//EN"
"http://www.w3.org/Graphics/SVG/1.1/DTD/svg11.dtd">


<!-- Page 54 -->
<svg x="0" y="0" width="935" height="1210" viewBox="0 0 935 1210" version="1.1" xmlns="http://www.w3.org/2000/svg" xmlns:xlink="http://www.w3.org/1999/xlink"
style="display: block;margin-left: auto;margin-right: auto;">
<defs>

<style type="text/css"><![CDATA[

.g1_54{
fill: #D9D9D9;
}
.g2_54{
fill: #FFFFFF;
}

.s1_54{
font-size: 18.33px;
font-family: ArialNovaCond-Bold_d;
fill: #5A5A5A;
}
.s2_54{
font-size: 12.10px;
font-family: ArialNova-Light_n;
fill: #7F7F7F;
}
.s3_54{
font-size: 13.93px;
font-family: Menlo-Regular_bu;
fill: #A31515;
}
.s4_54{
font-size: 13.93px;
font-family: Menlo-Regular_bu;
fill: #001080;
}
.s5_54{
font-size: 13.93px;
font-family: Menlo-Regular_bu;
fill: #000000;
}

]]></style>

</defs>
<path d="M0,0
L0,1210
L935,1210
L935,0 Z " 
fill="#FFFFFF" stroke="none" />
<text 
x="110" 
y="1106" 
dx="0,0,0,0.2" 
class="s1_54"
>54 |</text>

<text 
x="141" 
y="1106" 
dx="0,4.3,4.9,0,1.9,0,1.6,0,1.3,0,1.7,0,1.7,0,1.2,0,1.9,0,1.6,4.7,4.9,0,1.3,0,1.7,0,1.6,0,1.5,0,1.6,0,1.9,0,1.2,0,1.5,0,1.9,0,1.5,4.5,4.9,0,1.7,0,1.2,0,1.9,0,1.9,0,1.2,4.5,4.5,0,1.9,0,1.5,4.7,4.9,0,1.3,0,1.5,0,1.9,0,1.5,0,1.5,0,1.5,0,1.5,0,1.9,0,1.3,0,1.9,0,1.6,4.6,4.5,0,1.9,0,1.5,0,1.7,0,1.6,0,1.4,0,1.9,0,1.3,0,1.9,0,1.5,0,1.7,0,1.5,0,1.5,0,1.9" 
class="s2_54"
>A W e b - b a s e d T r a n s l a t i o n S y s t e m f o r M u l t i l i n g u a l C o d e - s w i t c h i n g</text>

<path d="M107.8,1086.4l719.4,0l0,-0.7l-719.4,0l0,0.7Z" class="g1_54" />
<path d="M107.8,130.5l719.4,0l0,-20.5l-719.4,0l0,20.5Z" class="g2_54" />
<text 
x="143" 
y="127" 
dx="0,-0.3,0,0.1,-0.3,0,-0.3" 
class="s3_54"
>'ar-sy'</text>

<text 
x="201" 
y="127" 
dx="0,-0.3" 
class="s4_54"
>: </text>

<text 
x="217" 
y="127" 
dx="0,0,-0.3,0,-0.3,0,-0.3,0,0,-0.3,0,-0.3,0,-0.3,0,0" 
class="s3_54"
>'Arabic (Syria)'</text>

<text 
x="350" 
y="127" 
dx="0,-0.3" 
class="s5_54"
>, </text>

<path d="M107.8,151.4l719.4,0l0,-20.9l-719.4,0l0,20.9Z" class="g2_54" />
<text 
x="143" 
y="147" 
dx="0,-0.3,0,0.1,-0.3,0,-0.3" 
class="s3_54"
>'ar-lb'</text>

<text 
x="201" 
y="147" 
dx="0,-0.3" 
class="s4_54"
>: </text>

<text 
x="217" 
y="147" 
dx="0,0,-0.3,0,-0.3,0,-0.3,0,0,-0.3,0,-0.3,0,-0.3,0,0,-0.3,0" 
class="s3_54"
>'Arabic (Lebanon)'</text>

<text 
x="366" 
y="147" 
dx="0,-0.3" 
class="s5_54"
>, </text>

<path d="M107.8,172l719.4,0l0,-20.6l-719.4,0l0,20.6Z" class="g2_54" />
<text 
x="143" 
y="168" 
dx="0,-0.3,0,0.1,-0.3,0,-0.3" 
class="s3_54"
>'ar-ae'</text>

<text 
x="201" 
y="168" 
dx="0,-0.3" 
class="s4_54"
>: </text>

<text 
x="217" 
y="168" 
dx="0,0,-0.3,0,-0.3,0,-0.3,0,0,-0.3,0,-0.3,0,-0.3,0,0,-0.3" 
class="s3_54"
>'Arabic (U.A.E.)'</text>

<text 
x="358" 
y="168" 
dx="0,-0.3" 
class="s5_54"
>, </text>

<path d="M107.8,192.5l719.4,0l0,-20.5l-719.4,0l0,20.5Z" class="g2_54" />
<text 
x="143" 
y="189" 
dx="0,-0.3,0,0.1,-0.3,0,-0.3" 
class="s3_54"
>'ar-qa'</text>

<text 
x="201" 
y="189" 
dx="0,-0.3" 
class="s4_54"
>: </text>

<text 
x="217" 
y="189" 
dx="0,0,-0.3,0,-0.3,0,-0.3,0,0,-0.3,0,-0.3,0,-0.3,0,0" 
class="s3_54"
>'Arabic (Qatar)'</text>

<text 
x="350" 
y="189" 
dx="0,-0.3" 
class="s5_54"
>, </text>

<path d="M107.8,213l719.4,0l0,-20.5l-719.4,0l0,20.5Z" class="g2_54" />
<text 
x="143" 
y="209" 
dx="0,-0.3,0,0.1,-0.3,0,-0.3" 
class="s3_54"
>'es-mx'</text>

<text 
x="201" 
y="209" 
dx="0,-0.3" 
class="s4_54"
>: </text>

<text 
x="217" 
y="209" 
dx="0,0,-0.3,0,-0.3,0,-0.3,0,0,-0.3,0,-0.3,0,-0.3,0,0,-0.3,0" 
class="s3_54"
>'Spanish (Mexico)'</text>

<text 
x="366" 
y="209" 
dx="0,-0.3" 
class="s5_54"
>, </text>

<path d="M107.8,233.9l719.4,0l0,-20.9l-719.4,0l0,20.9Z" class="g2_54" />
<text 
x="143" 
y="230" 
dx="0,-0.3,0,0.1,-0.3,0,-0.3" 
class="s3_54"
>'es-cr'</text>

<text 
x="201" 
y="230" 
dx="0,-0.3" 
class="s4_54"
>: </text>

<text 
x="217" 
y="230" 
dx="0,0,-0.3,0,-0.3,0,-0.3,0,0,-0.3,0,-0.3,0,-0.3,0,0,-0.3,0,-0.3,0,-0.3,0" 
class="s3_54"
>'Spanish (Costa Rica)'</text>

<text 
x="400" 
y="230" 
dx="0,-0.3" 
class="s5_54"
>, </text>

<path d="M107.8,254.5l719.4,0l0,-20.6l-719.4,0l0,20.6Z" class="g2_54" />
<text 
x="143" 
y="251" 
dx="0,-0.3,0,0.1,-0.3,0,-0.3" 
class="s3_54"
>'es-do'</text>

<text 
x="201" 
y="251" 
dx="0,-0.3" 
class="s4_54"
>: </text>

<text 
x="217" 
y="251" 
dx="0,0,-0.3,0,-0.3,0,-0.3,0,0,-0.3,0,-0.3,0,-0.3,0,0,-0.3,0,-0.3,0,-0.3,0,0,-0.3,0,-0.3,0,0,-0.3,0" 
class="s3_54"
>'Spanish (Dominican Republic)'</text>

<text 
x="466" 
y="251" 
dx="0,-0.3" 
class="s5_54"
>, </text>

<path d="M107.8,275l719.4,0l0,-20.5l-719.4,0l0,20.5Z" class="g2_54" />
<text 
x="143" 
y="271" 
dx="0,-0.3,0,0.1,-0.3,0,-0.3" 
class="s3_54"
>'es-co'</text>

<text 
x="201" 
y="271" 
dx="0,-0.3" 
class="s4_54"
>: </text>

<text 
x="217" 
y="271" 
dx="0,0,-0.3,0,-0.3,0,-0.3,0,0,-0.3,0,-0.3,0,-0.3,0,0,-0.3,0,-0.3,0" 
class="s3_54"
>'Spanish (Colombia)'</text>

<text 
x="383" 
y="271" 
dx="0,-0.3" 
class="s5_54"
>, </text>

<path d="M107.8,295.5l719.4,0l0,-20.5l-719.4,0l0,20.5Z" class="g2_54" />
<text 
x="143" 
y="292" 
dx="0,-0.3,0,0.1,-0.3,0,-0.3" 
class="s3_54"
>'es-ar'</text>

<text 
x="201" 
y="292" 
dx="0,-0.3" 
class="s4_54"
>: </text>

<text 
x="217" 
y="292" 
dx="0,0,-0.3,0,-0.3,0,-0.3,0,0,-0.3,0,-0.3,0,-0.3,0,0,-0.3,0,-0.3,0,-0.3" 
class="s3_54"
>'Spanish (Argentina)'</text>

<text 
x="391" 
y="292" 
dx="0,-0.3" 
class="s5_54"
>, </text>

<path d="M107.8,316.4l719.4,0l0,-20.9l-719.4,0l0,20.9Z" class="g2_54" />
<text 
x="143" 
y="312" 
dx="0,-0.3,0,0.1,-0.3,0,-0.3" 
class="s3_54"
>'es-cl'</text>

<text 
x="201" 
y="312" 
dx="0,-0.3" 
class="s4_54"
>: </text>

<text 
x="217" 
y="312" 
dx="0,0,-0.3,0,-0.3,0,-0.3,0,0,-0.3,0,-0.3,0,-0.3,0,0,-0.3" 
class="s3_54"
>'Spanish (Chile)'</text>

<text 
x="358" 
y="312" 
dx="0,-0.3" 
class="s5_54"
>, </text>

<path d="M107.8,337l719.4,0l0,-20.6l-719.4,0l0,20.6Z" class="g2_54" />
<text 
x="143" 
y="333" 
dx="0,-0.3,0,0.1,-0.3,0,-0.3" 
class="s3_54"
>'es-py'</text>

<text 
x="201" 
y="333" 
dx="0,-0.3" 
class="s4_54"
>: </text>

<text 
x="217" 
y="333" 
dx="0,0,-0.3,0,-0.3,0,-0.3,0,0,-0.3,0,-0.3,0,-0.3,0,0,-0.3,0,-0.3,0" 
class="s3_54"
>'Spanish (Paraguay)'</text>

<text 
x="383" 
y="333" 
dx="0,-0.3" 
class="s5_54"
>, </text>

<path d="M107.8,357.5l719.4,0l0,-20.5l-719.4,0l0,20.5Z" class="g2_54" />
<text 
x="143" 
y="354" 
dx="0,-0.3,0,0.1,-0.3,0,-0.3" 
class="s3_54"
>'es-sv'</text>

<text 
x="201" 
y="354" 
dx="0,-0.3" 
class="s4_54"
>: </text>

<text 
x="217" 
y="354" 
dx="0,0,-0.3,0,-0.3,0,-0.3,0,0,-0.3,0,-0.3,0,-0.3,0,0,-0.3,0,-0.3,0,-0.3,0,0" 
class="s3_54"
>'Spanish (El Salvador)'</text>

<text 
x="408" 
y="354" 
dx="0,-0.3" 
class="s5_54"
>, </text>

<path d="M107.8,378l719.4,0l0,-20.5l-719.4,0l0,20.5Z" class="g2_54" />
<text 
x="143" 
y="374" 
dx="0,-0.3,0,0.1,-0.3,0,-0.3" 
class="s3_54"
>'es-ni'</text>

<text 
x="201" 
y="374" 
dx="0,-0.3" 
class="s4_54"
>: </text>

<text 
x="217" 
y="374" 
dx="0,0,-0.3,0,-0.3,0,-0.3,0,0,-0.3,0,-0.3,0,-0.3,0,0,-0.3,0,-0.3,0,-0.3" 
class="s3_54"
>'Spanish (Nicaragua)'</text>

<text 
x="391" 
y="374" 
dx="0,-0.3" 
class="s5_54"
>, </text>

<path d="M107.8,398.9l719.4,0l0,-20.9l-719.4,0l0,20.9Z" class="g2_54" />
<text 
x="143" 
y="395" 
dx="0,-0.3,0,0.1,-0.3,0,-0.3" 
class="s3_54"
>'zh-cn'</text>

<text 
x="201" 
y="395" 
dx="0,-0.3" 
class="s4_54"
>: </text>

<text 
x="217" 
y="395" 
dx="0,0,-0.3,0,-0.3,0,-0.3,0,0,-0.3,0,-0.3,0,-0.3,0" 
class="s3_54"
>'Chinese (PRC)'</text>

<text 
x="342" 
y="395" 
dx="0,-0.3" 
class="s5_54"
>, </text>

<path d="M107.8,419.5l719.4,0l0,-20.6l-719.4,0l0,20.6Z" class="g2_54" />
<text 
x="143" 
y="416" 
dx="0,-0.3,0,0.1,-0.3,0,-0.3" 
class="s3_54"
>'zh-sg'</text>

<text 
x="201" 
y="416" 
dx="0,-0.3" 
class="s4_54"
>: </text>

<text 
x="217" 
y="416" 
dx="0,0,-0.3,0,-0.3,0,-0.3,0,0,-0.3,0,-0.3,0,-0.3,0,0,-0.3,0,-0.3,0,-0.3" 
class="s3_54"
>'Chinese (Singapore)'</text>

<text 
x="391" 
y="416" 
dx="0,-0.3" 
class="s5_54"
>, </text>

<path d="M107.8,440l719.4,0l0,-20.5l-719.4,0l0,20.5Z" class="g2_54" />
<text 
x="143" 
y="436" 
dx="0,-0.3,0,0.1,-0.3,0,-0.3" 
class="s3_54"
>'en-gb'</text>

<text 
x="201" 
y="436" 
dx="0,-0.3" 
class="s4_54"
>: </text>

<text 
x="217" 
y="436" 
dx="0,0,-0.3,0,-0.3,0,-0.3,0,0,-0.3,0,-0.3,0,-0.3,0,0,-0.3,0,-0.3,0,-0.3,0,0,-0.3,0,-0.3" 
class="s3_54"
>'English (United Kingdom)'</text>

<text 
x="433" 
y="436" 
dx="0,-0.3" 
class="s5_54"
>, </text>

<path d="M107.8,460.5l719.4,0l0,-20.5l-719.4,0l0,20.5Z" class="g2_54" />
<text 
x="143" 
y="457" 
dx="0,-0.3,0,0.1,-0.3,0,-0.3" 
class="s3_54"
>'en-ca'</text>

<text 
x="201" 
y="457" 
dx="0,-0.3" 
class="s4_54"
>: </text>

<text 
x="217" 
y="457" 
dx="0,0,-0.3,0,-0.3,0,-0.3,0,0,-0.3,0,-0.3,0,-0.3,0,0,-0.3,0" 
class="s3_54"
>'English (Canada)'</text>

<text 
x="366" 
y="457" 
dx="0,-0.3" 
class="s5_54"
>, </text>

<path d="M107.8,481.4l719.4,0l0,-20.9l-719.4,0l0,20.9Z" class="g2_54" />
<text 
x="143" 
y="477" 
dx="0,-0.3,0,0.1,-0.3,0,-0.3" 
class="s3_54"
>'en-ie'</text>

<text 
x="201" 
y="477" 
dx="0,-0.3" 
class="s4_54"
>: </text>

<text 
x="217" 
y="477" 
dx="0,0,-0.3,0,-0.3,0,-0.3,0,0,-0.3,0,-0.3,0,-0.3,0,0,-0.3,0,-0.3" 
class="s3_54"
>'English (Ireland)'</text>

<text 
x="375" 
y="477" 
dx="0,-0.3" 
class="s5_54"
>, </text>

<path d="M107.8,502l719.4,0l0,-20.6l-719.4,0l0,20.6Z" class="g2_54" />
<text 
x="143" 
y="498" 
dx="0,-0.3,0,0.1,-0.3,0,-0.3" 
class="s3_54"
>'en-jm'</text>

<text 
x="201" 
y="498" 
dx="0,-0.3" 
class="s4_54"
>: </text>

<text 
x="217" 
y="498" 
dx="0,0,-0.3,0,-0.3,0,-0.3,0,0,-0.3,0,-0.3,0,-0.3,0,0,-0.3,0,-0.3" 
class="s3_54"
>'English (Jamaica)'</text>

<text 
x="375" 
y="498" 
dx="0,-0.3" 
class="s5_54"
>, </text>

<path d="M107.8,522.5l719.4,0l0,-20.5l-719.4,0l0,20.5Z" class="g2_54" />
<text 
x="143" 
y="519" 
dx="0,-0.3,0,0.1,-0.3,0,-0.3" 
class="s3_54"
>'en-bz'</text>

<text 
x="201" 
y="519" 
dx="0,-0.3" 
class="s4_54"
>: </text>

<text 
x="217" 
y="519" 
dx="0,0,-0.3,0,-0.3,0,-0.3,0,0,-0.3,0,-0.3,0,-0.3,0,0,-0.3,0" 
class="s3_54"
>'English (Belize)'</text>

<text 
x="366" 
y="519" 
dx="0,-0.3" 
class="s5_54"
>, </text>

<path d="M107.8,543l719.4,0l0,-20.5l-719.4,0l0,20.5Z" class="g2_54" />
<text 
x="143" 
y="539" 
dx="0,-0.3,0,0.1,-0.3,0,-0.3" 
class="s3_54"
>'fr-ca'</text>

<text 
x="201" 
y="539" 
dx="0,-0.3" 
class="s4_54"
>: </text>

<text 
x="217" 
y="539" 
dx="0,0,-0.3,0,-0.3,0,-0.3,0,0,-0.3,0,-0.3,0,-0.3,0,0,-0.3" 
class="s3_54"
>'French (Canada)'</text>

<text 
x="358" 
y="539" 
dx="0,-0.3" 
class="s5_54"
>, </text>

<path d="M107.8,563.9l719.4,0l0,-20.9l-719.4,0l0,20.9Z" class="g2_54" />
<text 
x="143" 
y="560" 
dx="0,-0.3,0,0.1,-0.3,0,-0.3" 
class="s3_54"
>'fr-lu'</text>

<text 
x="201" 
y="560" 
dx="0,-0.3" 
class="s4_54"
>: </text>

<text 
x="217" 
y="560" 
dx="0,0,-0.3,0,-0.3,0,-0.3,0,0,-0.3,0,-0.3,0,-0.3,0,0,-0.3,0,-0.3,0,-0.3" 
class="s3_54"
>'French (Luxembourg)'</text>

<text 
x="391" 
y="560" 
dx="0,-0.3" 
class="s5_54"
>, </text>

<path d="M107.8,584.5l719.4,0l0,-20.6l-719.4,0l0,20.6Z" class="g2_54" />
<text 
x="143" 
y="581" 
dx="0,-0.3,0,0.1,-0.3,0,-0.3" 
class="s3_54"
>'de-ch'</text>

<text 
x="201" 
y="581" 
dx="0,-0.3" 
class="s4_54"
>: </text>

<text 
x="217" 
y="581" 
dx="0,0,-0.3,0,-0.3,0,-0.3,0,0,-0.3,0,-0.3,0,-0.3,0,0,-0.3,0,-0.3,0,-0.3,0" 
class="s3_54"
>'German (Switzerland)'</text>

<text 
x="400" 
y="581" 
dx="0,-0.3" 
class="s5_54"
>, </text>

<path d="M107.8,605l719.4,0l0,-20.5l-719.4,0l0,20.5Z" class="g2_54" />
<text 
x="143" 
y="601" 
dx="0,-0.3,0,0.1,-0.3,0,-0.3" 
class="s3_54"
>'de-lu'</text>

<text 
x="201" 
y="601" 
dx="0,-0.3" 
class="s4_54"
>: </text>

<text 
x="217" 
y="601" 
dx="0,0,-0.3,0,-0.3,0,-0.3,0,0,-0.3,0,-0.3,0,-0.3,0,0,-0.3,0,-0.3,0,-0.3" 
class="s3_54"
>'German (Luxembourg)'</text>

<text 
x="391" 
y="601" 
dx="0,-0.3" 
class="s5_54"
>, </text>

<path d="M107.8,625.5l719.4,0l0,-20.5l-719.4,0l0,20.5Z" class="g2_54" />
<text 
x="143" 
y="622" 
dx="0,-0.3,0,0.1,-0.3,0,-0.3" 
class="s3_54"
>'es-gt'</text>

<text 
x="201" 
y="622" 
dx="0,-0.3" 
class="s4_54"
>: </text>

<text 
x="217" 
y="622" 
dx="0,0,-0.3,0,-0.3,0,-0.3,0,0,-0.3,0,-0.3,0,-0.3,0,0,-0.3,0,-0.3,0,-0.3" 
class="s3_54"
>'Spanish (Guatemala)'</text>

<text 
x="391" 
y="622" 
dx="0,-0.3" 
class="s5_54"
>, </text>

<path d="M107.8,646.4l719.4,0l0,-20.9l-719.4,0l0,20.9Z" class="g2_54" />
<text 
x="143" 
y="642" 
dx="0,-0.3,0,0.1,-0.3,0,-0.3" 
class="s3_54"
>'es-pa'</text>

<text 
x="201" 
y="642" 
dx="0,-0.3" 
class="s4_54"
>: </text>

<text 
x="217" 
y="642" 
dx="0,0,-0.3,0,-0.3,0,-0.3,0,0,-0.3,0,-0.3,0,-0.3,0,0,-0.3,0" 
class="s3_54"
>'Spanish (Panama)'</text>

<text 
x="366" 
y="642" 
dx="0,-0.3" 
class="s5_54"
>, </text>

<path d="M107.8,667l719.4,0l0,-20.6l-719.4,0l0,20.6Z" class="g2_54" />
<text 
x="143" 
y="663" 
dx="0,-0.3,0,0.1,-0.3,0,-0.3" 
class="s3_54"
>'es-ve'</text>

<text 
x="201" 
y="663" 
dx="0,-0.3" 
class="s4_54"
>: </text>

<text 
x="217" 
y="663" 
dx="0,0,-0.3,0,-0.3,0,-0.3,0,0,-0.3,0,-0.3,0,-0.3,0,0,-0.3,0,-0.3,0,-0.3" 
class="s3_54"
>'Spanish (Venezuela)'</text>

<text 
x="391" 
y="663" 
dx="0,-0.3" 
class="s5_54"
>, </text>

<path d="M107.8,687.5l719.4,0l0,-20.5l-719.4,0l0,20.5Z" class="g2_54" />
<text 
x="143" 
y="684" 
dx="0,-0.3,0,0.1,-0.3,0,-0.3" 
class="s3_54"
>'es-pe'</text>

<text 
x="201" 
y="684" 
dx="0,-0.3" 
class="s4_54"
>: </text>

<text 
x="217" 
y="684" 
dx="0,0,-0.3,0,-0.3,0,-0.3,0,0,-0.3,0,-0.3,0,-0.3,0,0" 
class="s3_54"
>'Spanish (Peru)'</text>

<text 
x="350" 
y="684" 
dx="0,-0.3" 
class="s5_54"
>, </text>

<path d="M107.8,708l719.4,0l0,-20.5l-719.4,0l0,20.5Z" class="g2_54" />
<text 
x="143" 
y="704" 
dx="0,-0.3,0,0.1,-0.3,0,-0.3" 
class="s3_54"
>'es-ec'</text>

<text 
x="201" 
y="704" 
dx="0,-0.3" 
class="s4_54"
>: </text>

<text 
x="217" 
y="704" 
dx="0,0,-0.3,0,-0.3,0,-0.3,0,0,-0.3,0,-0.3,0,-0.3,0,0,-0.3,0,-0.3" 
class="s3_54"
>'Spanish (Ecuador)'</text>

<text 
x="375" 
y="704" 
dx="0,-0.3" 
class="s5_54"
>, </text>

<path d="M107.8,728.9l719.4,0l0,-20.9l-719.4,0l0,20.9Z" class="g2_54" />
<text 
x="143" 
y="725" 
dx="0,-0.3,0,0.1,-0.3,0,-0.3" 
class="s3_54"
>'es-uy'</text>

<text 
x="201" 
y="725" 
dx="0,-0.3" 
class="s4_54"
>: </text>

<text 
x="217" 
y="725" 
dx="0,0,-0.3,0,-0.3,0,-0.3,0,0,-0.3,0,-0.3,0,-0.3,0,0,-0.3,0,-0.3" 
class="s3_54"
>'Spanish (Uruguay)'</text>

<text 
x="375" 
y="725" 
dx="0,-0.3" 
class="s5_54"
>, </text>

<path d="M107.8,749.5l719.4,0l0,-20.6l-719.4,0l0,20.6Z" class="g2_54" />
<text 
x="143" 
y="746" 
dx="0,-0.3,0,0.1,-0.3,0,-0.3" 
class="s3_54"
>'es-bo'</text>

<text 
x="201" 
y="746" 
dx="0,-0.3" 
class="s4_54"
>: </text>

<text 
x="217" 
y="746" 
dx="0,0,-0.3,0,-0.3,0,-0.3,0,0,-0.3,0,-0.3,0,-0.3,0,0,-0.3,0,-0.3" 
class="s3_54"
>'Spanish (Bolivia)'</text>

<text 
x="375" 
y="746" 
dx="0,-0.3" 
class="s5_54"
>, </text>

<path d="M107.8,770l719.4,0l0,-20.5l-719.4,0l0,20.5Z" class="g2_54" />
<text 
x="143" 
y="766" 
dx="0,-0.3,0,0.1,-0.3,0,-0.3" 
class="s3_54"
>'es-hn'</text>

<text 
x="201" 
y="766" 
dx="0,-0.3" 
class="s4_54"
>: </text>

<text 
x="217" 
y="766" 
dx="0,0,-0.3,0,-0.3,0,-0.3,0,0,-0.3,0,-0.3,0,-0.3,0,0,-0.3,0,-0.3,0" 
class="s3_54"
>'Spanish (Honduras)'</text>

<text 
x="383" 
y="766" 
dx="0,-0.3" 
class="s5_54"
>, </text>

<path d="M107.8,790.5l719.4,0l0,-20.5l-719.4,0l0,20.5Z" class="g2_54" />
<text 
x="143" 
y="787" 
dx="0,-0.3,0,0.1,-0.3,0,-0.3" 
class="s3_54"
>'es-pr'</text>

<text 
x="201" 
y="787" 
dx="0,-0.3" 
class="s4_54"
>: </text>

<text 
x="217" 
y="787" 
dx="0,0,-0.3,0,-0.3,0,-0.3,0,0,-0.3,0,-0.3,0,-0.3,0,0,-0.3,0,-0.3,0,-0.3,0,0,-0.4" 
class="s3_54"
>'Spanish (Puerto Rico)' </text>

<path d="M107.8,811.4l719.4,0l0,-20.9l-719.4,0l0,20.9Z" class="g2_54" />
<text 
x="110" 
y="807" 
dx="0,0,-0.3" 
class="s5_54"
>}; </text>

<path d="M107.8,832l719.4,0l0,-20.6l-719.4,0l0,20.6Z" class="g2_54" />
<path d="M107.8,853.6l719.4,0l0,-21.6l-719.4,0l0,21.6Z" class="g2_54" />


<!-- Any embedded fonts defined here -->
<style type="text/css" ><![CDATA[

@font-face {
	font-family: ArialNovaCond-Bold_d;
	src: url("fonts/ArialNovaCond-Bold_d.woff") format("woff");
}

@font-face {
	font-family: Menlo-Regular_bu;
	src: url("fonts/Menlo-Regular_bu.woff") format("woff");
}

@font-face {
	font-family: ArialNova-Light_n;
	src: url("fonts/ArialNova-Light_n.woff") format("woff");
}

]]></style>

</svg>
