<?xml version="1.0" encoding="UTF-8" standalone="no"?>
<!DOCTYPE svg PUBLIC "-//W3C//DTD SVG 1.1//EN"
"http://www.w3.org/Graphics/SVG/1.1/DTD/svg11.dtd">


<!-- Page 60 -->
<svg x="0" y="0" width="935" height="1210" viewBox="0 0 935 1210" version="1.1" xmlns="http://www.w3.org/2000/svg" xmlns:xlink="http://www.w3.org/1999/xlink"
style="display: block;margin-left: auto;margin-right: auto;">
<defs>

<style type="text/css"><![CDATA[

.g1_60{
fill: #D9D9D9;
}
.g2_60{
fill: #FFFFFF;
}

.s1_60{
font-size: 18.33px;
font-family: ArialNovaCond-Bold_d;
fill: #5A5A5A;
}
.s2_60{
font-size: 12.10px;
font-family: ArialNova-Light_n;
fill: #7F7F7F;
}
.s3_60{
font-size: 13.93px;
font-family: Menlo-Regular_bu;
fill: #800000;
}
.s4_60{
font-size: 13.93px;
font-family: Menlo-Regular_bu;
fill: #FF0000;
}
.s5_60{
font-size: 13.93px;
font-family: Menlo-Regular_bu;
fill: #000000;
}
.s6_60{
font-size: 13.93px;
font-family: Menlo-Regular_bu;
fill: #0000FF;
}
.s7_60{
font-size: 18.33px;
font-family: Calibri-Light_r;
fill: #44546A;
}
.s8_60{
font-size: 14.67px;
font-family: Calibri-Light_r;
fill: #44546A;
}
.s9_60{
font-size: 13.93px;
font-family: Menlo-Regular_bu;
fill: #AF00DB;
}
.s10_60{
font-size: 13.93px;
font-family: Menlo-Regular_bu;
fill: #795E26;
}
.s11_60{
font-size: 13.93px;
font-family: Menlo-Regular_bu;
fill: #001080;
}
.s12_60{
font-size: 13.93px;
font-family: Menlo-Regular_bu;
fill: #09885A;
}
.s13_60{
font-size: 13.93px;
font-family: Menlo-Regular_bu;
fill: #0451A5;
}

]]></style>

</defs>
<path d="M0,0
L0,1210
L935,1210
L935,0 Z " 
fill="#FFFFFF" stroke="none" />
<text 
x="110" 
y="1106" 
dx="0,0,0,0.2" 
class="s1_60"
>60 |</text>

<text 
x="141" 
y="1106" 
dx="0,4.3,4.9,0,1.9,0,1.6,0,1.3,0,1.7,0,1.7,0,1.2,0,1.9,0,1.6,4.7,4.9,0,1.3,0,1.7,0,1.6,0,1.5,0,1.6,0,1.9,0,1.2,0,1.5,0,1.9,0,1.5,4.5,4.9,0,1.7,0,1.2,0,1.9,0,1.9,0,1.2,4.5,4.5,0,1.9,0,1.5,4.7,4.9,0,1.3,0,1.5,0,1.9,0,1.5,0,1.5,0,1.5,0,1.5,0,1.9,0,1.3,0,1.9,0,1.6,4.6,4.5,0,1.9,0,1.5,0,1.7,0,1.6,0,1.4,0,1.9,0,1.3,0,1.9,0,1.5,0,1.7,0,1.5,0,1.5,0,1.9" 
class="s2_60"
>A W e b - b a s e d T r a n s l a t i o n S y s t e m f o r M u l t i l i n g u a l C o d e - s w i t c h i n g</text>

<path d="M107.8,1086.4l719.4,0l0,-0.7l-719.4,0l0,0.7Z" class="g1_60" />
<path d="M107.8,130.5l719.4,0l0,-20.5l-719.4,0l0,20.5Z" class="g2_60" />
<text 
x="143" 
y="127" 
dx="0,-0.3,0,0.1" 
class="s3_60"
>&lt;h4 </text>

<text 
x="176" 
y="127" 
dx="0,0,-0.3,0,-0.3" 
class="s4_60"
>class</text>

<text 
x="217" 
y="127" 
class="s5_60"
>=</text>

<text 
x="226" 
y="127" 
dx="0,-0.3,0,-0.3,0,-0.3,0,0,-0.3,0,-0.3,0,-0.3,0,0,-0.3,0,-0.3,0,-0.3,0,0,-0.3,0,-0.3,0,0,-0.2,0,-0.3,0,-0.3,0,0,-0.3,0,-0.3,0,0,-0.3,0,-0.3,0,-0.3,0,0" 
class="s6_60"
>"secondaryFont orange white-font orange-cage "</text>

<text 
x="606" 
y="127" 
dx="0,0,-0.3,0" 
class="s3_60"
>&gt;&lt;a </text>

<text 
x="639" 
y="127" 
class="s4_60"
>id</text>

<text 
x="656" 
y="127" 
class="s5_60"
>=</text>

<text 
x="664" 
y="127" 
dx="0,0,-0.3,0,-0.3,0,0,-0.3,0,-0.3" 
class="s6_60"
>"apiLink" </text>

<path d="M107.8,151.4l719.4,0l0,-20.9l-719.4,0l0,20.9Z" class="g2_60" />
<text 
x="110" 
y="147" 
dx="0,0,0,-0.3,0,-0.3" 
class="s4_60"
>target</text>

<text 
x="159" 
y="147" 
class="s5_60"
>=</text>

<text 
x="168" 
y="147" 
dx="0,-0.3,0,-0.3,0,-0.3,0,0,-0.3" 
class="s6_60"
>"_blank" </text>

<text 
x="242" 
y="147" 
dx="0,-0.3,0,-0.3" 
class="s4_60"
>href</text>

<text 
x="275" 
y="147" 
class="s5_60"
>=</text>

<text 
x="284" 
y="147" 
dx="0,-0.3,0,-0.3,0,-0.3,0,0,-0.3,0,-0.3,0,-0.3,0,0,-0.3,0,-0.3,0,0.1,-0.3,0,-0.3,0,-0.3,0,0,-0.3,0,-0.3,0,0,-0.3,0,-0.3,0,-0.3,0,0,-0.3" 
class="s6_60"
>"https://codeswitch-translator.site/api"</text>

<text 
x="615" 
y="147" 
class="s3_60"
>&gt;</text>

<text 
x="623" 
y="147" 
dx="0,0,-0.3,0,0,-0.3,0,-0.3,0,-0.3,0,0,-0.3,0,-0.3,0,-0.3,0,0,-0.3,0,-0.3,0,0" 
class="s5_60"
>Click here to read REST </text>

<path d="M107.8,172l719.4,0l0,-20.6l-719.4,0l0,20.6Z" class="g2_60" />
<text 
x="110" 
y="168" 
dx="0,0,0,-0.3,0,-0.3,0,0,-0.3,0,-0.3,0,-0.3,0,0,-0.3,0" 
class="s5_60"
>API documentation</text>

<text 
x="250" 
y="168" 
dx="0,0,-0.3,0,0,-0.3,0,-0.3,0,-0.3" 
class="s3_60"
>&lt;/a&gt;&lt;/h4&gt; </text>

<path d="M107.8,192.5l719.4,0l0,-20.5l-719.4,0l0,20.5Z" class="g2_60" />
<text 
x="126" 
y="189" 
dx="0,-0.3,0,-0.3,0.1,0,-0.3" 
class="s3_60"
>&lt;/div&gt; </text>

<path d="M107.8,213l719.4,0l0,-20.5l-719.4,0l0,20.5Z" class="g2_60" />
<text 
x="110" 
y="209" 
dx="0,0,0,-0.3,0,-0.3,-0.3" 
class="s3_60"
>&lt;/div&gt; </text>

<path d="M107.8,234.3l719.4,0l0,-21.3l-719.4,0l0,21.3Z" class="g2_60" />
<text 
x="110" 
y="269" 
class="s7_60"
>F</text>

<text 
x="119" 
y="269" 
dx="0,1.6,1.6" 
class="s8_60"
>ILE</text>

<text 
x="141" 
y="269" 
class="s7_60"
>:</text>

<text 
x="152" 
y="269" 
dx="0,1.3,1.6,1.4" 
class="s8_60"
>BASE</text>

<text 
x="188" 
y="269" 
class="s7_60"
>.</text>

<text 
x="194" 
y="269" 
dx="0,1.3,1.4,1.5,1.3,1.4,1.6,1.3,1.6" 
class="s8_60"
>COMPONENT</text>

<text 
x="287" 
y="269" 
class="s7_60"
>.</text>

<text 
x="292" 
y="269" 
dx="0,1.3,1.4" 
class="s8_60"
>CSS</text>

<path d="M107.8,299.6l719.4,0l0,-16.2l-719.4,0l0,16.2Z" class="g2_60" />
<text 
x="110" 
y="296" 
dx="0,0,0,-0.3,0,-0.3,0,0,-0.3,0,-0.3" 
class="s9_60"
>@font-face </text>

<text 
x="201" 
y="296" 
dx="0,-0.3" 
class="s5_60"
>{ </text>

<path d="M107.8,320.5l719.4,0l0,-20.9l-719.4,0l0,20.9Z" class="g2_60" />
<text 
x="143" 
y="316" 
dx="0,-0.3,0,0,-0.3,0,-0.3,0,-0.3,0,0" 
class="s4_60"
>font-family</text>

<text 
x="234" 
y="316" 
dx="0,0,-0.3,0,-0.3,0,0,-0.3,0,-0.3,0,-0.3,0,-0.3" 
class="s5_60"
>: Montserrat; </text>

<path d="M107.8,341l719.4,0l0,-20.5l-719.4,0l0,20.5Z" class="g2_60" />
<text 
x="143" 
y="337" 
dx="0,-0.3,0" 
class="s4_60"
>src</text>

<text 
x="168" 
y="337" 
dx="0,-0.3" 
class="s5_60"
>: </text>

<text 
x="184" 
y="337" 
dx="0,-0.3,0" 
class="s10_60"
>url</text>

<text 
x="209" 
y="337" 
class="s5_60"
>(</text>

<text 
x="217" 
y="337" 
dx="0,0,-0.3,0,-0.3,0,-0.3,0,0,-0.3,0,-0.3,0,-0.3,0,0,-0.3,0,-0.3,0,-0.3,0,0,-0.3,0,-0.3,0,0,-0.3,0,-0.3,0,-0.3,0,0,-0.3" 
class="s11_60"
>/assets/fonts/Montserrat-Regular.ttf</text>

<text 
x="515" 
y="337" 
dx="0,-0.3,-0.3" 
class="s5_60"
>); </text>

<path d="M107.8,361.5l719.4,0l0,-20.5l-719.4,0l0,20.5Z" class="g2_60" />
<text 
x="110" 
y="358" 
class="s5_60"
>} </text>

<path d="M107.8,382.1l719.4,0l0,-20.6l-719.4,0l0,20.6Z" class="g2_60" />
<path d="M107.8,403l719.4,0l0,-20.9l-719.4,0l0,20.9Z" class="g2_60" />
<text 
x="110" 
y="399" 
dx="0,0,0,-0.3,0,-0.3,0,0,-0.3,0,-0.3" 
class="s9_60"
>@font-face </text>

<text 
x="201" 
y="399" 
dx="0,-0.3" 
class="s5_60"
>{ </text>

<path d="M107.8,423.5l719.4,0l0,-20.5l-719.4,0l0,20.5Z" class="g2_60" />
<text 
x="143" 
y="420" 
dx="0,-0.3,0,0,-0.3,0,-0.3,0,-0.3,0,0" 
class="s4_60"
>font-family</text>

<text 
x="234" 
y="420" 
dx="0,0,-0.3,0,-0.3,0,0,-0.3,0,-0.3,0,-0.3,0,0,-0.3,0,-0.3,0,-0.3,0,0,-0.3,-0.3" 
class="s5_60"
>: Montserrat-SemiBold; </text>

<path d="M107.8,444l719.4,0l0,-20.5l-719.4,0l0,20.5Z" class="g2_60" />
<text 
x="143" 
y="440" 
dx="0,-0.3,0" 
class="s4_60"
>src</text>

<text 
x="168" 
y="440" 
dx="0,-0.3" 
class="s5_60"
>: </text>

<text 
x="184" 
y="440" 
dx="0,-0.3,0" 
class="s10_60"
>url</text>

<text 
x="209" 
y="440" 
class="s5_60"
>(</text>

<text 
x="217" 
y="440" 
dx="0,0,-0.3,0,-0.3,0,-0.3,0,0,-0.3,0,-0.3,0,-0.3,0,0,-0.3,0,-0.3,0,-0.3,0,0,-0.3,0,-0.3,0,0,-0.3,0,-0.3,0,-0.3,0,0,-0.3,0" 
class="s11_60"
>/assets/fonts/Montserrat-SemiBold.ttf</text>

<text 
x="523" 
y="440" 
dx="0,0,-0.3" 
class="s5_60"
>); </text>

<path d="M107.8,464.6l719.4,0l0,-20.6l-719.4,0l0,20.6Z" class="g2_60" />
<text 
x="110" 
y="461" 
class="s5_60"
>} </text>

<path d="M107.8,485.5l719.4,0l0,-20.9l-719.4,0l0,20.9Z" class="g2_60" />
<path d="M107.8,506l719.4,0l0,-20.5l-719.4,0l0,20.5Z" class="g2_60" />
<text 
x="110" 
y="502" 
dx="0,0,0,-0.3,0,-0.3,0,0,-0.3,0,-0.3" 
class="s9_60"
>@font-face </text>

<text 
x="201" 
y="502" 
dx="0,-0.3" 
class="s5_60"
>{ </text>

<path d="M107.8,526.5l719.4,0l0,-20.5l-719.4,0l0,20.5Z" class="g2_60" />
<text 
x="143" 
y="523" 
dx="0,-0.3,0,0,-0.3,0,-0.3,0,-0.3,0,0" 
class="s4_60"
>font-family</text>

<text 
x="234" 
y="523" 
dx="0,0,-0.3,0,-0.3,0,0,-0.3,0,-0.3,0,-0.3" 
class="s5_60"
>: OpenSans; </text>

<path d="M107.8,547.1l719.4,0l0,-20.6l-719.4,0l0,20.6Z" class="g2_60" />
<text 
x="143" 
y="543" 
dx="0,-0.3,0" 
class="s4_60"
>src</text>

<text 
x="168" 
y="543" 
dx="0,-0.3" 
class="s5_60"
>: </text>

<text 
x="184" 
y="543" 
dx="0,-0.3,0" 
class="s10_60"
>url</text>

<text 
x="209" 
y="543" 
class="s5_60"
>(</text>

<text 
x="217" 
y="543" 
dx="0,0,-0.3,0,-0.3,0,-0.3,0,0,-0.3,0,-0.3,0,-0.3,0,0,-0.3,0,-0.3,0,-0.3,0,0,-0.3,0,-0.3,0,0,-0.3,0,-0.3,0,-0.3,0" 
class="s11_60"
>/assets/fonts/OpenSans-Regular.ttf</text>

<text 
x="499" 
y="543" 
dx="0,-0.3,-0.3" 
class="s5_60"
>); </text>

<path d="M107.8,568l719.4,0l0,-20.9l-719.4,0l0,20.9Z" class="g2_60" />
<text 
x="110" 
y="564" 
class="s5_60"
>} </text>

<path d="M107.8,588.5l719.4,0l0,-20.5l-719.4,0l0,20.5Z" class="g2_60" />
<path d="M107.8,609l719.4,0l0,-20.5l-719.4,0l0,20.5Z" class="g2_60" />
<text 
x="110" 
y="605" 
dx="0,0,0,-0.3,0,-0.3,0,0,-0.3,0,-0.3" 
class="s9_60"
>@font-face </text>

<text 
x="201" 
y="605" 
dx="0,-0.3" 
class="s5_60"
>{ </text>

<path d="M107.8,629.6l719.4,0l0,-20.6l-719.4,0l0,20.6Z" class="g2_60" />
<text 
x="143" 
y="626" 
dx="0,-0.3,0,0,-0.3,0,-0.3,0,-0.3,0,0" 
class="s4_60"
>font-family</text>

<text 
x="234" 
y="626" 
dx="0,0,-0.3,0,-0.3,0,0,-0.3,0,-0.3,0,-0.3,0,0,-0.3,0,-0.3,0,-0.3,0,-0.3" 
class="s5_60"
>: OpenSans-SemiBold; </text>

<path d="M107.8,650.5l719.4,0l0,-20.9l-719.4,0l0,20.9Z" class="g2_60" />
<text 
x="143" 
y="646" 
dx="0,-0.3,0" 
class="s4_60"
>src</text>

<text 
x="168" 
y="646" 
dx="0,-0.3" 
class="s5_60"
>: </text>

<text 
x="184" 
y="646" 
dx="0,-0.3,0" 
class="s10_60"
>url</text>

<text 
x="209" 
y="646" 
class="s5_60"
>(</text>

<text 
x="217" 
y="646" 
dx="0,0,-0.3,0,-0.3,0,-0.3,0,0,-0.3,0,-0.3,0,-0.3,0,0,-0.3,0,-0.3,0,-0.3,0,0,-0.3,0,-0.3,0,0,-0.3,0,-0.3,0,-0.3,0,0" 
class="s11_60"
>/assets/fonts/OpenSans-SemiBold.ttf</text>

<text 
x="507" 
y="646" 
dx="0,0,-0.3" 
class="s5_60"
>); </text>

<path d="M107.8,671l719.4,0l0,-20.5l-719.4,0l0,20.5Z" class="g2_60" />
<text 
x="110" 
y="667" 
class="s5_60"
>} </text>

<path d="M107.8,691.5l719.4,0l0,-20.5l-719.4,0l0,20.5Z" class="g2_60" />
<path d="M107.8,712.1l719.4,0l0,-20.6l-719.4,0l0,20.6Z" class="g2_60" />
<text 
x="110" 
y="708" 
dx="0,0,0,-0.3,0,-0.3,0,0,-0.3,0,-0.3,0" 
class="s3_60"
>#buttonsDiv </text>

<text 
x="209" 
y="708" 
dx="0,-0.3" 
class="s5_60"
>{ </text>

<path d="M107.8,733l719.4,0l0,-20.9l-719.4,0l0,20.9Z" class="g2_60" />
<text 
x="143" 
y="729" 
dx="0,-0.3,0,0,-0.3,0,-0.3,0,-0.3,0" 
class="s4_60"
>margin-top</text>

<text 
x="226" 
y="729" 
dx="0,-0.3" 
class="s5_60"
>: </text>

<text 
x="242" 
y="729" 
dx="0,-0.3,0" 
class="s12_60"
>5px</text>

<text 
x="267" 
y="729" 
dx="0,-0.3" 
class="s5_60"
>; </text>

<path d="M107.8,753.5l719.4,0l0,-20.5l-719.4,0l0,20.5Z" class="g2_60" />
<text 
x="110" 
y="750" 
class="s5_60"
>} </text>

<path d="M107.8,774l719.4,0l0,-20.5l-719.4,0l0,20.5Z" class="g2_60" />
<path d="M107.8,794.6l719.4,0l0,-20.6l-719.4,0l0,20.6Z" class="g2_60" />
<text 
x="110" 
y="791" 
dx="0,0,0,-0.3,0,-0.3,0,0,-0.3,0,-0.3,0,-0.3,0,0,-0.3,0,-0.3,0" 
class="s3_60"
>#buttonsDiv button </text>

<text 
x="267" 
y="791" 
dx="0,-0.3" 
class="s5_60"
>{ </text>

<path d="M107.8,815.5l719.4,0l0,-20.9l-719.4,0l0,20.9Z" class="g2_60" />
<text 
x="143" 
y="811" 
dx="0,-0.3,0,0,-0.3,0,-0.3" 
class="s4_60"
>padding</text>

<text 
x="201" 
y="811" 
dx="0,-0.3" 
class="s5_60"
>: </text>

<text 
x="217" 
y="811" 
dx="0,0,-0.3" 
class="s12_60"
>7px</text>

<text 
x="242" 
y="811" 
dx="0,-0.3" 
class="s5_60"
>; </text>

<path d="M107.8,836l719.4,0l0,-20.5l-719.4,0l0,20.5Z" class="g2_60" />
<text 
x="110" 
y="832" 
class="s5_60"
>} </text>

<path d="M107.8,856.5l719.4,0l0,-20.5l-719.4,0l0,20.5Z" class="g2_60" />
<path d="M107.8,877.1l719.4,0l0,-20.6l-719.4,0l0,20.6Z" class="g2_60" />
<text 
x="110" 
y="873" 
dx="0,0,0,-0.3,0,-0.3,0,0,-0.3,0,-0.3,0,-0.3,0,0,-0.4" 
class="s3_60"
>#destinationDiv </text>

<text 
x="242" 
y="873" 
dx="0,-0.3" 
class="s5_60"
>{ </text>

<path d="M107.8,898l719.4,0l0,-20.9l-719.4,0l0,20.9Z" class="g2_60" />
<text 
x="143" 
y="894" 
dx="0,-0.3,0,0,-0.3,0,-0.3,0" 
class="s4_60"
>position</text>

<text 
x="209" 
y="894" 
class="s5_60"
>: </text>

<text 
x="226" 
y="894" 
dx="0,-0.3,0,-0.3,0,-0.3,0,0" 
class="s13_60"
>relative</text>

<text 
x="292" 
y="894" 
dx="0,-0.3" 
class="s5_60"
>; </text>

<path d="M107.8,918.5l719.4,0l0,-20.5l-719.4,0l0,20.5Z" class="g2_60" />
<text 
x="143" 
y="915" 
dx="0,-0.3,0,0,-0.3,0,-0.3,0,-0.3,0" 
class="s4_60"
>margin-top</text>

<text 
x="226" 
y="915" 
dx="0,-0.3" 
class="s5_60"
>: </text>

<text 
x="242" 
y="915" 
dx="0,-0.3,0,-0.3" 
class="s12_60"
>25px</text>

<text 
x="275" 
y="915" 
dx="0,-0.3" 
class="s5_60"
>; </text>

<path d="M107.8,939l719.4,0l0,-20.5l-719.4,0l0,20.5Z" class="g2_60" />
<text 
x="143" 
y="935" 
dx="0,-0.3,0,0,-0.3,0,-0.3,0,-0.3,0,0,-0.3,0" 
class="s4_60"
>margin-bottom</text>

<text 
x="250" 
y="935" 
class="s5_60"
>: </text>

<text 
x="267" 
y="935" 
class="s12_60"
>5px</text>

<text 
x="292" 
y="935" 
dx="0,-0.3" 
class="s5_60"
>; </text>

<path d="M107.8,959.6l719.4,0l0,-20.6l-719.4,0l0,20.6Z" class="g2_60" />
<text 
x="110" 
y="956" 
class="s5_60"
>} </text>

<path d="M107.8,980.5l719.4,0l0,-20.9l-719.4,0l0,20.9Z" class="g2_60" />
<path d="M107.8,1001l719.4,0l0,-20.5l-719.4,0l0,20.5Z" class="g2_60" />
<text 
x="110" 
y="997" 
dx="0,0,0,-0.3,0,-0.3,0,0,-0.3,0,-0.3" 
class="s3_60"
>#bottomDiv </text>

<text 
x="201" 
y="997" 
dx="0,-0.3" 
class="s5_60"
>{ </text>

<path d="M107.8,1021.5l719.4,0l0,-20.5l-719.4,0l0,20.5Z" class="g2_60" />
<text 
x="143" 
y="1018" 
dx="0,-0.3,0,0,-0.3,0,-0.3,0" 
class="s4_60"
>overflow</text>

<text 
x="209" 
y="1018" 
class="s5_60"
>: </text>

<text 
x="226" 
y="1018" 
dx="0,-0.3,0,-0.3,0,-0.3" 
class="s13_60"
>hidden</text>

<text 
x="275" 
y="1018" 
dx="0,-0.3" 
class="s5_60"
>; </text>

<path d="M107.8,1042.1l719.4,0l0,-20.6l-719.4,0l0,20.6Z" class="g2_60" />
<text 
x="110" 
y="1038" 
class="s5_60"
>} </text>

<path d="M107.8,1063l719.4,0l0,-20.9l-719.4,0l0,20.9Z" class="g2_60" />
<path d="M107.8,1083.5l719.4,0l0,-20.5l-719.4,0l0,20.5Z" class="g2_60" />
<text 
x="110" 
y="1080" 
dx="0,0,0,-0.3,0,-0.3,0,0,-0.3,0,-0.3,0" 
class="s3_60"
>.notVisible </text>

<text 
x="209" 
y="1080" 
dx="0,-0.3" 
class="s5_60"
>{ </text>



<!-- Any embedded fonts defined here -->
<style type="text/css" ><![CDATA[

@font-face {
	font-family: ArialNovaCond-Bold_d;
	src: url("fonts/ArialNovaCond-Bold_d.woff") format("woff");
}

@font-face {
	font-family: Menlo-Regular_bu;
	src: url("fonts/Menlo-Regular_bu.woff") format("woff");
}

@font-face {
	font-family: ArialNova-Light_n;
	src: url("fonts/ArialNova-Light_n.woff") format("woff");
}

@font-face {
	font-family: Calibri-Light_r;
	src: url("fonts/Calibri-Light_r.woff") format("woff");
}

]]></style>

</svg>
