<?xml version="1.0" encoding="UTF-8" standalone="no"?>
<!DOCTYPE svg PUBLIC "-//W3C//DTD SVG 1.1//EN"
"http://www.w3.org/Graphics/SVG/1.1/DTD/svg11.dtd">


<!-- Page 61 -->
<svg x="0" y="0" width="935" height="1210" viewBox="0 0 935 1210" version="1.1" xmlns="http://www.w3.org/2000/svg" xmlns:xlink="http://www.w3.org/1999/xlink"
style="display: block;margin-left: auto;margin-right: auto;">
<defs>

<style type="text/css"><![CDATA[

.g1_61{
fill: #D9D9D9;
}
.g2_61{
fill: #FFFFFF;
}

.s1_61{
font-size: 18.33px;
font-family: ArialNovaCond-Bold_d;
fill: #5A5A5A;
}
.s2_61{
font-size: 12.10px;
font-family: ArialNova-Light_n;
fill: #7F7F7F;
}
.s3_61{
font-size: 13.93px;
font-family: Menlo-Regular_bu;
fill: #FF0000;
}
.s4_61{
font-size: 13.93px;
font-family: Menlo-Regular_bu;
fill: #000000;
}
.s5_61{
font-size: 13.93px;
font-family: Menlo-Regular_bu;
fill: #09885A;
}
.s6_61{
font-size: 13.93px;
font-family: Menlo-Regular_bu;
fill: #800000;
}
.s7_61{
font-size: 13.93px;
font-family: Menlo-Regular_bu;
fill: #0000FF;
}
.s8_61{
font-size: 13.93px;
font-family: Menlo-Regular_bu;
fill: #0451A5;
}

]]></style>

</defs>
<path d="M0,0
L0,1210
L935,1210
L935,0 Z " 
fill="#FFFFFF" stroke="none" />
<text 
x="110" 
y="1106" 
dx="0,0,0,0.2" 
class="s1_61"
>61 |</text>

<text 
x="141" 
y="1106" 
dx="0,4.3,4.9,0,1.9,0,1.6,0,1.3,0,1.7,0,1.7,0,1.2,0,1.9,0,1.6,4.7,4.9,0,1.3,0,1.7,0,1.6,0,1.5,0,1.6,0,1.9,0,1.2,0,1.5,0,1.9,0,1.5,4.5,4.9,0,1.7,0,1.2,0,1.9,0,1.9,0,1.2,4.5,4.5,0,1.9,0,1.5,4.7,4.9,0,1.3,0,1.5,0,1.9,0,1.5,0,1.5,0,1.5,0,1.5,0,1.9,0,1.3,0,1.9,0,1.6,4.6,4.5,0,1.9,0,1.5,0,1.7,0,1.6,0,1.4,0,1.9,0,1.3,0,1.9,0,1.5,0,1.7,0,1.5,0,1.5,0,1.9" 
class="s2_61"
>A W e b - b a s e d T r a n s l a t i o n S y s t e m f o r M u l t i l i n g u a l C o d e - s w i t c h i n g</text>

<path d="M107.8,1086.4l719.4,0l0,-0.7l-719.4,0l0,0.7Z" class="g1_61" />
<path d="M107.8,130.5l719.4,0l0,-20.5l-719.4,0l0,20.5Z" class="g2_61" />
<text 
x="143" 
y="127" 
dx="0,-0.3,0,0,-0.3,0,-0.3" 
class="s3_61"
>opacity</text>

<text 
x="201" 
y="127" 
dx="0,-0.3" 
class="s4_61"
>: </text>

<text 
x="217" 
y="127" 
class="s5_61"
>0</text>

<text 
x="226" 
y="127" 
dx="0,-0.3" 
class="s4_61"
>; </text>

<path d="M107.8,151.4l719.4,0l0,-20.9l-719.4,0l0,20.9Z" class="g2_61" />
<text 
x="110" 
y="147" 
class="s4_61"
>} </text>

<path d="M107.8,172l719.4,0l0,-20.6l-719.4,0l0,20.6Z" class="g2_61" />
<path d="M107.8,192.5l719.4,0l0,-20.5l-719.4,0l0,20.5Z" class="g2_61" />
<text 
x="110" 
y="189" 
dx="0,0,0,-0.3,0,-0.3,0,0,-0.3,0,-0.3,0,-0.3,0,0,-0.3,0,-0.3,0" 
class="s6_61"
>#detectedLanguages </text>

<text 
x="267" 
y="189" 
dx="0,-0.3" 
class="s4_61"
>{ </text>

<path d="M107.8,213l719.4,0l0,-20.5l-719.4,0l0,20.5Z" class="g2_61" />
<text 
x="143" 
y="209" 
dx="0,-0.3,0,0,-0.3,0" 
class="s3_61"
>height</text>

<text 
x="192" 
y="209" 
class="s4_61"
>: </text>

<text 
x="209" 
y="209" 
dx="0,0,0,-0.3,0" 
class="s5_61"
>20px </text>

<text 
x="250" 
y="209" 
dx="0,0,-0.3,0,0,-0.3,0,-0.3,0,-0.3" 
class="s7_61"
>!important</text>

<text 
x="333" 
y="209" 
dx="0,-0.3" 
class="s4_61"
>; </text>

<path d="M107.8,233.9l719.4,0l0,-20.9l-719.4,0l0,20.9Z" class="g2_61" />
<text 
x="143" 
y="230" 
dx="0,-0.3,0,0,-0.3" 
class="s3_61"
>float</text>

<text 
x="184" 
y="230" 
dx="0,-0.3" 
class="s4_61"
>: </text>

<text 
x="201" 
y="230" 
dx="0,-0.3,0,0" 
class="s8_61"
>left</text>

<text 
x="234" 
y="230" 
dx="0,-0.3" 
class="s4_61"
>; </text>

<path d="M107.8,254.5l719.4,0l0,-20.6l-719.4,0l0,20.6Z" class="g2_61" />
<text 
x="110" 
y="251" 
class="s4_61"
>} </text>

<path d="M107.8,275l719.4,0l0,-20.5l-719.4,0l0,20.5Z" class="g2_61" />
<path d="M107.8,295.5l719.4,0l0,-20.5l-719.4,0l0,20.5Z" class="g2_61" />
<text 
x="110" 
y="292" 
dx="0,0,0,-0.3,0,-0.3,0,0,-0.3,0,-0.3,0,-0.3,0,0,-0.3,0,-0.3,0,-0.3,0,0,-0.3,0" 
class="s6_61"
>#destinationTranslation </text>

<text 
x="308" 
y="292" 
dx="0,-0.3" 
class="s4_61"
>{ </text>

<path d="M107.8,316.4l719.4,0l0,-20.9l-719.4,0l0,20.9Z" class="g2_61" />
<text 
x="143" 
y="312" 
dx="0,-0.3,0,0,-0.3,0" 
class="s3_61"
>cursor</text>

<text 
x="192" 
y="312" 
class="s4_61"
>: </text>

<text 
x="209" 
y="312" 
dx="0,0,0,-0.3" 
class="s8_61"
>text</text>

<text 
x="242" 
y="312" 
dx="0,-0.3" 
class="s4_61"
>; </text>

<path d="M107.8,337l719.4,0l0,-20.6l-719.4,0l0,20.6Z" class="g2_61" />
<text 
x="143" 
y="333" 
dx="0,-0.3,0,0,-0.3,0,-0.3,0,-0.3,0,0,-0.3,0" 
class="s3_61"
>margin-bottom</text>

<text 
x="250" 
y="333" 
class="s4_61"
>: </text>

<text 
x="267" 
y="333" 
class="s5_61"
>7px</text>

<text 
x="292" 
y="333" 
dx="0,-0.3" 
class="s4_61"
>; </text>

<path d="M107.8,357.5l719.4,0l0,-20.5l-719.4,0l0,20.5Z" class="g2_61" />
<text 
x="110" 
y="354" 
class="s4_61"
>} </text>

<path d="M107.8,378l719.4,0l0,-20.5l-719.4,0l0,20.5Z" class="g2_61" />
<path d="M107.8,398.9l719.4,0l0,-20.9l-719.4,0l0,20.9Z" class="g2_61" />
<text 
x="110" 
y="395" 
dx="0,0,0,-0.3,0,-0.3,0,0,-0.3" 
class="s6_61"
>#mainDiv </text>

<text 
x="184" 
y="395" 
dx="0,-0.3" 
class="s4_61"
>{ </text>

<path d="M107.8,419.5l719.4,0l0,-20.6l-719.4,0l0,20.6Z" class="g2_61" />
<text 
x="143" 
y="416" 
dx="0,-0.3,0,0,-0.3,0,-0.3,0,-0.3,0" 
class="s3_61"
>margin-top</text>

<text 
x="226" 
y="416" 
dx="0,-0.3" 
class="s4_61"
>: </text>

<text 
x="242" 
y="416" 
dx="0,-0.3,0,-0.3" 
class="s5_61"
>55px</text>

<text 
x="275" 
y="416" 
dx="0,-0.3" 
class="s4_61"
>; </text>

<path d="M107.8,440l719.4,0l0,-20.5l-719.4,0l0,20.5Z" class="g2_61" />
<text 
x="110" 
y="436" 
class="s4_61"
>} </text>

<path d="M107.8,460.5l719.4,0l0,-20.5l-719.4,0l0,20.5Z" class="g2_61" />
<path d="M107.8,481.4l719.4,0l0,-20.9l-719.4,0l0,20.9Z" class="g2_61" />
<text 
x="110" 
y="477" 
dx="0,0,0,-0.3,0,-0.3,0,0,-0.3" 
class="s6_61"
>.heading </text>

<text 
x="184" 
y="477" 
dx="0,-0.3" 
class="s4_61"
>{ </text>

<path d="M107.8,502l719.4,0l0,-20.6l-719.4,0l0,20.6Z" class="g2_61" />
<text 
x="143" 
y="498" 
dx="0,-0.3,0,0,-0.3,0,-0.3,0,-0.3,0" 
class="s3_61"
>text-align</text>

<text 
x="226" 
y="498" 
dx="0,-0.3" 
class="s4_61"
>: </text>

<text 
x="242" 
y="498" 
dx="0,-0.3,0,-0.3,0,0" 
class="s8_61"
>center</text>

<text 
x="292" 
y="498" 
dx="0,-0.3" 
class="s4_61"
>; </text>

<path d="M107.8,522.5l719.4,0l0,-20.5l-719.4,0l0,20.5Z" class="g2_61" />
<text 
x="143" 
y="519" 
dx="0,-0.3,0,0,-0.3,0,-0.3,0,-0.3,0,0" 
class="s3_61"
>font-family</text>

<text 
x="234" 
y="519" 
class="s4_61"
>: </text>

<text 
x="250" 
y="519" 
dx="0,0,-0.3,0,0,-0.3,0" 
class="s8_61"
>Verdana</text>

<text 
x="308" 
y="519" 
dx="0,-0.3" 
class="s4_61"
>; </text>

<path d="M107.8,543l719.4,0l0,-20.5l-719.4,0l0,20.5Z" class="g2_61" />
<text 
x="143" 
y="539" 
dx="0,-0.3,0,0,-0.3,0,-0.3,0,-0.3" 
class="s3_61"
>font-size</text>

<text 
x="217" 
y="539" 
class="s4_61"
>: </text>

<text 
x="234" 
y="539" 
dx="0,0,-0.3,0" 
class="s5_61"
>2rem</text>

<text 
x="267" 
y="539" 
dx="0,-0.3" 
class="s4_61"
>; </text>

<path d="M107.8,563.9l719.4,0l0,-20.9l-719.4,0l0,20.9Z" class="g2_61" />
<text 
x="110" 
y="560" 
class="s4_61"
>} </text>

<path d="M107.8,584.5l719.4,0l0,-20.6l-719.4,0l0,20.6Z" class="g2_61" />
<path d="M107.8,605l719.4,0l0,-20.5l-719.4,0l0,20.5Z" class="g2_61" />
<text 
x="110" 
y="601" 
dx="0,0,0,-0.3,0,-0.3,0,0,-0.3" 
class="s6_61"
>.italics </text>

<text 
x="184" 
y="601" 
dx="0,-0.3" 
class="s4_61"
>{ </text>

<path d="M107.8,625.5l719.4,0l0,-20.5l-719.4,0l0,20.5Z" class="g2_61" />
<text 
x="143" 
y="622" 
dx="0,-0.3,0,0,-0.3,0,-0.3,0,-0.3,0" 
class="s3_61"
>font-style</text>

<text 
x="226" 
y="622" 
dx="0,-0.3" 
class="s4_61"
>: </text>

<text 
x="242" 
y="622" 
dx="0,-0.3,0,-0.3,0,0" 
class="s8_61"
>italic</text>

<text 
x="292" 
y="622" 
dx="0,-0.3" 
class="s4_61"
>; </text>

<path d="M107.8,646.4l719.4,0l0,-20.9l-719.4,0l0,20.9Z" class="g2_61" />
<text 
x="110" 
y="642" 
class="s4_61"
>} </text>

<path d="M107.8,667l719.4,0l0,-20.6l-719.4,0l0,20.6Z" class="g2_61" />
<path d="M107.8,687.5l719.4,0l0,-20.5l-719.4,0l0,20.5Z" class="g2_61" />
<text 
x="110" 
y="684" 
dx="0,0,0,-0.3,0,-0.3,0,0,-0.3,0,-0.3,0.1" 
class="s6_61"
>.white-font </text>

<text 
x="209" 
y="684" 
dx="0,-0.3" 
class="s4_61"
>{ </text>

<path d="M107.8,708l719.4,0l0,-20.5l-719.4,0l0,20.5Z" class="g2_61" />
<text 
x="143" 
y="704" 
dx="0,-0.3,0,0,-0.3" 
class="s3_61"
>color</text>

<text 
x="184" 
y="704" 
dx="0,-0.3" 
class="s4_61"
>: </text>

<text 
x="201" 
y="704" 
dx="0,-0.3,0,0,-0.3" 
class="s8_61"
>white</text>

<text 
x="242" 
y="704" 
dx="0,-0.3" 
class="s4_61"
>; </text>

<path d="M107.8,728.9l719.4,0l0,-20.9l-719.4,0l0,20.9Z" class="g2_61" />
<text 
x="110" 
y="725" 
class="s4_61"
>} </text>

<path d="M107.8,749.5l719.4,0l0,-20.6l-719.4,0l0,20.6Z" class="g2_61" />
<path d="M107.8,770l719.4,0l0,-20.5l-719.4,0l0,20.5Z" class="g2_61" />
<text 
x="110" 
y="766" 
dx="0,0,0,-0.3,0,-0.3,0,0,-0.3,0,-0.3,0,-0.3" 
class="s6_61"
>.orange-font </text>

<text 
x="217" 
y="766" 
dx="0,-0.3" 
class="s4_61"
>{ </text>

<path d="M107.8,790.5l719.4,0l0,-20.5l-719.4,0l0,20.5Z" class="g2_61" />
<text 
x="143" 
y="787" 
dx="0,-0.3,0,0,-0.3" 
class="s3_61"
>color</text>

<text 
x="184" 
y="787" 
dx="0,-0.3" 
class="s4_61"
>: </text>

<text 
x="201" 
y="787" 
dx="0,-0.3,0,0,-0.3,0,-0.3" 
class="s8_61"
>#D9853B</text>

<text 
x="259" 
y="787" 
dx="0,-0.3" 
class="s4_61"
>; </text>

<path d="M107.8,811.4l719.4,0l0,-20.9l-719.4,0l0,20.9Z" class="g2_61" />
<text 
x="110" 
y="807" 
class="s4_61"
>} </text>

<path d="M107.8,832l719.4,0l0,-20.6l-719.4,0l0,20.6Z" class="g2_61" />
<path d="M107.8,852.5l719.4,0l0,-20.5l-719.4,0l0,20.5Z" class="g2_61" />
<text 
x="110" 
y="849" 
dx="0,0,0,-0.3,0,-0.3" 
class="s6_61"
>.blue </text>

<text 
x="159" 
y="849" 
dx="0,-0.3" 
class="s4_61"
>{ </text>

<path d="M107.8,873l719.4,0l0,-20.5l-719.4,0l0,20.5Z" class="g2_61" />
<text 
x="143" 
y="869" 
dx="0,-0.3,0,0,-0.3,0,-0.3,0,-0.3,0,0.1,-0.3,0,-0.3,0,-0.3" 
class="s3_61"
>background-color</text>

<text 
x="275" 
y="869" 
class="s4_61"
>: </text>

<text 
x="292" 
y="869" 
dx="0,0,-0.3,0,-0.3,0,0" 
class="s8_61"
>#0096c8</text>

<text 
x="350" 
y="869" 
dx="0,-0.3" 
class="s4_61"
>; </text>

<path d="M107.8,893.9l719.4,0l0,-20.9l-719.4,0l0,20.9Z" class="g2_61" />
<text 
x="110" 
y="890" 
class="s4_61"
>} </text>

<path d="M107.8,914.5l719.4,0l0,-20.6l-719.4,0l0,20.6Z" class="g2_61" />
<path d="M107.8,935l719.4,0l0,-20.5l-719.4,0l0,20.5Z" class="g2_61" />
<text 
x="110" 
y="931" 
dx="0,0,0,-0.3,0,-0.3,0,0,-0.3,0,-0.3,0,-0.3" 
class="s6_61"
>.medium-blue </text>

<text 
x="217" 
y="931" 
dx="0,-0.3" 
class="s4_61"
>{ </text>

<path d="M107.8,955.5l719.4,0l0,-20.5l-719.4,0l0,20.5Z" class="g2_61" />
<text 
x="143" 
y="952" 
dx="0,-0.3,0,0,-0.3,0,-0.3,0,-0.3,0,0.1,-0.3,0,-0.3,0,-0.3" 
class="s3_61"
>background-color</text>

<text 
x="275" 
y="952" 
class="s4_61"
>: </text>

<text 
x="292" 
y="952" 
dx="0,0,-0.3,0,-0.3,0,0" 
class="s8_61"
>#00acce</text>

<text 
x="350" 
y="952" 
dx="0,-0.3" 
class="s4_61"
>; </text>

<path d="M107.8,976.4l719.4,0l0,-20.9l-719.4,0l0,20.9Z" class="g2_61" />
<text 
x="110" 
y="972" 
class="s4_61"
>} </text>

<path d="M107.8,997l719.4,0l0,-20.6l-719.4,0l0,20.6Z" class="g2_61" />
<path d="M107.8,1017.5l719.4,0l0,-20.5l-719.4,0l0,20.5Z" class="g2_61" />
<text 
x="110" 
y="1014" 
dx="0,0,0,-0.3,0,-0.3,0,0,-0.3,0,-0.3,0.1" 
class="s6_61"
>.light-blue </text>

<text 
x="209" 
y="1014" 
dx="0,-0.3" 
class="s4_61"
>{ </text>

<path d="M107.8,1038l719.4,0l0,-20.5l-719.4,0l0,20.5Z" class="g2_61" />
<text 
x="143" 
y="1034" 
dx="0,-0.3,0,0,-0.3,0,-0.3,0,-0.3,0,0.1,-0.3,0,-0.3,0,-0.3" 
class="s3_61"
>background-color</text>

<text 
x="275" 
y="1034" 
class="s4_61"
>: </text>

<text 
x="292" 
y="1034" 
dx="0,0,-0.3,0,-0.3,0,0" 
class="s8_61"
>#56c5d0</text>

<text 
x="350" 
y="1034" 
dx="0,-0.3" 
class="s4_61"
>; </text>

<path d="M107.8,1058.9l719.4,0l0,-20.9l-719.4,0l0,20.9Z" class="g2_61" />
<text 
x="110" 
y="1055" 
class="s4_61"
>} </text>

<path d="M107.8,1079.5l719.4,0l0,-20.6l-719.4,0l0,20.6Z" class="g2_61" />


<!-- Any embedded fonts defined here -->
<style type="text/css" ><![CDATA[

@font-face {
	font-family: ArialNovaCond-Bold_d;
	src: url("fonts/ArialNovaCond-Bold_d.woff") format("woff");
}

@font-face {
	font-family: Menlo-Regular_bu;
	src: url("fonts/Menlo-Regular_bu.woff") format("woff");
}

@font-face {
	font-family: ArialNova-Light_n;
	src: url("fonts/ArialNova-Light_n.woff") format("woff");
}

]]></style>

</svg>
