<?xml version="1.0" encoding="UTF-8" standalone="no"?>
<!DOCTYPE svg PUBLIC "-//W3C//DTD SVG 1.1//EN"
"http://www.w3.org/Graphics/SVG/1.1/DTD/svg11.dtd">


<!-- Page 62 -->
<svg x="0" y="0" width="935" height="1210" viewBox="0 0 935 1210" version="1.1" xmlns="http://www.w3.org/2000/svg" xmlns:xlink="http://www.w3.org/1999/xlink"
style="display: block;margin-left: auto;margin-right: auto;">
<defs>

<style type="text/css"><![CDATA[

.g1_62{
fill: #D9D9D9;
}
.g2_62{
fill: #FFFFFF;
}

.s1_62{
font-size: 18.33px;
font-family: ArialNovaCond-Bold_d;
fill: #5A5A5A;
}
.s2_62{
font-size: 12.10px;
font-family: ArialNova-Light_n;
fill: #7F7F7F;
}
.s3_62{
font-size: 13.93px;
font-family: Menlo-Regular_bu;
fill: #800000;
}
.s4_62{
font-size: 13.93px;
font-family: Menlo-Regular_bu;
fill: #000000;
}
.s5_62{
font-size: 13.93px;
font-family: Menlo-Regular_bu;
fill: #FF0000;
}
.s6_62{
font-size: 13.93px;
font-family: Menlo-Regular_bu;
fill: #0451A5;
}
.s7_62{
font-size: 13.93px;
font-family: Menlo-Regular_bu;
fill: #09885A;
}
.s8_62{
font-size: 13.93px;
font-family: Menlo-Regular_bu;
fill: #008000;
}

]]></style>

</defs>
<path d="M0,0
L0,1210
L935,1210
L935,0 Z " 
fill="#FFFFFF" stroke="none" />
<text 
x="110" 
y="1106" 
dx="0,0,0,0.2" 
class="s1_62"
>62 |</text>

<text 
x="141" 
y="1106" 
dx="0,4.3,4.9,0,1.9,0,1.6,0,1.3,0,1.7,0,1.7,0,1.2,0,1.9,0,1.6,4.7,4.9,0,1.3,0,1.7,0,1.6,0,1.5,0,1.6,0,1.9,0,1.2,0,1.5,0,1.9,0,1.5,4.5,4.9,0,1.7,0,1.2,0,1.9,0,1.9,0,1.2,4.5,4.5,0,1.9,0,1.5,4.7,4.9,0,1.3,0,1.5,0,1.9,0,1.5,0,1.5,0,1.5,0,1.5,0,1.9,0,1.3,0,1.9,0,1.6,4.6,4.5,0,1.9,0,1.5,0,1.7,0,1.6,0,1.4,0,1.9,0,1.3,0,1.9,0,1.5,0,1.7,0,1.5,0,1.5,0,1.9" 
class="s2_62"
>A W e b - b a s e d T r a n s l a t i o n S y s t e m f o r M u l t i l i n g u a l C o d e - s w i t c h i n g</text>

<path d="M107.8,1086.4l719.4,0l0,-0.7l-719.4,0l0,0.7Z" class="g1_62" />
<path d="M107.8,130.5l719.4,0l0,-20.5l-719.4,0l0,20.5Z" class="g2_62" />
<text 
x="110" 
y="127" 
dx="0,0,0,-0.3,0,-0.3,0,0" 
class="s3_62"
>.orange </text>

<text 
x="176" 
y="127" 
dx="0,-0.3" 
class="s4_62"
>{ </text>

<path d="M107.8,151.4l719.4,0l0,-20.9l-719.4,0l0,20.9Z" class="g2_62" />
<text 
x="143" 
y="147" 
dx="0,-0.3,0,0,-0.3,0,-0.3,0,-0.3,0,0.1,-0.3,0,-0.3,0,-0.3" 
class="s5_62"
>background-color</text>

<text 
x="275" 
y="147" 
class="s4_62"
>: </text>

<text 
x="292" 
y="147" 
dx="0,0,-0.3,0,-0.3,0,0" 
class="s6_62"
>#D9853B</text>

<text 
x="350" 
y="147" 
dx="0,-0.3" 
class="s4_62"
>; </text>

<path d="M107.8,172l719.4,0l0,-20.6l-719.4,0l0,20.6Z" class="g2_62" />
<text 
x="110" 
y="168" 
class="s4_62"
>} </text>

<path d="M107.8,192.5l719.4,0l0,-20.5l-719.4,0l0,20.5Z" class="g2_62" />
<path d="M107.8,213l719.4,0l0,-20.5l-719.4,0l0,20.5Z" class="g2_62" />
<text 
x="110" 
y="209" 
dx="0,0,0,-0.3,0,-0.3,0,0,-0.3,0,-0.3,0,-0.3,0.1" 
class="s3_62"
>.light-orange </text>

<text 
x="226" 
y="209" 
dx="0,-0.3" 
class="s4_62"
>{ </text>

<path d="M107.8,233.9l719.4,0l0,-20.9l-719.4,0l0,20.9Z" class="g2_62" />
<text 
x="143" 
y="230" 
dx="0,-0.3,0,0,-0.3,0,-0.3,0,-0.3,0,0.1,-0.3,0,-0.3,0,-0.3" 
class="s5_62"
>background-color</text>

<text 
x="275" 
y="230" 
class="s4_62"
>: </text>

<text 
x="292" 
y="230" 
dx="0,0,-0.3,0,-0.3,0,0" 
class="s6_62"
>#f19341</text>

<text 
x="350" 
y="230" 
dx="0,-0.3" 
class="s4_62"
>; </text>

<path d="M107.8,254.5l719.4,0l0,-20.6l-719.4,0l0,20.6Z" class="g2_62" />
<text 
x="110" 
y="251" 
class="s4_62"
>} </text>

<path d="M107.8,275l719.4,0l0,-20.5l-719.4,0l0,20.5Z" class="g2_62" />
<path d="M107.8,295.5l719.4,0l0,-20.5l-719.4,0l0,20.5Z" class="g2_62" />
<text 
x="110" 
y="292" 
dx="0,0,0,-0.3,0,-0.3" 
class="s3_62"
>.grey </text>

<text 
x="159" 
y="292" 
dx="0,-0.3" 
class="s4_62"
>{ </text>

<path d="M107.8,316.4l719.4,0l0,-20.9l-719.4,0l0,20.9Z" class="g2_62" />
<text 
x="143" 
y="312" 
dx="0,-0.3,0,0,-0.3,0,-0.3,0,-0.3,0,0.1,-0.3,0,-0.3,0,-0.3" 
class="s5_62"
>background-color</text>

<text 
x="275" 
y="312" 
class="s4_62"
>: </text>

<text 
x="292" 
y="312" 
dx="0,0,-0.3,0,-0.3,0,0" 
class="s6_62"
>#ECECEA</text>

<text 
x="350" 
y="312" 
dx="0,-0.3" 
class="s4_62"
>; </text>

<path d="M107.8,337l719.4,0l0,-20.6l-719.4,0l0,20.6Z" class="g2_62" />
<text 
x="110" 
y="333" 
class="s4_62"
>} </text>

<path d="M107.8,357.5l719.4,0l0,-20.5l-719.4,0l0,20.5Z" class="g2_62" />
<path d="M107.8,378l719.4,0l0,-20.5l-719.4,0l0,20.5Z" class="g2_62" />
<text 
x="110" 
y="374" 
dx="0,0,0,-0.3,0,-0.3,0,0,-0.3,0,-0.3,0,-0.3" 
class="s3_62"
>.primaryFont </text>

<text 
x="217" 
y="374" 
dx="0,-0.3" 
class="s4_62"
>{ </text>

<path d="M107.8,398.9l719.4,0l0,-20.9l-719.4,0l0,20.9Z" class="g2_62" />
<text 
x="143" 
y="395" 
dx="0,-0.3,0,0,-0.3,0,-0.3,0,-0.3,0,0" 
class="s5_62"
>font-family</text>

<text 
x="234" 
y="395" 
dx="0,0,-0.3,0,-0.3,0,0,-0.3,0,-0.3,0,-0.3" 
class="s4_62"
>: OpenSans; </text>

<path d="M107.8,419.5l719.4,0l0,-20.6l-719.4,0l0,20.6Z" class="g2_62" />
<text 
x="110" 
y="416" 
class="s4_62"
>} </text>

<path d="M107.8,440l719.4,0l0,-20.5l-719.4,0l0,20.5Z" class="g2_62" />
<path d="M107.8,460.5l719.4,0l0,-20.5l-719.4,0l0,20.5Z" class="g2_62" />
<text 
x="110" 
y="457" 
dx="0,0,0,-0.3,0,-0.3,0,0,-0.3,0,-0.3,0,-0.3,0,0,-0.3,0,-0.3" 
class="s3_62"
>.primaryFont-bold </text>

<text 
x="259" 
y="457" 
dx="0,-0.3" 
class="s4_62"
>{ </text>

<path d="M107.8,481.4l719.4,0l0,-20.9l-719.4,0l0,20.9Z" class="g2_62" />
<text 
x="143" 
y="477" 
dx="0,-0.3,0,0,-0.3,0,-0.3,0,-0.3,0,0" 
class="s5_62"
>font-family</text>

<text 
x="234" 
y="477" 
dx="0,0,-0.3,0,-0.3,0,0,-0.3,0,-0.3,0,-0.3,0,0,-0.3,0,-0.3,0,-0.3,0,-0.3" 
class="s4_62"
>: OpenSans-SemiBold; </text>

<path d="M107.8,502l719.4,0l0,-20.6l-719.4,0l0,20.6Z" class="g2_62" />
<text 
x="110" 
y="498" 
class="s4_62"
>} </text>

<path d="M107.8,522.5l719.4,0l0,-20.5l-719.4,0l0,20.5Z" class="g2_62" />
<path d="M107.8,543l719.4,0l0,-20.5l-719.4,0l0,20.5Z" class="g2_62" />
<text 
x="110" 
y="539" 
dx="0,0,0,-0.3,0,-0.3,0,0,-0.3,0,-0.3,0,-0.3,0,0" 
class="s3_62"
>.secondaryFont </text>

<text 
x="234" 
y="539" 
dx="0,-0.3" 
class="s4_62"
>{ </text>

<path d="M107.8,563.9l719.4,0l0,-20.9l-719.4,0l0,20.9Z" class="g2_62" />
<text 
x="143" 
y="560" 
dx="0,-0.3,0,0,-0.3,0,-0.3,0,-0.3,0,0" 
class="s5_62"
>font-family</text>

<text 
x="234" 
y="560" 
dx="0,0,-0.3,0,-0.3,0,0,-0.3,0,-0.3,0,-0.3,0,-0.3" 
class="s4_62"
>: Montserrat; </text>

<path d="M107.8,584.5l719.4,0l0,-20.6l-719.4,0l0,20.6Z" class="g2_62" />
<text 
x="110" 
y="581" 
class="s4_62"
>} </text>

<path d="M107.8,605l719.4,0l0,-20.5l-719.4,0l0,20.5Z" class="g2_62" />
<path d="M107.8,625.5l719.4,0l0,-20.5l-719.4,0l0,20.5Z" class="g2_62" />
<text 
x="110" 
y="622" 
dx="0,0,0,-0.3,0,-0.3,0,0,-0.3,0,-0.3,0,-0.3,0,0,-0.3,0,-0.3,0,-0.3" 
class="s3_62"
>.secondaryFont-bold </text>

<text 
x="275" 
y="622" 
dx="0,-0.3" 
class="s4_62"
>{ </text>

<path d="M107.8,646.4l719.4,0l0,-20.9l-719.4,0l0,20.9Z" class="g2_62" />
<text 
x="143" 
y="642" 
dx="0,-0.3,0,0,-0.3,0,-0.3,0,-0.3,0,0" 
class="s5_62"
>font-family</text>

<text 
x="234" 
y="642" 
dx="0,0,-0.3,0,-0.3,0,0,-0.3,0,-0.3,0,-0.3,0,0,-0.3,0,-0.3,0,-0.3,0,0.1,-0.3,-0.3" 
class="s4_62"
>: Montserrat-SemiBold; </text>

<path d="M107.8,667l719.4,0l0,-20.6l-719.4,0l0,20.6Z" class="g2_62" />
<text 
x="110" 
y="663" 
class="s4_62"
>} </text>

<path d="M107.8,687.5l719.4,0l0,-20.5l-719.4,0l0,20.5Z" class="g2_62" />
<path d="M107.8,708l719.4,0l0,-20.5l-719.4,0l0,20.5Z" class="g2_62" />
<text 
x="110" 
y="704" 
dx="0,0,0,-0.3,0,-0.3,0,0,-0.3,0,-0.3,0,-0.3,0,0,-0.3,0,-0.3,0,-0.3,0" 
class="s3_62"
>#target::placeholder </text>

<text 
x="284" 
y="704" 
dx="0,-0.3" 
class="s4_62"
>{ </text>

<path d="M107.8,728.9l719.4,0l0,-20.9l-719.4,0l0,20.9Z" class="g2_62" />
<text 
x="143" 
y="725" 
dx="0,-0.3,0,0,-0.3" 
class="s5_62"
>color</text>

<text 
x="184" 
y="725" 
dx="0,-0.3" 
class="s4_62"
>: </text>

<text 
x="201" 
y="725" 
dx="0,-0.3,0,0,-0.3" 
class="s6_62"
>white</text>

<text 
x="242" 
y="725" 
dx="0,-0.3" 
class="s4_62"
>; </text>

<path d="M107.8,749.5l719.4,0l0,-20.6l-719.4,0l0,20.6Z" class="g2_62" />
<text 
x="143" 
y="746" 
dx="0,-0.3,0,0,-0.3,0,-0.3" 
class="s5_62"
>opacity</text>

<text 
x="201" 
y="746" 
dx="0,-0.3" 
class="s4_62"
>: </text>

<text 
x="217" 
y="746" 
class="s7_62"
>1</text>

<text 
x="226" 
y="746" 
dx="0,-0.3" 
class="s4_62"
>; </text>

<path d="M107.8,770l719.4,0l0,-20.5l-719.4,0l0,20.5Z" class="g2_62" />
<text 
x="143" 
y="766" 
dx="0,-0.3,0,0,-0.3,0,-0.3,0,-0.3,0,0,-0.3,0,-0.3" 
class="s8_62"
>/* Firefox */ </text>

<path d="M107.8,790.5l719.4,0l0,-20.5l-719.4,0l0,20.5Z" class="g2_62" />
<text 
x="110" 
y="787" 
class="s4_62"
>} </text>

<path d="M107.8,811.4l719.4,0l0,-20.9l-719.4,0l0,20.9Z" class="g2_62" />
<path d="M107.8,832l719.4,0l0,-20.6l-719.4,0l0,20.6Z" class="g2_62" />
<text 
x="110" 
y="828" 
dx="0,0,0,-0.3,0,-0.3,0,0,-0.3,0,-0.3,0,-0.3,0,0,-0.3,0,-0.3,0,-0.3,0,0,-0.3,0,-0.3,0,-0.3,0,0,-0.3" 
class="s3_62"
>#target:-ms-input-placeholder </text>

<text 
x="358" 
y="828" 
dx="0,-0.3" 
class="s4_62"
>{ </text>

<path d="M107.8,852.5l719.4,0l0,-20.5l-719.4,0l0,20.5Z" class="g2_62" />
<text 
x="143" 
y="849" 
dx="0,-0.3,0,0,-0.3,0,-0.3,0,-0.3,0,0,-0.3,0,-0.3,0,-0.3,0,0,-0.3,0,-0.3,0,-0.3,0.1,0,-0.3,0,-0.3,0,-0.3" 
class="s8_62"
>/* Internet Explorer 10-11 */ </text>

<path d="M107.8,873l719.4,0l0,-20.5l-719.4,0l0,20.5Z" class="g2_62" />
<text 
x="143" 
y="869" 
dx="0,-0.3,0,0,-0.3" 
class="s5_62"
>color</text>

<text 
x="184" 
y="869" 
dx="0,-0.3" 
class="s4_62"
>: </text>

<text 
x="201" 
y="869" 
dx="0,-0.3,0,0,-0.3" 
class="s6_62"
>white</text>

<text 
x="242" 
y="869" 
dx="0,-0.3" 
class="s4_62"
>; </text>

<path d="M107.8,893.9l719.4,0l0,-20.9l-719.4,0l0,20.9Z" class="g2_62" />
<text 
x="110" 
y="890" 
class="s4_62"
>} </text>

<path d="M107.8,914.5l719.4,0l0,-20.6l-719.4,0l0,20.6Z" class="g2_62" />
<path d="M107.8,935l719.4,0l0,-20.5l-719.4,0l0,20.5Z" class="g2_62" />
<text 
x="110" 
y="931" 
dx="0,0,0,-0.3,0,-0.3,0,0,-0.3,0,-0.3,0,-0.3,0,0,-0.3,0,-0.3,0,-0.3,0,0,-0.3,0,-0.3,0,-0.3,0,0,-0.3,0" 
class="s3_62"
>#target::-ms-input-placeholder </text>

<text 
x="366" 
y="931" 
dx="0,-0.3" 
class="s4_62"
>{ </text>

<path d="M107.8,955.5l719.4,0l0,-20.5l-719.4,0l0,20.5Z" class="g2_62" />
<text 
x="143" 
y="952" 
dx="0,-0.3,0,0,-0.3,0,-0.3,0,-0.3,0,0,-0.3,0,-0.3,0,-0.3,0,0,-0.3,0,-0.3" 
class="s8_62"
>/* Microsoft Edge */ </text>

<path d="M107.8,976.4l719.4,0l0,-20.9l-719.4,0l0,20.9Z" class="g2_62" />
<text 
x="143" 
y="972" 
dx="0,-0.3,0,0,-0.3" 
class="s5_62"
>color</text>

<text 
x="184" 
y="972" 
dx="0,-0.3" 
class="s4_62"
>: </text>

<text 
x="201" 
y="972" 
dx="0,-0.3,0,0,-0.3" 
class="s6_62"
>white</text>

<text 
x="242" 
y="972" 
dx="0,-0.3" 
class="s4_62"
>; </text>

<path d="M107.8,997l719.4,0l0,-20.6l-719.4,0l0,20.6Z" class="g2_62" />
<text 
x="110" 
y="993" 
class="s4_62"
>} </text>

<path d="M107.8,1017.5l719.4,0l0,-20.5l-719.4,0l0,20.5Z" class="g2_62" />
<path d="M107.8,1038l719.4,0l0,-20.5l-719.4,0l0,20.5Z" class="g2_62" />
<text 
x="110" 
y="1034" 
dx="0,0,0,-0.3,0,-0.3,0,0,-0.3,0,-0.3,0,-0.3,0,0,-0.3,0,-0.3,0,-0.3,0,0,-0.3,0,-0.3,0,-0.3,0,0,-0.3,0,-0.3,0,-0.3,0,0,-0.4" 
class="s3_62"
>#destinationTranslation::placeholder </text>

<text 
x="416" 
y="1034" 
dx="0,-0.3" 
class="s4_62"
>{ </text>

<path d="M107.8,1058.9l719.4,0l0,-20.9l-719.4,0l0,20.9Z" class="g2_62" />
<text 
x="143" 
y="1055" 
dx="0,-0.3,0,0,-0.3" 
class="s5_62"
>color</text>

<text 
x="184" 
y="1055" 
dx="0,-0.3" 
class="s4_62"
>: </text>

<text 
x="201" 
y="1055" 
dx="0,-0.3,0,0,-0.3" 
class="s6_62"
>white</text>

<text 
x="242" 
y="1055" 
dx="0,-0.3" 
class="s4_62"
>; </text>

<path d="M107.8,1079.5l719.4,0l0,-20.6l-719.4,0l0,20.6Z" class="g2_62" />
<text 
x="143" 
y="1076" 
dx="0,-0.3,0,0,-0.3,0,-0.3" 
class="s5_62"
>opacity</text>

<text 
x="201" 
y="1076" 
dx="0,-0.3" 
class="s4_62"
>: </text>

<text 
x="217" 
y="1076" 
class="s7_62"
>1</text>

<text 
x="226" 
y="1076" 
dx="0,-0.3" 
class="s4_62"
>; </text>



<!-- Any embedded fonts defined here -->
<style type="text/css" ><![CDATA[

@font-face {
	font-family: ArialNovaCond-Bold_d;
	src: url("fonts/ArialNovaCond-Bold_d.woff") format("woff");
}

@font-face {
	font-family: Menlo-Regular_bu;
	src: url("fonts/Menlo-Regular_bu.woff") format("woff");
}

@font-face {
	font-family: ArialNova-Light_n;
	src: url("fonts/ArialNova-Light_n.woff") format("woff");
}

]]></style>

</svg>
