<?xml version="1.0" encoding="UTF-8" standalone="no"?>
<!DOCTYPE svg PUBLIC "-//W3C//DTD SVG 1.1//EN"
"http://www.w3.org/Graphics/SVG/1.1/DTD/svg11.dtd">


<!-- Page 67 -->
<svg x="0" y="0" width="935" height="1210" viewBox="0 0 935 1210" version="1.1" xmlns="http://www.w3.org/2000/svg" xmlns:xlink="http://www.w3.org/1999/xlink"
style="display: block;margin-left: auto;margin-right: auto;">
<defs>

<style type="text/css"><![CDATA[

.g1_67{
fill: #D9D9D9;
}
.g2_67{
fill: #FFFFFF;
}

.s1_67{
font-size: 18.33px;
font-family: ArialNovaCond-Bold_d;
fill: #5A5A5A;
}
.s2_67{
font-size: 12.10px;
font-family: ArialNova-Light_n;
fill: #7F7F7F;
}
.s3_67{
font-size: 13.93px;
font-family: Menlo-Regular_bu;
fill: #0000FF;
}
.s4_67{
font-size: 13.93px;
font-family: Menlo-Regular_bu;
fill: #000000;
}
.s5_67{
font-size: 13.93px;
font-family: Menlo-Regular_bu;
fill: #001080;
}
.s6_67{
font-size: 13.93px;
font-family: Menlo-Regular_bu;
fill: #A31515;
}
.s7_67{
font-size: 13.93px;
font-family: Menlo-Regular_bu;
fill: #795E26;
}
.s8_67{
font-size: 13.93px;
font-family: Menlo-Regular_bu;
fill: #267F99;
}
.s9_67{
font-size: 13.93px;
font-family: Menlo-Regular_bu;
fill: #AF00DB;
}
.s10_67{
font-size: 13.93px;
font-family: Menlo-Regular_bu;
fill: #09885A;
}
.s11_67{
font-size: 13.93px;
font-family: Menlo-Regular_bu;
fill: #008000;
}

]]></style>

</defs>
<path d="M0,0
L0,1210
L935,1210
L935,0 Z " 
fill="#FFFFFF" stroke="none" />
<text 
x="110" 
y="1106" 
dx="0,0,0,0.2" 
class="s1_67"
>67 |</text>

<text 
x="141" 
y="1106" 
dx="0,4.3,4.9,0,1.9,0,1.6,0,1.3,0,1.7,0,1.7,0,1.2,0,1.9,0,1.6,4.7,4.9,0,1.3,0,1.7,0,1.6,0,1.5,0,1.6,0,1.9,0,1.2,0,1.5,0,1.9,0,1.5,4.5,4.9,0,1.7,0,1.2,0,1.9,0,1.9,0,1.2,4.5,4.5,0,1.9,0,1.5,4.7,4.9,0,1.3,0,1.5,0,1.9,0,1.5,0,1.5,0,1.5,0,1.5,0,1.9,0,1.3,0,1.9,0,1.6,4.6,4.5,0,1.9,0,1.5,0,1.7,0,1.6,0,1.4,0,1.9,0,1.3,0,1.9,0,1.5,0,1.7,0,1.5,0,1.5,0,1.9" 
class="s2_67"
>A W e b - b a s e d T r a n s l a t i o n S y s t e m f o r M u l t i l i n g u a l C o d e - s w i t c h i n g</text>

<path d="M107.8,1086.4l719.4,0l0,-0.7l-719.4,0l0,0.7Z" class="g1_67" />
<path d="M107.8,130.5l719.4,0l0,-20.5l-719.4,0l0,20.5Z" class="g2_67" />
<text 
x="176" 
y="127" 
dx="0,0,-0.3,0" 
class="s3_67"
>this</text>

<text 
x="209" 
y="127" 
class="s4_67"
>.</text>

<text 
x="217" 
y="127" 
dx="0,0,-0.3,0,-0.3,0,-0.3,0,0,-0.3,0" 
class="s5_67"
>clearTarget</text>

<text 
x="308" 
y="127" 
class="s4_67"
>.</text>

<text 
x="317" 
y="127" 
dx="0,-0.3,0,0,-0.3,0,-0.3,0,-0.3,0,0,-0.3,0" 
class="s5_67"
>nativeElement</text>

<text 
x="424" 
y="127" 
class="s4_67"
>.</text>

<text 
x="433" 
y="127" 
dx="0,0,-0.3,0,-0.3,0,-0.3,0,0" 
class="s5_67"
>disabled </text>

<text 
x="507" 
y="127" 
class="s4_67"
>= </text>

<text 
x="523" 
y="127" 
dx="0,0,0,-0.3" 
class="s3_67"
>true</text>

<text 
x="557" 
y="127" 
dx="0,-0.3" 
class="s4_67"
>; </text>

<path d="M107.8,151.4l719.4,0l0,-20.9l-719.4,0l0,20.9Z" class="g2_67" />
<text 
x="176" 
y="147" 
dx="0,0,-0.3,0" 
class="s3_67"
>this</text>

<text 
x="209" 
y="147" 
class="s4_67"
>.</text>

<text 
x="217" 
y="147" 
dx="0,0,-0.3,0,-0.3,0,-0.3,0,0,-0.3,0,-0.3,0,-0.3,0,0,-0.3,0,-0.3,0,-0.3,0" 
class="s5_67"
>destinationTranslation</text>

<text 
x="400" 
y="147" 
class="s4_67"
>.</text>

<text 
x="408" 
y="147" 
dx="0,0,-0.3,0,0,-0.3,0,-0.3,0,-0.3,0,0,-0.3" 
class="s5_67"
>nativeElement</text>

<text 
x="515" 
y="147" 
class="s4_67"
>.</text>

<text 
x="523" 
y="147" 
dx="0,0,0,-0.3,0,-0.3" 
class="s5_67"
>value </text>

<text 
x="573" 
y="147" 
dx="0,-0.3" 
class="s4_67"
>= </text>

<text 
x="590" 
y="147" 
class="s6_67"
>''</text>

<text 
x="606" 
y="147" 
dx="0,-0.3" 
class="s4_67"
>; </text>

<path d="M107.8,172l719.4,0l0,-20.6l-719.4,0l0,20.6Z" class="g2_67" />
<text 
x="176" 
y="168" 
dx="0,0,-0.3,0" 
class="s3_67"
>this</text>

<text 
x="209" 
y="168" 
class="s4_67"
>.</text>

<text 
x="217" 
y="168" 
dx="0,0,-0.3,0,-0.3,0,-0.3,0,0,-0.3,0,-0.3,0,-0.3,0,0,-0.3,0,-0.3,0,-0.3,0" 
class="s5_67"
>destinationTranslation</text>

<text 
x="400" 
y="168" 
class="s4_67"
>.</text>

<text 
x="408" 
y="168" 
dx="0,0,-0.3,0,0,-0.3,0,-0.3,0,-0.3,0,0,-0.3" 
class="s5_67"
>nativeElement</text>

<text 
x="515" 
y="168" 
class="s4_67"
>.</text>

<text 
x="523" 
y="168" 
dx="0,0,0,-0.3,0,-0.3,0,-0.3,0,0,-0.3,0" 
class="s5_67"
>placeholder </text>

<text 
x="623" 
y="168" 
class="s4_67"
>= </text>

<text 
x="639" 
y="168" 
dx="0,0,0,-0.3,0,-0.3,0,-0.3,0,0,-0.3,0,-0.3,0,-0.3,0" 
class="s6_67"
>'Translating...'</text>

<text 
x="772" 
y="168" 
dx="0,-0.3" 
class="s4_67"
>; </text>

<path d="M107.8,192.5l719.4,0l0,-20.5l-719.4,0l0,20.5Z" class="g2_67" />
<path d="M107.8,213l719.4,0l0,-20.5l-719.4,0l0,20.5Z" class="g2_67" />
<text 
x="176" 
y="209" 
dx="0,0,-0.3,0,-0.3,0,0,-0.3,0,-0.3" 
class="s7_67"
>setTimeout</text>

<text 
x="259" 
y="209" 
dx="0,-0.3,0,0" 
class="s4_67"
>(() </text>

<text 
x="292" 
y="209" 
dx="0,0,-0.3" 
class="s3_67"
>=&gt; </text>

<text 
x="317" 
y="209" 
dx="0,-0.3" 
class="s4_67"
>{ </text>

<path d="M107.8,233.9l719.4,0l0,-20.9l-719.4,0l0,20.9Z" class="g2_67" />
<text 
x="209" 
y="230" 
dx="0,0,0,-0.3" 
class="s3_67"
>this</text>

<text 
x="242" 
y="230" 
class="s4_67"
>.</text>

<text 
x="250" 
y="230" 
dx="0,0,-0.3,0,0,-0.3,0,-0.3,0,-0.3,0,0,-0.3" 
class="s7_67"
>translateThis</text>

<text 
x="358" 
y="230" 
class="s4_67"
>(</text>

<text 
x="366" 
y="230" 
dx="0,0,-0.3,0" 
class="s3_67"
>this</text>

<text 
x="400" 
y="230" 
class="s4_67"
>.</text>

<text 
x="408" 
y="230" 
dx="0,0,-0.3,0,0,-0.3" 
class="s5_67"
>target</text>

<text 
x="457" 
y="230" 
class="s4_67"
>.</text>

<text 
x="466" 
y="230" 
dx="0,0,-0.3,0,0,-0.3,0,-0.3,0,0,-0.3,0,-0.3" 
class="s5_67"
>nativeElement</text>

<text 
x="573" 
y="230" 
class="s4_67"
>.</text>

<text 
x="581" 
y="230" 
dx="0,0,0,-0.3,0" 
class="s5_67"
>value</text>

<text 
x="623" 
y="230" 
dx="0,-0.3" 
class="s4_67"
>) </text>

<path d="M107.8,254.5l719.4,0l0,-20.6l-719.4,0l0,20.6Z" class="g2_67" />
<text 
x="209" 
y="251" 
class="s4_67"
>.</text>

<text 
x="217" 
y="251" 
dx="0,0,-0.3,0" 
class="s7_67"
>then</text>

<text 
x="250" 
y="251" 
class="s4_67"
>((</text>

<text 
x="267" 
y="251" 
dx="0,0,0,-0.3" 
class="s5_67"
>data</text>

<text 
x="300" 
y="251" 
dx="0,-0.3" 
class="s4_67"
>: </text>

<text 
x="317" 
y="251" 
dx="0,-0.3,0" 
class="s8_67"
>any</text>

<text 
x="342" 
y="251" 
dx="0,-0.3" 
class="s4_67"
>) </text>

<text 
x="358" 
y="251" 
dx="0,-0.3,0" 
class="s3_67"
>=&gt; </text>

<text 
x="383" 
y="251" 
dx="0,-0.3" 
class="s4_67"
>{ </text>

<path d="M107.8,275l719.4,0l0,-20.5l-719.4,0l0,20.5Z" class="g2_67" />
<text 
x="242" 
y="271" 
dx="0,-0.3,0,-0.3" 
class="s9_67"
>for </text>

<text 
x="275" 
y="271" 
class="s4_67"
>(</text>

<text 
x="284" 
y="271" 
dx="0,-0.3,0,-0.3,0,-0.3" 
class="s3_67"
>const </text>

<text 
x="333" 
y="271" 
dx="0,0,-0.3,0,-0.3,0,-0.3,0,0" 
class="s5_67"
>language </text>

<text 
x="408" 
y="271" 
dx="0,0,-0.3" 
class="s3_67"
>of </text>

<text 
x="433" 
y="271" 
dx="0,0,-0.3,0" 
class="s5_67"
>data</text>

<text 
x="466" 
y="271" 
class="s4_67"
>.</text>

<text 
x="474" 
y="271" 
dx="0,-0.3,0,0,-0.3,0,-0.3,0,0,-0.3,0,-0.3,0,-0.3,0,0,-0.3" 
class="s5_67"
>detectedLanguages</text>

<text 
x="615" 
y="271" 
dx="0,-0.3,0,-0.3" 
class="s4_67"
>) { </text>

<path d="M107.8,295.5l719.4,0l0,-20.5l-719.4,0l0,20.5Z" class="g2_67" />
<text 
x="275" 
y="292" 
dx="0,0,-0.3,0,-0.3,0" 
class="s3_67"
>const </text>

<text 
x="325" 
y="292" 
dx="0,0,0,-0.3,0" 
class="s5_67"
>temp </text>

<text 
x="366" 
y="292" 
class="s4_67"
>= </text>

<text 
x="383" 
y="292" 
dx="0,0,0,-0.3,0,-0.3,0,0,-0.3,0,-0.3,0,-0.3" 
class="s5_67"
>languageCodes</text>

<text 
x="490" 
y="292" 
class="s4_67"
>[</text>

<text 
x="499" 
y="292" 
dx="0,-0.3,0,-0.3,0,0,-0.3,0" 
class="s5_67"
>language</text>

<text 
x="565" 
y="292" 
class="s4_67"
>.</text>

<text 
x="573" 
y="292" 
dx="0,-0.3,0,0,-0.3,0,-0.3,0,-0.3,0,0" 
class="s7_67"
>toLowerCase</text>

<text 
x="664" 
y="292" 
dx="0,0,-0.3,0,-0.3" 
class="s4_67"
>()]; </text>

<path d="M107.8,316.4l719.4,0l0,-20.9l-719.4,0l0,20.9Z" class="g2_67" />
<text 
x="275" 
y="312" 
dx="0,0,-0.3" 
class="s9_67"
>if </text>

<text 
x="300" 
y="312" 
class="s4_67"
>(</text>

<text 
x="308" 
y="312" 
dx="0,0,-0.3,0" 
class="s3_67"
>this</text>

<text 
x="342" 
y="312" 
class="s4_67"
>.</text>

<text 
x="350" 
y="312" 
dx="0,0,-0.3,0,-0.3,0,0,-0.3,0,-0.3,0,0,-0.3,0,-0.3,0,-0.3" 
class="s5_67"
>detectedLanguages</text>

<text 
x="490" 
y="312" 
class="s4_67"
>.</text>

<text 
x="499" 
y="312" 
dx="0,-0.3,0,-0.3,0,0,-0.3" 
class="s7_67"
>indexOf</text>

<text 
x="557" 
y="312" 
class="s4_67"
>(</text>

<text 
x="565" 
y="312" 
dx="0,0,-0.3,0" 
class="s5_67"
>temp</text>

<text 
x="598" 
y="312" 
dx="0,-0.3,0,-0.3" 
class="s4_67"
>) &lt; </text>

<text 
x="631" 
y="312" 
class="s10_67"
>0</text>

<text 
x="639" 
y="312" 
dx="0,0,0,-0.3" 
class="s4_67"
>) { </text>

<path d="M107.8,337l719.4,0l0,-20.6l-719.4,0l0,20.6Z" class="g2_67" />
<text 
x="308" 
y="333" 
dx="0,0,-0.3,0" 
class="s3_67"
>this</text>

<text 
x="342" 
y="333" 
class="s4_67"
>.</text>

<text 
x="350" 
y="333" 
dx="0,0,-0.3,0,-0.3,0,0,-0.3,0,-0.3,0,0,-0.3,0,-0.3,0,-0.3" 
class="s5_67"
>detectedLanguages</text>

<text 
x="490" 
y="333" 
class="s4_67"
>.</text>

<text 
x="499" 
y="333" 
dx="0,-0.3,0,-0.3" 
class="s7_67"
>push</text>

<text 
x="532" 
y="333" 
class="s4_67"
>(</text>

<text 
x="540" 
y="333" 
dx="0,-0.3,0,-0.3" 
class="s5_67"
>temp</text>

<text 
x="573" 
y="333" 
dx="0,-0.3,-0.3" 
class="s4_67"
>); </text>

<path d="M107.8,357.5l719.4,0l0,-20.5l-719.4,0l0,20.5Z" class="g2_67" />
<text 
x="275" 
y="354" 
dx="0,-0.3" 
class="s4_67"
>} </text>

<path d="M107.8,378l719.4,0l0,-20.5l-719.4,0l0,20.5Z" class="g2_67" />
<text 
x="242" 
y="374" 
dx="0,-0.3" 
class="s4_67"
>} </text>

<path d="M107.8,398.9l719.4,0l0,-20.9l-719.4,0l0,20.9Z" class="g2_67" />
<text 
x="242" 
y="395" 
dx="0,-0.3,0,-0.3" 
class="s3_67"
>this</text>

<text 
x="275" 
y="395" 
class="s4_67"
>.</text>

<text 
x="284" 
y="395" 
dx="0,-0.3,0,-0.3,0,-0.3,0,0,-0.3,0,-0.3,0,-0.3,0,0,-0.3,0,-0.3,0,0,-0.3,0" 
class="s5_67"
>destinationTranslation</text>

<text 
x="466" 
y="395" 
class="s4_67"
>.</text>

<text 
x="474" 
y="395" 
dx="0,-0.3,0,0,-0.3,0,-0.3,0,0,-0.3,0,-0.3,0" 
class="s5_67"
>nativeElement</text>

<text 
x="581" 
y="395" 
class="s4_67"
>.</text>

<text 
x="590" 
y="395" 
dx="0,0,-0.3,0,-0.3,0" 
class="s5_67"
>value </text>

<text 
x="639" 
y="395" 
class="s4_67"
>= </text>

<text 
x="656" 
y="395" 
dx="0,-0.3,0,-0.3" 
class="s5_67"
>data</text>

<text 
x="689" 
y="395" 
class="s4_67"
>.</text>

<text 
x="697" 
y="395" 
dx="0,0,0,-0.3,0,-0.3,0,-0.3,0,0,-0.3" 
class="s5_67"
>translation</text>

<text 
x="789" 
y="395" 
dx="0,-0.3" 
class="s4_67"
>; </text>

<path d="M107.8,419.5l719.4,0l0,-20.6l-719.4,0l0,20.6Z" class="g2_67" />
<text 
x="209" 
y="416" 
dx="0,0,0,-0.3" 
class="s4_67"
>}); </text>

<path d="M107.8,440l719.4,0l0,-20.5l-719.4,0l0,20.5Z" class="g2_67" />
<text 
x="176" 
y="436" 
dx="0,0,-0.3" 
class="s4_67"
>}, </text>

<text 
x="201" 
y="436" 
dx="0,-0.3,0" 
class="s10_67"
>100</text>

<text 
x="226" 
y="436" 
dx="0,-0.3,-0.3" 
class="s4_67"
>); </text>

<path d="M107.8,460.5l719.4,0l0,-20.5l-719.4,0l0,20.5Z" class="g2_67" />
<text 
x="143" 
y="457" 
dx="0,-0.3" 
class="s4_67"
>} </text>

<path d="M107.8,481.4l719.4,0l0,-20.9l-719.4,0l0,20.9Z" class="g2_67" />
<path d="M107.8,502l719.4,0l0,-20.6l-719.4,0l0,20.6Z" class="g2_67" />
<text 
x="143" 
y="498" 
dx="0,-0.3,0,0,-0.3,0,-0.3" 
class="s3_67"
>public </text>

<text 
x="201" 
y="498" 
dx="0,-0.3,0,0,-0.3,0,-0.3,0,-0.3,0,0,-0.3,0" 
class="s7_67"
>translateThis</text>

<text 
x="308" 
y="498" 
class="s4_67"
>(</text>

<text 
x="317" 
y="498" 
dx="0,-0.3,0,0,-0.3" 
class="s5_67"
>query</text>

<text 
x="358" 
y="498" 
dx="0,-0.3" 
class="s4_67"
>: </text>

<text 
x="375" 
y="498" 
dx="0,-0.3,0,0,-0.3,0" 
class="s8_67"
>string</text>

<text 
x="424" 
y="498" 
dx="0,0,0,-0.3" 
class="s4_67"
>) { </text>

<path d="M107.8,522.5l719.4,0l0,-20.5l-719.4,0l0,20.5Z" class="g2_67" />
<text 
x="176" 
y="519" 
dx="0,0,-0.3,0,-0.3,0,0" 
class="s9_67"
>return </text>

<text 
x="234" 
y="519" 
dx="0,0,-0.3,0" 
class="s3_67"
>new </text>

<text 
x="267" 
y="519" 
dx="0,0,0,-0.3,0,-0.3,0" 
class="s8_67"
>Promise</text>

<text 
x="325" 
y="519" 
class="s4_67"
>((</text>

<text 
x="342" 
y="519" 
dx="0,-0.3,0" 
class="s5_67"
>res</text>

<text 
x="366" 
y="519" 
class="s4_67"
>, </text>

<text 
x="383" 
y="519" 
class="s5_67"
>rej</text>

<text 
x="408" 
y="519" 
class="s4_67"
>) </text>

<text 
x="424" 
y="519" 
class="s3_67"
>=&gt; </text>

<text 
x="449" 
y="519" 
dx="0,-0.3" 
class="s4_67"
>{ </text>

<path d="M107.8,543l719.4,0l0,-20.5l-719.4,0l0,20.5Z" class="g2_67" />
<text 
x="209" 
y="539" 
dx="0,0,0,-0.3,0,-0.3" 
class="s3_67"
>const </text>

<text 
x="259" 
y="539" 
dx="0,-0.3,0,0.1" 
class="s5_67"
>api </text>

<text 
x="292" 
y="539" 
class="s4_67"
>= </text>

<text 
x="308" 
y="539" 
dx="0,0,-0.3,0,0,-0.3,0,-0.3,0,-0.3,0,0,-0.3,0,-0.3,0,0,-0.3,0,-0.4,0,-0.3,0,0,-0.3,0,-0.3,0,0,-0.3,0,-0.3,0,-0.3,0,0,-0.3,0,-0.3,0" 
class="s6_67"
>'https://codeswitch-translator.site/api'</text>

<text 
x="639" 
y="539" 
dx="0,-0.3" 
class="s4_67"
>; </text>

<path d="M107.8,563.9l719.4,0l0,-20.9l-719.4,0l0,20.9Z" class="g2_67" />
<text 
x="209" 
y="560" 
dx="0,0,0,-0.3,0,-0.3" 
class="s3_67"
>const </text>

<text 
x="259" 
y="560" 
dx="0,-0.3,0,0.1" 
class="s5_67"
>url </text>

<text 
x="292" 
y="560" 
class="s4_67"
>= </text>

<text 
x="308" 
y="560" 
dx="0,0,-0.3,0" 
class="s5_67"
>api </text>

<text 
x="342" 
y="560" 
dx="0,-0.3" 
class="s4_67"
>+ </text>

<text 
x="358" 
y="560" 
dx="0,-0.3,0,-0.3" 
class="s6_67"
>'/' </text>

<text 
x="391" 
y="560" 
class="s4_67"
>+ </text>

<text 
x="408" 
y="560" 
dx="0,0,-0.3,0,0,-0.3,0,-0.3,0,-0.3,0,0,-0.3,0,-0.3,0,0,-0.3" 
class="s7_67"
>encodeURIComponent</text>

<text 
x="557" 
y="560" 
class="s4_67"
>(</text>

<text 
x="565" 
y="560" 
dx="0,0,-0.3,0,0" 
class="s5_67"
>query</text>

<text 
x="606" 
y="560" 
dx="0,0,-0.3,0" 
class="s4_67"
>) + </text>

<text 
x="639" 
y="560" 
dx="0,0,0,-0.3" 
class="s6_67"
>'/' </text>

<text 
x="673" 
y="560" 
dx="0,-0.3" 
class="s4_67"
>+ </text>

<path d="M107.8,584.5l719.4,0l0,-20.6l-719.4,0l0,20.6Z" class="g2_67" />
<text 
x="110" 
y="581" 
dx="0,0,0,-0.3" 
class="s3_67"
>this</text>

<text 
x="143" 
y="581" 
class="s4_67"
>.</text>

<text 
x="151" 
y="581" 
dx="0,0,0,-0.3,0,-0.3,0,-0.3,0,0,-0.3,0,-0.3,0,-0.3,0" 
class="s5_67"
>targetedLanguage</text>

<text 
x="284" 
y="581" 
dx="0,-0.3" 
class="s4_67"
>; </text>

<path d="M107.8,605l719.4,0l0,-20.5l-719.4,0l0,20.5Z" class="g2_67" />
<text 
x="209" 
y="601" 
dx="0,0,0,-0.3,0,-0.3,0" 
class="s7_67"
>request</text>

<text 
x="267" 
y="601" 
class="s4_67"
>(</text>

<text 
x="275" 
y="601" 
dx="0,0,-0.3" 
class="s5_67"
>url</text>

<text 
x="300" 
y="601" 
dx="0,-0.3,0" 
class="s4_67"
>, (</text>

<text 
x="325" 
y="601" 
dx="0,0,0,-0.3,0" 
class="s5_67"
>error</text>

<text 
x="366" 
y="601" 
class="s4_67"
>, </text>

<text 
x="383" 
y="601" 
dx="0,0,0,-0.3,0,-0.3,0,0" 
class="s5_67"
>response</text>

<text 
x="449" 
y="601" 
class="s4_67"
>, </text>

<text 
x="466" 
y="601" 
dx="0,0,-0.3,0" 
class="s5_67"
>body</text>

<text 
x="499" 
y="601" 
dx="0,-0.3" 
class="s4_67"
>) </text>

<text 
x="515" 
y="601" 
dx="0,-0.3,0" 
class="s3_67"
>=&gt; </text>

<text 
x="540" 
y="601" 
dx="0,-0.3" 
class="s4_67"
>{ </text>

<path d="M107.8,625.5l719.4,0l0,-20.5l-719.4,0l0,20.5Z" class="g2_67" />
<text 
x="242" 
y="622" 
dx="0,-0.3,0,-0.3,0.1,0,-0.3,0,-0.3,0,-0.3,0,0,-0.3,0,-0.3,0,-0.3,0,0,-0.3,0,-0.3,0,0,-0.3,0,-0.3,0,-0.3,0,0,-0.3,0,-0.3,0,0,-0.3,0,-0.4" 
class="s11_67"
>// Enable button and remove placeholder </text>

<path d="M107.8,646.4l719.4,0l0,-20.9l-719.4,0l0,20.9Z" class="g2_67" />
<text 
x="242" 
y="642" 
dx="0,-0.3,0,-0.3" 
class="s3_67"
>this</text>

<text 
x="275" 
y="642" 
class="s4_67"
>.</text>

<text 
x="284" 
y="642" 
dx="0,-0.3,0,-0.3,0,-0.3,0,0,-0.3,0,-0.3,0" 
class="s5_67"
>translateBtn</text>

<text 
x="383" 
y="642" 
class="s4_67"
>.</text>

<text 
x="391" 
y="642" 
dx="0,0,-0.3,0,-0.3,0,0,-0.3,0,-0.3,0,-0.3,0" 
class="s5_67"
>nativeElement</text>

<text 
x="499" 
y="642" 
class="s4_67"
>.</text>

<text 
x="507" 
y="642" 
dx="0,0,-0.3,0,0,-0.3,0,-0.3,0" 
class="s5_67"
>disabled </text>

<text 
x="581" 
y="642" 
class="s4_67"
>= </text>

<text 
x="598" 
y="642" 
dx="0,-0.3,0,-0.3,0" 
class="s3_67"
>false</text>

<text 
x="639" 
y="642" 
dx="0,-0.3" 
class="s4_67"
>; </text>

<path d="M107.8,667l719.4,0l0,-20.6l-719.4,0l0,20.6Z" class="g2_67" />
<text 
x="242" 
y="663" 
dx="0,-0.3,0,-0.3" 
class="s3_67"
>this</text>

<text 
x="275" 
y="663" 
class="s4_67"
>.</text>

<text 
x="284" 
y="663" 
dx="0,-0.3,0,-0.3,0,-0.3,0,0,-0.3,0,-0.3" 
class="s5_67"
>clearTarget</text>

<text 
x="375" 
y="663" 
class="s4_67"
>.</text>

<text 
x="383" 
y="663" 
dx="0,0,0,-0.3,0,-0.3,0,0,-0.3,0,-0.3,0,-0.3" 
class="s5_67"
>nativeElement</text>

<text 
x="490" 
y="663" 
class="s4_67"
>.</text>

<text 
x="499" 
y="663" 
dx="0,-0.3,0,-0.3,0,0,-0.3,0,-0.3" 
class="s5_67"
>disabled </text>

<text 
x="573" 
y="663" 
dx="0,-0.3" 
class="s4_67"
>= </text>

<text 
x="590" 
y="663" 
dx="0,0,-0.3,0,-0.3" 
class="s3_67"
>false</text>

<text 
x="631" 
y="663" 
dx="0,-0.3" 
class="s4_67"
>; </text>

<path d="M107.8,687.5l719.4,0l0,-20.5l-719.4,0l0,20.5Z" class="g2_67" />
<text 
x="242" 
y="684" 
dx="0,-0.3,0,-0.3" 
class="s3_67"
>this</text>

<text 
x="275" 
y="684" 
class="s4_67"
>.</text>

<text 
x="284" 
y="684" 
dx="0,-0.3,0,-0.3,0,-0.3,0,0,-0.3,0,-0.3,0,-0.3,0,0,-0.3,0,-0.3,0,0,-0.3,0" 
class="s5_67"
>destinationTranslation</text>

<text 
x="466" 
y="684" 
class="s4_67"
>.</text>

<text 
x="474" 
y="684" 
dx="0,-0.3,0,0,-0.3,0,-0.3,0,0,-0.3,0,-0.3,0" 
class="s5_67"
>nativeElement</text>

<text 
x="581" 
y="684" 
class="s4_67"
>.</text>

<text 
x="590" 
y="684" 
dx="0,0,-0.3,0,-0.3,0,-0.3,0,0,-0.3,0,-0.3" 
class="s5_67"
>placeholder </text>

<text 
x="689" 
y="684" 
dx="0,-0.3" 
class="s4_67"
>= </text>

<text 
x="706" 
y="684" 
class="s6_67"
>''</text>

<text 
x="722" 
y="684" 
dx="0,-0.3" 
class="s4_67"
>; </text>

<path d="M107.8,708l719.4,0l0,-20.5l-719.4,0l0,20.5Z" class="g2_67" />
<text 
x="242" 
y="704" 
dx="0,-0.3,0,-0.3,0,0.1" 
class="s3_67"
>const </text>

<text 
x="292" 
y="704" 
dx="0,0,-0.3,0,-0.3" 
class="s5_67"
>json </text>

<text 
x="333" 
y="704" 
class="s4_67"
>= </text>

<text 
x="350" 
y="704" 
dx="0,0,-0.3,0" 
class="s8_67"
>JSON</text>

<text 
x="383" 
y="704" 
class="s4_67"
>.</text>

<text 
x="391" 
y="704" 
dx="0,0,-0.3,0,-0.3" 
class="s7_67"
>parse</text>

<text 
x="433" 
y="704" 
class="s4_67"
>(</text>

<text 
x="441" 
y="704" 
dx="0,-0.3,0,-0.3" 
class="s5_67"
>body</text>

<text 
x="474" 
y="704" 
dx="0,-0.3,0" 
class="s4_67"
>); </text>

<path d="M107.8,728.9l719.4,0l0,-20.9l-719.4,0l0,20.9Z" class="g2_67" />
<text 
x="242" 
y="725" 
dx="0,-0.3,0" 
class="s7_67"
>res</text>

<text 
x="267" 
y="725" 
class="s4_67"
>(</text>

<text 
x="275" 
y="725" 
dx="0,0,-0.3,0" 
class="s5_67"
>json</text>

<text 
x="308" 
y="725" 
dx="0,0,-0.3" 
class="s4_67"
>); </text>

<path d="M107.8,749.5l719.4,0l0,-20.6l-719.4,0l0,20.6Z" class="g2_67" />
<text 
x="209" 
y="746" 
dx="0,0,0,-0.3" 
class="s4_67"
>}); </text>

<path d="M107.8,770l719.4,0l0,-20.5l-719.4,0l0,20.5Z" class="g2_67" />
<text 
x="176" 
y="766" 
dx="0,0,-0.3,-0.3" 
class="s4_67"
>}); </text>

<path d="M107.8,790.5l719.4,0l0,-20.5l-719.4,0l0,20.5Z" class="g2_67" />
<text 
x="143" 
y="787" 
dx="0,-0.3" 
class="s4_67"
>} </text>

<path d="M107.8,811.4l719.4,0l0,-20.9l-719.4,0l0,20.9Z" class="g2_67" />
<path d="M107.8,832l719.4,0l0,-20.6l-719.4,0l0,20.6Z" class="g2_67" />
<text 
x="143" 
y="828" 
dx="0,-0.3,0,0,-0.3,0,-0.3" 
class="s3_67"
>public </text>

<text 
x="201" 
y="828" 
dx="0,-0.3,0,0,-0.3,0,-0.3,0" 
class="s7_67"
>clearAll</text>

<text 
x="267" 
y="828" 
dx="0,0,0,-0.3,-0.3" 
class="s4_67"
>() { </text>

<path d="M107.8,852.5l719.4,0l0,-20.5l-719.4,0l0,20.5Z" class="g2_67" />
<text 
x="176" 
y="849" 
dx="0,0,-0.3,0" 
class="s3_67"
>this</text>

<text 
x="209" 
y="849" 
class="s4_67"
>.</text>

<text 
x="217" 
y="849" 
dx="0,0,-0.3,0,-0.3,0" 
class="s5_67"
>target</text>

<text 
x="267" 
y="849" 
class="s4_67"
>.</text>

<text 
x="275" 
y="849" 
dx="0,0,-0.3,0,-0.3,0,-0.3,0,0,-0.3,0,-0.3,0" 
class="s5_67"
>nativeElement</text>

<text 
x="383" 
y="849" 
class="s4_67"
>.</text>

<text 
x="391" 
y="849" 
dx="0,0,-0.3,0,-0.3,0" 
class="s5_67"
>value </text>

<text 
x="441" 
y="849" 
dx="0,-0.3" 
class="s4_67"
>= </text>

<text 
x="457" 
y="849" 
dx="0,-0.3" 
class="s6_67"
>''</text>

<text 
x="474" 
y="849" 
dx="0,-0.3" 
class="s4_67"
>; </text>

<path d="M107.8,873l719.4,0l0,-20.5l-719.4,0l0,20.5Z" class="g2_67" />
<text 
x="176" 
y="869" 
dx="0,0,-0.3,0" 
class="s3_67"
>this</text>

<text 
x="209" 
y="869" 
class="s4_67"
>.</text>

<text 
x="217" 
y="869" 
dx="0,0,-0.3,0,-0.3,0,-0.3,0,0,-0.3,0,-0.3,0,-0.3,0,0,-0.3,0,-0.3,0,-0.3,0" 
class="s5_67"
>destinationTranslation</text>

<text 
x="400" 
y="869" 
class="s4_67"
>.</text>

<text 
x="408" 
y="869" 
dx="0,0,-0.3,0,0,-0.3,0,-0.3,0,-0.3,0,0,-0.3" 
class="s5_67"
>nativeElement</text>

<text 
x="515" 
y="869" 
class="s4_67"
>.</text>

<text 
x="523" 
y="869" 
dx="0,0,0,-0.3,0,-0.3" 
class="s5_67"
>value </text>

<text 
x="573" 
y="869" 
dx="0,-0.3" 
class="s4_67"
>= </text>

<text 
x="590" 
y="869" 
class="s6_67"
>''</text>

<text 
x="606" 
y="869" 
dx="0,-0.3" 
class="s4_67"
>; </text>

<path d="M107.8,893.9l719.4,0l0,-20.9l-719.4,0l0,20.9Z" class="g2_67" />
<text 
x="176" 
y="890" 
dx="0,0,-0.3,0" 
class="s3_67"
>this</text>

<text 
x="209" 
y="890" 
class="s4_67"
>.</text>

<text 
x="217" 
y="890" 
dx="0,0,-0.3,0,-0.3,0,-0.3,0,0,-0.3,0,-0.3,0,-0.3,0,0,-0.3,0" 
class="s5_67"
>detectedLanguages </text>

<text 
x="366" 
y="890" 
dx="0,0,-0.3,0,0,-0.3" 
class="s4_67"
>= []; </text>

<path d="M107.8,914.5l719.4,0l0,-20.6l-719.4,0l0,20.6Z" class="g2_67" />
<text 
x="143" 
y="911" 
dx="0,-0.3" 
class="s4_67"
>} </text>

<path d="M107.8,935l719.4,0l0,-20.5l-719.4,0l0,20.5Z" class="g2_67" />
<path d="M107.8,955.5l719.4,0l0,-20.5l-719.4,0l0,20.5Z" class="g2_67" />
<text 
x="143" 
y="952" 
dx="0,-0.3,0,0,-0.3,0,-0.3" 
class="s3_67"
>public </text>

<text 
x="201" 
y="952" 
dx="0,-0.3,0,0,-0.3,0,-0.3,0,-0.3,0,0,-0.3,0" 
class="s7_67"
>checkDetected</text>

<text 
x="308" 
y="952" 
dx="0,0,-0.3,0,-0.3" 
class="s4_67"
>() { </text>

<path d="M107.8,976.4l719.4,0l0,-20.9l-719.4,0l0,20.9Z" class="g2_67" />
<text 
x="176" 
y="972" 
dx="0,0,-0.3" 
class="s9_67"
>if </text>

<text 
x="201" 
y="972" 
class="s4_67"
>(</text>

<text 
x="209" 
y="972" 
dx="0,0,0,-0.3" 
class="s3_67"
>this</text>

<text 
x="242" 
y="972" 
class="s4_67"
>.</text>

<text 
x="250" 
y="972" 
dx="0,0,-0.3,0,0,-0.3,0,-0.3,0,-0.3,0,0,-0.3,0,-0.3,0,-0.3" 
class="s5_67"
>detectedLanguages</text>

<text 
x="391" 
y="972" 
class="s4_67"
>.</text>

<text 
x="400" 
y="972" 
dx="0,-0.3,0,-0.3,0,0,-0.3" 
class="s5_67"
>length </text>

<text 
x="457" 
y="972" 
dx="0,-0.3" 
class="s4_67"
>&lt; </text>

<text 
x="474" 
y="972" 
class="s10_67"
>1</text>

<text 
x="482" 
y="972" 
dx="0,0,0,-0.3" 
class="s4_67"
>) { </text>

<path d="M107.8,997l719.4,0l0,-20.6l-719.4,0l0,20.6Z" class="g2_67" />
<text 
x="209" 
y="993" 
dx="0,0,0,-0.3,0,-0.3,0" 
class="s9_67"
>return </text>

<text 
x="267" 
y="993" 
dx="0,0,0,-0.3,0" 
class="s3_67"
>false</text>

<text 
x="308" 
y="993" 
dx="0,-0.3" 
class="s4_67"
>; </text>

<path d="M107.8,1017.5l719.4,0l0,-20.5l-719.4,0l0,20.5Z" class="g2_67" />
<text 
x="176" 
y="1014" 
class="s4_67"
>} </text>

<text 
x="192" 
y="1014" 
dx="0,0,-0.3,0,0" 
class="s9_67"
>else </text>

<text 
x="234" 
y="1014" 
dx="0,-0.3" 
class="s4_67"
>{ </text>

<path d="M107.8,1038l719.4,0l0,-20.5l-719.4,0l0,20.5Z" class="g2_67" />
<text 
x="209" 
y="1034" 
dx="0,0,0,-0.3,0,-0.3,0" 
class="s9_67"
>return </text>

<text 
x="267" 
y="1034" 
dx="0,0,0,-0.3" 
class="s3_67"
>true</text>

<text 
x="300" 
y="1034" 
dx="0,-0.3" 
class="s4_67"
>; </text>

<path d="M107.8,1058.9l719.4,0l0,-20.9l-719.4,0l0,20.9Z" class="g2_67" />
<text 
x="176" 
y="1055" 
dx="0,-0.3" 
class="s4_67"
>} </text>

<path d="M107.8,1079.5l719.4,0l0,-20.6l-719.4,0l0,20.6Z" class="g2_67" />
<text 
x="143" 
y="1076" 
dx="0,-0.3" 
class="s4_67"
>} </text>



<!-- Any embedded fonts defined here -->
<style type="text/css" ><![CDATA[

@font-face {
	font-family: ArialNovaCond-Bold_d;
	src: url("fonts/ArialNovaCond-Bold_d.woff") format("woff");
}

@font-face {
	font-family: Menlo-Regular_bu;
	src: url("fonts/Menlo-Regular_bu.woff") format("woff");
}

@font-face {
	font-family: ArialNova-Light_n;
	src: url("fonts/ArialNova-Light_n.woff") format("woff");
}

]]></style>

</svg>
