<?xml version="1.0" encoding="UTF-8" standalone="no"?>
<!DOCTYPE svg PUBLIC "-//W3C//DTD SVG 1.1//EN"
"http://www.w3.org/Graphics/SVG/1.1/DTD/svg11.dtd">


<!-- Page 68 -->
<svg x="0" y="0" width="935" height="1210" viewBox="0 0 935 1210" version="1.1" xmlns="http://www.w3.org/2000/svg" xmlns:xlink="http://www.w3.org/1999/xlink"
style="display: block;margin-left: auto;margin-right: auto;">
<defs>

<style type="text/css"><![CDATA[

.g1_68{
fill: #D9D9D9;
}
.g2_68{
fill: #FFFFFF;
}

.s1_68{
font-size: 18.33px;
font-family: ArialNovaCond-Bold_d;
fill: #5A5A5A;
}
.s2_68{
font-size: 12.10px;
font-family: ArialNova-Light_n;
fill: #7F7F7F;
}
.s3_68{
font-size: 13.93px;
font-family: Menlo-Regular_bu;
fill: #0000FF;
}
.s4_68{
font-size: 13.93px;
font-family: Menlo-Regular_bu;
fill: #795E26;
}
.s5_68{
font-size: 13.93px;
font-family: Menlo-Regular_bu;
fill: #000000;
}
.s6_68{
font-size: 13.93px;
font-family: Menlo-Regular_bu;
fill: #001080;
}
.s7_68{
font-size: 13.93px;
font-family: Menlo-Regular_bu;
fill: #A31515;
}
.s8_68{
font-size: 13.93px;
font-family: Menlo-Regular_bu;
fill: #AF00DB;
}

]]></style>

</defs>
<path d="M0,0
L0,1210
L935,1210
L935,0 Z " 
fill="#FFFFFF" stroke="none" />
<text 
x="110" 
y="1106" 
dx="0,0,0,0.2" 
class="s1_68"
>68 |</text>

<text 
x="141" 
y="1106" 
dx="0,4.3,4.9,0,1.9,0,1.6,0,1.3,0,1.7,0,1.7,0,1.2,0,1.9,0,1.6,4.7,4.9,0,1.3,0,1.7,0,1.6,0,1.5,0,1.6,0,1.9,0,1.2,0,1.5,0,1.9,0,1.5,4.5,4.9,0,1.7,0,1.2,0,1.9,0,1.9,0,1.2,4.5,4.5,0,1.9,0,1.5,4.7,4.9,0,1.3,0,1.5,0,1.9,0,1.5,0,1.5,0,1.5,0,1.5,0,1.9,0,1.3,0,1.9,0,1.6,4.6,4.5,0,1.9,0,1.5,0,1.7,0,1.6,0,1.4,0,1.9,0,1.3,0,1.9,0,1.5,0,1.7,0,1.5,0,1.5,0,1.9" 
class="s2_68"
>A W e b - b a s e d T r a n s l a t i o n S y s t e m f o r M u l t i l i n g u a l C o d e - s w i t c h i n g</text>

<path d="M107.8,1086.4l719.4,0l0,-0.7l-719.4,0l0,0.7Z" class="g1_68" />
<path d="M107.8,130.5l719.4,0l0,-20.5l-719.4,0l0,20.5Z" class="g2_68" />
<path d="M107.8,151.4l719.4,0l0,-20.9l-719.4,0l0,20.9Z" class="g2_68" />
<text 
x="143" 
y="147" 
dx="0,-0.3,0,0,-0.3,0,-0.3" 
class="s3_68"
>public </text>

<text 
x="201" 
y="147" 
dx="0,-0.3,0,0,-0.3,0,-0.3,0,-0.3,0,0,-0.3" 
class="s4_68"
>getLanguages</text>

<text 
x="300" 
y="147" 
dx="0,-0.3,0,-0.3,-0.3" 
class="s5_68"
>() { </text>

<path d="M107.8,172l719.4,0l0,-20.6l-719.4,0l0,20.6Z" class="g2_68" />
<text 
x="176" 
y="168" 
dx="0,0,-0.3,0" 
class="s3_68"
>let </text>

<text 
x="209" 
y="168" 
dx="0,0,0,-0.3,0,-0.3,0,-0.3,0,0" 
class="s6_68"
>languages </text>

<text 
x="292" 
y="168" 
class="s5_68"
>= </text>

<text 
x="308" 
y="168" 
class="s7_68"
>''</text>

<text 
x="325" 
y="168" 
dx="0,-0.3" 
class="s5_68"
>; </text>

<path d="M107.8,192.5l719.4,0l0,-20.5l-719.4,0l0,20.5Z" class="g2_68" />
<text 
x="176" 
y="189" 
dx="0,0,-0.3,0" 
class="s8_68"
>for </text>

<text 
x="209" 
y="189" 
class="s5_68"
>(</text>

<text 
x="217" 
y="189" 
dx="0,0,-0.3,0,-0.3,0" 
class="s3_68"
>const </text>

<text 
x="267" 
y="189" 
dx="0,0,0,-0.3,0" 
class="s6_68"
>lang </text>

<text 
x="308" 
y="189" 
dx="0,0,-0.3,0,0,-0.3,0" 
class="s3_68"
>of this</text>

<text 
x="366" 
y="189" 
class="s5_68"
>.</text>

<text 
x="375" 
y="189" 
dx="0,-0.3,0,0,-0.3,0,-0.3,0,0,-0.3,0,-0.3,0,-0.3,0,0,-0.3" 
class="s6_68"
>detectedLanguages</text>

<text 
x="515" 
y="189" 
dx="0,-0.3,0,-0.3" 
class="s5_68"
>) { </text>

<path d="M107.8,213l719.4,0l0,-20.5l-719.4,0l0,20.5Z" class="g2_68" />
<text 
x="209" 
y="209" 
class="s8_68"
>if </text>

<text 
x="234" 
y="209" 
class="s5_68"
>(</text>

<text 
x="242" 
y="209" 
dx="0,-0.3,0,-0.3,0.1" 
class="s6_68"
>lang </text>

<text 
x="284" 
y="209" 
dx="0,-0.3,0,-0.3" 
class="s5_68"
>!== </text>

<text 
x="317" 
y="209" 
dx="0,-0.3,0,0,-0.3,0,-0.3,0,-0.3" 
class="s3_68"
>undefined</text>

<text 
x="391" 
y="209" 
dx="0,0,-0.3,-0.3" 
class="s5_68"
>) { </text>

<path d="M107.8,233.9l719.4,0l0,-20.9l-719.4,0l0,20.9Z" class="g2_68" />
<text 
x="242" 
y="230" 
dx="0,-0.3,0" 
class="s8_68"
>if </text>

<text 
x="267" 
y="230" 
class="s5_68"
>(</text>

<text 
x="275" 
y="230" 
dx="0,0,-0.3,0,-0.3,0,-0.3,0,0,-0.3" 
class="s6_68"
>languages </text>

<text 
x="358" 
y="230" 
dx="0,-0.3,0,-0.3" 
class="s5_68"
>!== </text>

<text 
x="391" 
y="230" 
class="s7_68"
>''</text>

<text 
x="408" 
y="230" 
dx="0,0,-0.3,-0.3" 
class="s5_68"
>) { </text>

<path d="M107.8,254.5l719.4,0l0,-20.6l-719.4,0l0,20.6Z" class="g2_68" />
<text 
x="275" 
y="251" 
dx="0,0,-0.3,0,-0.3,0,-0.3,0,0,-0.3" 
class="s6_68"
>languages </text>

<text 
x="358" 
y="251" 
dx="0,-0.3,0" 
class="s5_68"
>+= </text>

<text 
x="383" 
y="251" 
dx="0,0,0,-0.3" 
class="s7_68"
>', '</text>

<text 
x="416" 
y="251" 
dx="0,-0.3" 
class="s5_68"
>; </text>

<path d="M107.8,275l719.4,0l0,-20.5l-719.4,0l0,20.5Z" class="g2_68" />
<text 
x="242" 
y="271" 
dx="0,-0.3" 
class="s5_68"
>} </text>

<path d="M107.8,295.5l719.4,0l0,-20.5l-719.4,0l0,20.5Z" class="g2_68" />
<text 
x="242" 
y="292" 
dx="0,-0.3,0,-0.3,0,0,-0.3,0,-0.3,0.1" 
class="s6_68"
>languages </text>

<text 
x="325" 
y="292" 
class="s5_68"
>+= </text>

<text 
x="350" 
y="292" 
dx="0,0,-0.3,0" 
class="s6_68"
>lang</text>

<text 
x="383" 
y="292" 
dx="0,-0.3" 
class="s5_68"
>; </text>

<path d="M107.8,316.4l719.4,0l0,-20.9l-719.4,0l0,20.9Z" class="g2_68" />
<text 
x="209" 
y="312" 
dx="0,-0.3" 
class="s5_68"
>} </text>

<path d="M107.8,337l719.4,0l0,-20.6l-719.4,0l0,20.6Z" class="g2_68" />
<text 
x="176" 
y="333" 
dx="0,-0.3" 
class="s5_68"
>} </text>

<path d="M107.8,357.5l719.4,0l0,-20.5l-719.4,0l0,20.5Z" class="g2_68" />
<text 
x="176" 
y="354" 
dx="0,0,-0.3,0,-0.3,0,0" 
class="s8_68"
>return </text>

<text 
x="234" 
y="354" 
dx="0,0,-0.3,0,-0.3,0,0,-0.3,0" 
class="s6_68"
>languages</text>

<text 
x="308" 
y="354" 
dx="0,-0.3" 
class="s5_68"
>; </text>

<path d="M107.8,378l719.4,0l0,-20.5l-719.4,0l0,20.5Z" class="g2_68" />
<text 
x="143" 
y="374" 
dx="0,-0.3" 
class="s5_68"
>} </text>

<path d="M107.8,398.9l719.4,0l0,-20.9l-719.4,0l0,20.9Z" class="g2_68" />
<path d="M107.8,419.5l719.4,0l0,-20.6l-719.4,0l0,20.6Z" class="g2_68" />
<text 
x="143" 
y="416" 
dx="0,-0.3,0,0,-0.3,0,-0.3" 
class="s3_68"
>public </text>

<text 
x="201" 
y="416" 
dx="0,-0.3,0,0,-0.3,0,-0.3,0,-0.3,0,0,-0.3,0,-0.3,0,-0.3,0,0,-0.3,0" 
class="s4_68"
>selectTargetLanguage</text>

<text 
x="366" 
y="416" 
class="s5_68"
>(</text>

<text 
x="375" 
y="416" 
dx="0,-0.3,0,0,-0.3" 
class="s6_68"
>event</text>

<text 
x="416" 
y="416" 
dx="0,-0.3,0,-0.3" 
class="s5_68"
>) { </text>

<path d="M107.8,440l719.4,0l0,-20.5l-719.4,0l0,20.5Z" class="g2_68" />
<text 
x="176" 
y="436" 
dx="0,0,-0.3,0" 
class="s3_68"
>this</text>

<text 
x="209" 
y="436" 
class="s5_68"
>.</text>

<text 
x="217" 
y="436" 
dx="0,0,-0.3,0,-0.3,0,-0.3,0,0,-0.3,0,-0.3,0,-0.3,0,0,-0.4" 
class="s6_68"
>targetedLanguage </text>

<text 
x="358" 
y="436" 
dx="0,-0.3" 
class="s5_68"
>= </text>

<text 
x="375" 
y="436" 
dx="0,-0.3,0,0,-0.3" 
class="s6_68"
>event</text>

<text 
x="416" 
y="436" 
dx="0,-0.3" 
class="s5_68"
>; </text>

<path d="M107.8,460.5l719.4,0l0,-20.5l-719.4,0l0,20.5Z" class="g2_68" />
<text 
x="143" 
y="457" 
dx="0,-0.3" 
class="s5_68"
>} </text>

<path d="M107.8,481.4l719.4,0l0,-20.9l-719.4,0l0,20.9Z" class="g2_68" />
<text 
x="110" 
y="477" 
class="s5_68"
>} </text>

<path d="M107.8,502l719.4,0l0,-20.6l-719.4,0l0,20.6Z" class="g2_68" />


<!-- Any embedded fonts defined here -->
<style type="text/css" ><![CDATA[

@font-face {
	font-family: ArialNovaCond-Bold_d;
	src: url("fonts/ArialNovaCond-Bold_d.woff") format("woff");
}

@font-face {
	font-family: Menlo-Regular_bu;
	src: url("fonts/Menlo-Regular_bu.woff") format("woff");
}

@font-face {
	font-family: ArialNova-Light_n;
	src: url("fonts/ArialNova-Light_n.woff") format("woff");
}

]]></style>

</svg>
