<?xml version="1.0" encoding="UTF-8" standalone="no"?>
<!DOCTYPE svg PUBLIC "-//W3C//DTD SVG 1.1//EN"
"http://www.w3.org/Graphics/SVG/1.1/DTD/svg11.dtd">


<!-- Page 69 -->
<svg x="0" y="0" width="935" height="1210" viewBox="0 0 935 1210" version="1.1" xmlns="http://www.w3.org/2000/svg" xmlns:xlink="http://www.w3.org/1999/xlink"
style="display: block;margin-left: auto;margin-right: auto;">
<defs>

<style type="text/css"><![CDATA[

.g1_69{
fill: #D9D9D9;
}
.g2_69{
fill: #FFFFFF;
}
.g3_69{
fill: #5A5A5A;
}

.s1_69{
font-size: 18.33px;
font-family: ArialNovaCond-Bold_d;
fill: #5A5A5A;
}
.s2_69{
font-size: 12.10px;
font-family: ArialNova-Light_n;
fill: #7F7F7F;
}
.s3_69{
font-size: 18.33px;
font-family: Calibri-Light_r;
fill: #44546A;
}
.s4_69{
font-size: 14.67px;
font-family: Calibri-Light_r;
fill: #44546A;
}
.s5_69{
font-size: 13.93px;
font-family: Menlo-Regular_bu;
fill: #AF00DB;
}
.s6_69{
font-size: 13.93px;
font-family: Menlo-Regular_bu;
fill: #000000;
}
.s7_69{
font-size: 13.93px;
font-family: Menlo-Regular_bu;
fill: #001080;
}
.s8_69{
font-size: 13.93px;
font-family: Menlo-Regular_bu;
fill: #A31515;
}
.s9_69{
font-size: 13.93px;
font-family: Menlo-Regular_bu;
fill: #795E26;
}
.s10_69{
font-size: 13.93px;
font-family: Menlo-Regular_bu;
fill: #0000FF;
}
.s11_69{
font-size: 13.93px;
font-family: Menlo-Regular_bu;
fill: #267F99;
}
.s12_69{
font-size: 18.33px;
font-family: Consolas_c7;
fill: #5A5A5A;
}
.s13_69{
font-size: 13.93px;
font-family: Menlo-Regular_bu;
fill: #0451A5;
}

]]></style>

</defs>
<path d="M0,0
L0,1210
L935,1210
L935,0 Z " 
fill="#FFFFFF" stroke="none" />
<text 
x="110" 
y="1106" 
dx="0,0,0,0.2" 
class="s1_69"
>69 |</text>

<text 
x="141" 
y="1106" 
dx="0,4.3,4.9,0,1.9,0,1.6,0,1.3,0,1.7,0,1.7,0,1.2,0,1.9,0,1.6,4.7,4.9,0,1.3,0,1.7,0,1.6,0,1.5,0,1.6,0,1.9,0,1.2,0,1.5,0,1.9,0,1.5,4.5,4.9,0,1.7,0,1.2,0,1.9,0,1.9,0,1.2,4.5,4.5,0,1.9,0,1.5,4.7,4.9,0,1.3,0,1.5,0,1.9,0,1.5,0,1.5,0,1.5,0,1.5,0,1.9,0,1.3,0,1.9,0,1.6,4.6,4.5,0,1.9,0,1.5,0,1.7,0,1.6,0,1.4,0,1.9,0,1.3,0,1.9,0,1.5,0,1.7,0,1.5,0,1.5,0,1.9" 
class="s2_69"
>A W e b - b a s e d T r a n s l a t i o n S y s t e m f o r M u l t i l i n g u a l C o d e - s w i t c h i n g</text>

<path d="M107.8,1086.4l719.4,0l0,-0.7l-719.4,0l0,0.7Z" class="g1_69" />
<text 
x="110" 
y="127" 
class="s3_69"
>F</text>

<text 
x="119" 
y="127" 
dx="0,1.6,1.6" 
class="s4_69"
>ILE</text>

<text 
x="141" 
y="127" 
class="s3_69"
>:</text>

<text 
x="152" 
y="127" 
dx="0,1.5,1.6,1.2" 
class="s4_69"
>MAIN</text>

<text 
x="192" 
y="127" 
class="s3_69"
>.</text>

<text 
x="198" 
y="127" 
dx="0,1.3" 
class="s4_69"
>TS</text>

<path d="M107.8,157.7l719.4,0l0,-16.2l-719.4,0l0,16.2Z" class="g2_69" />
<text 
x="110" 
y="154" 
dx="0,0,0,-0.3,0,-0.3,0" 
class="s5_69"
>import </text>

<text 
x="168" 
y="154" 
dx="0,-0.3" 
class="s6_69"
>{ </text>

<text 
x="184" 
y="154" 
dx="0,-0.3,0,-0.3,0,0,-0.3,0,-0.3,0,-0.3,0,0,-0.3,0.1" 
class="s7_69"
>enableProdMode </text>

<text 
x="308" 
y="154" 
class="s6_69"
>} </text>

<text 
x="325" 
y="154" 
dx="0,0,0,-0.3,0" 
class="s5_69"
>from </text>

<text 
x="366" 
y="154" 
dx="0,0,-0.3,0,0,-0.3,0,-0.3,0,0,-0.3,0,-0.3,0,-0.3" 
class="s8_69"
>'@angular/core'</text>

<text 
x="490" 
y="154" 
dx="0,-0.3" 
class="s6_69"
>; </text>

<path d="M107.8,178.2l719.4,0l0,-20.5l-719.4,0l0,20.5Z" class="g2_69" />
<text 
x="110" 
y="174" 
dx="0,0,0,-0.3,0,-0.3,0" 
class="s5_69"
>import </text>

<text 
x="168" 
y="174" 
dx="0,-0.3" 
class="s6_69"
>{ </text>

<text 
x="184" 
y="174" 
dx="0,-0.3,0,-0.3,0,0,-0.3,0,-0.3,0,-0.3,0,0,-0.3,0,-0.3,0,-0.3,0,0,-0.3,0,-0.3" 
class="s7_69"
>platformBrowserDynamic </text>

<text 
x="375" 
y="174" 
dx="0,-0.3" 
class="s6_69"
>} </text>

<text 
x="391" 
y="174" 
dx="0,0,-0.3,0,-0.3" 
class="s5_69"
>from </text>

<text 
x="433" 
y="174" 
dx="0,0,-0.3,0,-0.3,0,-0.3,0,0,-0.3,0,-0.3,0,0,-0.3,0,-0.3,0,-0.4,0,0,-0.3,0,-0.3,0,-0.3,0,0,-0.3,0,-0.3,0,-0.3,0,0" 
class="s8_69"
>'@angular/platform-browser-dynamic'</text>

<text 
x="722" 
y="174" 
dx="0,-0.3" 
class="s6_69"
>; </text>

<path d="M107.8,198.7l719.4,0l0,-20.5l-719.4,0l0,20.5Z" class="g2_69" />
<path d="M107.8,219.6l719.4,0l0,-20.9l-719.4,0l0,20.9Z" class="g2_69" />
<text 
x="110" 
y="215" 
dx="0,0,0,-0.3,0,-0.3,0" 
class="s5_69"
>import </text>

<text 
x="168" 
y="215" 
dx="0,-0.3" 
class="s6_69"
>{ </text>

<text 
x="184" 
y="215" 
dx="0,-0.3,0,-0.3,0.1,0,-0.3,0,-0.3,0" 
class="s7_69"
>AppModule </text>

<text 
x="267" 
y="215" 
class="s6_69"
>} </text>

<text 
x="284" 
y="215" 
dx="0,-0.3,0,-0.3,0.1" 
class="s5_69"
>from </text>

<text 
x="325" 
y="215" 
dx="0,0,0,-0.3,0,-0.3,0,-0.3,0,0,-0.3,0,-0.3,0,0,-0.3,0,-0.3" 
class="s8_69"
>'./app/app.module'</text>

<text 
x="474" 
y="215" 
dx="0,-0.3" 
class="s6_69"
>; </text>

<path d="M107.8,240.2l719.4,0l0,-20.6l-719.4,0l0,20.6Z" class="g2_69" />
<text 
x="110" 
y="236" 
dx="0,0,0,-0.3,0,-0.3,0" 
class="s5_69"
>import </text>

<text 
x="168" 
y="236" 
dx="0,-0.3" 
class="s6_69"
>{ </text>

<text 
x="184" 
y="236" 
dx="0,-0.3,0,-0.3,0,0,-0.3,0,-0.3,0,-0.3,0.1" 
class="s7_69"
>environment </text>

<text 
x="284" 
y="236" 
dx="0,-0.3" 
class="s6_69"
>} </text>

<text 
x="300" 
y="236" 
dx="0,-0.3,0,-0.3,0.1" 
class="s5_69"
>from </text>

<text 
x="342" 
y="236" 
dx="0,-0.3,0,-0.3,0,-0.3,0,0,-0.3,0,-0.3,0,0,-0.3,0,-0.3,0,-0.3,0,0,-0.3,0,-0.3,0,0,-0.3,0,-0.3" 
class="s8_69"
>'./environments/environment'</text>

<text 
x="573" 
y="236" 
dx="0,-0.3" 
class="s6_69"
>; </text>

<path d="M107.8,260.7l719.4,0l0,-20.5l-719.4,0l0,20.5Z" class="g2_69" />
<path d="M107.8,281.2l719.4,0l0,-20.5l-719.4,0l0,20.5Z" class="g2_69" />
<text 
x="110" 
y="277" 
class="s5_69"
>if </text>

<text 
x="134" 
y="277" 
class="s6_69"
>(</text>

<text 
x="143" 
y="277" 
dx="0,-0.3,0,0,-0.3,0,-0.3,0,-0.3,0,0" 
class="s7_69"
>environment</text>

<text 
x="234" 
y="277" 
class="s6_69"
>.</text>

<text 
x="242" 
y="277" 
dx="0,-0.3,0,-0.3,0,0,-0.3,0,-0.3,0" 
class="s7_69"
>production</text>

<text 
x="325" 
y="277" 
dx="0,0,0,-0.3" 
class="s6_69"
>) { </text>

<path d="M107.8,302.1l719.4,0l0,-20.9l-719.4,0l0,20.9Z" class="g2_69" />
<text 
x="126" 
y="298" 
dx="0,-0.3,0,-0.3,0,0,-0.3,0,-0.3,0,-0.3,0,0,-0.3" 
class="s9_69"
>enableProdMode</text>

<text 
x="242" 
y="298" 
dx="0,-0.3,0,-0.3" 
class="s6_69"
>(); </text>

<path d="M107.8,322.7l719.4,0l0,-20.6l-719.4,0l0,20.6Z" class="g2_69" />
<text 
x="110" 
y="319" 
class="s6_69"
>} </text>

<path d="M107.8,343.2l719.4,0l0,-20.5l-719.4,0l0,20.5Z" class="g2_69" />
<path d="M107.8,363.7l719.4,0l0,-20.5l-719.4,0l0,20.5Z" class="g2_69" />
<text 
x="110" 
y="360" 
dx="0,0,0,-0.3,0,-0.3,0,0,-0.3,0,-0.3,0,-0.3,0,0,-0.3,0,-0.3,0,-0.3,0,0" 
class="s9_69"
>platformBrowserDynamic</text>

<text 
x="292" 
y="360" 
dx="0,0,-0.3" 
class="s6_69"
>().</text>

<text 
x="317" 
y="360" 
dx="0,-0.3,0,0,-0.3,0,-0.3,0,-0.3,0,0,-0.3,0,-0.3,0" 
class="s9_69"
>bootstrapModule</text>

<text 
x="441" 
y="360" 
class="s6_69"
>(</text>

<text 
x="449" 
y="360" 
dx="0,0,-0.3,0,-0.3,0,0,-0.3,0" 
class="s7_69"
>AppModule</text>

<text 
x="523" 
y="360" 
dx="0,-0.3" 
class="s6_69"
>) </text>

<path d="M107.8,384.6l719.4,0l0,-20.9l-719.4,0l0,20.9Z" class="g2_69" />
<text 
x="126" 
y="380" 
class="s6_69"
>.</text>

<text 
x="134" 
y="380" 
dx="0,0,-0.3,0,0" 
class="s9_69"
>catch</text>

<text 
x="176" 
y="380" 
class="s6_69"
>(</text>

<text 
x="184" 
y="380" 
dx="0,-0.3,0,-0.3" 
class="s7_69"
>err </text>

<text 
x="217" 
y="380" 
dx="0,0,-0.3" 
class="s10_69"
>=&gt; </text>

<text 
x="242" 
y="380" 
dx="0,-0.3,0,-0.3,0,0,-0.3" 
class="s11_69"
>console</text>

<text 
x="300" 
y="380" 
class="s6_69"
>.</text>

<text 
x="308" 
y="380" 
dx="0,0,-0.3" 
class="s9_69"
>log</text>

<text 
x="333" 
y="380" 
class="s6_69"
>(</text>

<text 
x="342" 
y="380" 
dx="0,-0.3,0" 
class="s7_69"
>err</text>

<text 
x="366" 
y="380" 
dx="0,0,-0.3,-0.3" 
class="s6_69"
>)); </text>

<path d="M107.8,405.2l719.4,0l0,-20.6l-719.4,0l0,20.6Z" class="g2_69" />
<path d="M107.8,426.8l719.4,0l0,-21.6l-719.4,0l0,21.6Z" class="g2_69" />
<text 
x="110" 
y="443" 
dx="0,0.2,-0.2,0.2,-0.2,0.2,-0.2,0.2,-0.2,0.2,-0.2,0.2,-0.2,0.2,-0.2,0.2,-0.2,0.2,-0.2,-0.2" 
class="s12_69"
>File: tsconfig.json </text>

<path d="M110,447.3l191.4,0l0,-1.4l-191.4,0l0,1.4Z" class="g3_69" />
<path d="M107.8,486.6l719.4,0l0,-18.7l-719.4,0l0,18.7Z" class="g2_69" />
<path d="M107.8,507.1l719.4,0l0,-20.5l-719.4,0l0,20.5Z" class="g2_69" />
<text 
x="110" 
y="503" 
class="s6_69"
>{ </text>

<path d="M107.8,528l719.4,0l0,-20.9l-719.4,0l0,20.9Z" class="g2_69" />
<text 
x="126" 
y="524" 
dx="0,-0.3,0,-0.3,0,0,-0.3,0,-0.3,0,-0.3,0,0,-0.3,0" 
class="s13_69"
>"compileOnSave"</text>

<text 
x="250" 
y="524" 
class="s6_69"
>: </text>

<text 
x="267" 
y="524" 
dx="0,0,0,-0.3,0" 
class="s10_69"
>false</text>

<text 
x="308" 
y="524" 
dx="0,-0.3" 
class="s6_69"
>, </text>

<path d="M107.8,548.5l719.4,0l0,-20.5l-719.4,0l0,20.5Z" class="g2_69" />
<text 
x="126" 
y="545" 
dx="0,-0.3,0,-0.3,0,0,-0.3,0,-0.3,0,-0.3,0,0,-0.3,0,-0.3,0" 
class="s13_69"
>"compilerOptions"</text>

<text 
x="267" 
y="545" 
dx="0,0,0,-0.3" 
class="s6_69"
>: { </text>

<path d="M107.8,569.1l719.4,0l0,-20.6l-719.4,0l0,20.6Z" class="g2_69" />
<text 
x="143" 
y="565" 
dx="0,-0.3,0,0,-0.3,0,-0.3,0" 
class="s13_69"
>"outDir"</text>

<text 
x="209" 
y="565" 
class="s6_69"
>: </text>

<text 
x="226" 
y="565" 
dx="0,-0.3,0,-0.3,0,-0.3,0,0,-0.3,0,-0.3,0.1,-0.3,0,0,-0.3" 
class="s8_69"
>"./dist/out-tsc"</text>

<text 
x="358" 
y="565" 
dx="0,-0.3" 
class="s6_69"
>, </text>

<path d="M107.8,589.6l719.4,0l0,-20.5l-719.4,0l0,20.5Z" class="g2_69" />
<text 
x="143" 
y="586" 
dx="0,-0.3,0,0,-0.3,0,-0.3,0,-0.3,0,0" 
class="s13_69"
>"sourceMap"</text>

<text 
x="234" 
y="586" 
class="s6_69"
>: </text>

<text 
x="250" 
y="586" 
dx="0,0,-0.3,0" 
class="s10_69"
>true</text>

<text 
x="284" 
y="586" 
dx="0,-0.3" 
class="s6_69"
>, </text>

<path d="M107.8,610.5l719.4,0l0,-20.9l-719.4,0l0,20.9Z" class="g2_69" />
<text 
x="143" 
y="606" 
dx="0,-0.3,0,0,-0.3,0,-0.3,0,-0.3,0,0,-0.3,0" 
class="s13_69"
>"declaration"</text>

<text 
x="250" 
y="606" 
class="s6_69"
>: </text>

<text 
x="267" 
y="606" 
dx="0,0,0,-0.3,0" 
class="s10_69"
>false</text>

<text 
x="308" 
y="606" 
dx="0,-0.3" 
class="s6_69"
>, </text>

<path d="M107.8,631l719.4,0l0,-20.5l-719.4,0l0,20.5Z" class="g2_69" />
<text 
x="143" 
y="627" 
dx="0,-0.3,0,0,-0.3,0,-0.3,0,-0.3,0,0,-0.3,0,-0.3,0,-0.3,0,0" 
class="s13_69"
>"moduleResolution"</text>

<text 
x="292" 
y="627" 
class="s6_69"
>: </text>

<text 
x="308" 
y="627" 
dx="0,0,-0.3,0,0,-0.3" 
class="s8_69"
>"node"</text>

<text 
x="358" 
y="627" 
dx="0,-0.3" 
class="s6_69"
>, </text>

<path d="M107.8,651.6l719.4,0l0,-20.6l-719.4,0l0,20.6Z" class="g2_69" />
<text 
x="143" 
y="648" 
dx="0,-0.3,0,0,-0.3,0,-0.3,0,-0.3,0,0,-0.3,0,-0.3,0,-0.3,0,0,-0.3,0,-0.3,0,-0.3" 
class="s13_69"
>"emitDecoratorMetadata"</text>

<text 
x="333" 
y="648" 
class="s6_69"
>: </text>

<text 
x="350" 
y="648" 
dx="0,0,-0.3,0" 
class="s10_69"
>true</text>

<text 
x="383" 
y="648" 
dx="0,-0.3" 
class="s6_69"
>, </text>

<path d="M107.8,672.1l719.4,0l0,-20.5l-719.4,0l0,20.5Z" class="g2_69" />
<text 
x="143" 
y="668" 
dx="0,-0.3,0,0,-0.3,0,-0.3,0,-0.3,0,0,-0.3,0,-0.3,0,-0.3,0,0,-0.3,0,-0.3,0,-0.3,0" 
class="s13_69"
>"experimentalDecorators"</text>

<text 
x="342" 
y="668" 
dx="0,-0.3" 
class="s6_69"
>: </text>

<text 
x="358" 
y="668" 
dx="0,-0.3,0,-0.3" 
class="s10_69"
>true</text>

<text 
x="391" 
y="668" 
dx="0,-0.3" 
class="s6_69"
>, </text>

<path d="M107.8,693l719.4,0l0,-20.9l-719.4,0l0,20.9Z" class="g2_69" />
<text 
x="143" 
y="689" 
dx="0,-0.3,0,0,-0.3,0,-0.3,0" 
class="s13_69"
>"target"</text>

<text 
x="209" 
y="689" 
class="s6_69"
>: </text>

<text 
x="226" 
y="689" 
dx="0,-0.3,0,-0.3,0,-0.3,0,0" 
class="s8_69"
>"es2015"</text>

<text 
x="292" 
y="689" 
dx="0,-0.3" 
class="s6_69"
>, </text>

<path d="M107.8,713.5l719.4,0l0,-20.5l-719.4,0l0,20.5Z" class="g2_69" />
<text 
x="143" 
y="710" 
dx="0,-0.3,0,0,-0.3,0,-0.3,0,-0.3,0,0" 
class="s13_69"
>"typeRoots"</text>

<text 
x="234" 
y="710" 
dx="0,0,-0.3,-0.3" 
class="s6_69"
>: [ </text>

<path d="M107.8,734.1l719.4,0l0,-20.6l-719.4,0l0,20.6Z" class="g2_69" />
<text 
x="159" 
y="730" 
dx="0,0,-0.3,0,-0.3,0,-0.3,0,0,-0.3,0,-0.3,0,-0.3,0,0,-0.3,0,-0.3,0,-0.3,-0.4" 
class="s8_69"
>"node_modules/@types" </text>

<path d="M107.8,754.6l719.4,0l0,-20.5l-719.4,0l0,20.5Z" class="g2_69" />
<text 
x="143" 
y="751" 
dx="0,-0.3,-0.3" 
class="s6_69"
>], </text>

<path d="M107.8,775.5l719.4,0l0,-20.9l-719.4,0l0,20.9Z" class="g2_69" />
<text 
x="143" 
y="771" 
dx="0,-0.3,0,0,-0.3" 
class="s13_69"
>"lib"</text>

<text 
x="184" 
y="771" 
dx="0,-0.3,0,-0.3" 
class="s6_69"
>: [ </text>

<path d="M107.8,796l719.4,0l0,-20.5l-719.4,0l0,20.5Z" class="g2_69" />
<text 
x="159" 
y="792" 
dx="0,0,-0.3,0,-0.3,0,-0.3,0" 
class="s8_69"
>"es2016"</text>

<text 
x="226" 
y="792" 
dx="0,-0.3" 
class="s6_69"
>, </text>

<path d="M107.8,816.6l719.4,0l0,-20.6l-719.4,0l0,20.6Z" class="g2_69" />
<text 
x="159" 
y="813" 
dx="0,0,-0.3,0,-0.3,-0.3" 
class="s8_69"
>"dom" </text>

<path d="M107.8,837.1l719.4,0l0,-20.5l-719.4,0l0,20.5Z" class="g2_69" />
<text 
x="143" 
y="833" 
dx="0,-0.3" 
class="s6_69"
>] </text>

<path d="M107.8,858l719.4,0l0,-20.9l-719.4,0l0,20.9Z" class="g2_69" />
<text 
x="126" 
y="854" 
dx="0,-0.3" 
class="s6_69"
>} </text>

<path d="M107.8,878.5l719.4,0l0,-20.5l-719.4,0l0,20.5Z" class="g2_69" />
<text 
x="110" 
y="875" 
class="s6_69"
>} </text>

<path d="M107.8,899.1l719.4,0l0,-20.6l-719.4,0l0,20.6Z" class="g2_69" />
<path d="M107.8,920.7l719.4,0l0,-21.6l-719.4,0l0,21.6Z" class="g2_69" />


<!-- Any embedded fonts defined here -->
<style type="text/css" ><![CDATA[

@font-face {
	font-family: ArialNovaCond-Bold_d;
	src: url("fonts/ArialNovaCond-Bold_d.woff") format("woff");
}

@font-face {
	font-family: Menlo-Regular_bu;
	src: url("fonts/Menlo-Regular_bu.woff") format("woff");
}

@font-face {
	font-family: ArialNova-Light_n;
	src: url("fonts/ArialNova-Light_n.woff") format("woff");
}

@font-face {
	font-family: Calibri-Light_r;
	src: url("fonts/Calibri-Light_r.woff") format("woff");
}

@font-face {
	font-family: Consolas_c7;
	src: url("fonts/Consolas_c7.woff") format("woff");
}

]]></style>

</svg>
