<?xml version="1.0" encoding="UTF-8" standalone="no"?>
<!DOCTYPE svg PUBLIC "-//W3C//DTD SVG 1.1//EN"
"http://www.w3.org/Graphics/SVG/1.1/DTD/svg11.dtd">


<!-- Page 71 -->
<svg x="0" y="0" width="935" height="1210" viewBox="0 0 935 1210" version="1.1" xmlns="http://www.w3.org/2000/svg" xmlns:xlink="http://www.w3.org/1999/xlink"
style="display: block;margin-left: auto;margin-right: auto;">
<defs>

<style type="text/css"><![CDATA[

.g1_71{
fill: #D9D9D9;
}
.g2_71{
fill: #FFFFFF;
}

.s1_71{
font-size: 18.33px;
font-family: ArialNovaCond-Bold_d;
fill: #5A5A5A;
}
.s2_71{
font-size: 12.10px;
font-family: ArialNova-Light_n;
fill: #7F7F7F;
}
.s3_71{
font-size: 21.27px;
font-family: Calibri-Light_r;
fill: #323E4F;
}
.s4_71{
font-size: 16.87px;
font-family: Calibri-Light_r;
fill: #323E4F;
}
.s5_71{
font-size: 18.33px;
font-family: Calibri-Light_r;
fill: #44546A;
}
.s6_71{
font-size: 14.67px;
font-family: Calibri-Light_r;
fill: #44546A;
}
.s7_71{
font-size: 13.93px;
font-family: Menlo-Regular_bu;
fill: #000000;
}
.s8_71{
font-size: 13.93px;
font-family: Menlo-Regular_bu;
fill: #0451A5;
}
.s9_71{
font-size: 13.93px;
font-family: Menlo-Regular_bu;
fill: #A31515;
}
.s10_71{
font-size: 13.93px;
font-family: Menlo-Regular_bu;
fill: #0000FF;
}

]]></style>

</defs>
<path d="M0,0
L0,1210
L935,1210
L935,0 Z " 
fill="#FFFFFF" stroke="none" />
<text 
x="110" 
y="1106" 
dx="0,0,0,0.2" 
class="s1_71"
>71 |</text>

<text 
x="141" 
y="1106" 
dx="0,4.3,4.9,0,1.9,0,1.6,0,1.3,0,1.7,0,1.7,0,1.2,0,1.9,0,1.6,4.7,4.9,0,1.3,0,1.7,0,1.6,0,1.5,0,1.6,0,1.9,0,1.2,0,1.5,0,1.9,0,1.5,4.5,4.9,0,1.7,0,1.2,0,1.9,0,1.9,0,1.2,4.5,4.5,0,1.9,0,1.5,4.7,4.9,0,1.3,0,1.5,0,1.9,0,1.5,0,1.5,0,1.5,0,1.5,0,1.9,0,1.3,0,1.9,0,1.6,4.6,4.5,0,1.9,0,1.5,0,1.7,0,1.6,0,1.4,0,1.9,0,1.3,0,1.9,0,1.5,0,1.7,0,1.5,0,1.5,0,1.9" 
class="s2_71"
>A W e b - b a s e d T r a n s l a t i o n S y s t e m f o r M u l t i l i n g u a l C o d e - s w i t c h i n g</text>

<path d="M107.8,1086.4l719.4,0l0,-0.7l-719.4,0l0,0.7Z" class="g1_71" />
<text 
x="110" 
y="130" 
class="s3_71"
>A</text>

<text 
x="123" 
y="130" 
dx="0,1.3,1.3,1.7,1.3,1.5,1.4,1.8" 
class="s4_71"
>PPENDIX </text>

<text 
x="198" 
y="130" 
class="s3_71"
>B</text>

<text 
x="216" 
y="130" 
class="s3_71"
>–</text>

<text 
x="233" 
y="130" 
class="s3_71"
>S</text>

<text 
x="244" 
y="130" 
dx="0,1.8,1.4,1.7,1.6,1.7" 
class="s4_71"
>OURCE </text>

<text 
x="306" 
y="130" 
class="s3_71"
>C</text>

<text 
x="319" 
y="130" 
dx="0,1.4,1.5,1.7,1.3,1.4,1.4,1.7" 
class="s4_71"
>ODE FOR </text>

<text 
x="395" 
y="130" 
class="s3_71"
>F</text>

<text 
x="407" 
y="130" 
dx="0,1.4,1.7,1.7,1.6,1.5,1.5,1.7" 
class="s4_71"
>IREBASE </text>

<text 
x="478" 
y="130" 
dx="0,1.6,1.3" 
class="s3_71"
>API</text>

<text 
x="110" 
y="163" 
class="s5_71"
>F</text>

<text 
x="119" 
y="163" 
dx="0,1.6,1.6" 
class="s6_71"
>ILE</text>

<text 
x="141" 
y="163" 
class="s5_71"
>:</text>

<text 
x="152" 
y="163" 
dx="0,1.3,1.6,1.3,1.4,1.6,1.4" 
class="s6_71"
>PACKAGE</text>

<text 
x="218" 
y="163" 
class="s5_71"
>.</text>

<text 
x="224" 
y="163" 
dx="0,1.6,1.4,1" 
class="s6_71"
>JSON</text>

<path d="M107.8,192.9l719.4,0l0,-16.2l-719.4,0l0,16.2Z" class="g2_71" />
<text 
x="110" 
y="189" 
class="s7_71"
>{ </text>

<path d="M107.8,213.4l719.4,0l0,-20.5l-719.4,0l0,20.5Z" class="g2_71" />
<text 
x="126" 
y="210" 
dx="0,-0.3,0,-0.3,0,0" 
class="s8_71"
>"name"</text>

<text 
x="176" 
y="210" 
class="s7_71"
>: </text>

<text 
x="192" 
y="210" 
dx="0,0,-0.3,0,0,-0.3,0,-0.3,0,-0.3,0" 
class="s9_71"
>"functions"</text>

<text 
x="284" 
y="210" 
dx="0,-0.3" 
class="s7_71"
>, </text>

<path d="M107.8,233.9l719.4,0l0,-20.5l-719.4,0l0,20.5Z" class="g2_71" />
<text 
x="126" 
y="230" 
dx="0,-0.3,0,-0.3,0,0,-0.3,0,-0.3,0,-0.3,0,0" 
class="s8_71"
>"description"</text>

<text 
x="234" 
y="230" 
class="s7_71"
>: </text>

<text 
x="250" 
y="230" 
dx="0,0,-0.3,0,0,-0.3,0,-0.3,0,-0.3,0,0,-0.3,0,-0.3,0,-0.3,0,0,-0.3,0,-0.3,0,0,-0.3,0,-0.3,0,-0.3,0" 
class="s9_71"
>"Cloud Functions for Firebase"</text>

<text 
x="499" 
y="230" 
dx="0,-0.3" 
class="s7_71"
>, </text>

<path d="M107.8,254.8l719.4,0l0,-20.9l-719.4,0l0,20.9Z" class="g2_71" />
<text 
x="126" 
y="251" 
dx="0,-0.3,0,-0.3,0,0,-0.3,0,-0.3" 
class="s8_71"
>"scripts"</text>

<text 
x="201" 
y="251" 
dx="0,-0.3,0,-0.3" 
class="s7_71"
>: { </text>

<path d="M107.8,275.4l719.4,0l0,-20.6l-719.4,0l0,20.6Z" class="g2_71" />
<text 
x="143" 
y="272" 
dx="0,-0.3,0,0,-0.3,0,-0.3" 
class="s8_71"
>"serve"</text>

<text 
x="201" 
y="272" 
dx="0,-0.3" 
class="s7_71"
>: </text>

<text 
x="217" 
y="272" 
dx="0,0,-0.3,0,-0.3,0,-0.3,0,0,-0.3,0,-0.3,0,-0.3,0,0,-0.4,0,-0.3,0,-0.3,0,0,-0.3,0,-0.3,0,0,-0.3,0,-0.3,0,-0.3" 
class="s9_71"
>"firebase serve --only functions"</text>

<text 
x="490" 
y="272" 
dx="0,-0.3" 
class="s7_71"
>, </text>

<path d="M107.8,295.9l719.4,0l0,-20.5l-719.4,0l0,20.5Z" class="g2_71" />
<text 
x="143" 
y="292" 
dx="0,-0.3,0,0,-0.3,0,-0.3" 
class="s8_71"
>"shell"</text>

<text 
x="201" 
y="292" 
dx="0,-0.3" 
class="s7_71"
>: </text>

<text 
x="217" 
y="292" 
dx="0,0,-0.3,0,-0.3,0,-0.3,0,0,-0.3,0,-0.3,0,-0.3,0,0,-0.3,0,-0.3,0,-0.3,0,0,-0.3,0,-0.3,0,0,-0.3,0,-0.3,0,-0.3,0,0,-0.3,0,-0.3,0" 
class="s9_71"
>"firebase experimental:functions:shell"</text>

<text 
x="540" 
y="292" 
dx="0,-0.3" 
class="s7_71"
>, </text>

<path d="M107.8,316.4l719.4,0l0,-20.5l-719.4,0l0,20.5Z" class="g2_71" />
<text 
x="143" 
y="313" 
dx="0,-0.3,0,0,-0.3,0,-0.3" 
class="s8_71"
>"start"</text>

<text 
x="201" 
y="313" 
dx="0,-0.3" 
class="s7_71"
>: </text>

<text 
x="217" 
y="313" 
dx="0,0,-0.3,0,-0.3,0,-0.3,0,0,-0.3,0,-0.3,0,-0.3,0" 
class="s9_71"
>"npm run shell"</text>

<text 
x="342" 
y="313" 
dx="0,-0.3" 
class="s7_71"
>, </text>

<path d="M107.8,337.3l719.4,0l0,-20.9l-719.4,0l0,20.9Z" class="g2_71" />
<text 
x="143" 
y="333" 
dx="0,-0.3,0,0,-0.3,0,-0.3,0" 
class="s8_71"
>"deploy"</text>

<text 
x="209" 
y="333" 
class="s7_71"
>: </text>

<text 
x="226" 
y="333" 
dx="0,-0.3,0,-0.3,0,-0.3,0,0,-0.3,0,-0.3,0,-0.3,0,0,-0.3,0,-0.3,0,-0.3,0,0,-0.3,0,-0.3,0,0,-0.3,0,-0.3,0,-0.3,0,0" 
class="s9_71"
>"firebase deploy --only functions"</text>

<text 
x="507" 
y="333" 
dx="0,-0.3" 
class="s7_71"
>, </text>

<path d="M107.8,357.9l719.4,0l0,-20.6l-719.4,0l0,20.6Z" class="g2_71" />
<text 
x="143" 
y="354" 
dx="0,-0.3,0,0,-0.3,0" 
class="s8_71"
>"logs"</text>

<text 
x="192" 
y="354" 
class="s7_71"
>: </text>

<text 
x="209" 
y="354" 
dx="0,0,0,-0.3,0,-0.3,0,-0.3,0,0,-0.3,0,-0.3,0,-0.3,0,0,-0.3,0,-0.3,0,-0.3,0,0,-0.4" 
class="s9_71"
>"firebase functions:log" </text>

<path d="M107.8,378.4l719.4,0l0,-20.5l-719.4,0l0,20.5Z" class="g2_71" />
<text 
x="126" 
y="375" 
dx="0,-0.3,-0.3" 
class="s7_71"
>}, </text>

<path d="M107.8,398.9l719.4,0l0,-20.5l-719.4,0l0,20.5Z" class="g2_71" />
<text 
x="126" 
y="395" 
dx="0,-0.3,0,-0.3,0,0,-0.3,0,-0.3,0,-0.3,0,0,-0.3" 
class="s8_71"
>"dependencies"</text>

<text 
x="242" 
y="395" 
dx="0,-0.3,0,-0.3" 
class="s7_71"
>: { </text>

<path d="M107.8,419.8l719.4,0l0,-20.9l-719.4,0l0,20.9Z" class="g2_71" />
<text 
x="143" 
y="416" 
dx="0,-0.3,0,0,-0.3,0,-0.3,0,-0.3,0,0,-0.3,0,-0.3,0,-0.3" 
class="s8_71"
>"@types/request"</text>

<text 
x="275" 
y="416" 
class="s7_71"
>: </text>

<text 
x="292" 
y="416" 
dx="0,0,-0.3,0,-0.3,0,0,-0.3" 
class="s9_71"
>"^2.0.8"</text>

<text 
x="358" 
y="416" 
dx="0,-0.3" 
class="s7_71"
>, </text>

<path d="M107.8,440.4l719.4,0l0,-20.6l-719.4,0l0,20.6Z" class="g2_71" />
<text 
x="143" 
y="437" 
dx="0,-0.3,0,0,-0.3,0,-0.3,0,-0.3,0,0,-0.3,0,-0.3,0,-0.3,0,0,-0.3,0,-0.3,0,-0.3,0" 
class="s8_71"
>"@types/request-promise"</text>

<text 
x="342" 
y="437" 
dx="0,-0.3" 
class="s7_71"
>: </text>

<text 
x="358" 
y="437" 
dx="0,-0.3,0,-0.3,0,0,-0.3,0,-0.3" 
class="s9_71"
>"^4.1.39"</text>

<text 
x="433" 
y="437" 
dx="0,-0.3" 
class="s7_71"
>, </text>

<path d="M107.8,460.9l719.4,0l0,-20.5l-719.4,0l0,20.5Z" class="g2_71" />
<text 
x="143" 
y="457" 
dx="0,-0.3,0,0,-0.3,0" 
class="s8_71"
>"cors"</text>

<text 
x="192" 
y="457" 
class="s7_71"
>: </text>

<text 
x="209" 
y="457" 
dx="0,0,0,-0.3,0,-0.3,0,-0.3" 
class="s9_71"
>"^2.8.4"</text>

<text 
x="275" 
y="457" 
dx="0,-0.3" 
class="s7_71"
>, </text>

<path d="M107.8,481.4l719.4,0l0,-20.5l-719.4,0l0,20.5Z" class="g2_71" />
<text 
x="143" 
y="478" 
dx="0,-0.3,0,0,-0.3,0,-0.3,0,-0.3" 
class="s8_71"
>"express"</text>

<text 
x="217" 
y="478" 
class="s7_71"
>: </text>

<text 
x="234" 
y="478" 
dx="0,0,-0.3,0,-0.3,0,0,-0.3,0" 
class="s9_71"
>"^4.16.2"</text>

<text 
x="308" 
y="478" 
dx="0,-0.3" 
class="s7_71"
>, </text>

<path d="M107.8,502.3l719.4,0l0,-20.9l-719.4,0l0,20.9Z" class="g2_71" />
<text 
x="143" 
y="498" 
dx="0,-0.3,0,0,-0.3,0,-0.3,0,-0.3,0.1,0,-0.3,0,-0.3,0,-0.3" 
class="s8_71"
>"firebase-admin"</text>

<text 
x="275" 
y="498" 
class="s7_71"
>: </text>

<text 
x="292" 
y="498" 
dx="0,0,-0.3,0,-0.3,0,0,-0.3" 
class="s9_71"
>"^5.8.1"</text>

<text 
x="358" 
y="498" 
dx="0,-0.3" 
class="s7_71"
>, </text>

<path d="M107.8,522.9l719.4,0l0,-20.6l-719.4,0l0,20.6Z" class="g2_71" />
<text 
x="143" 
y="519" 
dx="0,-0.3,0,0,-0.3,0,-0.3,0,-0.3,0.1,0,-0.3,0,-0.3,0,-0.3,0,0,-0.3,0" 
class="s8_71"
>"firebase-functions"</text>

<text 
x="308" 
y="519" 
class="s7_71"
>: </text>

<text 
x="325" 
y="519" 
dx="0,0,0,-0.3,0,-0.3,0,-0.3" 
class="s9_71"
>"^0.9.1"</text>

<text 
x="391" 
y="519" 
dx="0,-0.3" 
class="s7_71"
>, </text>

<path d="M107.8,543.4l719.4,0l0,-20.5l-719.4,0l0,20.5Z" class="g2_71" />
<text 
x="143" 
y="540" 
dx="0,-0.3,0,0,-0.3,0" 
class="s8_71"
>"gulp"</text>

<text 
x="192" 
y="540" 
class="s7_71"
>: </text>

<text 
x="209" 
y="540" 
dx="0,0,0,-0.3,0,-0.3,0,-0.3" 
class="s9_71"
>"^3.9.1"</text>

<text 
x="275" 
y="540" 
dx="0,-0.3" 
class="s7_71"
>, </text>

<path d="M107.8,563.9l719.4,0l0,-20.5l-719.4,0l0,20.5Z" class="g2_71" />
<text 
x="143" 
y="560" 
dx="0,-0.3,0,0,-0.3,0.1,-0.3,0,-0.3,0,0,-0.3,0,-0.3,0,-0.3,0" 
class="s8_71"
>"gulp-typescript"</text>

<text 
x="284" 
y="560" 
dx="0,-0.3" 
class="s7_71"
>: </text>

<text 
x="300" 
y="560" 
dx="0,-0.3,0,-0.3,0,0,-0.3,0" 
class="s9_71"
>"^4.0.1"</text>

<text 
x="366" 
y="560" 
dx="0,-0.3" 
class="s7_71"
>, </text>

<path d="M107.8,584.8l719.4,0l0,-20.9l-719.4,0l0,20.9Z" class="g2_71" />
<text 
x="143" 
y="581" 
dx="0,-0.3,0,0,-0.3,0.1,-0.3,0,-0.3,0,0,-0.3,0,-0.3,0" 
class="s8_71"
>"html-entities"</text>

<text 
x="267" 
y="581" 
class="s7_71"
>: </text>

<text 
x="284" 
y="581" 
dx="0,-0.3,0,-0.3,0,-0.3,0,0" 
class="s9_71"
>"^1.2.1"</text>

<text 
x="350" 
y="581" 
dx="0,-0.3" 
class="s7_71"
>, </text>

<path d="M107.8,605.4l719.4,0l0,-20.6l-719.4,0l0,20.6Z" class="g2_71" />
<text 
x="143" 
y="602" 
dx="0,-0.3,0,0,-0.3,0,-0.3,0,-0.3" 
class="s8_71"
>"request"</text>

<text 
x="217" 
y="602" 
class="s7_71"
>: </text>

<text 
x="234" 
y="602" 
dx="0,0,-0.3,0,-0.3,0,0,-0.3,0" 
class="s9_71"
>"^2.83.0"</text>

<text 
x="308" 
y="602" 
dx="0,-0.3" 
class="s7_71"
>, </text>

<path d="M107.8,625.9l719.4,0l0,-20.5l-719.4,0l0,20.5Z" class="g2_71" />
<text 
x="143" 
y="622" 
dx="0,-0.3,0,0,-0.3,0,-0.3,0,-0.3,0,0,-0.3" 
class="s8_71"
>"typescript"</text>

<text 
x="242" 
y="622" 
dx="0,-0.3" 
class="s7_71"
>: </text>

<text 
x="259" 
y="622" 
dx="0,-0.3,0,0,-0.3,0,-0.3,0,-0.3" 
class="s9_71"
>"^2.7.2" </text>

<path d="M107.8,646.4l719.4,0l0,-20.5l-719.4,0l0,20.5Z" class="g2_71" />
<text 
x="126" 
y="643" 
dx="0,-0.3,-0.3" 
class="s7_71"
>}, </text>

<path d="M107.8,667.3l719.4,0l0,-20.9l-719.4,0l0,20.9Z" class="g2_71" />
<text 
x="126" 
y="663" 
dx="0,-0.3,0,-0.3,0,0,-0.3,0,-0.3" 
class="s8_71"
>"private"</text>

<text 
x="201" 
y="663" 
dx="0,-0.3" 
class="s7_71"
>: </text>

<text 
x="217" 
y="663" 
dx="0,0,-0.3,0" 
class="s10_71"
>true</text>

<text 
x="250" 
y="663" 
dx="0,-0.3" 
class="s7_71"
>, </text>

<path d="M107.8,687.9l719.4,0l0,-20.6l-719.4,0l0,20.6Z" class="g2_71" />
<text 
x="126" 
y="684" 
dx="0,-0.3,0,-0.3,0,0,-0.3,0,-0.3,0,-0.3,0,0,-0.3,0,-0.3,0" 
class="s8_71"
>"devDependencies"</text>

<text 
x="267" 
y="684" 
dx="0,0,0,-0.3" 
class="s7_71"
>: { </text>

<path d="M107.8,708.4l719.4,0l0,-20.5l-719.4,0l0,20.5Z" class="g2_71" />
<text 
x="143" 
y="705" 
dx="0,-0.3,0,0.1,-0.3,0,-0.3,0,-0.3,0,0" 
class="s8_71"
>"ts-loader"</text>

<text 
x="234" 
y="705" 
class="s7_71"
>: </text>

<text 
x="250" 
y="705" 
dx="0,0,-0.3,0,0,-0.3,0,-0.3,-0.3" 
class="s9_71"
>"^3.5.0" </text>

<path d="M107.8,728.9l719.4,0l0,-20.5l-719.4,0l0,20.5Z" class="g2_71" />
<text 
x="126" 
y="725" 
dx="0,-0.3" 
class="s7_71"
>} </text>

<path d="M107.8,749.8l719.4,0l0,-20.9l-719.4,0l0,20.9Z" class="g2_71" />
<text 
x="110" 
y="746" 
class="s7_71"
>} </text>

<path d="M107.8,770.4l719.4,0l0,-20.6l-719.4,0l0,20.6Z" class="g2_71" />


<!-- Any embedded fonts defined here -->
<style type="text/css" ><![CDATA[

@font-face {
	font-family: ArialNovaCond-Bold_d;
	src: url("fonts/ArialNovaCond-Bold_d.woff") format("woff");
}

@font-face {
	font-family: Menlo-Regular_bu;
	src: url("fonts/Menlo-Regular_bu.woff") format("woff");
}

@font-face {
	font-family: ArialNova-Light_n;
	src: url("fonts/ArialNova-Light_n.woff") format("woff");
}

@font-face {
	font-family: Calibri-Light_r;
	src: url("fonts/Calibri-Light_r.woff") format("woff");
}

]]></style>

</svg>
