<?xml version="1.0" encoding="UTF-8" standalone="no"?>
<!DOCTYPE svg PUBLIC "-//W3C//DTD SVG 1.1//EN"
"http://www.w3.org/Graphics/SVG/1.1/DTD/svg11.dtd">


<!-- Page 72 -->
<svg x="0" y="0" width="935" height="1210" viewBox="0 0 935 1210" version="1.1" xmlns="http://www.w3.org/2000/svg" xmlns:xlink="http://www.w3.org/1999/xlink"
style="display: block;margin-left: auto;margin-right: auto;">
<defs>

<style type="text/css"><![CDATA[

.g1_72{
fill: #D9D9D9;
}
.g2_72{
fill: #FFFFFF;
}

.s1_72{
font-size: 18.33px;
font-family: ArialNovaCond-Bold_d;
fill: #5A5A5A;
}
.s2_72{
font-size: 12.10px;
font-family: ArialNova-Light_n;
fill: #7F7F7F;
}
.s3_72{
font-size: 18.33px;
font-family: Calibri-Light_r;
fill: #44546A;
}
.s4_72{
font-size: 14.67px;
font-family: Calibri-Light_r;
fill: #44546A;
}
.s5_72{
font-size: 16.13px;
font-family: Consolas_c7;
fill: #000000;
}
.s6_72{
font-size: 16.13px;
font-family: Consolas_c7;
fill: #0451A5;
}
.s7_72{
font-size: 16.13px;
font-family: Consolas_c7;
fill: #A31515;
}
.s8_72{
font-size: 16.13px;
font-family: Consolas_c7;
fill: #0000FF;
}

]]></style>

</defs>
<path d="M0,0
L0,1210
L935,1210
L935,0 Z " 
fill="#FFFFFF" stroke="none" />
<text 
x="110" 
y="1106" 
dx="0,0,0,0.2" 
class="s1_72"
>72 |</text>

<text 
x="141" 
y="1106" 
dx="0,4.3,4.9,0,1.9,0,1.6,0,1.3,0,1.7,0,1.7,0,1.2,0,1.9,0,1.6,4.7,4.9,0,1.3,0,1.7,0,1.6,0,1.5,0,1.6,0,1.9,0,1.2,0,1.5,0,1.9,0,1.5,4.5,4.9,0,1.7,0,1.2,0,1.9,0,1.9,0,1.2,4.5,4.5,0,1.9,0,1.5,4.7,4.9,0,1.3,0,1.5,0,1.9,0,1.5,0,1.5,0,1.5,0,1.5,0,1.9,0,1.3,0,1.9,0,1.6,4.6,4.5,0,1.9,0,1.5,0,1.7,0,1.6,0,1.4,0,1.9,0,1.3,0,1.9,0,1.5,0,1.7,0,1.5,0,1.5,0,1.9" 
class="s2_72"
>A W e b - b a s e d T r a n s l a t i o n S y s t e m f o r M u l t i l i n g u a l C o d e - s w i t c h i n g</text>

<path d="M107.8,1086.4l719.4,0l0,-0.7l-719.4,0l0,0.7Z" class="g1_72" />
<text 
x="110" 
y="127" 
class="s3_72"
>F</text>

<text 
x="119" 
y="127" 
dx="0,1.6,1.6" 
class="s4_72"
>ILE</text>

<text 
x="141" 
y="127" 
class="s3_72"
>:</text>

<text 
x="152" 
y="127" 
dx="0,1.3,1.4,1.3,1.4,1.6,1.3,1.6" 
class="s4_72"
>TSCONFIG</text>

<text 
x="224" 
y="127" 
class="s3_72"
>.</text>

<text 
x="229" 
y="127" 
dx="0,1.6,1.4,1.4" 
class="s4_72"
>JSON</text>

<path d="M107.8,158.8l719.4,0l0,-18.7l-719.4,0l0,18.7Z" class="g2_72" />
<text 
x="110" 
y="154" 
dx="0,-0.1" 
class="s5_72"
>{ </text>

<path d="M107.8,180.4l719.4,0l0,-21.6l-719.4,0l0,21.6Z" class="g2_72" />
<text 
x="127" 
y="176" 
dx="0,-0.1,-0.1,-0.1,-0.1,-0.1,-0.1,-0.1,-0.1,-0.1,-0.1,-0.1,-0.1,-0.1,-0.1,-0.1,-0.1" 
class="s6_72"
>"compilerOptions"</text>

<text 
x="277" 
y="176" 
dx="0,-0.1,-0.1,0.3" 
class="s5_72"
>: { </text>

<path d="M107.8,202.4l719.4,0l0,-22l-719.4,0l0,22Z" class="g2_72" />
<text 
x="145" 
y="198" 
dx="0,-0.1,-0.1,-0.1,-0.1,-0.1,-0.1,-0.1" 
class="s6_72"
>"target"</text>

<text 
x="215" 
y="198" 
dx="0,-0.1" 
class="s5_72"
>: </text>

<text 
x="233" 
y="198" 
dx="0,-0.1,-0.1,-0.1,-0.1" 
class="s7_72"
>"es6"</text>

<text 
x="277" 
y="198" 
dx="0,0.3" 
class="s5_72"
>, </text>

<path d="M107.8,224l719.4,0l0,-21.6l-719.4,0l0,21.6Z" class="g2_72" />
<text 
x="145" 
y="220" 
dx="0,-0.1,-0.1,-0.1,-0.1,-0.1,-0.1,-0.1" 
class="s6_72"
>"module"</text>

<text 
x="215" 
y="220" 
dx="0,-0.1" 
class="s5_72"
>: </text>

<text 
x="233" 
y="220" 
dx="0,-0.1,-0.1,-0.1,-0.1,-0.1,-0.1,-0.1,-0.1,-0.1" 
class="s7_72"
>"commonjs"</text>

<text 
x="321" 
y="220" 
dx="0,0.3" 
class="s5_72"
>, </text>

<path d="M107.8,245.7l719.4,0l0,-21.7l-719.4,0l0,21.7Z" class="g2_72" />
<text 
x="145" 
y="241" 
dx="0,-0.1,-0.1,-0.1,-0.1,-0.1,-0.1,-0.1" 
class="s6_72"
>"outDir"</text>

<text 
x="215" 
y="241" 
dx="0,-0.1" 
class="s5_72"
>: </text>

<text 
x="233" 
y="241" 
dx="0,-0.1,-0.1,-0.1" 
class="s7_72"
>"./"</text>

<text 
x="268" 
y="241" 
dx="0,0.3" 
class="s5_72"
>, </text>

<path d="M107.8,267.7l719.4,0l0,-22l-719.4,0l0,22Z" class="g2_72" />
<text 
x="145" 
y="263" 
dx="0,-0.1,-0.1,-0.1,-0.1,-0.1,-0.1,-0.1,-0.1,-0.1,-0.1,-0.1,-0.1,-0.1,-0.1" 
class="s6_72"
>"noImplicitAny"</text>

<text 
x="277" 
y="263" 
dx="0,-0.1" 
class="s5_72"
>: </text>

<text 
x="294" 
y="263" 
dx="0,-0.1,-0.1,-0.1,-0.1" 
class="s8_72"
>false</text>

<text 
x="338" 
y="263" 
dx="0,0.3" 
class="s5_72"
>, </text>

<path d="M107.8,289.3l719.4,0l0,-21.6l-719.4,0l0,21.6Z" class="g2_72" />
<text 
x="145" 
y="285" 
dx="0,-0.1,-0.1,-0.1,-0.1,-0.1,-0.1,-0.1,-0.1,-0.1,-0.1,-0.1,-0.1,-0.1,-0.1,-0.1,-0.1,-0.1" 
class="s6_72"
>"strictNullChecks"</text>

<text 
x="303" 
y="285" 
dx="0,-0.1" 
class="s5_72"
>: </text>

<text 
x="321" 
y="285" 
dx="0,-0.1,-0.1,-0.1,-0.1,0.3" 
class="s8_72"
>false </text>

<path d="M107.8,311.3l719.4,0l0,-22l-719.4,0l0,22Z" class="g2_72" />
<text 
x="127" 
y="306" 
dx="0,-0.1,-0.1" 
class="s5_72"
>}, </text>

<path d="M107.8,332.9l719.4,0l0,-21.6l-719.4,0l0,21.6Z" class="g2_72" />
<text 
x="127" 
y="328" 
dx="0,-0.1,-0.1,-0.1,-0.1,-0.1,-0.1,-0.1,-0.1" 
class="s6_72"
>"include"</text>

<text 
x="206" 
y="328" 
dx="0,-0.1,-0.1,0.3" 
class="s5_72"
>: [ </text>

<path d="M107.8,354.6l719.4,0l0,-21.7l-719.4,0l0,21.7Z" class="g2_72" />
<text 
x="145" 
y="350" 
dx="0,-0.1,-0.1,-0.1,-0.1,-0.1,-0.1,-0.1,-0.1,-0.1,-0.1,-0.1,-0.1,0.3" 
class="s7_72"
>"src/**/*.ts" </text>

<path d="M107.8,376.6l719.4,0l0,-22l-719.4,0l0,22Z" class="g2_72" />
<text 
x="127" 
y="372" 
dx="0,-0.1,-0.1" 
class="s5_72"
>], </text>

<path d="M107.8,398.2l719.4,0l0,-21.6l-719.4,0l0,21.6Z" class="g2_72" />
<text 
x="127" 
y="394" 
dx="0,-0.1,-0.1,-0.1,-0.1,-0.1,-0.1,-0.1,-0.1" 
class="s6_72"
>"exclude"</text>

<text 
x="206" 
y="394" 
dx="0,-0.1,-0.1,0.3" 
class="s5_72"
>: [ </text>

<path d="M107.8,419.8l719.4,0l0,-21.6l-719.4,0l0,21.6Z" class="g2_72" />
<text 
x="145" 
y="415" 
dx="0,-0.1,-0.1,-0.1,-0.1,-0.1,-0.1,-0.1,-0.1,-0.1,-0.1,-0.1,-0.1,-0.1,0.3" 
class="s7_72"
>"node_modules" </text>

<path d="M107.8,441.8l719.4,0l0,-22l-719.4,0l0,22Z" class="g2_72" />
<text 
x="127" 
y="437" 
dx="0,-0.1" 
class="s5_72"
>] </text>

<path d="M107.8,463.5l719.4,0l0,-21.7l-719.4,0l0,21.7Z" class="g2_72" />
<text 
x="127" 
y="459" 
dx="0,-0.1" 
class="s5_72"
>} </text>



<!-- Any embedded fonts defined here -->
<style type="text/css" ><![CDATA[

@font-face {
	font-family: ArialNovaCond-Bold_d;
	src: url("fonts/ArialNovaCond-Bold_d.woff") format("woff");
}

@font-face {
	font-family: ArialNova-Light_n;
	src: url("fonts/ArialNova-Light_n.woff") format("woff");
}

@font-face {
	font-family: Calibri-Light_r;
	src: url("fonts/Calibri-Light_r.woff") format("woff");
}

@font-face {
	font-family: Consolas_c7;
	src: url("fonts/Consolas_c7.woff") format("woff");
}

]]></style>

</svg>
