<?xml version="1.0" encoding="UTF-8" standalone="no"?>
<!DOCTYPE svg PUBLIC "-//W3C//DTD SVG 1.1//EN"
"http://www.w3.org/Graphics/SVG/1.1/DTD/svg11.dtd">


<!-- Page 75 -->
<svg x="0" y="0" width="935" height="1210" viewBox="0 0 935 1210" version="1.1" xmlns="http://www.w3.org/2000/svg" xmlns:xlink="http://www.w3.org/1999/xlink"
style="display: block;margin-left: auto;margin-right: auto;">
<defs>

<style type="text/css"><![CDATA[

.g1_75{
fill: #D9D9D9;
}
.g2_75{
fill: #FFFFFF;
}

.s1_75{
font-size: 18.33px;
font-family: ArialNovaCond-Bold_d;
fill: #5A5A5A;
}
.s2_75{
font-size: 12.10px;
font-family: ArialNova-Light_n;
fill: #7F7F7F;
}
.s3_75{
font-size: 13.93px;
font-family: Menlo-Regular_bu;
fill: #000000;
}
.s4_75{
font-size: 13.93px;
font-family: Menlo-Regular_bu;
fill: #001080;
}
.s5_75{
font-size: 13.93px;
font-family: Menlo-Regular_bu;
fill: #A31515;
}

]]></style>

</defs>
<path d="M0,0
L0,1210
L935,1210
L935,0 Z " 
fill="#FFFFFF" stroke="none" />
<text 
x="110" 
y="1106" 
dx="0,0,0,0.2" 
class="s1_75"
>75 |</text>

<text 
x="141" 
y="1106" 
dx="0,4.3,4.9,0,1.9,0,1.6,0,1.3,0,1.7,0,1.7,0,1.2,0,1.9,0,1.6,4.7,4.9,0,1.3,0,1.7,0,1.6,0,1.5,0,1.6,0,1.9,0,1.2,0,1.5,0,1.9,0,1.5,4.5,4.9,0,1.7,0,1.2,0,1.9,0,1.9,0,1.2,4.5,4.5,0,1.9,0,1.5,4.7,4.9,0,1.3,0,1.5,0,1.9,0,1.5,0,1.5,0,1.5,0,1.5,0,1.9,0,1.3,0,1.9,0,1.6,4.6,4.5,0,1.9,0,1.5,0,1.7,0,1.6,0,1.4,0,1.9,0,1.3,0,1.9,0,1.5,0,1.7,0,1.5,0,1.5,0,1.9" 
class="s2_75"
>A W e b - b a s e d T r a n s l a t i o n S y s t e m f o r M u l t i l i n g u a l C o d e - s w i t c h i n g</text>

<path d="M107.8,1086.4l719.4,0l0,-0.7l-719.4,0l0,0.7Z" class="g1_75" />
<path d="M107.8,130.5l719.4,0l0,-20.5l-719.4,0l0,20.5Z" class="g2_75" />
<text 
x="143" 
y="127" 
dx="0,-0.3" 
class="s3_75"
>{ </text>

<text 
x="159" 
y="127" 
dx="0,0,-0.3,0,-0.3,0" 
class="s4_75"
>word: </text>

<text 
x="209" 
y="127" 
dx="0,0,0,-0.3,0,-0.3" 
class="s5_75"
>'para'</text>

<text 
x="259" 
y="127" 
dx="0,-0.3" 
class="s3_75"
>, </text>

<text 
x="275" 
y="127" 
dx="0,0,-0.3,0,-0.3,0,-0.3,0,0,-0.3" 
class="s4_75"
>language: </text>

<text 
x="358" 
y="127" 
class="s3_75"
>[</text>

<text 
x="366" 
y="127" 
dx="0,0,-0.3,0" 
class="s5_75"
>'es'</text>

<text 
x="400" 
y="127" 
dx="0,-0.3,0,-0.3,-0.3" 
class="s3_75"
>] }, </text>

<path d="M107.8,151.4l719.4,0l0,-20.9l-719.4,0l0,20.9Z" class="g2_75" />
<text 
x="143" 
y="147" 
dx="0,-0.3" 
class="s3_75"
>{ </text>

<text 
x="159" 
y="147" 
dx="0,0,-0.3,0,-0.3,0" 
class="s4_75"
>word: </text>

<text 
x="209" 
y="147" 
dx="0,0,0,-0.3,0,-0.3" 
class="s5_75"
>'plus'</text>

<text 
x="259" 
y="147" 
dx="0,-0.3" 
class="s3_75"
>, </text>

<text 
x="275" 
y="147" 
dx="0,0,-0.3,0,-0.3,0,-0.3,0,0,-0.3" 
class="s4_75"
>language: </text>

<text 
x="358" 
y="147" 
class="s3_75"
>[</text>

<text 
x="366" 
y="147" 
dx="0,0,-0.3,0" 
class="s5_75"
>'fr'</text>

<text 
x="400" 
y="147" 
dx="0,-0.3,0,-0.3,-0.3" 
class="s3_75"
>] }, </text>

<path d="M107.8,172l719.4,0l0,-20.6l-719.4,0l0,20.6Z" class="g2_75" />
<text 
x="143" 
y="168" 
dx="0,-0.3" 
class="s3_75"
>{ </text>

<text 
x="159" 
y="168" 
dx="0,0,-0.3,0,-0.3,0" 
class="s4_75"
>word: </text>

<text 
x="209" 
y="168" 
dx="0,0,0,-0.3,0,-0.3,0" 
class="s5_75"
>'polis'</text>

<text 
x="267" 
y="168" 
class="s3_75"
>, </text>

<text 
x="284" 
y="168" 
dx="0,-0.3,0,-0.3,0,-0.3,0,0,-0.3,0.1" 
class="s4_75"
>language: </text>

<text 
x="366" 
y="168" 
class="s3_75"
>[</text>

<text 
x="375" 
y="168" 
dx="0,-0.3,0,0" 
class="s5_75"
>'ms'</text>

<text 
x="408" 
y="168" 
dx="0,0,-0.3,0,-0.3" 
class="s3_75"
>] }, </text>

<path d="M107.8,192.5l719.4,0l0,-20.5l-719.4,0l0,20.5Z" class="g2_75" />
<text 
x="143" 
y="189" 
dx="0,-0.3" 
class="s3_75"
>{ </text>

<text 
x="159" 
y="189" 
dx="0,0,-0.3,0,-0.3,0" 
class="s4_75"
>word: </text>

<text 
x="209" 
y="189" 
dx="0,0,0,-0.3,0" 
class="s5_75"
>'que'</text>

<text 
x="250" 
y="189" 
class="s3_75"
>, </text>

<text 
x="267" 
y="189" 
dx="0,0,0,-0.3,0,-0.3,0,-0.3,0,0" 
class="s4_75"
>language: </text>

<text 
x="350" 
y="189" 
class="s3_75"
>[</text>

<text 
x="358" 
y="189" 
dx="0,-0.3,0,-0.3" 
class="s5_75"
>'fr'</text>

<text 
x="391" 
y="189" 
class="s3_75"
>, </text>

<text 
x="408" 
y="189" 
dx="0,0,-0.3,0" 
class="s5_75"
>'es'</text>

<text 
x="441" 
y="189" 
dx="0,-0.3,0,-0.3,-0.3" 
class="s3_75"
>] }, </text>

<path d="M107.8,213l719.4,0l0,-20.5l-719.4,0l0,20.5Z" class="g2_75" />
<text 
x="143" 
y="209" 
dx="0,-0.3" 
class="s3_75"
>{ </text>

<text 
x="159" 
y="209" 
dx="0,0,-0.3,0,-0.3,0" 
class="s4_75"
>word: </text>

<text 
x="209" 
y="209" 
dx="0,0,0,-0.3,0,-0.3" 
class="s5_75"
>'sana'</text>

<text 
x="259" 
y="209" 
dx="0,-0.3" 
class="s3_75"
>, </text>

<text 
x="275" 
y="209" 
dx="0,0,-0.3,0,-0.3,0,-0.3,0,0,-0.3" 
class="s4_75"
>language: </text>

<text 
x="358" 
y="209" 
class="s3_75"
>[</text>

<text 
x="366" 
y="209" 
dx="0,0,-0.3,0" 
class="s5_75"
>'ms'</text>

<text 
x="400" 
y="209" 
dx="0,-0.3,0,-0.3,-0.3" 
class="s3_75"
>] }, </text>

<path d="M107.8,233.9l719.4,0l0,-20.9l-719.4,0l0,20.9Z" class="g2_75" />
<text 
x="143" 
y="230" 
dx="0,-0.3" 
class="s3_75"
>{ </text>

<text 
x="159" 
y="230" 
dx="0,0,-0.3,0,-0.3,0" 
class="s4_75"
>word: </text>

<text 
x="209" 
y="230" 
dx="0,0,0,-0.3" 
class="s5_75"
>'se'</text>

<text 
x="242" 
y="230" 
dx="0,-0.3" 
class="s3_75"
>, </text>

<text 
x="259" 
y="230" 
dx="0,-0.3,0,0,-0.3,0,-0.3,0,-0.3,0.1" 
class="s4_75"
>language: </text>

<text 
x="342" 
y="230" 
class="s3_75"
>[</text>

<text 
x="350" 
y="230" 
dx="0,0,-0.3,0" 
class="s5_75"
>'fr'</text>

<text 
x="383" 
y="230" 
dx="0,0,0,-0.3,-0.3" 
class="s3_75"
>] }, </text>

<path d="M107.8,254.5l719.4,0l0,-20.6l-719.4,0l0,20.6Z" class="g2_75" />
<text 
x="143" 
y="251" 
dx="0,-0.3" 
class="s3_75"
>{ </text>

<text 
x="159" 
y="251" 
dx="0,0,-0.3,0,-0.3,0" 
class="s4_75"
>word: </text>

<text 
x="209" 
y="251" 
dx="0,0,0,-0.3" 
class="s5_75"
>'si'</text>

<text 
x="242" 
y="251" 
dx="0,-0.3" 
class="s3_75"
>, </text>

<text 
x="259" 
y="251" 
dx="0,-0.3,0,0,-0.3,0,-0.3,0,-0.3,0.1" 
class="s4_75"
>language: </text>

<text 
x="342" 
y="251" 
class="s3_75"
>[</text>

<text 
x="350" 
y="251" 
dx="0,0,-0.3,0" 
class="s5_75"
>'es'</text>

<text 
x="383" 
y="251" 
class="s3_75"
>, </text>

<text 
x="400" 
y="251" 
dx="0,-0.3,0,-0.3" 
class="s5_75"
>'ro'</text>

<text 
x="433" 
y="251" 
class="s3_75"
>, </text>

<text 
x="449" 
y="251" 
dx="0,0,-0.3,0" 
class="s5_75"
>'ms'</text>

<text 
x="482" 
y="251" 
dx="0,0,0,-0.3,-0.3" 
class="s3_75"
>] }, </text>

<path d="M107.8,275l719.4,0l0,-20.5l-719.4,0l0,20.5Z" class="g2_75" />
<text 
x="143" 
y="271" 
dx="0,-0.3" 
class="s3_75"
>{ </text>

<text 
x="159" 
y="271" 
dx="0,0,-0.3,0,-0.3,0" 
class="s4_75"
>word: </text>

<text 
x="209" 
y="271" 
dx="0,0,0,-0.3,0" 
class="s5_75"
>'tak'</text>

<text 
x="250" 
y="271" 
class="s3_75"
>, </text>

<text 
x="267" 
y="271" 
dx="0,0,0,-0.3,0,-0.3,0,-0.3,0,0" 
class="s4_75"
>language: </text>

<text 
x="350" 
y="271" 
class="s3_75"
>[</text>

<text 
x="358" 
y="271" 
dx="0,-0.3,0,-0.3" 
class="s5_75"
>'ms'</text>

<text 
x="391" 
y="271" 
dx="0,0,-0.3,0,-0.3" 
class="s3_75"
>] }, </text>

<path d="M107.8,295.5l719.4,0l0,-20.5l-719.4,0l0,20.5Z" class="g2_75" />
<text 
x="143" 
y="292" 
dx="0,-0.3" 
class="s3_75"
>{ </text>

<text 
x="159" 
y="292" 
dx="0,0,-0.3,0,-0.3,0" 
class="s4_75"
>word: </text>

<text 
x="209" 
y="292" 
dx="0,0,0,-0.3,0" 
class="s5_75"
>'tan'</text>

<text 
x="250" 
y="292" 
class="s3_75"
>, </text>

<text 
x="267" 
y="292" 
dx="0,0,0,-0.3,0,-0.3,0,-0.3,0,0" 
class="s4_75"
>language: </text>

<text 
x="350" 
y="292" 
class="s3_75"
>[</text>

<text 
x="358" 
y="292" 
dx="0,-0.3,0,-0.3" 
class="s5_75"
>'es'</text>

<text 
x="391" 
y="292" 
dx="0,0,-0.3,0,-0.3" 
class="s3_75"
>] }, </text>

<path d="M107.8,316.4l719.4,0l0,-20.9l-719.4,0l0,20.9Z" class="g2_75" />
<text 
x="143" 
y="312" 
dx="0,-0.3" 
class="s3_75"
>{ </text>

<text 
x="159" 
y="312" 
dx="0,0,-0.3,0,-0.3,0" 
class="s4_75"
>word: </text>

<text 
x="209" 
y="312" 
dx="0,0,0,-0.3" 
class="s5_75"
>'te'</text>

<text 
x="242" 
y="312" 
dx="0,-0.3" 
class="s3_75"
>, </text>

<text 
x="259" 
y="312" 
dx="0,-0.3,0,0,-0.3,0,-0.3,0,-0.3,0.1" 
class="s4_75"
>language: </text>

<text 
x="342" 
y="312" 
class="s3_75"
>[</text>

<text 
x="350" 
y="312" 
dx="0,0,-0.3,0" 
class="s5_75"
>'fr'</text>

<text 
x="383" 
y="312" 
dx="0,0,0,-0.3,-0.3" 
class="s3_75"
>] }, </text>

<path d="M107.8,337l719.4,0l0,-20.6l-719.4,0l0,20.6Z" class="g2_75" />
<text 
x="143" 
y="333" 
dx="0,-0.3" 
class="s3_75"
>{ </text>

<text 
x="159" 
y="333" 
dx="0,0,-0.3,0,-0.3,0" 
class="s4_75"
>word: </text>

<text 
x="209" 
y="333" 
dx="0,0,0,-0.3,0,-0.3,0" 
class="s5_75"
>'train'</text>

<text 
x="267" 
y="333" 
class="s3_75"
>, </text>

<text 
x="284" 
y="333" 
dx="0,-0.3,0,-0.3,0,-0.3,0,0,-0.3,0.1" 
class="s4_75"
>language: </text>

<text 
x="366" 
y="333" 
class="s3_75"
>[</text>

<text 
x="375" 
y="333" 
dx="0,-0.3,0,0" 
class="s5_75"
>'fr'</text>

<text 
x="408" 
y="333" 
dx="0,0,-0.3,0,-0.3" 
class="s3_75"
>] }, </text>

<path d="M107.8,357.5l719.4,0l0,-20.5l-719.4,0l0,20.5Z" class="g2_75" />
<text 
x="143" 
y="354" 
dx="0,-0.3" 
class="s3_75"
>{ </text>

<text 
x="159" 
y="354" 
dx="0,0,-0.3,0,-0.3,0" 
class="s4_75"
>word: </text>

<text 
x="209" 
y="354" 
dx="0,0,0,-0.3,0,-0.3,0,-0.3" 
class="s5_75"
>'trains'</text>

<text 
x="275" 
y="354" 
class="s3_75"
>, </text>

<text 
x="292" 
y="354" 
dx="0,0,-0.3,0,-0.3,0,0,-0.3,0,-0.3" 
class="s4_75"
>language: </text>

<text 
x="375" 
y="354" 
class="s3_75"
>[</text>

<text 
x="383" 
y="354" 
dx="0,0,0,-0.3" 
class="s5_75"
>'fr'</text>

<text 
x="416" 
y="354" 
dx="0,-0.3,0,0,-0.3" 
class="s3_75"
>] }, </text>

<path d="M107.8,378l719.4,0l0,-20.5l-719.4,0l0,20.5Z" class="g2_75" />
<text 
x="143" 
y="374" 
dx="0,-0.3" 
class="s3_75"
>{ </text>

<text 
x="159" 
y="374" 
dx="0,0,-0.3,0,-0.3,0" 
class="s4_75"
>word: </text>

<text 
x="209" 
y="374" 
dx="0,0,0,-0.3,0,-0.3" 
class="s5_75"
>'wang'</text>

<text 
x="259" 
y="374" 
dx="0,-0.3" 
class="s3_75"
>, </text>

<text 
x="275" 
y="374" 
dx="0,0,-0.3,0,-0.3,0,-0.3,0,0,-0.3" 
class="s4_75"
>language: </text>

<text 
x="358" 
y="374" 
class="s3_75"
>[</text>

<text 
x="366" 
y="374" 
dx="0,0,-0.3,0" 
class="s5_75"
>'ms'</text>

<text 
x="400" 
y="374" 
dx="0,-0.3,0,-0.3,-0.3" 
class="s3_75"
>] }, </text>

<path d="M107.8,398.9l719.4,0l0,-20.9l-719.4,0l0,20.9Z" class="g2_75" />
<text 
x="143" 
y="395" 
dx="0,-0.3" 
class="s3_75"
>{ </text>

<text 
x="159" 
y="395" 
dx="0,0,-0.3,0,-0.3,0" 
class="s4_75"
>word: </text>

<text 
x="209" 
y="395" 
dx="0,0,0,-0.3,0,-0.3" 
class="s5_75"
>'yang'</text>

<text 
x="259" 
y="395" 
dx="0,-0.3" 
class="s3_75"
>, </text>

<text 
x="275" 
y="395" 
dx="0,0,-0.3,0,-0.3,0,-0.3,0,0,-0.3" 
class="s4_75"
>language: </text>

<text 
x="358" 
y="395" 
class="s3_75"
>[</text>

<text 
x="366" 
y="395" 
dx="0,0,-0.3,0" 
class="s5_75"
>'ms'</text>

<text 
x="400" 
y="395" 
dx="0,-0.3,0,-0.3" 
class="s3_75"
>] } </text>

<path d="M107.8,419.5l719.4,0l0,-20.6l-719.4,0l0,20.6Z" class="g2_75" />
<text 
x="110" 
y="416" 
dx="0,0,-0.3" 
class="s3_75"
>]; </text>

<path d="M107.8,440l719.4,0l0,-20.5l-719.4,0l0,20.5Z" class="g2_75" />


<!-- Any embedded fonts defined here -->
<style type="text/css" ><![CDATA[

@font-face {
	font-family: ArialNovaCond-Bold_d;
	src: url("fonts/ArialNovaCond-Bold_d.woff") format("woff");
}

@font-face {
	font-family: Menlo-Regular_bu;
	src: url("fonts/Menlo-Regular_bu.woff") format("woff");
}

@font-face {
	font-family: ArialNova-Light_n;
	src: url("fonts/ArialNova-Light_n.woff") format("woff");
}

]]></style>

</svg>
