<?xml version="1.0" encoding="UTF-8" standalone="no"?>
<!DOCTYPE svg PUBLIC "-//W3C//DTD SVG 1.1//EN"
"http://www.w3.org/Graphics/SVG/1.1/DTD/svg11.dtd">


<!-- Page 77 -->
<svg x="0" y="0" width="935" height="1210" viewBox="0 0 935 1210" version="1.1" xmlns="http://www.w3.org/2000/svg" xmlns:xlink="http://www.w3.org/1999/xlink"
style="display: block;margin-left: auto;margin-right: auto;">
<defs>

<style type="text/css"><![CDATA[

.g1_77{
fill: #D9D9D9;
}
.g2_77{
fill: #FFFFFF;
}

.s1_77{
font-size: 18.33px;
font-family: ArialNovaCond-Bold_d;
fill: #5A5A5A;
}
.s2_77{
font-size: 12.10px;
font-family: ArialNova-Light_n;
fill: #7F7F7F;
}
.s3_77{
font-size: 13.93px;
font-family: Menlo-Regular_bu;
fill: #0000FF;
}
.s4_77{
font-size: 13.93px;
font-family: Menlo-Regular_bu;
fill: #001080;
}
.s5_77{
font-size: 13.93px;
font-family: Menlo-Regular_bu;
fill: #000000;
}
.s6_77{
font-size: 13.93px;
font-family: Menlo-Regular_bu;
fill: #267F99;
}
.s7_77{
font-size: 13.93px;
font-family: Menlo-Regular_bu;
fill: #A31515;
}
.s8_77{
font-size: 13.93px;
font-family: Menlo-Regular_bu;
fill: #AF00DB;
}
.s9_77{
font-size: 13.93px;
font-family: Menlo-Regular_bu;
fill: #795E26;
}
.s10_77{
font-size: 13.93px;
font-family: Menlo-Regular_bu;
fill: #008000;
}

]]></style>

</defs>
<path d="M0,0
L0,1210
L935,1210
L935,0 Z " 
fill="#FFFFFF" stroke="none" />
<text 
x="110" 
y="1106" 
dx="0,0,0,0.2" 
class="s1_77"
>77 |</text>

<text 
x="141" 
y="1106" 
dx="0,4.3,4.9,0,1.9,0,1.6,0,1.3,0,1.7,0,1.7,0,1.2,0,1.9,0,1.6,4.7,4.9,0,1.3,0,1.7,0,1.6,0,1.5,0,1.6,0,1.9,0,1.2,0,1.5,0,1.9,0,1.5,4.5,4.9,0,1.7,0,1.2,0,1.9,0,1.9,0,1.2,4.5,4.5,0,1.9,0,1.5,4.7,4.9,0,1.3,0,1.5,0,1.9,0,1.5,0,1.5,0,1.5,0,1.5,0,1.9,0,1.3,0,1.9,0,1.6,4.6,4.5,0,1.9,0,1.5,0,1.7,0,1.6,0,1.4,0,1.9,0,1.3,0,1.9,0,1.5,0,1.7,0,1.5,0,1.5,0,1.9" 
class="s2_77"
>A W e b - b a s e d T r a n s l a t i o n S y s t e m f o r M u l t i l i n g u a l C o d e - s w i t c h i n g</text>

<path d="M107.8,1086.4l719.4,0l0,-0.7l-719.4,0l0,0.7Z" class="g1_77" />
<path d="M107.8,130.5l719.4,0l0,-20.5l-719.4,0l0,20.5Z" class="g2_77" />
<text 
x="159" 
y="127" 
dx="0,0,-0.3,0,-0.3,0" 
class="s3_77"
>const </text>

<text 
x="209" 
y="127" 
dx="0,0,0,-0.3,0,-0.3" 
class="s4_77"
>target</text>

<text 
x="259" 
y="127" 
dx="0,-0.3" 
class="s5_77"
>: </text>

<text 
x="275" 
y="127" 
dx="0,0,-0.3,0,-0.3,0,-0.3" 
class="s6_77"
>string </text>

<text 
x="333" 
y="127" 
class="s5_77"
>= </text>

<text 
x="350" 
y="127" 
dx="0,0,-0.3,0,-0.3,0,0" 
class="s4_77"
>request</text>

<text 
x="408" 
y="127" 
class="s5_77"
>.</text>

<text 
x="416" 
y="127" 
dx="0,-0.3,0,0,-0.3,0" 
class="s4_77"
>params</text>

<text 
x="466" 
y="127" 
class="s5_77"
>.</text>

<text 
x="474" 
y="127" 
dx="0,-0.3,0,0,-0.3,0,-0.3" 
class="s4_77"
>target </text>

<text 
x="532" 
y="127" 
dx="0,0,-0.3,0" 
class="s5_77"
>!== </text>

<text 
x="565" 
y="127" 
dx="0,0,-0.3" 
class="s7_77"
>'' </text>

<text 
x="590" 
y="127" 
class="s5_77"
>? </text>

<text 
x="606" 
y="127" 
dx="0,0,-0.3,0,-0.3,0,0" 
class="s4_77"
>request</text>

<text 
x="664" 
y="127" 
class="s5_77"
>.</text>

<text 
x="673" 
y="127" 
dx="0,-0.3,0,-0.3,0,0" 
class="s4_77"
>params</text>

<text 
x="722" 
y="127" 
class="s5_77"
>.</text>

<text 
x="731" 
y="127" 
dx="0,-0.3,0,-0.3,0,0,-0.3" 
class="s4_77"
>target </text>

<text 
x="789" 
y="127" 
dx="0,-0.3" 
class="s5_77"
>: </text>

<path d="M107.8,151.4l719.4,0l0,-20.9l-719.4,0l0,20.9Z" class="g2_77" />
<text 
x="110" 
y="147" 
class="s7_77"
>''</text>

<text 
x="126" 
y="147" 
dx="0,-0.3" 
class="s5_77"
>; </text>

<path d="M107.8,172l719.4,0l0,-20.6l-719.4,0l0,20.6Z" class="g2_77" />
<text 
x="159" 
y="168" 
dx="0,0,-0.3" 
class="s8_77"
>if </text>

<text 
x="184" 
y="168" 
class="s5_77"
>(</text>

<text 
x="192" 
y="168" 
dx="0,0,-0.3,0,0,-0.3,0,-0.3,0,-0.3,0" 
class="s4_77"
>disableLogs</text>

<text 
x="284" 
y="168" 
dx="0,-0.3,0,-0.3" 
class="s5_77"
>) { </text>

<path d="M107.8,192.5l719.4,0l0,-20.5l-719.4,0l0,20.5Z" class="g2_77" />
<text 
x="176" 
y="189" 
dx="0,0,-0.3,0,-0.3,0,0,-0.3" 
class="s4_77"
>response</text>

<text 
x="242" 
y="189" 
class="s5_77"
>.</text>

<text 
x="250" 
y="189" 
dx="0,0,-0.3,0" 
class="s9_77"
>send</text>

<text 
x="284" 
y="189" 
class="s5_77"
>(</text>

<text 
x="292" 
y="189" 
dx="0,0,-0.3,0,-0.3,0" 
class="s8_77"
>await </text>

<text 
x="342" 
y="189" 
dx="0,-0.3,0,-0.3,0,-0.3,0,0,-0.3,0" 
class="s9_77"
>translator</text>

<text 
x="424" 
y="189" 
class="s5_77"
>(</text>

<text 
x="433" 
y="189" 
dx="0,0,-0.3,0,-0.3,0,-0.3" 
class="s4_77"
>request</text>

<text 
x="490" 
y="189" 
class="s5_77"
>.</text>

<text 
x="499" 
y="189" 
dx="0,-0.3,0,-0.3,0,0" 
class="s4_77"
>params</text>

<text 
x="548" 
y="189" 
class="s5_77"
>.</text>

<text 
x="557" 
y="189" 
dx="0,-0.3,0,-0.3,0" 
class="s4_77"
>query</text>

<text 
x="598" 
y="189" 
dx="0,-0.3" 
class="s5_77"
>, </text>

<text 
x="615" 
y="189" 
dx="0,-0.3,0,-0.3,0,0" 
class="s4_77"
>target</text>

<text 
x="664" 
y="189" 
class="s5_77"
>, </text>

<text 
x="681" 
y="189" 
dx="0,0,-0.3,0,0,-0.3,0,-0.3,0,-0.3,0" 
class="s4_77"
>disableLogs</text>

<text 
x="772" 
y="189" 
dx="0,-0.3,0,-0.3" 
class="s5_77"
>)); </text>

<path d="M107.8,213l719.4,0l0,-20.5l-719.4,0l0,20.5Z" class="g2_77" />
<text 
x="159" 
y="209" 
class="s5_77"
>} </text>

<text 
x="176" 
y="209" 
dx="0,0,-0.3,0,-0.3" 
class="s8_77"
>else </text>

<text 
x="217" 
y="209" 
dx="0,-0.3" 
class="s5_77"
>{ </text>

<path d="M107.8,233.9l719.4,0l0,-20.9l-719.4,0l0,20.9Z" class="g2_77" />
<text 
x="176" 
y="230" 
dx="0,0,-0.3,0,-0.3,0,0,-0.3" 
class="s4_77"
>response</text>

<text 
x="242" 
y="230" 
class="s5_77"
>.</text>

<text 
x="250" 
y="230" 
dx="0,0,-0.3,0" 
class="s9_77"
>send</text>

<text 
x="284" 
y="230" 
class="s5_77"
>(</text>

<text 
x="292" 
y="230" 
dx="0,0,-0.3,0,-0.3,0" 
class="s8_77"
>await </text>

<text 
x="342" 
y="230" 
dx="0,-0.3,0,-0.3,0,-0.3,0,0,-0.3,0" 
class="s9_77"
>translator</text>

<text 
x="424" 
y="230" 
class="s5_77"
>(</text>

<text 
x="433" 
y="230" 
dx="0,0,-0.3,0,-0.3,0,-0.3" 
class="s4_77"
>request</text>

<text 
x="490" 
y="230" 
class="s5_77"
>.</text>

<text 
x="499" 
y="230" 
dx="0,-0.3,0,-0.3,0,0" 
class="s4_77"
>params</text>

<text 
x="548" 
y="230" 
class="s5_77"
>.</text>

<text 
x="557" 
y="230" 
dx="0,-0.3,0,-0.3,0" 
class="s4_77"
>query</text>

<text 
x="598" 
y="230" 
dx="0,-0.3" 
class="s5_77"
>, </text>

<text 
x="615" 
y="230" 
dx="0,-0.3,0,-0.3,0,0" 
class="s4_77"
>target</text>

<text 
x="664" 
y="230" 
dx="0,0,-0.3,-0.3" 
class="s5_77"
>)); </text>

<path d="M107.8,254.5l719.4,0l0,-20.6l-719.4,0l0,20.6Z" class="g2_77" />
<text 
x="159" 
y="251" 
dx="0,-0.3" 
class="s5_77"
>} </text>

<path d="M107.8,275l719.4,0l0,-20.5l-719.4,0l0,20.5Z" class="g2_77" />
<text 
x="143" 
y="271" 
dx="0,-0.3" 
class="s5_77"
>} </text>

<text 
x="159" 
y="271" 
dx="0,0,-0.3,0,-0.3" 
class="s8_77"
>else </text>

<text 
x="201" 
y="271" 
dx="0,-0.3" 
class="s5_77"
>{ </text>

<path d="M107.8,295.5l719.4,0l0,-20.5l-719.4,0l0,20.5Z" class="g2_77" />
<text 
x="159" 
y="292" 
dx="0,0,-0.3,0,-0.3,0,-0.3,0" 
class="s4_77"
>response</text>

<text 
x="226" 
y="292" 
class="s5_77"
>.</text>

<text 
x="234" 
y="292" 
dx="0,0,-0.3,0,-0.3,0,0,-0.3" 
class="s9_77"
>sendFile</text>

<text 
x="300" 
y="292" 
class="s5_77"
>(</text>

<text 
x="308" 
y="292" 
dx="0,0,-0.3,0,0,-0.3,0,-0.3,0,-0.3" 
class="s4_77"
>__dirname </text>

<text 
x="391" 
y="292" 
class="s5_77"
>+ </text>

<text 
x="408" 
y="292" 
dx="0,0,-0.3,0,0,-0.3,0,-0.3,0,-0.3,0" 
class="s7_77"
>'/404.html'</text>

<text 
x="499" 
y="292" 
dx="0,-0.3,-0.3" 
class="s5_77"
>); </text>

<path d="M107.8,316.4l719.4,0l0,-20.9l-719.4,0l0,20.9Z" class="g2_77" />
<text 
x="143" 
y="312" 
dx="0,-0.3" 
class="s5_77"
>} </text>

<path d="M107.8,337l719.4,0l0,-20.6l-719.4,0l0,20.6Z" class="g2_77" />
<text 
x="126" 
y="333" 
dx="0,-0.3,0,-0.3,0,-0.3" 
class="s5_77"
>})(); </text>

<path d="M107.8,357.5l719.4,0l0,-20.5l-719.4,0l0,20.5Z" class="g2_77" />
<text 
x="110" 
y="354" 
dx="0,0,0,-0.3" 
class="s5_77"
>}); </text>

<path d="M107.8,378l719.4,0l0,-20.5l-719.4,0l0,20.5Z" class="g2_77" />
<path d="M107.8,398.9l719.4,0l0,-20.9l-719.4,0l0,20.9Z" class="g2_77" />
<text 
x="110" 
y="395" 
class="s4_77"
>app</text>

<text 
x="134" 
y="395" 
class="s5_77"
>.</text>

<text 
x="143" 
y="395" 
dx="0,-0.3,0" 
class="s9_77"
>get</text>

<text 
x="168" 
y="395" 
class="s5_77"
>(</text>

<text 
x="176" 
y="395" 
dx="0,0,-0.3" 
class="s7_77"
>"*"</text>

<text 
x="201" 
y="395" 
dx="0,-0.3,0" 
class="s5_77"
>, (</text>

<text 
x="226" 
y="395" 
dx="0,-0.3,0,-0.3,0,-0.3,0" 
class="s4_77"
>request</text>

<text 
x="284" 
y="395" 
dx="0,-0.3" 
class="s5_77"
>, </text>

<text 
x="300" 
y="395" 
dx="0,-0.3,0,-0.3,0,0,-0.3,0" 
class="s4_77"
>response</text>

<text 
x="366" 
y="395" 
class="s5_77"
>) </text>

<text 
x="383" 
y="395" 
class="s3_77"
>=&gt; </text>

<text 
x="408" 
y="395" 
dx="0,-0.3" 
class="s5_77"
>{ </text>

<path d="M107.8,419.5l719.4,0l0,-20.6l-719.4,0l0,20.6Z" class="g2_77" />
<text 
x="126" 
y="416" 
dx="0,-0.3,0,-0.3,0,0,-0.3,0" 
class="s4_77"
>response</text>

<text 
x="192" 
y="416" 
class="s5_77"
>.</text>

<text 
x="201" 
y="416" 
dx="0,-0.3,0,0,-0.3,0,-0.3,0" 
class="s9_77"
>sendFile</text>

<text 
x="267" 
y="416" 
class="s5_77"
>(</text>

<text 
x="275" 
y="416" 
dx="0,0,-0.3,0,-0.3,0,-0.3,0,0,-0.3" 
class="s4_77"
>__dirname </text>

<text 
x="358" 
y="416" 
dx="0,-0.3" 
class="s5_77"
>+ </text>

<text 
x="375" 
y="416" 
dx="0,-0.3,0,0,-0.3,0,-0.3,0,0,-0.3,0" 
class="s7_77"
>'/404.html'</text>

<text 
x="466" 
y="416" 
dx="0,0,-0.3" 
class="s5_77"
>); </text>

<path d="M107.8,440l719.4,0l0,-20.5l-719.4,0l0,20.5Z" class="g2_77" />
<text 
x="110" 
y="436" 
dx="0,0,-0.3" 
class="s5_77"
>}) </text>

<path d="M107.8,460.5l719.4,0l0,-20.5l-719.4,0l0,20.5Z" class="g2_77" />
<path d="M107.8,481.4l719.4,0l0,-20.9l-719.4,0l0,20.9Z" class="g2_77" />
<text 
x="110" 
y="477" 
dx="0,0,0,-0.3,0,-0.3" 
class="s3_77"
>const </text>

<text 
x="159" 
y="477" 
dx="0,0,-0.3,0" 
class="s4_77"
>api </text>

<text 
x="192" 
y="477" 
class="s5_77"
>= </text>

<text 
x="209" 
y="477" 
dx="0,0,0,-0.3,0,-0.3,0,-0.3,0" 
class="s4_77"
>functions</text>

<text 
x="284" 
y="477" 
class="s5_77"
>.</text>

<text 
x="292" 
y="477" 
dx="0,0,-0.3,0,-0.3" 
class="s4_77"
>https</text>

<text 
x="333" 
y="477" 
class="s5_77"
>.</text>

<text 
x="342" 
y="477" 
dx="0,-0.3,0,-0.3,0,-0.3,0,0,-0.3" 
class="s9_77"
>onRequest</text>

<text 
x="416" 
y="477" 
dx="0,-0.3" 
class="s5_77"
>((</text>

<text 
x="433" 
y="477" 
dx="0,0,-0.3,0,-0.3,0,-0.3" 
class="s4_77"
>request</text>

<text 
x="490" 
y="477" 
class="s5_77"
>, </text>

<text 
x="507" 
y="477" 
dx="0,0,-0.3,0,0,-0.3,0,-0.3" 
class="s4_77"
>response</text>

<text 
x="573" 
y="477" 
dx="0,-0.3" 
class="s5_77"
>) </text>

<text 
x="590" 
y="477" 
dx="0,0,-0.3" 
class="s3_77"
>=&gt; </text>

<text 
x="615" 
y="477" 
dx="0,-0.3" 
class="s5_77"
>{ </text>

<path d="M107.8,502l719.4,0l0,-20.6l-719.4,0l0,20.6Z" class="g2_77" />
<text 
x="126" 
y="498" 
dx="0,-0.3,0" 
class="s8_77"
>if </text>

<text 
x="151" 
y="498" 
class="s5_77"
>(!</text>

<text 
x="168" 
y="498" 
dx="0,-0.3,0,-0.3,0,-0.3,0" 
class="s4_77"
>request</text>

<text 
x="226" 
y="498" 
class="s5_77"
>.</text>

<text 
x="234" 
y="498" 
dx="0,0,-0.3,0" 
class="s4_77"
>path</text>

<text 
x="267" 
y="498" 
dx="0,0,0,-0.3" 
class="s5_77"
>) { </text>

<path d="M107.8,522.5l719.4,0l0,-20.5l-719.4,0l0,20.5Z" class="g2_77" />
<text 
x="143" 
y="519" 
dx="0,-0.3,0,0,-0.3,0,-0.3" 
class="s4_77"
>request</text>

<text 
x="201" 
y="519" 
class="s5_77"
>.</text>

<text 
x="209" 
y="519" 
dx="0,0,0,-0.3" 
class="s4_77"
>url </text>

<text 
x="242" 
y="519" 
dx="0,-0.3" 
class="s5_77"
>= </text>

<text 
x="259" 
y="519" 
dx="0,-0.3" 
class="s7_77"
>`/</text>

<text 
x="275" 
y="519" 
class="s3_77"
>${</text>

<text 
x="292" 
y="519" 
dx="0,0,-0.3,0,-0.3,0,0" 
class="s4_77"
>request</text>

<text 
x="350" 
y="519" 
class="s5_77"
>.</text>

<text 
x="358" 
y="519" 
dx="0,-0.3,0" 
class="s4_77"
>url</text>

<text 
x="383" 
y="519" 
class="s3_77"
>}</text>

<text 
x="391" 
y="519" 
class="s7_77"
>`</text>

<text 
x="400" 
y="519" 
dx="0,-0.3" 
class="s5_77"
>; </text>

<text 
x="416" 
y="519" 
dx="0,-0.3,0,0,-0.3,0,-0.3,0,-0.3,0,0,-0.3,0,-0.3,0,0,-0.3,0,-0.3,0,-0.3,0,0,-0.3,0,-0.3,0,-0.3,0,0,-0.3,0,-0.3,0,-0.3,0,0,-0.3,0,-0.3,0,-0.3,-0.2" 
class="s10_77"
>// prepend '/' to keep query params if any </text>

<path d="M107.8,543l719.4,0l0,-20.5l-719.4,0l0,20.5Z" class="g2_77" />
<text 
x="126" 
y="539" 
dx="0,-0.3" 
class="s5_77"
>} </text>

<path d="M107.8,563.9l719.4,0l0,-20.9l-719.4,0l0,20.9Z" class="g2_77" />
<text 
x="126" 
y="560" 
dx="0,-0.3,0,-0.3,0,0,-0.3" 
class="s8_77"
>return </text>

<text 
x="184" 
y="560" 
dx="0,-0.3,0" 
class="s9_77"
>app</text>

<text 
x="209" 
y="560" 
class="s5_77"
>(</text>

<text 
x="217" 
y="560" 
dx="0,0,-0.3,0,-0.3,0,-0.3" 
class="s4_77"
>request</text>

<text 
x="275" 
y="560" 
class="s5_77"
>, </text>

<text 
x="292" 
y="560" 
dx="0,0,-0.3,0,-0.3,0,0,-0.3" 
class="s4_77"
>response</text>

<text 
x="358" 
y="560" 
dx="0,-0.3,-0.3" 
class="s5_77"
>); </text>

<path d="M107.8,584.5l719.4,0l0,-20.6l-719.4,0l0,20.6Z" class="g2_77" />
<text 
x="110" 
y="581" 
dx="0,0,0,-0.3" 
class="s5_77"
>}); </text>

<path d="M107.8,605l719.4,0l0,-20.5l-719.4,0l0,20.5Z" class="g2_77" />
<path d="M107.8,625.5l719.4,0l0,-20.5l-719.4,0l0,20.5Z" class="g2_77" />
<text 
x="110" 
y="622" 
dx="0,0,0,-0.3,0,-0.3" 
class="s6_77"
>module</text>

<text 
x="159" 
y="622" 
class="s5_77"
>.</text>

<text 
x="168" 
y="622" 
dx="0,-0.3,0,-0.3,0,-0.3,0,0.1" 
class="s6_77"
>exports </text>

<text 
x="234" 
y="622" 
dx="0,0,-0.3,-0.3" 
class="s5_77"
>= { </text>

<path d="M107.8,646.4l719.4,0l0,-20.9l-719.4,0l0,20.9Z" class="g2_77" />
<text 
x="126" 
y="642" 
dx="0,-0.3,0,-0.3" 
class="s4_77"
>api </text>

<path d="M107.8,667l719.4,0l0,-20.6l-719.4,0l0,20.6Z" class="g2_77" />
<text 
x="110" 
y="663" 
dx="0,0,-0.3" 
class="s5_77"
>}; </text>

<path d="M107.8,687.5l719.4,0l0,-20.5l-719.4,0l0,20.5Z" class="g2_77" />
<path d="M107.8,709.1l719.4,0l0,-21.6l-719.4,0l0,21.6Z" class="g2_77" />
<path d="M107.8,731.1l719.4,0l0,-22l-719.4,0l0,22Z" class="g2_77" />
<path d="M107.8,752.8l719.4,0l0,-21.7l-719.4,0l0,21.7Z" class="g2_77" />
<path d="M107.8,774.8l719.4,0l0,-22l-719.4,0l0,22Z" class="g2_77" />
<path d="M107.8,796.4l719.4,0l0,-21.6l-719.4,0l0,21.6Z" class="g2_77" />
<path d="M107.8,818l719.4,0l0,-21.6l-719.4,0l0,21.6Z" class="g2_77" />
<path d="M107.8,840l719.4,0l0,-22l-719.4,0l0,22Z" class="g2_77" />
<path d="M107.8,861.7l719.4,0l0,-21.7l-719.4,0l0,21.7Z" class="g2_77" />
<path d="M107.8,883.3l719.4,0l0,-21.6l-719.4,0l0,21.6Z" class="g2_77" />
<path d="M107.8,905.3l719.4,0l0,-22l-719.4,0l0,22Z" class="g2_77" />
<path d="M107.8,926.9l719.4,0l0,-21.6l-719.4,0l0,21.6Z" class="g2_77" />
<path d="M107.8,948.9l719.4,0l0,-22l-719.4,0l0,22Z" class="g2_77" />
<path d="M107.8,970.6l719.4,0l0,-21.7l-719.4,0l0,21.7Z" class="g2_77" />


<!-- Any embedded fonts defined here -->
<style type="text/css" ><![CDATA[

@font-face {
	font-family: ArialNovaCond-Bold_d;
	src: url("fonts/ArialNovaCond-Bold_d.woff") format("woff");
}

@font-face {
	font-family: Menlo-Regular_bu;
	src: url("fonts/Menlo-Regular_bu.woff") format("woff");
}

@font-face {
	font-family: ArialNova-Light_n;
	src: url("fonts/ArialNova-Light_n.woff") format("woff");
}

]]></style>

</svg>
