<?xml version="1.0" encoding="UTF-8" standalone="no"?>
<!DOCTYPE svg PUBLIC "-//W3C//DTD SVG 1.1//EN"
"http://www.w3.org/Graphics/SVG/1.1/DTD/svg11.dtd">


<!-- Page 78 -->
<svg x="0" y="0" width="935" height="1210" viewBox="0 0 935 1210" version="1.1" xmlns="http://www.w3.org/2000/svg" xmlns:xlink="http://www.w3.org/1999/xlink"
style="display: block;margin-left: auto;margin-right: auto;">
<defs>

<style type="text/css"><![CDATA[

.g1_78{
fill: #D9D9D9;
}
.g2_78{
fill: #FFFFFF;
}

.s1_78{
font-size: 18.33px;
font-family: ArialNovaCond-Bold_d;
fill: #5A5A5A;
}
.s2_78{
font-size: 12.10px;
font-family: ArialNova-Light_n;
fill: #7F7F7F;
}
.s3_78{
font-size: 18.33px;
font-family: Calibri-Light_r;
fill: #44546A;
}
.s4_78{
font-size: 14.67px;
font-family: Calibri-Light_r;
fill: #44546A;
}
.s5_78{
font-size: 13.93px;
font-family: Menlo-Regular_bu;
fill: #AF00DB;
}
.s6_78{
font-size: 13.93px;
font-family: Menlo-Regular_bu;
fill: #000000;
}
.s7_78{
font-size: 13.93px;
font-family: Menlo-Regular_bu;
fill: #001080;
}
.s8_78{
font-size: 13.93px;
font-family: Menlo-Regular_bu;
fill: #A31515;
}
.s9_78{
font-size: 13.93px;
font-family: Menlo-Regular_bu;
fill: #0000FF;
}
.s10_78{
font-size: 13.93px;
font-family: Menlo-Regular_bu;
fill: #008000;
}
.s11_78{
font-size: 13.93px;
font-family: Menlo-Regular_bu;
fill: #795E26;
}
.s12_78{
font-size: 13.93px;
font-family: Menlo-Regular_bu;
fill: #267F99;
}
.s13_78{
font-size: 13.93px;
font-family: Menlo-Regular_bu;
fill: #811F3F;
}
.s14_78{
font-size: 13.93px;
font-family: Menlo-Regular_bu;
fill: #09885A;
}

]]></style>

</defs>
<path d="M0,0
L0,1210
L935,1210
L935,0 Z " 
fill="#FFFFFF" stroke="none" />
<text 
x="110" 
y="1106" 
dx="0,0,0,0.2" 
class="s1_78"
>78 |</text>

<text 
x="141" 
y="1106" 
dx="0,4.3,4.9,0,1.9,0,1.6,0,1.3,0,1.7,0,1.7,0,1.2,0,1.9,0,1.6,4.7,4.9,0,1.3,0,1.7,0,1.6,0,1.5,0,1.6,0,1.9,0,1.2,0,1.5,0,1.9,0,1.5,4.5,4.9,0,1.7,0,1.2,0,1.9,0,1.9,0,1.2,4.5,4.5,0,1.9,0,1.5,4.7,4.9,0,1.3,0,1.5,0,1.9,0,1.5,0,1.5,0,1.5,0,1.5,0,1.9,0,1.3,0,1.9,0,1.6,4.6,4.5,0,1.9,0,1.5,0,1.7,0,1.6,0,1.4,0,1.9,0,1.3,0,1.9,0,1.5,0,1.7,0,1.5,0,1.5,0,1.9" 
class="s2_78"
>A W e b - b a s e d T r a n s l a t i o n S y s t e m f o r M u l t i l i n g u a l C o d e - s w i t c h i n g</text>

<path d="M107.8,1086.4l719.4,0l0,-0.7l-719.4,0l0,0.7Z" class="g1_78" />
<text 
x="110" 
y="127" 
class="s3_78"
>F</text>

<text 
x="119" 
y="127" 
dx="0,1.6,1.6" 
class="s4_78"
>ILE</text>

<text 
x="141" 
y="127" 
class="s3_78"
>:</text>

<text 
x="152" 
y="127" 
dx="0,1.3,1.4,1.6,1.6,1.4,1.2,1.6,1.3,1.4" 
class="s4_78"
>TRANSLATOR</text>

<text 
x="244" 
y="127" 
class="s3_78"
>.</text>

<text 
x="250" 
y="127" 
dx="0,1.3" 
class="s4_78"
>TS</text>

<path d="M107.8,157.7l719.4,0l0,-16.2l-719.4,0l0,16.2Z" class="g2_78" />
<text 
x="110" 
y="154" 
dx="0,0,0,-0.3,0,-0.3,0" 
class="s5_78"
>import </text>

<text 
x="168" 
y="154" 
dx="0,-0.3" 
class="s6_78"
>{ </text>

<text 
x="184" 
y="154" 
dx="0,-0.3,0,-0.3,0,0,-0.3,0,-0.3,0,-0.3" 
class="s7_78"
>homographs </text>

<text 
x="275" 
y="154" 
class="s6_78"
>} </text>

<text 
x="292" 
y="154" 
dx="0,0,-0.3,0,-0.3" 
class="s5_78"
>from </text>

<text 
x="333" 
y="154" 
dx="0,0,-0.3,0,-0.3,0,-0.3,0,0,-0.3,0,-0.3,0,0" 
class="s8_78"
>'./homographs'</text>

<text 
x="449" 
y="154" 
dx="0,-0.3" 
class="s6_78"
>; </text>

<path d="M107.8,178.2l719.4,0l0,-20.5l-719.4,0l0,20.5Z" class="g2_78" />
<text 
x="110" 
y="174" 
dx="0,0,0,-0.3,0,-0.3,0" 
class="s5_78"
>import </text>

<text 
x="168" 
y="174" 
dx="0,-0.3" 
class="s9_78"
>* </text>

<text 
x="184" 
y="174" 
dx="0,-0.3,0" 
class="s5_78"
>as </text>

<text 
x="209" 
y="174" 
dx="0,0,0,-0.3,0,-0.3,0,-0.3" 
class="s7_78"
>request </text>

<text 
x="275" 
y="174" 
dx="0,0,-0.3,0,-0.3" 
class="s5_78"
>from </text>

<text 
x="317" 
y="174" 
dx="0,-0.3,0,0,-0.3,0,-0.3,0,-0.3" 
class="s8_78"
>'request'</text>

<text 
x="391" 
y="174" 
dx="0,-0.3" 
class="s6_78"
>; </text>

<path d="M107.8,198.7l719.4,0l0,-20.5l-719.4,0l0,20.5Z" class="g2_78" />
<text 
x="110" 
y="195" 
dx="0,0,0,-0.3,0,-0.3,0" 
class="s5_78"
>import </text>

<text 
x="168" 
y="195" 
dx="0,-0.3" 
class="s6_78"
>{ </text>

<text 
x="184" 
y="195" 
dx="0,-0.3,0,-0.3,0,0,-0.3,0,-0.3,0,-0.3,0,0,-0.3,0,-0.3" 
class="s7_78"
>AllHtmlEntities </text>

<text 
x="317" 
y="195" 
dx="0,-0.3" 
class="s6_78"
>} </text>

<text 
x="333" 
y="195" 
dx="0,0,-0.3,0,-0.3" 
class="s5_78"
>from </text>

<text 
x="375" 
y="195" 
dx="0,-0.3,0,0,-0.3,0.1,-0.3,0,0,-0.3,0,-0.3,0,-0.3,0" 
class="s8_78"
>'html-entities'</text>

<text 
x="499" 
y="195" 
dx="0,-0.3" 
class="s6_78"
>; </text>

<path d="M107.8,219.6l719.4,0l0,-20.9l-719.4,0l0,20.9Z" class="g2_78" />
<text 
x="110" 
y="215" 
dx="0,0,0,-0.3,0,-0.3,0" 
class="s5_78"
>import </text>

<text 
x="168" 
y="215" 
dx="0,-0.3" 
class="s9_78"
>* </text>

<text 
x="184" 
y="215" 
dx="0,-0.3,0" 
class="s5_78"
>as </text>

<text 
x="209" 
y="215" 
dx="0,0,0,-0.3,0,-0.3,0,-0.3,0,0" 
class="s7_78"
>functions </text>

<text 
x="292" 
y="215" 
dx="0,0,-0.3,0,-0.3" 
class="s5_78"
>from </text>

<text 
x="333" 
y="215" 
dx="0,0,-0.3,0,-0.3,0,-0.3,0,0,-0.3,0,-0.3,0,0,-0.3,0,-0.3,0,-0.3,0" 
class="s8_78"
>'firebase-functions'</text>

<text 
x="499" 
y="215" 
dx="0,-0.3" 
class="s6_78"
>; </text>

<path d="M107.8,240.2l719.4,0l0,-20.6l-719.4,0l0,20.6Z" class="g2_78" />
<path d="M107.8,260.7l719.4,0l0,-20.5l-719.4,0l0,20.5Z" class="g2_78" />
<text 
x="110" 
y="257" 
dx="0,0,0,-0.3,0,-0.3,0,0,-0.3,0,-0.3,0,-0.3,0,0,-0.3,0,-0.3,0,-0.4" 
class="s10_78"
>// Setting API keys </text>

<path d="M107.8,281.2l719.4,0l0,-20.5l-719.4,0l0,20.5Z" class="g2_78" />
<text 
x="110" 
y="277" 
dx="0,0,0,-0.3,0,-0.3" 
class="s9_78"
>const </text>

<text 
x="159" 
y="277" 
dx="0,0,-0.3,0" 
class="s7_78"
>key </text>

<text 
x="192" 
y="277" 
class="s6_78"
>= </text>

<text 
x="209" 
y="277" 
dx="0,0,0,-0.3,0,-0.3,0,-0.3,0" 
class="s7_78"
>functions</text>

<text 
x="284" 
y="277" 
class="s6_78"
>.</text>

<text 
x="292" 
y="277" 
dx="0,0,-0.3,0,-0.3,0" 
class="s11_78"
>config</text>

<text 
x="342" 
y="277" 
dx="0,-0.3,0" 
class="s6_78"
>().</text>

<text 
x="366" 
y="277" 
dx="0,0,-0.3,0,0,-0.3,0,-0.3,0,0,-0.3" 
class="s7_78"
>environment</text>

<text 
x="457" 
y="277" 
class="s6_78"
>.</text>

<text 
x="466" 
y="277" 
dx="0,0,-0.3,0,0,-0.3,0,-0.3,0" 
class="s7_78"
>googleApi</text>

<text 
x="540" 
y="277" 
dx="0,-0.3" 
class="s6_78"
>; </text>

<path d="M107.8,302.1l719.4,0l0,-20.9l-719.4,0l0,20.9Z" class="g2_78" />
<path d="M107.8,322.7l719.4,0l0,-20.6l-719.4,0l0,20.6Z" class="g2_78" />
<text 
x="110" 
y="319" 
dx="0,0,0,-0.3,0,-0.3" 
class="s9_78"
>const </text>

<text 
x="159" 
y="319" 
dx="0,0,-0.3,0,-0.3,0,-0.3,0,0" 
class="s7_78"
>entities </text>

<text 
x="234" 
y="319" 
class="s6_78"
>= </text>

<text 
x="250" 
y="319" 
dx="0,0,-0.3,0" 
class="s9_78"
>new </text>

<text 
x="284" 
y="319" 
dx="0,-0.3,0,-0.3,0,-0.3,0,0,-0.3,0,-0.3,0,-0.3,0,0" 
class="s12_78"
>AllHtmlEntities</text>

<text 
x="408" 
y="319" 
dx="0,0,-0.3,-0.3" 
class="s6_78"
>(); </text>

<path d="M107.8,343.2l719.4,0l0,-20.5l-719.4,0l0,20.5Z" class="g2_78" />
<path d="M107.8,363.7l719.4,0l0,-20.5l-719.4,0l0,20.5Z" class="g2_78" />
<text 
x="110" 
y="360" 
dx="0,0,0,-0.3,0,-0.3,0,0,-0.3,0,-0.3,0,-0.3,0,0,-0.3,0,-0.3,0,-0.3,0,0,-0.3,0,-0.3,0,-0.3,0,0,-0.3,0,-0.3,0,-0.3,0,0,-0.3,0,-0.3,0,0,-0.3,0,-0.3,0,-0.3,0,-0.4" 
class="s10_78"
>// According to Google Translate language codes </text>

<path d="M107.8,384.6l719.4,0l0,-20.9l-719.4,0l0,20.9Z" class="g2_78" />
<text 
x="110" 
y="380" 
dx="0,0,0,-0.3" 
class="s9_78"
>let </text>

<text 
x="143" 
y="380" 
dx="0,-0.3,0,0,-0.3,0,-0.3,0,-0.3,0,0,-0.3,0,-0.3,0.1" 
class="s7_78"
>targetLanguage </text>

<text 
x="267" 
y="380" 
class="s6_78"
>= </text>

<text 
x="284" 
y="380" 
dx="0,-0.3,0,-0.3" 
class="s8_78"
>'en'</text>

<text 
x="317" 
y="380" 
dx="0,-0.3" 
class="s6_78"
>; </text>

<path d="M107.8,405.2l719.4,0l0,-20.6l-719.4,0l0,20.6Z" class="g2_78" />
<path d="M107.8,425.7l719.4,0l0,-20.5l-719.4,0l0,20.5Z" class="g2_78" />
<text 
x="110" 
y="422" 
dx="0,0,0,-0.3,0,-0.3,0,0,-0.3,0,-0.3,0,-0.3,0,0,-0.3,0,-0.3,0,-0.3,0,0,-0.3,0,-0.3,0,-0.3,0,0,-0.3,0,-0.3,0,-0.3,-0.4" 
class="s10_78"
>// Set language code error trigger </text>

<path d="M107.8,446.2l719.4,0l0,-20.5l-719.4,0l0,20.5Z" class="g2_78" />
<text 
x="110" 
y="442" 
dx="0,0,0,-0.3" 
class="s9_78"
>let </text>

<text 
x="143" 
y="442" 
dx="0,-0.3,0,0,-0.3,0,-0.3,0,-0.3,0,0,-0.3,0,-0.3,0,-0.3,0,0.1" 
class="s7_78"
>languageCodeError </text>

<text 
x="292" 
y="442" 
class="s6_78"
>= </text>

<text 
x="308" 
y="442" 
dx="0,0,-0.3,0,0" 
class="s9_78"
>false</text>

<text 
x="350" 
y="442" 
dx="0,-0.3" 
class="s6_78"
>; </text>

<path d="M107.8,467.1l719.4,0l0,-20.9l-719.4,0l0,20.9Z" class="g2_78" />
<path d="M107.8,487.7l719.4,0l0,-20.6l-719.4,0l0,20.6Z" class="g2_78" />
<text 
x="110" 
y="484" 
dx="0,0,0,-0.3,0,-0.3,0,0,-0.3,0,-0.3,0,-0.3,0,0,-0.3,0,-0.4,0,-0.3,0,0,-0.3,0,-0.3,0,-0.3,0,0,-0.3,0,-0.3,0,-0.3,0,0,-0.3,0,-0.3,0,0,-0.3,0,-0.3,0,-0.3,0,0,-0.3,0,-0.3,0,0,-0.3,0,-0.3,0,-0.3,0,0,-0.3,0,-0.3,0,-0.3,0,0,-0.3,0,-0.3,0,-0.3,0,0,-0.3,0,-0.3,0,-0.3,0,0,-0.3,0,-0.3,0,0" 
class="s10_78"
>// Turn on double-pass translation = Source language =&gt; framework language =&gt; (neural </text>

<path d="M107.8,508.2l719.4,0l0,-20.5l-719.4,0l0,20.5Z" class="g2_78" />
<text 
x="110" 
y="504" 
dx="0,0,0,-0.3,0,-0.3,0,0,-0.3,0,-0.3,0,-0.3,0,0,-0.3,0,-0.3,0,-0.3,0,0,-0.3,0,-0.3,0,-0.3,0,0,-0.4,0,-0.3,0,-0.3,0,0,-0.3,0,-0.3,-0.3" 
class="s10_78"
>translation machine) =&gt; target language </text>

<path d="M107.8,528.7l719.4,0l0,-20.5l-719.4,0l0,20.5Z" class="g2_78" />
<text 
x="110" 
y="525" 
dx="0,0,0,-0.3,0,-0.3,0,0,-0.3,0,-0.3,0,-0.3,0,0,-0.3,0,-0.3,0,-0.3,0,0,-0.3,0,-0.3,0,-0.3,0,0,-0.3,0,-0.3,0,-0.3,0,0,-0.3,0,-0.3,0,0,-0.3,0,-0.3,0,-0.3,0,0,-0.3,0,-0.3,0,0,-0.3,0,-0.3,0,-0.3,0,0,-0.3,0,-0.3,-0.5" 
class="s10_78"
>// Single pass translation = Source language =&gt; target language </text>

<path d="M107.8,549.6l719.4,0l0,-20.9l-719.4,0l0,20.9Z" class="g2_78" />
<text 
x="110" 
y="545" 
dx="0,0,0,-0.3,0,-0.3" 
class="s9_78"
>const </text>

<text 
x="159" 
y="545" 
dx="0,0,-0.3,0,-0.3,0,-0.3,0,0,-0.3,0,-0.3,0,-0.3,0,0,-0.3,0,-0.3,0,-0.3,0" 
class="s7_78"
>doublePassTranslation </text>

<text 
x="342" 
y="545" 
dx="0,-0.3" 
class="s6_78"
>= </text>

<text 
x="358" 
y="545" 
dx="0,-0.3,0,-0.3" 
class="s9_78"
>true</text>

<text 
x="391" 
y="545" 
dx="0,-0.3" 
class="s6_78"
>; </text>

<path d="M107.8,570.2l719.4,0l0,-20.6l-719.4,0l0,20.6Z" class="g2_78" />
<path d="M107.8,590.7l719.4,0l0,-20.5l-719.4,0l0,20.5Z" class="g2_78" />
<text 
x="110" 
y="587" 
dx="0,0,0,-0.3,0,-0.3,0,0,-0.3" 
class="s9_78"
>function </text>

<text 
x="184" 
y="587" 
dx="0,-0.3,0,-0.3,0,0,-0.3,0,-0.3,0" 
class="s11_78"
>translator</text>

<text 
x="267" 
y="587" 
class="s6_78"
>(</text>

<text 
x="275" 
y="587" 
dx="0,0,-0.3,0,-0.3" 
class="s7_78"
>query</text>

<text 
x="317" 
y="587" 
dx="0,-0.3" 
class="s6_78"
>: </text>

<text 
x="333" 
y="587" 
dx="0,0,-0.3,0,-0.3,0" 
class="s12_78"
>string</text>

<text 
x="383" 
y="587" 
class="s6_78"
>, </text>

<text 
x="400" 
y="587" 
dx="0,-0.3,0,-0.3,0,0" 
class="s7_78"
>target</text>

<text 
x="449" 
y="587" 
class="s6_78"
>: </text>

<text 
x="466" 
y="587" 
dx="0,0,-0.3,0,0,-0.3" 
class="s12_78"
>string</text>

<text 
x="515" 
y="587" 
dx="0,-0.3" 
class="s6_78"
>, </text>

<text 
x="532" 
y="587" 
dx="0,0,-0.3,0,-0.3,0,-0.3,0,0,-0.3,0" 
class="s7_78"
>disablelogs</text>

<text 
x="623" 
y="587" 
dx="0,0,-0.3" 
class="s6_78"
>?: </text>

<text 
x="648" 
y="587" 
dx="0,0,-0.3,0,-0.3,0,-0.3" 
class="s12_78"
>boolean</text>

<text 
x="706" 
y="587" 
dx="0,0,-0.3,-0.3" 
class="s6_78"
>) { </text>

<path d="M107.8,611.2l719.4,0l0,-20.5l-719.4,0l0,20.5Z" class="g2_78" />
<text 
x="143" 
y="607" 
dx="0,-0.3,0,0,-0.3,0,-0.3,0,-0.3,0,0,-0.3,0,-0.3,0,-0.3,0,0,-0.3,0,-0.3,0,-0.3,0,0,-0.3,0,-0.3,0,-0.3,0,0,-0.3,0,-0.3,0,0,-0.3,0,-0.3,-0.2" 
class="s10_78"
>// If target is blank, set default to en </text>

<path d="M107.8,632.1l719.4,0l0,-20.9l-719.4,0l0,20.9Z" class="g2_78" />
<text 
x="143" 
y="628" 
dx="0,-0.3,0" 
class="s5_78"
>if </text>

<text 
x="168" 
y="628" 
class="s6_78"
>(</text>

<text 
x="176" 
y="628" 
dx="0,0,-0.3,0,-0.3,0,0" 
class="s7_78"
>target </text>

<text 
x="234" 
y="628" 
dx="0,0,-0.3,0" 
class="s6_78"
>!== </text>

<text 
x="267" 
y="628" 
class="s8_78"
>''</text>

<text 
x="284" 
y="628" 
dx="0,-0.3,0,-0.3" 
class="s6_78"
>) { </text>

<path d="M107.8,652.7l719.4,0l0,-20.6l-719.4,0l0,20.6Z" class="g2_78" />
<text 
x="176" 
y="649" 
dx="0,0,-0.3,0,-0.3,0,0,-0.3,0,-0.3,0,-0.3,0,0,-0.3" 
class="s7_78"
>targetLanguage </text>

<text 
x="300" 
y="649" 
dx="0,-0.3" 
class="s6_78"
>= </text>

<text 
x="317" 
y="649" 
dx="0,-0.3,0,0,-0.3,0" 
class="s7_78"
>target</text>

<text 
x="366" 
y="649" 
dx="0,-0.3" 
class="s6_78"
>; </text>

<path d="M107.8,673.2l719.4,0l0,-20.5l-719.4,0l0,20.5Z" class="g2_78" />
<text 
x="143" 
y="669" 
dx="0,-0.3" 
class="s6_78"
>} </text>

<path d="M107.8,693.7l719.4,0l0,-20.5l-719.4,0l0,20.5Z" class="g2_78" />
<text 
x="143" 
y="690" 
dx="0,-0.3,0,0,-0.3,0,-0.3" 
class="s5_78"
>return </text>

<text 
x="201" 
y="690" 
class="s6_78"
>(</text>

<text 
x="209" 
y="690" 
dx="0,0,0,-0.3,0,-0.3" 
class="s9_78"
>async </text>

<text 
x="259" 
y="690" 
dx="0,-0.3,0" 
class="s6_78"
>() </text>

<text 
x="284" 
y="690" 
dx="0,-0.3,0" 
class="s9_78"
>=&gt; </text>

<text 
x="308" 
y="690" 
dx="0,-0.3" 
class="s6_78"
>{ </text>

<path d="M107.8,714.6l719.4,0l0,-20.9l-719.4,0l0,20.9Z" class="g2_78" />
<text 
x="176" 
y="710" 
dx="0,0,-0.3,0" 
class="s9_78"
>let </text>

<text 
x="209" 
y="710" 
dx="0,0,0,-0.3,0" 
class="s7_78"
>text </text>

<text 
x="250" 
y="710" 
class="s6_78"
>= </text>

<text 
x="267" 
y="710" 
dx="0,0,0,-0.3,0" 
class="s7_78"
>query</text>

<text 
x="308" 
y="710" 
dx="0,-0.3" 
class="s6_78"
>; </text>

<path d="M107.8,735.2l719.4,0l0,-20.6l-719.4,0l0,20.6Z" class="g2_78" />
<text 
x="176" 
y="731" 
dx="0,0,-0.3" 
class="s5_78"
>if </text>

<text 
x="201" 
y="731" 
class="s6_78"
>(</text>

<text 
x="209" 
y="731" 
dx="0,0,0,-0.3,0" 
class="s7_78"
>text </text>

<text 
x="250" 
y="731" 
dx="0,0,-0.3,0" 
class="s6_78"
>=== </text>

<text 
x="284" 
y="731" 
dx="0,-0.3" 
class="s8_78"
>''</text>

<text 
x="300" 
y="731" 
dx="0,-0.3,0,-0.3" 
class="s6_78"
>) { </text>

<path d="M107.8,755.7l719.4,0l0,-20.5l-719.4,0l0,20.5Z" class="g2_78" />
<text 
x="209" 
y="752" 
dx="0,0,0,-0.3,0,-0.3" 
class="s5_78"
>return</text>

<text 
x="259" 
y="752" 
dx="0,-0.3" 
class="s6_78"
>; </text>

<path d="M107.8,776.2l719.4,0l0,-20.5l-719.4,0l0,20.5Z" class="g2_78" />
<text 
x="176" 
y="772" 
dx="0,-0.3" 
class="s6_78"
>} </text>

<path d="M107.8,797.1l719.4,0l0,-20.9l-719.4,0l0,20.9Z" class="g2_78" />
<text 
x="176" 
y="793" 
dx="0,0,-0.3,0,-0.3,0,0,-0.3,0,-0.3,0,-0.3,0,0,-0.3,0,-0.3,0,-0.3,0,0,-0.3,0,-0.3,-0.3" 
class="s10_78"
>// Check for line-breaks </text>

<path d="M107.8,817.7l719.4,0l0,-20.6l-719.4,0l0,20.6Z" class="g2_78" />
<text 
x="176" 
y="814" 
dx="0,0,-0.3,0,-0.3" 
class="s7_78"
>text </text>

<text 
x="217" 
y="814" 
class="s6_78"
>= </text>

<text 
x="234" 
y="814" 
dx="0,0,-0.3,0" 
class="s7_78"
>text</text>

<text 
x="267" 
y="814" 
class="s6_78"
>.</text>

<text 
x="275" 
y="814" 
dx="0,0,-0.3,0,-0.3,0,-0.3" 
class="s11_78"
>replace</text>

<text 
x="333" 
y="814" 
class="s6_78"
>(</text>

<text 
x="342" 
y="814" 
dx="0,-0.3,0,-0.3" 
class="s13_78"
>/\n/</text>

<text 
x="375" 
y="814" 
class="s9_78"
>g</text>

<text 
x="383" 
y="814" 
class="s6_78"
>, </text>

<text 
x="400" 
y="814" 
dx="0,-0.3,0" 
class="s8_78"
>'.'</text>

<text 
x="424" 
y="814" 
dx="0,0,-0.3" 
class="s6_78"
>); </text>

<path d="M107.8,838.2l719.4,0l0,-20.5l-719.4,0l0,20.5Z" class="g2_78" />
<path d="M107.8,858.7l719.4,0l0,-20.5l-719.4,0l0,20.5Z" class="g2_78" />
<text 
x="176" 
y="855" 
dx="0,0,-0.3,0,-0.3,0,0,-0.3,0,-0.3,0,-0.3,0,0,-0.3,0,-0.3,0,-0.3,0,0,-0.3,0,-0.4,0,-0.3,0,0,-0.3,-0.3" 
class="s10_78"
>// Check for Asian characters </text>

<path d="M107.8,879.6l719.4,0l0,-20.9l-719.4,0l0,20.9Z" class="g2_78" />
<text 
x="176" 
y="875" 
dx="0,0,-0.3,0,-0.3" 
class="s7_78"
>text </text>

<text 
x="217" 
y="875" 
class="s6_78"
>= </text>

<text 
x="234" 
y="875" 
dx="0,0,-0.3,0,-0.3,0,0,-0.3,0,-0.3" 
class="s11_78"
>asianRegex</text>

<text 
x="317" 
y="875" 
class="s6_78"
>(</text>

<text 
x="325" 
y="875" 
dx="0,0,0,-0.3" 
class="s7_78"
>text</text>

<text 
x="358" 
y="875" 
dx="0,-0.3,-0.3" 
class="s6_78"
>); </text>

<path d="M107.8,900.2l719.4,0l0,-20.6l-719.4,0l0,20.6Z" class="g2_78" />
<path d="M107.8,920.7l719.4,0l0,-20.5l-719.4,0l0,20.5Z" class="g2_78" />
<text 
x="176" 
y="917" 
dx="0,0,-0.3,0,-0.3,0" 
class="s9_78"
>const </text>

<text 
x="226" 
y="917" 
dx="0,-0.3,0,-0.3,0,-0.3,0,0,-0.3,0.1" 
class="s7_78"
>textArray </text>

<text 
x="308" 
y="917" 
class="s6_78"
>= </text>

<text 
x="325" 
y="917" 
dx="0,0,0,-0.3" 
class="s7_78"
>text</text>

<text 
x="358" 
y="917" 
class="s6_78"
>.</text>

<text 
x="366" 
y="917" 
dx="0,0,-0.3,0,0" 
class="s11_78"
>split</text>

<text 
x="408" 
y="917" 
class="s6_78"
>(</text>

<text 
x="416" 
y="917" 
dx="0,-0.3,0" 
class="s8_78"
>' '</text>

<text 
x="441" 
y="917" 
dx="0,-0.3,-0.3" 
class="s6_78"
>); </text>

<path d="M107.8,941.2l719.4,0l0,-20.5l-719.4,0l0,20.5Z" class="g2_78" />
<path d="M107.8,962.1l719.4,0l0,-20.9l-719.4,0l0,20.9Z" class="g2_78" />
<text 
x="176" 
y="958" 
dx="0,0,-0.3,0,-0.3,0,0,-0.3,0,-0.3,0,-0.3,0,0,-0.3,0,-0.3,0,-0.3,0,0,-0.3,0,-0.3,0,-0.3,-0.4" 
class="s10_78"
>// Filter out empty spaces </text>

<path d="M107.8,982.7l719.4,0l0,-20.6l-719.4,0l0,20.6Z" class="g2_78" />
<text 
x="176" 
y="979" 
dx="0,0,-0.3,0" 
class="s5_78"
>for </text>

<text 
x="209" 
y="979" 
class="s6_78"
>(</text>

<text 
x="217" 
y="979" 
dx="0,0,-0.3,0" 
class="s9_78"
>let </text>

<text 
x="250" 
y="979" 
class="s7_78"
>i </text>

<text 
x="267" 
y="979" 
class="s6_78"
>= </text>

<text 
x="284" 
y="979" 
class="s14_78"
>0</text>

<text 
x="292" 
y="979" 
class="s6_78"
>; </text>

<text 
x="308" 
y="979" 
class="s7_78"
>i </text>

<text 
x="325" 
y="979" 
class="s6_78"
>&lt; </text>

<text 
x="342" 
y="979" 
dx="0,-0.3,0,-0.3,0,-0.3,0,0,-0.3" 
class="s7_78"
>textArray</text>

<text 
x="416" 
y="979" 
class="s6_78"
>.</text>

<text 
x="424" 
y="979" 
dx="0,0,0,-0.3,0,-0.3" 
class="s7_78"
>length</text>

<text 
x="474" 
y="979" 
dx="0,-0.3" 
class="s6_78"
>; </text>

<text 
x="490" 
y="979" 
class="s7_78"
>i</text>

<text 
x="499" 
y="979" 
dx="0,-0.3,0,-0.3,0,-0.3" 
class="s6_78"
>++) { </text>

<path d="M107.8,1003.2l719.4,0l0,-20.5l-719.4,0l0,20.5Z" class="g2_78" />
<text 
x="209" 
y="999" 
class="s5_78"
>if </text>

<text 
x="234" 
y="999" 
class="s6_78"
>(</text>

<text 
x="242" 
y="999" 
dx="0,-0.3,0,-0.3,0,0,-0.3,0,-0.3" 
class="s7_78"
>textArray</text>

<text 
x="317" 
y="999" 
class="s6_78"
>[</text>

<text 
x="325" 
y="999" 
class="s7_78"
>i</text>

<text 
x="333" 
y="999" 
class="s6_78"
>].</text>

<text 
x="350" 
y="999" 
dx="0,0,-0.3,0,-0.3,0,0" 
class="s11_78"
>replace</text>

<text 
x="408" 
y="999" 
class="s6_78"
>(</text>

<text 
x="416" 
y="999" 
dx="0,-0.3,0" 
class="s13_78"
>/ /</text>

<text 
x="441" 
y="999" 
class="s9_78"
>g</text>

<text 
x="449" 
y="999" 
class="s6_78"
>, </text>

<text 
x="466" 
y="999" 
class="s8_78"
>''</text>

<text 
x="482" 
y="999" 
dx="0,0,0,-0.3,0,-0.3" 
class="s6_78"
>) === </text>

<text 
x="532" 
y="999" 
class="s8_78"
>''</text>

<text 
x="548" 
y="999" 
dx="0,0,-0.3,-0.3" 
class="s6_78"
>) { </text>

<path d="M107.8,1023.7l719.4,0l0,-20.5l-719.4,0l0,20.5Z" class="g2_78" />
<text 
x="242" 
y="1020" 
dx="0,-0.3,0,-0.3,0,0,-0.3,0,-0.3" 
class="s7_78"
>textArray</text>

<text 
x="317" 
y="1020" 
class="s6_78"
>.</text>

<text 
x="325" 
y="1020" 
dx="0,0,0,-0.3,0,-0.3" 
class="s11_78"
>splice</text>

<text 
x="375" 
y="1020" 
class="s6_78"
>(</text>

<text 
x="383" 
y="1020" 
class="s7_78"
>i</text>

<text 
x="391" 
y="1020" 
class="s6_78"
>, </text>

<text 
x="408" 
y="1020" 
class="s14_78"
>1</text>

<text 
x="416" 
y="1020" 
dx="0,-0.3,-0.3" 
class="s6_78"
>); </text>

<path d="M107.8,1044.6l719.4,0l0,-20.9l-719.4,0l0,20.9Z" class="g2_78" />
<text 
x="242" 
y="1040" 
class="s7_78"
>i</text>

<text 
x="250" 
y="1040" 
dx="0,0,-0.3,-0.3" 
class="s6_78"
>--; </text>

<path d="M107.8,1065.2l719.4,0l0,-20.6l-719.4,0l0,20.6Z" class="g2_78" />
<text 
x="209" 
y="1061" 
dx="0,-0.3" 
class="s6_78"
>} </text>



<!-- Any embedded fonts defined here -->
<style type="text/css" ><![CDATA[

@font-face {
	font-family: ArialNovaCond-Bold_d;
	src: url("fonts/ArialNovaCond-Bold_d.woff") format("woff");
}

@font-face {
	font-family: Menlo-Regular_bu;
	src: url("fonts/Menlo-Regular_bu.woff") format("woff");
}

@font-face {
	font-family: ArialNova-Light_n;
	src: url("fonts/ArialNova-Light_n.woff") format("woff");
}

@font-face {
	font-family: Calibri-Light_r;
	src: url("fonts/Calibri-Light_r.woff") format("woff");
}

]]></style>

</svg>
