<?xml version="1.0" encoding="UTF-8" standalone="no"?>
<!DOCTYPE svg PUBLIC "-//W3C//DTD SVG 1.1//EN"
"http://www.w3.org/Graphics/SVG/1.1/DTD/svg11.dtd">


<!-- Page 79 -->
<svg x="0" y="0" width="935" height="1210" viewBox="0 0 935 1210" version="1.1" xmlns="http://www.w3.org/2000/svg" xmlns:xlink="http://www.w3.org/1999/xlink"
style="display: block;margin-left: auto;margin-right: auto;">
<defs>

<style type="text/css"><![CDATA[

.g1_79{
fill: #D9D9D9;
}
.g2_79{
fill: #FFFFFF;
}

.s1_79{
font-size: 18.33px;
font-family: ArialNovaCond-Bold_d;
fill: #5A5A5A;
}
.s2_79{
font-size: 12.10px;
font-family: ArialNova-Light_n;
fill: #7F7F7F;
}
.s3_79{
font-size: 13.93px;
font-family: Menlo-Regular_bu;
fill: #000000;
}
.s4_79{
font-size: 13.93px;
font-family: Menlo-Regular_bu;
fill: #0000FF;
}
.s5_79{
font-size: 13.93px;
font-family: Menlo-Regular_bu;
fill: #001080;
}
.s6_79{
font-size: 13.93px;
font-family: Menlo-Regular_bu;
fill: #267F99;
}
.s7_79{
font-size: 13.93px;
font-family: Menlo-Regular_bu;
fill: #AF00DB;
}
.s8_79{
font-size: 13.93px;
font-family: Menlo-Regular_bu;
fill: #795E26;
}
.s9_79{
font-size: 13.93px;
font-family: Menlo-Regular_bu;
fill: #A31515;
}
.s10_79{
font-size: 13.93px;
font-family: Menlo-Regular_bu;
fill: #008000;
}
.s11_79{
font-size: 13.93px;
font-family: Menlo-Regular_bu;
fill: #09885A;
}
.s12_79{
font-size: 13.93px;
font-family: Menlo-Regular_bu;
fill: #811F3F;
}

]]></style>

</defs>
<path d="M0,0
L0,1210
L935,1210
L935,0 Z " 
fill="#FFFFFF" stroke="none" />
<text 
x="110" 
y="1106" 
dx="0,0,0,0.2" 
class="s1_79"
>79 |</text>

<text 
x="141" 
y="1106" 
dx="0,4.3,4.9,0,1.9,0,1.6,0,1.3,0,1.7,0,1.7,0,1.2,0,1.9,0,1.6,4.7,4.9,0,1.3,0,1.7,0,1.6,0,1.5,0,1.6,0,1.9,0,1.2,0,1.5,0,1.9,0,1.5,4.5,4.9,0,1.7,0,1.2,0,1.9,0,1.9,0,1.2,4.5,4.5,0,1.9,0,1.5,4.7,4.9,0,1.3,0,1.5,0,1.9,0,1.5,0,1.5,0,1.5,0,1.5,0,1.9,0,1.3,0,1.9,0,1.6,4.6,4.5,0,1.9,0,1.5,0,1.7,0,1.6,0,1.4,0,1.9,0,1.3,0,1.9,0,1.5,0,1.7,0,1.5,0,1.5,0,1.9" 
class="s2_79"
>A W e b - b a s e d T r a n s l a t i o n S y s t e m f o r M u l t i l i n g u a l C o d e - s w i t c h i n g</text>

<path d="M107.8,1086.4l719.4,0l0,-0.7l-719.4,0l0,0.7Z" class="g1_79" />
<path d="M107.8,130.5l719.4,0l0,-20.5l-719.4,0l0,20.5Z" class="g2_79" />
<text 
x="176" 
y="127" 
dx="0,-0.3" 
class="s3_79"
>} </text>

<path d="M107.8,151.4l719.4,0l0,-20.9l-719.4,0l0,20.9Z" class="g2_79" />
<text 
x="176" 
y="147" 
dx="0,0,-0.3,0,-0.3,0" 
class="s4_79"
>const </text>

<text 
x="226" 
y="147" 
dx="0,-0.3,0,-0.3,0,-0.3,0,0,-0.3,0,-0.3,0,-0.3" 
class="s5_79"
>textLanguage </text>

<text 
x="333" 
y="147" 
dx="0,0,-0.3,0,-0.3,-0.3" 
class="s3_79"
>= []; </text>

<path d="M107.8,172l719.4,0l0,-20.6l-719.4,0l0,20.6Z" class="g2_79" />
<path d="M107.8,192.5l719.4,0l0,-20.5l-719.4,0l0,20.5Z" class="g2_79" />
<text 
x="176" 
y="189" 
dx="0,0,-0.3,0" 
class="s4_79"
>let </text>

<text 
x="209" 
y="189" 
dx="0,0,0,-0.3,0,-0.3,0,-0.3,0,0,-0.3,0,-0.3,0" 
class="s5_79"
>matrixLanguage</text>

<text 
x="325" 
y="189" 
class="s3_79"
>: </text>

<text 
x="342" 
y="189" 
dx="0,-0.3,0,-0.3" 
class="s6_79"
>any </text>

<text 
x="375" 
y="189" 
dx="0,-0.3" 
class="s3_79"
>= </text>

<text 
x="391" 
y="189" 
dx="0,0,-0.3,0,-0.3,0" 
class="s7_79"
>await </text>

<text 
x="441" 
y="189" 
dx="0,-0.3,0,-0.3,0,-0.3,0,0,-0.3,0,-0.3,0,0,-0.3" 
class="s8_79"
>detectLanguage</text>

<text 
x="557" 
y="189" 
class="s3_79"
>(</text>

<text 
x="565" 
y="189" 
dx="0,0,-0.3,0" 
class="s5_79"
>text</text>

<text 
x="598" 
y="189" 
dx="0,-0.3,-0.3" 
class="s3_79"
>); </text>

<path d="M107.8,213l719.4,0l0,-20.5l-719.4,0l0,20.5Z" class="g2_79" />
<text 
x="176" 
y="209" 
dx="0,0,-0.3" 
class="s7_79"
>if </text>

<text 
x="201" 
y="209" 
class="s3_79"
>(</text>

<text 
x="209" 
y="209" 
dx="0,0,0,-0.3,0,-0.3,0,-0.3,0,0,-0.3,0,-0.3,0,-0.3" 
class="s5_79"
>matrixLanguage </text>

<text 
x="333" 
y="209" 
dx="0,0,-0.3,0" 
class="s3_79"
>=== </text>

<text 
x="366" 
y="209" 
dx="0,0,-0.3,0,0" 
class="s9_79"
>'und'</text>

<text 
x="408" 
y="209" 
dx="0,0,-0.3,-0.3" 
class="s3_79"
>) { </text>

<path d="M107.8,233.9l719.4,0l0,-20.9l-719.4,0l0,20.9Z" class="g2_79" />
<text 
x="209" 
y="230" 
dx="0,0,0,-0.3,0,-0.3,0,-0.3,0,0,-0.3,0,-0.3,0,-0.3" 
class="s5_79"
>matrixLanguage </text>

<text 
x="333" 
y="230" 
class="s3_79"
>= </text>

<text 
x="350" 
y="230" 
dx="0,0,-0.3,0" 
class="s9_79"
>'en'</text>

<text 
x="383" 
y="230" 
dx="0,-0.3" 
class="s3_79"
>; </text>

<path d="M107.8,254.5l719.4,0l0,-20.6l-719.4,0l0,20.6Z" class="g2_79" />
<text 
x="176" 
y="251" 
dx="0,-0.3" 
class="s3_79"
>} </text>

<path d="M107.8,275l719.4,0l0,-20.5l-719.4,0l0,20.5Z" class="g2_79" />
<path d="M107.8,295.5l719.4,0l0,-20.5l-719.4,0l0,20.5Z" class="g2_79" />
<text 
x="176" 
y="292" 
dx="0,0,-0.3,0,-0.3,0,0" 
class="s6_79"
>console</text>

<text 
x="234" 
y="292" 
class="s3_79"
>.</text>

<text 
x="242" 
y="292" 
dx="0,-0.3,0" 
class="s8_79"
>log</text>

<text 
x="267" 
y="292" 
class="s3_79"
>(</text>

<text 
x="275" 
y="292" 
dx="0,0,-0.3,0,-0.3,0,-0.3,0,0,-0.3,0,-0.3,0,-0.3,0,0,-0.3,0,-0.3,0,0,-0.3,0,-0.3,0,-0.3,0,0,-0.3,0,-0.3,0,0" 
class="s9_79"
>'Framework Language changed to ' </text>

<text 
x="548" 
y="292" 
class="s3_79"
>+ </text>

<text 
x="565" 
y="292" 
dx="0,0,-0.3,0,0,-0.3,0,-0.3,0,-0.3,0,0,-0.3,0" 
class="s5_79"
>matrixLanguage</text>

<text 
x="681" 
y="292" 
dx="0,0,-0.3" 
class="s3_79"
>); </text>

<path d="M107.8,316.4l719.4,0l0,-20.9l-719.4,0l0,20.9Z" class="g2_79" />
<path d="M107.8,337l719.4,0l0,-20.6l-719.4,0l0,20.6Z" class="g2_79" />
<text 
x="176" 
y="333" 
dx="0,0,-0.3,0,-0.3,0,0,-0.3,0,-0.3,0,-0.3,0,0,-0.3,0,-0.3,0,-0.3,0,0,-0.3,0,-0.3,0,-0.3,0,0,-0.3,0,-0.3,0,0,-0.3,0,-0.3,0,-0.3,0,0,-0.3,0,-0.3,0,0,-0.3,0,-0.3,0,-0.3,0,0,-0.3,0,-0.3,0,-0.3,0,0,-0.3,0,-0.3,0,-0.3,0,0,-0.3,0,-0.3,0,-0.3,0,0,-0.3,0,-0.3,0" 
class="s10_79"
>// Detect individual word's respective languages, and storing it in separate </text>

<path d="M107.8,357.5l719.4,0l0,-20.5l-719.4,0l0,20.5Z" class="g2_79" />
<text 
x="110" 
y="354" 
dx="0,0,0,-0.3,0,-0.3" 
class="s10_79"
>array </text>

<path d="M107.8,378l719.4,0l0,-20.5l-719.4,0l0,20.5Z" class="g2_79" />
<text 
x="176" 
y="374" 
dx="0,0,-0.3,0" 
class="s7_79"
>for </text>

<text 
x="209" 
y="374" 
class="s3_79"
>(</text>

<text 
x="217" 
y="374" 
dx="0,0,-0.3,0" 
class="s4_79"
>let </text>

<text 
x="250" 
y="374" 
class="s5_79"
>i </text>

<text 
x="267" 
y="374" 
class="s3_79"
>= </text>

<text 
x="284" 
y="374" 
class="s11_79"
>0</text>

<text 
x="292" 
y="374" 
class="s3_79"
>; </text>

<text 
x="308" 
y="374" 
class="s5_79"
>i </text>

<text 
x="325" 
y="374" 
class="s3_79"
>&lt; </text>

<text 
x="342" 
y="374" 
dx="0,-0.3,0,-0.3,0,-0.3,0,0,-0.3" 
class="s5_79"
>textArray</text>

<text 
x="416" 
y="374" 
class="s3_79"
>.</text>

<text 
x="424" 
y="374" 
dx="0,0,0,-0.3,0,-0.3,0" 
class="s5_79"
>length </text>

<text 
x="482" 
y="374" 
class="s3_79"
>+ </text>

<text 
x="499" 
y="374" 
class="s11_79"
>1</text>

<text 
x="507" 
y="374" 
class="s3_79"
>; </text>

<text 
x="523" 
y="374" 
class="s5_79"
>i</text>

<text 
x="532" 
y="374" 
dx="0,0,-0.3,0,-0.3,-0.3" 
class="s3_79"
>++) { </text>

<path d="M107.8,398.9l719.4,0l0,-20.9l-719.4,0l0,20.9Z" class="g2_79" />
<text 
x="209" 
y="395" 
class="s7_79"
>if </text>

<text 
x="234" 
y="395" 
class="s3_79"
>(</text>

<text 
x="242" 
y="395" 
dx="0,-0.3,0,-0.3,0,0,-0.3,0,-0.3" 
class="s5_79"
>textArray</text>

<text 
x="317" 
y="395" 
class="s3_79"
>[</text>

<text 
x="325" 
y="395" 
class="s5_79"
>i</text>

<text 
x="333" 
y="395" 
dx="0,0,-0.3,0,-0.3,0" 
class="s3_79"
>] === </text>

<text 
x="383" 
y="395" 
dx="0,0,0,-0.3,0,-0.3,0,0,-0.3,0" 
class="s4_79"
>undefined </text>

<text 
x="466" 
y="395" 
dx="0,0,-0.3" 
class="s3_79"
>|| </text>

<text 
x="490" 
y="395" 
dx="0,0,-0.3,0,-0.3,0,0,-0.3,0" 
class="s5_79"
>textArray</text>

<text 
x="565" 
y="395" 
class="s3_79"
>[</text>

<text 
x="573" 
y="395" 
class="s5_79"
>i</text>

<text 
x="581" 
y="395" 
class="s3_79"
>].</text>

<text 
x="598" 
y="395" 
dx="0,-0.3,0,-0.3,0,-0.3,0" 
class="s8_79"
>replace</text>

<text 
x="656" 
y="395" 
class="s3_79"
>(</text>

<text 
x="664" 
y="395" 
dx="0,0,-0.3" 
class="s12_79"
>/ /</text>

<text 
x="689" 
y="395" 
class="s4_79"
>g</text>

<text 
x="697" 
y="395" 
class="s3_79"
>, </text>

<text 
x="714" 
y="395" 
dx="0,-0.3" 
class="s9_79"
>''</text>

<text 
x="731" 
y="395" 
dx="0,-0.3,0,-0.3,0,0" 
class="s3_79"
>) === </text>

<text 
x="780" 
y="395" 
class="s9_79"
>''</text>

<text 
x="797" 
y="395" 
dx="0,0,0,-0.3" 
class="s3_79"
>) { </text>

<path d="M107.8,419.5l719.4,0l0,-20.6l-719.4,0l0,20.6Z" class="g2_79" />
<text 
x="242" 
y="416" 
dx="0,-0.3,0,-0.3,0,0,-0.3,0" 
class="s7_79"
>continue</text>

<text 
x="308" 
y="416" 
dx="0,-0.3" 
class="s3_79"
>; </text>

<path d="M107.8,440l719.4,0l0,-20.5l-719.4,0l0,20.5Z" class="g2_79" />
<text 
x="209" 
y="436" 
dx="0,-0.3" 
class="s3_79"
>} </text>

<path d="M107.8,460.5l719.4,0l0,-20.5l-719.4,0l0,20.5Z" class="g2_79" />
<path d="M107.8,481.4l719.4,0l0,-20.9l-719.4,0l0,20.9Z" class="g2_79" />
<text 
x="209" 
y="477" 
dx="0,0,0,-0.3,0,-0.3,0,-0.3,0,0,-0.3,0,-0.3,0,-0.3,0,0,-0.3,0,-0.3,0,-0.3,0,0,-0.3,0,-0.3,0,0,-0.3,0,-0.3,0,-0.3,0,0,-0.3,0,-0.3,0,0,-0.3,0,-0.3,0,-0.3,0,0,-0.3,0,-0.3,0,-0.3,0,0,-0.3,0,-0.3,0,-0.3,0,0,-0.3,0,-0.3,0,-0.3,0,0" 
class="s10_79"
>// Add chunking point so that we can additionally chunk according to </text>

<path d="M107.8,502l719.4,0l0,-20.6l-719.4,0l0,20.6Z" class="g2_79" />
<text 
x="110" 
y="498" 
dx="0,0,0,-0.3,0,-0.3,0,0,-0.3,0,-0.3,0,-0.3" 
class="s10_79"
>punctuation. </text>

<path d="M107.8,522.5l719.4,0l0,-20.5l-719.4,0l0,20.5Z" class="g2_79" />
<text 
x="209" 
y="519" 
dx="0,0,0,-0.3" 
class="s4_79"
>let </text>

<text 
x="242" 
y="519" 
dx="0,-0.3,0,-0.3,0,0,-0.3,0,-0.3,0,-0.3" 
class="s5_79"
>punctuated </text>

<text 
x="333" 
y="519" 
class="s3_79"
>= </text>

<text 
x="350" 
y="519" 
dx="0,0,-0.3,0,-0.3" 
class="s4_79"
>false</text>

<text 
x="391" 
y="519" 
dx="0,-0.3" 
class="s3_79"
>; </text>

<path d="M107.8,543l719.4,0l0,-20.5l-719.4,0l0,20.5Z" class="g2_79" />
<path d="M107.8,563.9l719.4,0l0,-20.9l-719.4,0l0,20.9Z" class="g2_79" />
<text 
x="209" 
y="560" 
class="s7_79"
>if </text>

<text 
x="234" 
y="560" 
dx="0,-0.3" 
class="s3_79"
>( </text>

<path d="M107.8,584.5l719.4,0l0,-20.6l-719.4,0l0,20.6Z" class="g2_79" />
<text 
x="242" 
y="581" 
dx="0,-0.3,0,-0.3,0,0,-0.3,0,-0.3" 
class="s5_79"
>textArray</text>

<text 
x="317" 
y="581" 
class="s3_79"
>[</text>

<text 
x="325" 
y="581" 
class="s5_79"
>i</text>

<text 
x="333" 
y="581" 
class="s3_79"
>].</text>

<text 
x="350" 
y="581" 
dx="0,0,-0.3,0,-0.3,0,0" 
class="s8_79"
>indexOf</text>

<text 
x="408" 
y="581" 
class="s3_79"
>(</text>

<text 
x="416" 
y="581" 
dx="0,-0.3,0" 
class="s9_79"
>','</text>

<text 
x="441" 
y="581" 
dx="0,-0.3,0,-0.3,0.1" 
class="s3_79"
>) &gt; -</text>

<text 
x="482" 
y="581" 
class="s11_79"
>1 </text>

<text 
x="499" 
y="581" 
dx="0,-0.3,-0.3" 
class="s3_79"
>|| </text>

<path d="M107.8,605l719.4,0l0,-20.5l-719.4,0l0,20.5Z" class="g2_79" />
<text 
x="242" 
y="601" 
dx="0,-0.3,0,-0.3,0,0,-0.3,0,-0.3" 
class="s5_79"
>textArray</text>

<text 
x="317" 
y="601" 
class="s3_79"
>[</text>

<text 
x="325" 
y="601" 
class="s5_79"
>i</text>

<text 
x="333" 
y="601" 
class="s3_79"
>].</text>

<text 
x="350" 
y="601" 
dx="0,0,-0.3,0,-0.3,0,0" 
class="s8_79"
>indexOf</text>

<text 
x="408" 
y="601" 
class="s3_79"
>(</text>

<text 
x="416" 
y="601" 
dx="0,-0.3,0" 
class="s9_79"
>'.'</text>

<text 
x="441" 
y="601" 
dx="0,-0.3,0,-0.3,0.1" 
class="s3_79"
>) &gt; -</text>

<text 
x="482" 
y="601" 
class="s11_79"
>1 </text>

<text 
x="499" 
y="601" 
dx="0,-0.3,-0.3" 
class="s3_79"
>|| </text>

<path d="M107.8,625.5l719.4,0l0,-20.5l-719.4,0l0,20.5Z" class="g2_79" />
<text 
x="242" 
y="622" 
dx="0,-0.3,0,-0.3,0,0,-0.3,0,-0.3" 
class="s5_79"
>textArray</text>

<text 
x="317" 
y="622" 
class="s3_79"
>[</text>

<text 
x="325" 
y="622" 
class="s5_79"
>i</text>

<text 
x="333" 
y="622" 
class="s3_79"
>].</text>

<text 
x="350" 
y="622" 
dx="0,0,-0.3,0,-0.3,0,0" 
class="s8_79"
>indexOf</text>

<text 
x="408" 
y="622" 
class="s3_79"
>(</text>

<text 
x="416" 
y="622" 
dx="0,-0.3,0" 
class="s9_79"
>'!'</text>

<text 
x="441" 
y="622" 
dx="0,-0.3,0,-0.3,0.1" 
class="s3_79"
>) &gt; -</text>

<text 
x="482" 
y="622" 
class="s11_79"
>1 </text>

<text 
x="499" 
y="622" 
dx="0,-0.3,-0.3" 
class="s3_79"
>|| </text>

<path d="M107.8,646.4l719.4,0l0,-20.9l-719.4,0l0,20.9Z" class="g2_79" />
<text 
x="242" 
y="642" 
dx="0,-0.3,0,-0.3,0,0,-0.3,0,-0.3" 
class="s5_79"
>textArray</text>

<text 
x="317" 
y="642" 
class="s3_79"
>[</text>

<text 
x="325" 
y="642" 
class="s5_79"
>i</text>

<text 
x="333" 
y="642" 
class="s3_79"
>].</text>

<text 
x="350" 
y="642" 
dx="0,0,-0.3,0,-0.3,0,0" 
class="s8_79"
>indexOf</text>

<text 
x="408" 
y="642" 
class="s3_79"
>(</text>

<text 
x="416" 
y="642" 
dx="0,-0.3,0" 
class="s9_79"
>'?'</text>

<text 
x="441" 
y="642" 
dx="0,-0.3,0,-0.3,0.1" 
class="s3_79"
>) &gt; -</text>

<text 
x="482" 
y="642" 
class="s11_79"
>1 </text>

<text 
x="499" 
y="642" 
dx="0,-0.3,-0.3" 
class="s3_79"
>|| </text>

<path d="M107.8,667l719.4,0l0,-20.6l-719.4,0l0,20.6Z" class="g2_79" />
<text 
x="242" 
y="663" 
dx="0,-0.3,0,-0.3,0,0,-0.3,0,-0.3" 
class="s5_79"
>textArray</text>

<text 
x="317" 
y="663" 
class="s3_79"
>[</text>

<text 
x="325" 
y="663" 
class="s5_79"
>i</text>

<text 
x="333" 
y="663" 
class="s3_79"
>].</text>

<text 
x="350" 
y="663" 
dx="0,0,-0.3,0,-0.3,0,0" 
class="s8_79"
>indexOf</text>

<text 
x="408" 
y="663" 
class="s3_79"
>(</text>

<text 
x="416" 
y="663" 
dx="0,-0.3,0" 
class="s9_79"
>';'</text>

<text 
x="441" 
y="663" 
dx="0,-0.3,0,-0.3,0.1" 
class="s3_79"
>) &gt; -</text>

<text 
x="482" 
y="663" 
class="s11_79"
>1 </text>

<path d="M107.8,687.5l719.4,0l0,-20.5l-719.4,0l0,20.5Z" class="g2_79" />
<text 
x="209" 
y="684" 
dx="0,0,0,-0.3" 
class="s3_79"
>) { </text>

<path d="M107.8,708l719.4,0l0,-20.5l-719.4,0l0,20.5Z" class="g2_79" />
<text 
x="242" 
y="704" 
dx="0,-0.3,0,-0.3,0,0,-0.3,0.1,-0.3,0,-0.3" 
class="s5_79"
>punctuated </text>

<text 
x="333" 
y="704" 
class="s3_79"
>= </text>

<text 
x="350" 
y="704" 
dx="0,0,-0.3,0" 
class="s4_79"
>true</text>

<text 
x="383" 
y="704" 
dx="0,-0.3" 
class="s3_79"
>; </text>

<path d="M107.8,728.9l719.4,0l0,-20.9l-719.4,0l0,20.9Z" class="g2_79" />
<text 
x="209" 
y="725" 
dx="0,-0.3" 
class="s3_79"
>} </text>

<path d="M107.8,749.5l719.4,0l0,-20.6l-719.4,0l0,20.6Z" class="g2_79" />
<path d="M107.8,770l719.4,0l0,-20.5l-719.4,0l0,20.5Z" class="g2_79" />
<text 
x="209" 
y="766" 
dx="0,0,0,-0.3" 
class="s4_79"
>let </text>

<text 
x="242" 
y="766" 
dx="0,-0.3,0,-0.3,0,0,-0.3,0,-0.3" 
class="s5_79"
>language </text>

<text 
x="317" 
y="766" 
dx="0,-0.3" 
class="s3_79"
>= </text>

<text 
x="333" 
y="766" 
dx="0,0,-0.3,0,-0.3,0" 
class="s7_79"
>await </text>

<text 
x="383" 
y="766" 
dx="0,0,0,-0.3,0,-0.3,0,0,-0.3,0,-0.3,0,-0.3,0" 
class="s8_79"
>detectLanguage</text>

<text 
x="499" 
y="766" 
class="s3_79"
>(</text>

<text 
x="507" 
y="766" 
dx="0,0,-0.3,0,0,-0.3,0,-0.3,0" 
class="s5_79"
>textArray</text>

<text 
x="581" 
y="766" 
class="s3_79"
>[</text>

<text 
x="590" 
y="766" 
class="s5_79"
>i</text>

<text 
x="598" 
y="766" 
dx="0,-0.3,0,-0.3" 
class="s3_79"
>]); </text>

<path d="M107.8,790.5l719.4,0l0,-20.5l-719.4,0l0,20.5Z" class="g2_79" />
<path d="M107.8,811.4l719.4,0l0,-20.9l-719.4,0l0,20.9Z" class="g2_79" />
<text 
x="209" 
y="807" 
dx="0,0,0,-0.3,0,-0.3,0,-0.3,0,0,-0.3,0,-0.3,0,-0.3,0,0,-0.3,0,-0.3,0,-0.3,0,0,-0.3,0,-0.3,0,0,-0.3,0,-0.3,0,-0.3,0,0,-0.3,0,-0.3,0,0,-0.3,0,-0.3,0,-0.3,0,0,-0.3,0,-0.3,0,-0.3,0,0,-0.3,0,-0.3,0,-0.3,0,0,-0.3,-0.5" 
class="s10_79"
>// Add period at the back of sentence if does not exist already </text>

<path d="M107.8,832l719.4,0l0,-20.6l-719.4,0l0,20.6Z" class="g2_79" />
<text 
x="209" 
y="828" 
class="s7_79"
>if </text>

<text 
x="234" 
y="828" 
class="s3_79"
>(</text>

<text 
x="242" 
y="828" 
dx="0,-0.3" 
class="s5_79"
>i </text>

<text 
x="259" 
y="828" 
dx="0,-0.3,0,0" 
class="s3_79"
>=== </text>

<text 
x="292" 
y="828" 
dx="0,0,-0.3,0,-0.3,0,0,-0.3,0" 
class="s5_79"
>textArray</text>

<text 
x="366" 
y="828" 
class="s3_79"
>.</text>

<text 
x="375" 
y="828" 
dx="0,-0.3,0,0,-0.3,0,-0.3" 
class="s5_79"
>length </text>

<text 
x="433" 
y="828" 
class="s3_79"
>- </text>

<text 
x="449" 
y="828" 
class="s11_79"
>1</text>

<text 
x="457" 
y="828" 
dx="0,-0.3,0,-0.3" 
class="s3_79"
>) { </text>

<path d="M107.8,852.5l719.4,0l0,-20.5l-719.4,0l0,20.5Z" class="g2_79" />
<text 
x="242" 
y="849" 
dx="0,-0.3,0" 
class="s7_79"
>if </text>

<text 
x="267" 
y="849" 
dx="0,-0.3" 
class="s3_79"
>( </text>

<path d="M107.8,873l719.4,0l0,-20.5l-719.4,0l0,20.5Z" class="g2_79" />
<text 
x="275" 
y="869" 
class="s3_79"
>(</text>

<text 
x="284" 
y="869" 
dx="0,-0.3,0,-0.3,0,-0.3,0,0,-0.3" 
class="s5_79"
>textArray</text>

<text 
x="358" 
y="869" 
class="s3_79"
>[</text>

<text 
x="366" 
y="869" 
dx="0,0,-0.3,0,0,-0.3,0,-0.3,0" 
class="s5_79"
>textArray</text>

<text 
x="441" 
y="869" 
class="s3_79"
>.</text>

<text 
x="449" 
y="869" 
dx="0,0,-0.3,0,-0.3,0,0" 
class="s5_79"
>length </text>

<text 
x="507" 
y="869" 
class="s3_79"
>- </text>

<text 
x="523" 
y="869" 
class="s11_79"
>1</text>

<text 
x="532" 
y="869" 
class="s3_79"
>].</text>

<text 
x="548" 
y="869" 
dx="0,0,-0.3,0,-0.3,0,0" 
class="s8_79"
>indexOf</text>

<text 
x="606" 
y="869" 
class="s3_79"
>(</text>

<text 
x="615" 
y="869" 
dx="0,-0.3,0" 
class="s9_79"
>','</text>

<text 
x="639" 
y="869" 
dx="0,0,0,-0.3,0" 
class="s3_79"
>) &gt; -</text>

<text 
x="681" 
y="869" 
class="s11_79"
>1 </text>

<text 
x="697" 
y="869" 
dx="0,0,-0.3" 
class="s3_79"
>|| </text>

<path d="M107.8,893.9l719.4,0l0,-20.9l-719.4,0l0,20.9Z" class="g2_79" />
<text 
x="308" 
y="890" 
dx="0,0,-0.3,0,0,-0.3,0,-0.3,0" 
class="s5_79"
>textArray</text>

<text 
x="383" 
y="890" 
class="s3_79"
>[</text>

<text 
x="391" 
y="890" 
dx="0,0,-0.3,0,-0.3,0,0,-0.3,0" 
class="s5_79"
>textArray</text>

<text 
x="466" 
y="890" 
class="s3_79"
>.</text>

<text 
x="474" 
y="890" 
dx="0,-0.3,0,0,-0.3,0,-0.3" 
class="s5_79"
>length </text>

<text 
x="532" 
y="890" 
class="s3_79"
>- </text>

<text 
x="548" 
y="890" 
class="s11_79"
>1</text>

<text 
x="557" 
y="890" 
dx="0,-0.3" 
class="s3_79"
>].</text>

<text 
x="573" 
y="890" 
dx="0,-0.3,0,0,-0.3,0,-0.3" 
class="s8_79"
>indexOf</text>

<text 
x="631" 
y="890" 
class="s3_79"
>(</text>

<text 
x="639" 
y="890" 
class="s9_79"
>'.'</text>

<text 
x="664" 
y="890" 
dx="0,0,-0.3,0,-0.3" 
class="s3_79"
>) &gt; -</text>

<text 
x="706" 
y="890" 
class="s11_79"
>1 </text>

<text 
x="722" 
y="890" 
dx="0,0,-0.3" 
class="s3_79"
>|| </text>

<path d="M107.8,914.5l719.4,0l0,-20.6l-719.4,0l0,20.6Z" class="g2_79" />
<text 
x="308" 
y="911" 
dx="0,0,-0.3,0,0,-0.3,0,-0.3,0" 
class="s5_79"
>textArray</text>

<text 
x="383" 
y="911" 
class="s3_79"
>[</text>

<text 
x="391" 
y="911" 
dx="0,0,-0.3,0,-0.3,0,0,-0.3,0" 
class="s5_79"
>textArray</text>

<text 
x="466" 
y="911" 
class="s3_79"
>.</text>

<text 
x="474" 
y="911" 
dx="0,-0.3,0,0,-0.3,0,-0.3" 
class="s5_79"
>length </text>

<text 
x="532" 
y="911" 
class="s3_79"
>- </text>

<text 
x="548" 
y="911" 
class="s11_79"
>1</text>

<text 
x="557" 
y="911" 
dx="0,-0.3" 
class="s3_79"
>].</text>

<text 
x="573" 
y="911" 
dx="0,-0.3,0,0,-0.3,0,-0.3" 
class="s8_79"
>indexOf</text>

<text 
x="631" 
y="911" 
class="s3_79"
>(</text>

<text 
x="639" 
y="911" 
class="s9_79"
>'!'</text>

<text 
x="664" 
y="911" 
dx="0,0,-0.3,0,-0.3" 
class="s3_79"
>) &gt; -</text>

<text 
x="706" 
y="911" 
class="s11_79"
>1 </text>

<text 
x="722" 
y="911" 
dx="0,0,-0.3" 
class="s3_79"
>|| </text>

<path d="M107.8,935l719.4,0l0,-20.5l-719.4,0l0,20.5Z" class="g2_79" />
<text 
x="308" 
y="931" 
dx="0,0,-0.3,0,0,-0.3,0,-0.3,0" 
class="s5_79"
>textArray</text>

<text 
x="383" 
y="931" 
class="s3_79"
>[</text>

<text 
x="391" 
y="931" 
dx="0,0,-0.3,0,-0.3,0,0,-0.3,0" 
class="s5_79"
>textArray</text>

<text 
x="466" 
y="931" 
class="s3_79"
>.</text>

<text 
x="474" 
y="931" 
dx="0,-0.3,0,0,-0.3,0,-0.3" 
class="s5_79"
>length </text>

<text 
x="532" 
y="931" 
class="s3_79"
>- </text>

<text 
x="548" 
y="931" 
class="s11_79"
>1</text>

<text 
x="557" 
y="931" 
dx="0,-0.3" 
class="s3_79"
>].</text>

<text 
x="573" 
y="931" 
dx="0,-0.3,0,0,-0.3,0,-0.3" 
class="s8_79"
>indexOf</text>

<text 
x="631" 
y="931" 
class="s3_79"
>(</text>

<text 
x="639" 
y="931" 
class="s9_79"
>';'</text>

<text 
x="664" 
y="931" 
dx="0,0,-0.3,0,-0.3" 
class="s3_79"
>) &gt; -</text>

<text 
x="706" 
y="931" 
class="s11_79"
>1 </text>

<text 
x="722" 
y="931" 
dx="0,0,-0.3" 
class="s3_79"
>|| </text>

<path d="M107.8,955.5l719.4,0l0,-20.5l-719.4,0l0,20.5Z" class="g2_79" />
<text 
x="308" 
y="952" 
dx="0,0,-0.3,0,0,-0.3,0,-0.3,0" 
class="s5_79"
>textArray</text>

<text 
x="383" 
y="952" 
class="s3_79"
>[</text>

<text 
x="391" 
y="952" 
dx="0,0,-0.3,0,-0.3,0,0,-0.3,0" 
class="s5_79"
>textArray</text>

<text 
x="466" 
y="952" 
class="s3_79"
>.</text>

<text 
x="474" 
y="952" 
dx="0,-0.3,0,0,-0.3,0,-0.3" 
class="s5_79"
>length </text>

<text 
x="532" 
y="952" 
class="s3_79"
>- </text>

<text 
x="548" 
y="952" 
class="s11_79"
>1</text>

<text 
x="557" 
y="952" 
dx="0,-0.3" 
class="s3_79"
>].</text>

<text 
x="573" 
y="952" 
dx="0,-0.3,0,0,-0.3,0,-0.3" 
class="s8_79"
>indexOf</text>

<text 
x="631" 
y="952" 
class="s3_79"
>(</text>

<text 
x="639" 
y="952" 
class="s9_79"
>'?'</text>

<text 
x="664" 
y="952" 
dx="0,0,-0.3,0,-0.3" 
class="s3_79"
>) &gt; -</text>

<text 
x="706" 
y="952" 
class="s11_79"
>1</text>

<text 
x="714" 
y="952" 
dx="0,-0.3,0,-0.3,0,-0.3" 
class="s3_79"
>) === </text>

<text 
x="764" 
y="952" 
dx="0,0,-0.3,0,-0.3,-0.3" 
class="s4_79"
>false </text>

<path d="M107.8,976.4l719.4,0l0,-20.9l-719.4,0l0,20.9Z" class="g2_79" />
<text 
x="242" 
y="972" 
dx="0,-0.3,0,-0.3" 
class="s3_79"
>) { </text>

<path d="M107.8,997l719.4,0l0,-20.6l-719.4,0l0,20.6Z" class="g2_79" />
<text 
x="275" 
y="993" 
dx="0,0,-0.3,0,-0.3,0,-0.3,0,0,-0.3,0" 
class="s5_79"
>punctuated </text>

<text 
x="366" 
y="993" 
class="s3_79"
>= </text>

<text 
x="383" 
y="993" 
dx="0,0,0,-0.3" 
class="s4_79"
>true</text>

<text 
x="416" 
y="993" 
dx="0,-0.3" 
class="s3_79"
>; </text>

<path d="M107.8,1017.5l719.4,0l0,-20.5l-719.4,0l0,20.5Z" class="g2_79" />
<text 
x="242" 
y="1014" 
dx="0,-0.3" 
class="s3_79"
>} </text>

<path d="M107.8,1038l719.4,0l0,-20.5l-719.4,0l0,20.5Z" class="g2_79" />
<text 
x="209" 
y="1034" 
dx="0,-0.3" 
class="s3_79"
>} </text>

<path d="M107.8,1058.9l719.4,0l0,-20.9l-719.4,0l0,20.9Z" class="g2_79" />
<path d="M107.8,1079.5l719.4,0l0,-20.6l-719.4,0l0,20.6Z" class="g2_79" />
<text 
x="209" 
y="1076" 
dx="0,0,0,-0.3,0,-0.3,0,-0.3,0,0,-0.3,0,-0.3,0,-0.3,0,0,-0.3,0,-0.3,0,-0.3,0,0,-0.3,0,-0.3,0,0,-0.3,0,-0.3,0,-0.3,0,0,-0.3,0,-0.3,0,0,-0.3,0,-0.3,0,-0.3,0,0,-0.3,0,-0.3,0,-0.3,0,0,-0.3,0,-0.3,0,-0.3" 
class="s10_79"
>// Compensate for similarities between Indonesian and Malay </text>



<!-- Any embedded fonts defined here -->
<style type="text/css" ><![CDATA[

@font-face {
	font-family: ArialNovaCond-Bold_d;
	src: url("fonts/ArialNovaCond-Bold_d.woff") format("woff");
}

@font-face {
	font-family: Menlo-Regular_bu;
	src: url("fonts/Menlo-Regular_bu.woff") format("woff");
}

@font-face {
	font-family: ArialNova-Light_n;
	src: url("fonts/ArialNova-Light_n.woff") format("woff");
}

]]></style>

</svg>
