<?xml version="1.0" encoding="UTF-8" standalone="no"?>
<!DOCTYPE svg PUBLIC "-//W3C//DTD SVG 1.1//EN"
"http://www.w3.org/Graphics/SVG/1.1/DTD/svg11.dtd">


<!-- Page 81 -->
<svg x="0" y="0" width="935" height="1210" viewBox="0 0 935 1210" version="1.1" xmlns="http://www.w3.org/2000/svg" xmlns:xlink="http://www.w3.org/1999/xlink"
style="display: block;margin-left: auto;margin-right: auto;">
<defs>

<style type="text/css"><![CDATA[

.g1_81{
fill: #D9D9D9;
}
.g2_81{
fill: #FFFFFF;
}

.s1_81{
font-size: 18.33px;
font-family: ArialNovaCond-Bold_d;
fill: #5A5A5A;
}
.s2_81{
font-size: 12.10px;
font-family: ArialNova-Light_n;
fill: #7F7F7F;
}
.s3_81{
font-size: 13.93px;
font-family: Menlo-Regular_bu;
fill: #000000;
}
.s4_81{
font-size: 13.93px;
font-family: Menlo-Regular_bu;
fill: #AF00DB;
}
.s5_81{
font-size: 13.93px;
font-family: Menlo-Regular_bu;
fill: #001080;
}
.s6_81{
font-size: 13.93px;
font-family: Menlo-Regular_bu;
fill: #0000FF;
}
.s7_81{
font-size: 13.93px;
font-family: Menlo-Regular_bu;
fill: #267F99;
}
.s8_81{
font-size: 13.93px;
font-family: Menlo-Regular_bu;
fill: #09885A;
}
.s9_81{
font-size: 13.93px;
font-family: Menlo-Regular_bu;
fill: #008000;
}
.s10_81{
font-size: 13.93px;
font-family: Menlo-Regular_bu;
fill: #795E26;
}
.s11_81{
font-size: 13.93px;
font-family: Menlo-Regular_bu;
fill: #A31515;
}

]]></style>

</defs>
<path d="M0,0
L0,1210
L935,1210
L935,0 Z " 
fill="#FFFFFF" stroke="none" />
<text 
x="110" 
y="1106" 
dx="0,0,0,0.2" 
class="s1_81"
>81 |</text>

<text 
x="141" 
y="1106" 
dx="0,4.3,4.9,0,1.9,0,1.6,0,1.3,0,1.7,0,1.7,0,1.2,0,1.9,0,1.6,4.7,4.9,0,1.3,0,1.7,0,1.6,0,1.5,0,1.6,0,1.9,0,1.2,0,1.5,0,1.9,0,1.5,4.5,4.9,0,1.7,0,1.2,0,1.9,0,1.9,0,1.2,4.5,4.5,0,1.9,0,1.5,4.7,4.9,0,1.3,0,1.5,0,1.9,0,1.5,0,1.5,0,1.5,0,1.5,0,1.9,0,1.3,0,1.9,0,1.6,4.6,4.5,0,1.9,0,1.5,0,1.7,0,1.6,0,1.4,0,1.9,0,1.3,0,1.9,0,1.5,0,1.7,0,1.5,0,1.5,0,1.9" 
class="s2_81"
>A W e b - b a s e d T r a n s l a t i o n S y s t e m f o r M u l t i l i n g u a l C o d e - s w i t c h i n g</text>

<path d="M107.8,1086.4l719.4,0l0,-0.7l-719.4,0l0,0.7Z" class="g1_81" />
<path d="M107.8,130.5l719.4,0l0,-20.5l-719.4,0l0,20.5Z" class="g2_81" />
<text 
x="275" 
y="127" 
dx="0,-0.3" 
class="s3_81"
>} </text>

<path d="M107.8,151.4l719.4,0l0,-20.9l-719.4,0l0,20.9Z" class="g2_81" />
<text 
x="242" 
y="147" 
dx="0,-0.3" 
class="s3_81"
>} </text>

<path d="M107.8,172l719.4,0l0,-20.6l-719.4,0l0,20.6Z" class="g2_81" />
<text 
x="242" 
y="168" 
dx="0,-0.3,0" 
class="s4_81"
>if </text>

<text 
x="267" 
y="168" 
class="s3_81"
>(</text>

<text 
x="275" 
y="168" 
dx="0,0,-0.3,0,-0.3,0,-0.3,0,0" 
class="s5_81"
>loopBreak</text>

<text 
x="350" 
y="168" 
dx="0,0,-0.3,0" 
class="s3_81"
>) { </text>

<text 
x="383" 
y="168" 
dx="0,0,0,-0.3,0" 
class="s4_81"
>break</text>

<text 
x="424" 
y="168" 
dx="0,0,0,-0.3" 
class="s3_81"
>; } </text>

<path d="M107.8,192.5l719.4,0l0,-20.5l-719.4,0l0,20.5Z" class="g2_81" />
<text 
x="209" 
y="189" 
dx="0,-0.3" 
class="s3_81"
>} </text>

<path d="M107.8,213l719.4,0l0,-20.5l-719.4,0l0,20.5Z" class="g2_81" />
<text 
x="176" 
y="209" 
dx="0,-0.3" 
class="s3_81"
>} </text>

<path d="M107.8,233.9l719.4,0l0,-20.9l-719.4,0l0,20.9Z" class="g2_81" />
<path d="M107.8,254.5l719.4,0l0,-20.6l-719.4,0l0,20.6Z" class="g2_81" />
<text 
x="176" 
y="251" 
dx="0,0,-0.3,0,-0.3,0" 
class="s6_81"
>const </text>

<text 
x="226" 
y="251" 
dx="0,-0.3,0,-0.3,0,-0.3,0,0,-0.3,0,-0.3,0,-0.3,0,0,-0.3,0,-0.3,0,-0.3,0,0,-0.3,0,-0.3" 
class="s5_81"
>listOfLanguagesInSentence</text>

<text 
x="433" 
y="251" 
class="s3_81"
>: </text>

<text 
x="449" 
y="251" 
dx="0,0,-0.3,0" 
class="s7_81"
>any </text>

<text 
x="482" 
y="251" 
dx="0,0,0,-0.3,0,-0.3" 
class="s3_81"
>= {}; </text>

<path d="M107.8,275l719.4,0l0,-20.5l-719.4,0l0,20.5Z" class="g2_81" />
<text 
x="176" 
y="271" 
dx="0,0,-0.3,0" 
class="s4_81"
>for </text>

<text 
x="209" 
y="271" 
class="s3_81"
>(</text>

<text 
x="217" 
y="271" 
dx="0,0,-0.3,0,-0.3,0" 
class="s6_81"
>const </text>

<text 
x="267" 
y="271" 
dx="0,0,0,-0.3" 
class="s5_81"
>obj </text>

<text 
x="300" 
y="271" 
dx="0,-0.3,0" 
class="s6_81"
>of </text>

<text 
x="325" 
y="271" 
dx="0,0,0,-0.3,0,-0.3,0,-0.3,0,0,-0.3,0" 
class="s5_81"
>textLanguage</text>

<text 
x="424" 
y="271" 
dx="0,0,0,-0.3" 
class="s3_81"
>) { </text>

<path d="M107.8,295.5l719.4,0l0,-20.5l-719.4,0l0,20.5Z" class="g2_81" />
<text 
x="209" 
y="292" 
class="s4_81"
>if </text>

<text 
x="234" 
y="292" 
class="s3_81"
>(</text>

<text 
x="242" 
y="292" 
dx="0,-0.3,0,-0.3,0,0,-0.3,0,-0.3,0,-0.3,0,0,-0.3,0,-0.3,0,-0.3,0,0,-0.3,0,-0.3,0,0" 
class="s5_81"
>listOfLanguagesInSentence</text>

<text 
x="449" 
y="292" 
class="s3_81"
>[</text>

<text 
x="457" 
y="292" 
dx="0,-0.3,0" 
class="s5_81"
>obj</text>

<text 
x="482" 
y="292" 
class="s3_81"
>.</text>

<text 
x="490" 
y="292" 
dx="0,0,-0.3,0,-0.3,0,0,-0.3" 
class="s5_81"
>language</text>

<text 
x="557" 
y="292" 
dx="0,-0.3,0,-0.3,-0.3" 
class="s3_81"
>]) { </text>

<path d="M107.8,316.4l719.4,0l0,-20.9l-719.4,0l0,20.9Z" class="g2_81" />
<text 
x="242" 
y="312" 
dx="0,-0.3,0,-0.3,0,0,-0.3,0,-0.3,0,-0.3,0,0,-0.3,0,-0.3,0,-0.3,0,0,-0.3,0,-0.3,0,0" 
class="s5_81"
>listOfLanguagesInSentence</text>

<text 
x="449" 
y="312" 
class="s3_81"
>[</text>

<text 
x="457" 
y="312" 
dx="0,-0.3,0" 
class="s5_81"
>obj</text>

<text 
x="482" 
y="312" 
class="s3_81"
>.</text>

<text 
x="490" 
y="312" 
dx="0,0,-0.3,0,-0.3,0,0,-0.3" 
class="s5_81"
>language</text>

<text 
x="557" 
y="312" 
dx="0,-0.3,0,-0.3,-0.3" 
class="s3_81"
>]++; </text>

<path d="M107.8,337l719.4,0l0,-20.6l-719.4,0l0,20.6Z" class="g2_81" />
<text 
x="209" 
y="333" 
class="s3_81"
>} </text>

<text 
x="226" 
y="333" 
dx="0,-0.3,0,-0.3,0.1" 
class="s4_81"
>else </text>

<text 
x="267" 
y="333" 
dx="0,-0.3" 
class="s3_81"
>{ </text>

<path d="M107.8,357.5l719.4,0l0,-20.5l-719.4,0l0,20.5Z" class="g2_81" />
<text 
x="242" 
y="354" 
dx="0,-0.3,0,-0.3,0,0,-0.3,0,-0.3,0,-0.3,0,0,-0.3,0,-0.3,0,-0.3,0,0,-0.3,0,-0.3,0,0" 
class="s5_81"
>listOfLanguagesInSentence</text>

<text 
x="449" 
y="354" 
class="s3_81"
>[</text>

<text 
x="457" 
y="354" 
dx="0,-0.3,0" 
class="s5_81"
>obj</text>

<text 
x="482" 
y="354" 
class="s3_81"
>.</text>

<text 
x="490" 
y="354" 
dx="0,0,-0.3,0,-0.3,0,0,-0.3" 
class="s5_81"
>language</text>

<text 
x="557" 
y="354" 
dx="0,-0.3,0,-0.3" 
class="s3_81"
>] = </text>

<text 
x="590" 
y="354" 
class="s8_81"
>1</text>

<text 
x="598" 
y="354" 
dx="0,-0.3" 
class="s3_81"
>; </text>

<path d="M107.8,378l719.4,0l0,-20.5l-719.4,0l0,20.5Z" class="g2_81" />
<text 
x="209" 
y="374" 
dx="0,-0.3" 
class="s3_81"
>} </text>

<path d="M107.8,398.9l719.4,0l0,-20.9l-719.4,0l0,20.9Z" class="g2_81" />
<text 
x="176" 
y="395" 
dx="0,-0.3" 
class="s3_81"
>} </text>

<path d="M107.8,419.5l719.4,0l0,-20.6l-719.4,0l0,20.6Z" class="g2_81" />
<path d="M107.8,440l719.4,0l0,-20.5l-719.4,0l0,20.5Z" class="g2_81" />
<text 
x="176" 
y="436" 
dx="0,0,-0.3" 
class="s4_81"
>if </text>

<text 
x="201" 
y="436" 
class="s3_81"
>(</text>

<text 
x="209" 
y="436" 
dx="0,0,0,-0.3,0,-0.3,0,-0.3,0,0,-0.3,0,-0.3,0" 
class="s5_81"
>homographMatch</text>

<text 
x="325" 
y="436" 
class="s3_81"
>.</text>

<text 
x="333" 
y="436" 
dx="0,0,-0.3,0,-0.3,0,-0.3" 
class="s5_81"
>length </text>

<text 
x="391" 
y="436" 
class="s3_81"
>&gt; </text>

<text 
x="408" 
y="436" 
class="s8_81"
>0</text>

<text 
x="416" 
y="436" 
dx="0,-0.3,0,-0.3" 
class="s3_81"
>) { </text>

<path d="M107.8,460.5l719.4,0l0,-20.5l-719.4,0l0,20.5Z" class="g2_81" />
<text 
x="209" 
y="457" 
dx="0,0,0,-0.3" 
class="s4_81"
>for </text>

<text 
x="242" 
y="457" 
class="s3_81"
>(</text>

<text 
x="250" 
y="457" 
dx="0,0,-0.3,0,0,-0.3" 
class="s6_81"
>const </text>

<text 
x="300" 
y="457" 
dx="0,-0.3,0,-0.3,0,0.1" 
class="s5_81"
>match </text>

<text 
x="350" 
y="457" 
dx="0,0,-0.3" 
class="s6_81"
>of </text>

<text 
x="375" 
y="457" 
dx="0,-0.3,0,0,-0.3,0,-0.3,0,0,-0.3,0,-0.3,0,-0.3" 
class="s5_81"
>homographMatch</text>

<text 
x="490" 
y="457" 
dx="0,0,-0.3,-0.3" 
class="s3_81"
>) { </text>

<path d="M107.8,481.4l719.4,0l0,-20.9l-719.4,0l0,20.9Z" class="g2_81" />
<text 
x="242" 
y="477" 
dx="0,-0.3,0,-0.3" 
class="s4_81"
>for </text>

<text 
x="275" 
y="477" 
class="s3_81"
>(</text>

<text 
x="284" 
y="477" 
dx="0,-0.3,0,-0.3" 
class="s6_81"
>let </text>

<text 
x="317" 
y="477" 
dx="0,-0.3" 
class="s5_81"
>i </text>

<text 
x="333" 
y="477" 
class="s3_81"
>= </text>

<text 
x="350" 
y="477" 
class="s8_81"
>0</text>

<text 
x="358" 
y="477" 
dx="0,-0.3" 
class="s3_81"
>; </text>

<text 
x="375" 
y="477" 
dx="0,-0.3" 
class="s5_81"
>i </text>

<text 
x="391" 
y="477" 
class="s3_81"
>&lt; </text>

<text 
x="408" 
y="477" 
dx="0,0,-0.3,0,0" 
class="s5_81"
>match</text>

<text 
x="449" 
y="477" 
class="s3_81"
>.</text>

<text 
x="457" 
y="477" 
dx="0,-0.3,0,-0.3,0,0,-0.3,0,-0.3,0,0,-0.3,0,-0.3" 
class="s5_81"
>commonLanguage</text>

<text 
x="573" 
y="477" 
class="s3_81"
>.</text>

<text 
x="581" 
y="477" 
dx="0,0,0,-0.3,0,-0.3" 
class="s5_81"
>length</text>

<text 
x="631" 
y="477" 
dx="0,-0.3" 
class="s3_81"
>; </text>

<text 
x="648" 
y="477" 
class="s5_81"
>i</text>

<text 
x="656" 
y="477" 
dx="0,-0.3,0,-0.3,0,-0.3" 
class="s3_81"
>++) { </text>

<path d="M107.8,502l719.4,0l0,-20.6l-719.4,0l0,20.6Z" class="g2_81" />
<text 
x="275" 
y="498" 
dx="0,0,-0.3" 
class="s4_81"
>if </text>

<text 
x="300" 
y="498" 
class="s3_81"
>(</text>

<text 
x="308" 
y="498" 
dx="0,0,-0.3,0,0,-0.3,0,-0.3,0,-0.3,0,0,-0.3,0,-0.3,0,0,-0.3,0,-0.3,0,-0.3,0,0,-0.3" 
class="s5_81"
>listOfLanguagesInSentence</text>

<text 
x="515" 
y="498" 
class="s3_81"
>[</text>

<text 
x="523" 
y="498" 
dx="0,0,0,-0.3,0" 
class="s5_81"
>match</text>

<text 
x="565" 
y="498" 
class="s3_81"
>.</text>

<text 
x="573" 
y="498" 
dx="0,-0.3,0,0,-0.3,0,-0.3,0,-0.3,0,0,-0.3,0,-0.3" 
class="s5_81"
>commonLanguage</text>

<text 
x="689" 
y="498" 
class="s3_81"
>[</text>

<text 
x="697" 
y="498" 
class="s5_81"
>i</text>

<text 
x="706" 
y="498" 
dx="0,0,-0.3,0,-0.3,0" 
class="s3_81"
>]] &amp;&amp; </text>

<path d="M107.8,522.5l719.4,0l0,-20.5l-719.4,0l0,20.5Z" class="g2_81" />
<text 
x="110" 
y="519" 
dx="0,0,0,-0.3,0,-0.3,0,0,-0.3,0,-0.3,0,-0.3,0,0,-0.3,0,-0.3,0,-0.3,0,0,-0.3,0,-0.3" 
class="s5_81"
>listOfLanguagesInSentence</text>

<text 
x="317" 
y="519" 
class="s3_81"
>[</text>

<text 
x="325" 
y="519" 
dx="0,0,0,-0.3,0" 
class="s5_81"
>match</text>

<text 
x="366" 
y="519" 
class="s3_81"
>.</text>

<text 
x="375" 
y="519" 
dx="0,-0.3,0,0,-0.3,0,-0.3,0,0,-0.3,0,-0.3,0,-0.3" 
class="s5_81"
>commonLanguage</text>

<text 
x="490" 
y="519" 
class="s3_81"
>[</text>

<text 
x="499" 
y="519" 
class="s5_81"
>i</text>

<text 
x="507" 
y="519" 
dx="0,0,-0.3,0,0" 
class="s3_81"
>]] &gt; </text>

<text 
x="548" 
y="519" 
class="s8_81"
>0</text>

<text 
x="557" 
y="519" 
dx="0,-0.3,0,-0.3" 
class="s3_81"
>) { </text>

<path d="M107.8,543l719.4,0l0,-20.5l-719.4,0l0,20.5Z" class="g2_81" />
<text 
x="308" 
y="539" 
dx="0,0,-0.3,0,0,-0.3" 
class="s6_81"
>const </text>

<text 
x="358" 
y="539" 
dx="0,-0.3,0,-0.3,0,0,-0.3,0,-0.3,0,0.1" 
class="s5_81"
>punctuated </text>

<text 
x="449" 
y="539" 
class="s3_81"
>= </text>

<text 
x="466" 
y="539" 
dx="0,0,-0.3,0,0,-0.3,0,-0.3,0,0,-0.3,0" 
class="s5_81"
>textLanguage</text>

<text 
x="565" 
y="539" 
class="s3_81"
>[</text>

<text 
x="573" 
y="539" 
dx="0,-0.3,0,0,-0.3" 
class="s5_81"
>match</text>

<text 
x="615" 
y="539" 
class="s3_81"
>.</text>

<text 
x="623" 
y="539" 
dx="0,0,-0.3,0,0" 
class="s5_81"
>index</text>

<text 
x="664" 
y="539" 
class="s3_81"
>].</text>

<text 
x="681" 
y="539" 
dx="0,0,-0.3,0,0,-0.3,0,-0.3,0,-0.3" 
class="s5_81"
>punctuated</text>

<text 
x="764" 
y="539" 
dx="0,-0.3" 
class="s3_81"
>; </text>

<path d="M107.8,563.9l719.4,0l0,-20.9l-719.4,0l0,20.9Z" class="g2_81" />
<text 
x="308" 
y="560" 
dx="0,0,-0.3,0,0,-0.3,0,-0.3,0,-0.3,0,0,-0.3,0,-0.3,0,0,-0.3,0,-0.3,0,-0.3,0,0,-0.3" 
class="s5_81"
>listOfLanguagesInSentence</text>

<text 
x="515" 
y="560" 
class="s3_81"
>[</text>

<text 
x="523" 
y="560" 
dx="0,0,0,-0.3,0,-0.3,0,-0.3,0,0,-0.3,0" 
class="s5_81"
>textLanguage</text>

<text 
x="623" 
y="560" 
class="s3_81"
>[</text>

<text 
x="631" 
y="560" 
dx="0,-0.3,0,0,-0.3" 
class="s5_81"
>match</text>

<text 
x="673" 
y="560" 
class="s3_81"
>.</text>

<text 
x="681" 
y="560" 
dx="0,0,-0.3,0,0" 
class="s5_81"
>index</text>

<text 
x="722" 
y="560" 
class="s3_81"
>].</text>

<text 
x="739" 
y="560" 
dx="0,0,-0.3,0,0,-0.3,0,-0.3" 
class="s5_81"
>language</text>

<text 
x="805" 
y="560" 
class="s3_81"
>]-</text>

<path d="M107.8,584.5l719.4,0l0,-20.6l-719.4,0l0,20.6Z" class="g2_81" />
<text 
x="110" 
y="581" 
class="s3_81"
>- </text>

<path d="M107.8,605l719.4,0l0,-20.5l-719.4,0l0,20.5Z" class="g2_81" />
<text 
x="308" 
y="601" 
dx="0,0,-0.3,0,0,-0.3,0,-0.3,0,-0.3,0,0" 
class="s5_81"
>textLanguage</text>

<text 
x="408" 
y="601" 
class="s3_81"
>[</text>

<text 
x="416" 
y="601" 
dx="0,-0.3,0,0,-0.3" 
class="s5_81"
>match</text>

<text 
x="457" 
y="601" 
class="s3_81"
>.</text>

<text 
x="466" 
y="601" 
dx="0,0,-0.3,0,0" 
class="s5_81"
>index</text>

<text 
x="507" 
y="601" 
dx="0,0,-0.3,0,0,-0.3" 
class="s3_81"
>] = { </text>

<path d="M107.8,625.5l719.4,0l0,-20.5l-719.4,0l0,20.5Z" class="g2_81" />
<text 
x="342" 
y="622" 
dx="0,-0.3,0,-0.3,0,-0.3,0,0,-0.3,0.1,-0.3,0,0,-0.3,0" 
class="s5_81"
>language: match</text>

<text 
x="466" 
y="622" 
class="s3_81"
>.</text>

<text 
x="474" 
y="622" 
dx="0,-0.3,0,0,-0.3,0,-0.3,0,0,-0.3,0,-0.3,0,-0.3" 
class="s5_81"
>commonLanguage</text>

<text 
x="590" 
y="622" 
class="s3_81"
>[</text>

<text 
x="598" 
y="622" 
class="s5_81"
>i</text>

<text 
x="606" 
y="622" 
dx="0,0,-0.3" 
class="s3_81"
>], </text>

<path d="M107.8,646.4l719.4,0l0,-20.9l-719.4,0l0,20.9Z" class="g2_81" />
<text 
x="342" 
y="642" 
dx="0,-0.3,0,-0.3,0,-0.3,0,0,-0.3,0,-0.3" 
class="s5_81"
>punctuated </text>

<path d="M107.8,667l719.4,0l0,-20.6l-719.4,0l0,20.6Z" class="g2_81" />
<text 
x="308" 
y="663" 
dx="0,0,-0.3" 
class="s3_81"
>}; </text>

<path d="M107.8,687.5l719.4,0l0,-20.5l-719.4,0l0,20.5Z" class="g2_81" />
<text 
x="275" 
y="684" 
dx="0,-0.3" 
class="s3_81"
>} </text>

<path d="M107.8,708l719.4,0l0,-20.5l-719.4,0l0,20.5Z" class="g2_81" />
<text 
x="242" 
y="704" 
dx="0,-0.3" 
class="s3_81"
>} </text>

<path d="M107.8,728.9l719.4,0l0,-20.9l-719.4,0l0,20.9Z" class="g2_81" />
<text 
x="209" 
y="725" 
dx="0,-0.3" 
class="s3_81"
>} </text>

<path d="M107.8,749.5l719.4,0l0,-20.6l-719.4,0l0,20.6Z" class="g2_81" />
<text 
x="176" 
y="746" 
dx="0,-0.3" 
class="s3_81"
>} </text>

<path d="M107.8,770l719.4,0l0,-20.5l-719.4,0l0,20.5Z" class="g2_81" />
<path d="M107.8,790.5l719.4,0l0,-20.5l-719.4,0l0,20.5Z" class="g2_81" />
<text 
x="176" 
y="787" 
dx="0,0,-0.3,0,-0.3,0,0,-0.3,0,-0.3,0,-0.3,0,0,-0.3,0,-0.3,0,-0.3,0,0,-0.3,0,-0.3,0,-0.3,0,0,-0.3,0,-0.3,0,0,-0.3,0,-0.3,0,-0.3,0,0,-0.3,0,-0.3,0,0,-0.3,0,-0.3,0,-0.3,0,0,-0.3,-0.4" 
class="s9_81"
>// Translating phrases according to language detected </text>

<path d="M107.8,811.4l719.4,0l0,-20.9l-719.4,0l0,20.9Z" class="g2_81" />
<text 
x="176" 
y="807" 
dx="0,0,-0.3,0" 
class="s6_81"
>let </text>

<text 
x="209" 
y="807" 
dx="0,0,0,-0.3,0" 
class="s5_81"
>head </text>

<text 
x="250" 
y="807" 
class="s3_81"
>= </text>

<text 
x="267" 
y="807" 
class="s8_81"
>0</text>

<text 
x="275" 
y="807" 
dx="0,-0.3" 
class="s3_81"
>; </text>

<path d="M107.8,832l719.4,0l0,-20.6l-719.4,0l0,20.6Z" class="g2_81" />
<text 
x="176" 
y="828" 
dx="0,0,-0.3,0" 
class="s6_81"
>let </text>

<text 
x="209" 
y="828" 
dx="0,0,0,-0.3,0,-0.3,0,-0.3,0" 
class="s5_81"
>chunkNow </text>

<text 
x="284" 
y="828" 
dx="0,-0.3" 
class="s3_81"
>= </text>

<text 
x="300" 
y="828" 
dx="0,-0.3,0,-0.3,0" 
class="s6_81"
>false</text>

<text 
x="342" 
y="828" 
dx="0,-0.3" 
class="s3_81"
>; </text>

<path d="M107.8,852.5l719.4,0l0,-20.5l-719.4,0l0,20.5Z" class="g2_81" />
<text 
x="176" 
y="849" 
dx="0,0,-0.3,0,-0.3,0" 
class="s6_81"
>const </text>

<text 
x="226" 
y="849" 
dx="0,-0.3,0,-0.3,0,-0.3,0,0,-0.3,0,-0.3,0,-0.3,0,0,-0.3,0,-0.3,0,-0.3,0.1" 
class="s5_81"
>translateTheseChunks </text>

<text 
x="400" 
y="849" 
dx="0,-0.3,0,-0.3,0,-0.3" 
class="s3_81"
>= []; </text>

<path d="M107.8,873l719.4,0l0,-20.5l-719.4,0l0,20.5Z" class="g2_81" />
<path d="M107.8,893.9l719.4,0l0,-20.9l-719.4,0l0,20.9Z" class="g2_81" />
<text 
x="176" 
y="890" 
dx="0,0,-0.3,0,-0.3,0,0" 
class="s7_81"
>console</text>

<text 
x="234" 
y="890" 
class="s3_81"
>.</text>

<text 
x="242" 
y="890" 
dx="0,-0.3,0" 
class="s10_81"
>log</text>

<text 
x="267" 
y="890" 
class="s3_81"
>(</text>

<text 
x="275" 
y="890" 
dx="0,0,-0.3,0,-0.3,0,-0.3,0,0,-0.3,0,-0.3,0,-0.3,0,0,-0.3,0,-0.3,0,0,-0.3,0,-0.3,0,-0.3,0,0,-0.3,0,-0.3,0,0,-0.3,0,-0.3,0.2" 
class="s11_81"
>'-----------------------------------'</text>

<text 
x="581" 
y="890" 
dx="0,0,-0.3" 
class="s3_81"
>); </text>

<path d="M107.8,914.5l719.4,0l0,-20.6l-719.4,0l0,20.6Z" class="g2_81" />
<text 
x="176" 
y="911" 
dx="0,0,-0.3,0,-0.3,0,0" 
class="s7_81"
>console</text>

<text 
x="234" 
y="911" 
class="s3_81"
>.</text>

<text 
x="242" 
y="911" 
dx="0,-0.3,0" 
class="s10_81"
>log</text>

<text 
x="267" 
y="911" 
class="s3_81"
>(</text>

<text 
x="275" 
y="911" 
dx="0,0,-0.3,0,-0.3,0,-0.3,0,0,-0.3,0,-0.3,0,-0.3" 
class="s11_81"
>'TextLanguage'</text>

<text 
x="391" 
y="911" 
dx="0,0,-0.3" 
class="s3_81"
>); </text>

<path d="M107.8,935l719.4,0l0,-20.5l-719.4,0l0,20.5Z" class="g2_81" />
<text 
x="176" 
y="931" 
dx="0,0,-0.3,0,-0.3,0,0" 
class="s7_81"
>console</text>

<text 
x="234" 
y="931" 
class="s3_81"
>.</text>

<text 
x="242" 
y="931" 
dx="0,-0.3,0" 
class="s10_81"
>log</text>

<text 
x="267" 
y="931" 
class="s3_81"
>(</text>

<text 
x="275" 
y="931" 
dx="0,0,-0.3,0,-0.3,0,-0.3,0,0,-0.3,0,-0.3" 
class="s5_81"
>textLanguage</text>

<text 
x="375" 
y="931" 
dx="0,-0.3,-0.3" 
class="s3_81"
>); </text>

<path d="M107.8,955.5l719.4,0l0,-20.5l-719.4,0l0,20.5Z" class="g2_81" />
<text 
x="176" 
y="952" 
dx="0,0,-0.3,0,-0.3,0,0" 
class="s7_81"
>console</text>

<text 
x="234" 
y="952" 
class="s3_81"
>.</text>

<text 
x="242" 
y="952" 
dx="0,-0.3,0" 
class="s10_81"
>log</text>

<text 
x="267" 
y="952" 
class="s3_81"
>(</text>

<text 
x="275" 
y="952" 
dx="0,0,-0.3,0,-0.3,0,-0.3,0,0,-0.3,0" 
class="s11_81"
>'TextArray'</text>

<text 
x="366" 
y="952" 
dx="0,0,-0.3" 
class="s3_81"
>); </text>

<path d="M107.8,976.4l719.4,0l0,-20.9l-719.4,0l0,20.9Z" class="g2_81" />
<text 
x="176" 
y="972" 
dx="0,0,-0.3,0,-0.3,0,0" 
class="s7_81"
>console</text>

<text 
x="234" 
y="972" 
class="s3_81"
>.</text>

<text 
x="242" 
y="972" 
dx="0,-0.3,0" 
class="s10_81"
>log</text>

<text 
x="267" 
y="972" 
class="s3_81"
>(</text>

<text 
x="275" 
y="972" 
dx="0,0,-0.3,0,-0.3,0,-0.3,0,0" 
class="s5_81"
>textArray</text>

<text 
x="350" 
y="972" 
dx="0,0,-0.3" 
class="s3_81"
>); </text>

<path d="M107.8,997l719.4,0l0,-20.6l-719.4,0l0,20.6Z" class="g2_81" />
<text 
x="176" 
y="993" 
dx="0,0,-0.3,0,-0.3,0,0" 
class="s7_81"
>console</text>

<text 
x="234" 
y="993" 
class="s3_81"
>.</text>

<text 
x="242" 
y="993" 
dx="0,-0.3,0" 
class="s10_81"
>log</text>

<text 
x="267" 
y="993" 
class="s3_81"
>(</text>

<text 
x="275" 
y="993" 
dx="0,0,-0.3,0,-0.3,0,-0.3,0,0,-0.3,0,-0.3,0,-0.3,0,0,-0.3,0,-0.3" 
class="s11_81"
>'Homograph matches'</text>

<text 
x="433" 
y="993" 
dx="0,0,-0.3" 
class="s3_81"
>); </text>

<path d="M107.8,1017.5l719.4,0l0,-20.5l-719.4,0l0,20.5Z" class="g2_81" />
<text 
x="176" 
y="1014" 
dx="0,0,-0.3,0,-0.3,0,0" 
class="s7_81"
>console</text>

<text 
x="234" 
y="1014" 
class="s3_81"
>.</text>

<text 
x="242" 
y="1014" 
dx="0,-0.3,0" 
class="s10_81"
>log</text>

<text 
x="267" 
y="1014" 
class="s3_81"
>(</text>

<text 
x="275" 
y="1014" 
dx="0,0,-0.3,0,-0.3,0,-0.3,0,0,-0.3,0,-0.3,0,-0.3" 
class="s5_81"
>homographMatch</text>

<text 
x="391" 
y="1014" 
dx="0,0,-0.3" 
class="s3_81"
>); </text>

<path d="M107.8,1038l719.4,0l0,-20.5l-719.4,0l0,20.5Z" class="g2_81" />
<path d="M107.8,1058.9l719.4,0l0,-20.9l-719.4,0l0,20.9Z" class="g2_81" />
<text 
x="176" 
y="1055" 
dx="0,0,-0.3,0" 
class="s4_81"
>for </text>

<text 
x="209" 
y="1055" 
class="s3_81"
>(</text>

<text 
x="217" 
y="1055" 
dx="0,0,-0.3,0" 
class="s6_81"
>let </text>

<text 
x="250" 
y="1055" 
class="s5_81"
>i </text>

<text 
x="267" 
y="1055" 
class="s3_81"
>= </text>

<text 
x="284" 
y="1055" 
class="s8_81"
>0</text>

<text 
x="292" 
y="1055" 
class="s3_81"
>; </text>

<text 
x="308" 
y="1055" 
class="s5_81"
>i </text>

<text 
x="325" 
y="1055" 
class="s3_81"
>&lt; </text>

<text 
x="342" 
y="1055" 
dx="0,-0.3,0,-0.3,0,-0.3,0,0,-0.3,0,-0.3,0" 
class="s5_81"
>textLanguage</text>

<text 
x="441" 
y="1055" 
class="s3_81"
>.</text>

<text 
x="449" 
y="1055" 
dx="0,0,-0.3,0,-0.3,0" 
class="s5_81"
>length</text>

<text 
x="499" 
y="1055" 
dx="0,-0.3" 
class="s3_81"
>; </text>

<text 
x="515" 
y="1055" 
class="s5_81"
>i</text>

<text 
x="523" 
y="1055" 
dx="0,0,0,-0.3,0,-0.3" 
class="s3_81"
>++) { </text>

<path d="M107.8,1079.5l719.4,0l0,-20.6l-719.4,0l0,20.6Z" class="g2_81" />
<text 
x="209" 
y="1076" 
class="s4_81"
>if </text>

<text 
x="234" 
y="1076" 
class="s3_81"
>(</text>

<text 
x="242" 
y="1076" 
dx="0,-0.3,0,-0.3,0,0,-0.3,0,-0.3" 
class="s5_81"
>chunkNow </text>

<text 
x="317" 
y="1076" 
dx="0,-0.3,0" 
class="s3_81"
>|| </text>

<text 
x="342" 
y="1076" 
dx="0,-0.3" 
class="s5_81"
>i </text>

<text 
x="358" 
y="1076" 
dx="0,-0.3" 
class="s3_81"
>+ </text>

<text 
x="375" 
y="1076" 
dx="0,-0.3" 
class="s8_81"
>1 </text>

<text 
x="391" 
y="1076" 
dx="0,0,-0.3,0" 
class="s3_81"
>=== </text>

<text 
x="424" 
y="1076" 
dx="0,0,0,-0.3,0,-0.3,0,-0.3,0,0,-0.3,0" 
class="s5_81"
>textLanguage</text>

<text 
x="523" 
y="1076" 
class="s3_81"
>.</text>

<text 
x="532" 
y="1076" 
dx="0,0,-0.3,0,-0.3,0" 
class="s5_81"
>length</text>

<text 
x="581" 
y="1076" 
dx="0,0,0,-0.3" 
class="s3_81"
>) { </text>



<!-- Any embedded fonts defined here -->
<style type="text/css" ><![CDATA[

@font-face {
	font-family: ArialNovaCond-Bold_d;
	src: url("fonts/ArialNovaCond-Bold_d.woff") format("woff");
}

@font-face {
	font-family: Menlo-Regular_bu;
	src: url("fonts/Menlo-Regular_bu.woff") format("woff");
}

@font-face {
	font-family: ArialNova-Light_n;
	src: url("fonts/ArialNova-Light_n.woff") format("woff");
}

]]></style>

</svg>
