<?xml version="1.0" encoding="UTF-8" standalone="no"?>
<!DOCTYPE svg PUBLIC "-//W3C//DTD SVG 1.1//EN"
"http://www.w3.org/Graphics/SVG/1.1/DTD/svg11.dtd">


<!-- Page 82 -->
<svg x="0" y="0" width="935" height="1210" viewBox="0 0 935 1210" version="1.1" xmlns="http://www.w3.org/2000/svg" xmlns:xlink="http://www.w3.org/1999/xlink"
style="display: block;margin-left: auto;margin-right: auto;">
<defs>

<style type="text/css"><![CDATA[

.g1_82{
fill: #D9D9D9;
}
.g2_82{
fill: #FFFFFF;
}

.s1_82{
font-size: 18.33px;
font-family: ArialNovaCond-Bold_d;
fill: #5A5A5A;
}
.s2_82{
font-size: 12.10px;
font-family: ArialNova-Light_n;
fill: #7F7F7F;
}
.s3_82{
font-size: 13.93px;
font-family: Menlo-Regular_bu;
fill: #0000FF;
}
.s4_82{
font-size: 13.93px;
font-family: Menlo-Regular_bu;
fill: #001080;
}
.s5_82{
font-size: 13.93px;
font-family: Menlo-Regular_bu;
fill: #000000;
}
.s6_82{
font-size: 13.93px;
font-family: Menlo-Regular_bu;
fill: #795E26;
}
.s7_82{
font-size: 13.93px;
font-family: Menlo-Regular_bu;
fill: #09885A;
}
.s8_82{
font-size: 13.93px;
font-family: Menlo-Regular_bu;
fill: #A31515;
}
.s9_82{
font-size: 13.93px;
font-family: Menlo-Regular_bu;
fill: #AF00DB;
}
.s10_82{
font-size: 13.93px;
font-family: Menlo-Regular_bu;
fill: #008000;
}
.s11_82{
font-size: 13.93px;
font-family: Menlo-Regular_bu;
fill: #267F99;
}

]]></style>

</defs>
<path d="M0,0
L0,1210
L935,1210
L935,0 Z " 
fill="#FFFFFF" stroke="none" />
<text 
x="110" 
y="1106" 
dx="0,0,0,0.2" 
class="s1_82"
>82 |</text>

<text 
x="141" 
y="1106" 
dx="0,4.3,4.9,0,1.9,0,1.6,0,1.3,0,1.7,0,1.7,0,1.2,0,1.9,0,1.6,4.7,4.9,0,1.3,0,1.7,0,1.6,0,1.5,0,1.6,0,1.9,0,1.2,0,1.5,0,1.9,0,1.5,4.5,4.9,0,1.7,0,1.2,0,1.9,0,1.9,0,1.2,4.5,4.5,0,1.9,0,1.5,4.7,4.9,0,1.3,0,1.5,0,1.9,0,1.5,0,1.5,0,1.5,0,1.5,0,1.9,0,1.3,0,1.9,0,1.6,4.6,4.5,0,1.9,0,1.5,0,1.7,0,1.6,0,1.4,0,1.9,0,1.3,0,1.9,0,1.5,0,1.7,0,1.5,0,1.5,0,1.9" 
class="s2_82"
>A W e b - b a s e d T r a n s l a t i o n S y s t e m f o r M u l t i l i n g u a l C o d e - s w i t c h i n g</text>

<path d="M107.8,1086.4l719.4,0l0,-0.7l-719.4,0l0,0.7Z" class="g1_82" />
<path d="M107.8,130.5l719.4,0l0,-20.5l-719.4,0l0,20.5Z" class="g2_82" />
<text 
x="242" 
y="127" 
dx="0,-0.3,0,-0.3,0,0.1" 
class="s3_82"
>const </text>

<text 
x="292" 
y="127" 
dx="0,0,-0.3,0,-0.3,0" 
class="s4_82"
>chunk </text>

<text 
x="342" 
y="127" 
dx="0,-0.3" 
class="s5_82"
>= </text>

<text 
x="358" 
y="127" 
dx="0,-0.3,0,-0.3,0,0,-0.3,0,-0.3" 
class="s4_82"
>textArray</text>

<text 
x="433" 
y="127" 
class="s5_82"
>.</text>

<text 
x="441" 
y="127" 
dx="0,-0.3,0,-0.3,0" 
class="s6_82"
>slice</text>

<text 
x="482" 
y="127" 
class="s5_82"
>(</text>

<text 
x="490" 
y="127" 
dx="0,0,-0.3,0" 
class="s4_82"
>head</text>

<text 
x="523" 
y="127" 
class="s5_82"
>, </text>

<text 
x="540" 
y="127" 
dx="0,-0.3" 
class="s4_82"
>i </text>

<text 
x="557" 
y="127" 
dx="0,-0.3" 
class="s5_82"
>+ </text>

<text 
x="573" 
y="127" 
class="s7_82"
>1</text>

<text 
x="581" 
y="127" 
class="s5_82"
>).</text>

<text 
x="598" 
y="127" 
dx="0,-0.3,0,-0.3" 
class="s6_82"
>join</text>

<text 
x="631" 
y="127" 
class="s5_82"
>(</text>

<text 
x="639" 
y="127" 
class="s8_82"
>' '</text>

<text 
x="664" 
y="127" 
dx="0,0,-0.3" 
class="s5_82"
>); </text>

<path d="M107.8,151.4l719.4,0l0,-20.9l-719.4,0l0,20.9Z" class="g2_82" />
<text 
x="242" 
y="147" 
dx="0,-0.3,0,-0.3,0,0,-0.3,0,-0.3,0,-0.3,0,0,-0.3,0,-0.3,0,-0.3,0,0" 
class="s4_82"
>translateTheseChunks</text>

<text 
x="408" 
y="147" 
class="s5_82"
>.</text>

<text 
x="416" 
y="147" 
dx="0,-0.3,0,0" 
class="s6_82"
>push</text>

<text 
x="449" 
y="147" 
dx="0,0,-0.3" 
class="s5_82"
>({ </text>

<path d="M107.8,172l719.4,0l0,-20.6l-719.4,0l0,20.6Z" class="g2_82" />
<text 
x="275" 
y="168" 
dx="0,0,-0.3,0,-0.3" 
class="s4_82"
>chunk</text>

<text 
x="317" 
y="168" 
dx="0,-0.3" 
class="s5_82"
>, </text>

<path d="M107.8,192.5l719.4,0l0,-20.5l-719.4,0l0,20.5Z" class="g2_82" />
<text 
x="275" 
y="189" 
dx="0,0,-0.3,0,-0.3,0,-0.3,0,0,-0.3,0,-0.3,0,-0.3,0,0,-0.3,0,-0.3,0,0,-0.3" 
class="s4_82"
>language: textLanguage</text>

<text 
x="457" 
y="189" 
class="s5_82"
>[</text>

<text 
x="466" 
y="189" 
class="s4_82"
>i</text>

<text 
x="474" 
y="189" 
dx="0,-0.3" 
class="s5_82"
>].</text>

<text 
x="490" 
y="189" 
dx="0,0,-0.3,0,-0.3,0,0,-0.3,-0.3" 
class="s4_82"
>language </text>

<path d="M107.8,213l719.4,0l0,-20.5l-719.4,0l0,20.5Z" class="g2_82" />
<text 
x="242" 
y="209" 
dx="0,-0.3,0,-0.3" 
class="s5_82"
>}); </text>

<path d="M107.8,233.9l719.4,0l0,-20.9l-719.4,0l0,20.9Z" class="g2_82" />
<text 
x="242" 
y="230" 
dx="0,-0.3,0,-0.3,0.1" 
class="s4_82"
>head </text>

<text 
x="284" 
y="230" 
dx="0,-0.3" 
class="s5_82"
>= </text>

<text 
x="300" 
y="230" 
dx="0,-0.3" 
class="s4_82"
>i </text>

<text 
x="317" 
y="230" 
dx="0,-0.3" 
class="s5_82"
>+ </text>

<text 
x="333" 
y="230" 
class="s7_82"
>1</text>

<text 
x="342" 
y="230" 
dx="0,-0.3" 
class="s5_82"
>; </text>

<path d="M107.8,254.5l719.4,0l0,-20.6l-719.4,0l0,20.6Z" class="g2_82" />
<text 
x="242" 
y="251" 
dx="0,-0.3,0,-0.3,0,0,-0.3,0,-0.3" 
class="s4_82"
>chunkNow </text>

<text 
x="317" 
y="251" 
dx="0,-0.3" 
class="s5_82"
>= </text>

<text 
x="333" 
y="251" 
dx="0,0,-0.3,0,-0.3" 
class="s3_82"
>false</text>

<text 
x="375" 
y="251" 
dx="0,-0.3" 
class="s5_82"
>; </text>

<path d="M107.8,275l719.4,0l0,-20.5l-719.4,0l0,20.5Z" class="g2_82" />
<text 
x="209" 
y="271" 
class="s5_82"
>} </text>

<text 
x="226" 
y="271" 
dx="0,-0.3,0,-0.3,0.1,-0.3,0,0" 
class="s9_82"
>else if </text>

<text 
x="292" 
y="271" 
class="s5_82"
>(</text>

<text 
x="300" 
y="271" 
dx="0,-0.3,0,-0.3,0,0,-0.3,0,-0.3,0,-0.3,0" 
class="s4_82"
>textLanguage</text>

<text 
x="400" 
y="271" 
class="s5_82"
>[</text>

<text 
x="408" 
y="271" 
class="s4_82"
>i</text>

<text 
x="416" 
y="271" 
dx="0,-0.3" 
class="s5_82"
>].</text>

<text 
x="433" 
y="271" 
dx="0,0,-0.3,0,-0.3,0,-0.3,0,0,-0.3,0" 
class="s4_82"
>punctuated </text>

<text 
x="523" 
y="271" 
class="s5_82"
>|| </text>

<text 
x="548" 
y="271" 
dx="0,0,-0.3,0,-0.3,0,0,-0.3,0,-0.3,0,-0.3" 
class="s4_82"
>textLanguage</text>

<text 
x="648" 
y="271" 
class="s5_82"
>[</text>

<text 
x="656" 
y="271" 
class="s4_82"
>i</text>

<text 
x="664" 
y="271" 
class="s5_82"
>].</text>

<text 
x="681" 
y="271" 
dx="0,0,-0.3,0,0,-0.3,0,-0.3,0" 
class="s4_82"
>language </text>

<text 
x="755" 
y="271" 
dx="0,0,0,-0.3" 
class="s5_82"
>!== </text>

<path d="M107.8,295.5l719.4,0l0,-20.5l-719.4,0l0,20.5Z" class="g2_82" />
<text 
x="110" 
y="292" 
dx="0,0,0,-0.3,0,-0.3,0,0,-0.3,0,-0.3,0" 
class="s4_82"
>textLanguage</text>

<text 
x="209" 
y="292" 
class="s5_82"
>[</text>

<text 
x="217" 
y="292" 
class="s4_82"
>i </text>

<text 
x="234" 
y="292" 
class="s5_82"
>+ </text>

<text 
x="250" 
y="292" 
class="s7_82"
>1</text>

<text 
x="259" 
y="292" 
dx="0,-0.3" 
class="s5_82"
>].</text>

<text 
x="275" 
y="292" 
dx="0,0,-0.3,0,-0.3,0,-0.3,0" 
class="s4_82"
>language</text>

<text 
x="342" 
y="292" 
dx="0,-0.3,0,-0.3" 
class="s5_82"
>) { </text>

<path d="M107.8,316.4l719.4,0l0,-20.9l-719.4,0l0,20.9Z" class="g2_82" />
<text 
x="242" 
y="312" 
dx="0,-0.3,0,-0.3,0,0,-0.3,0,-0.3,0,-0.3,0,0,-0.3,0,-0.3,0,-0.3,0,0,-0.3,0,-0.3,0,0,-0.3,0,-0.3,0,-0.3,0,0,-0.3,0,-0.3,0,0,-0.3,0,-0.3,0,-0.3,0,0,-0.3,0,-0.3,0,-0.3,0,0,-0.3,0,-0.2" 
class="s10_82"
>// Check the next word to see if we should chunk now. </text>

<path d="M107.8,337l719.4,0l0,-20.6l-719.4,0l0,20.6Z" class="g2_82" />
<text 
x="242" 
y="333" 
dx="0,-0.3,0,-0.3,0,0.1" 
class="s3_82"
>const </text>

<text 
x="292" 
y="333" 
dx="0,0,-0.3,0,-0.3,0" 
class="s4_82"
>chunk </text>

<text 
x="342" 
y="333" 
dx="0,-0.3" 
class="s5_82"
>= </text>

<text 
x="358" 
y="333" 
dx="0,-0.3,0,-0.3,0,0,-0.3,0,-0.3" 
class="s4_82"
>textArray</text>

<text 
x="433" 
y="333" 
class="s5_82"
>.</text>

<text 
x="441" 
y="333" 
dx="0,-0.3,0,-0.3,0" 
class="s6_82"
>slice</text>

<text 
x="482" 
y="333" 
class="s5_82"
>(</text>

<text 
x="490" 
y="333" 
dx="0,0,-0.3,0" 
class="s4_82"
>head</text>

<text 
x="523" 
y="333" 
class="s5_82"
>, </text>

<text 
x="540" 
y="333" 
dx="0,-0.3" 
class="s4_82"
>i </text>

<text 
x="557" 
y="333" 
dx="0,-0.3" 
class="s5_82"
>+ </text>

<text 
x="573" 
y="333" 
class="s7_82"
>1</text>

<text 
x="581" 
y="333" 
class="s5_82"
>).</text>

<text 
x="598" 
y="333" 
dx="0,-0.3,0,-0.3" 
class="s6_82"
>join</text>

<text 
x="631" 
y="333" 
class="s5_82"
>(</text>

<text 
x="639" 
y="333" 
class="s8_82"
>' '</text>

<text 
x="664" 
y="333" 
dx="0,0,-0.3" 
class="s5_82"
>); </text>

<path d="M107.8,357.5l719.4,0l0,-20.5l-719.4,0l0,20.5Z" class="g2_82" />
<text 
x="242" 
y="354" 
dx="0,-0.3,0,-0.3,0,0,-0.3,0,-0.3,0,-0.3,0,0,-0.3,0,-0.3,0,-0.3,0,0" 
class="s4_82"
>translateTheseChunks</text>

<text 
x="408" 
y="354" 
class="s5_82"
>.</text>

<text 
x="416" 
y="354" 
dx="0,-0.3,0,0" 
class="s6_82"
>push</text>

<text 
x="449" 
y="354" 
dx="0,0,-0.3" 
class="s5_82"
>({ </text>

<path d="M107.8,378l719.4,0l0,-20.5l-719.4,0l0,20.5Z" class="g2_82" />
<text 
x="275" 
y="374" 
dx="0,0,-0.3,0,-0.3" 
class="s4_82"
>chunk</text>

<text 
x="317" 
y="374" 
dx="0,-0.3" 
class="s5_82"
>, </text>

<path d="M107.8,398.9l719.4,0l0,-20.9l-719.4,0l0,20.9Z" class="g2_82" />
<text 
x="275" 
y="395" 
dx="0,0,-0.3,0,-0.3,0,-0.3,0,0,-0.3,0,-0.3,0,-0.3,0,0,-0.3,0,-0.3,0,0,-0.3" 
class="s4_82"
>language: textLanguage</text>

<text 
x="457" 
y="395" 
class="s5_82"
>[</text>

<text 
x="466" 
y="395" 
class="s4_82"
>i</text>

<text 
x="474" 
y="395" 
dx="0,-0.3" 
class="s5_82"
>].</text>

<text 
x="490" 
y="395" 
dx="0,0,-0.3,0,-0.3,0,0,-0.3,-0.3" 
class="s4_82"
>language </text>

<path d="M107.8,419.5l719.4,0l0,-20.6l-719.4,0l0,20.6Z" class="g2_82" />
<text 
x="242" 
y="416" 
dx="0,-0.3,0,-0.3" 
class="s5_82"
>}); </text>

<path d="M107.8,440l719.4,0l0,-20.5l-719.4,0l0,20.5Z" class="g2_82" />
<text 
x="242" 
y="436" 
dx="0,-0.3,0,-0.3,0.1" 
class="s4_82"
>head </text>

<text 
x="284" 
y="436" 
dx="0,-0.3" 
class="s5_82"
>= </text>

<text 
x="300" 
y="436" 
dx="0,-0.3" 
class="s4_82"
>i </text>

<text 
x="317" 
y="436" 
dx="0,-0.3" 
class="s5_82"
>+ </text>

<text 
x="333" 
y="436" 
class="s7_82"
>1</text>

<text 
x="342" 
y="436" 
dx="0,-0.3" 
class="s5_82"
>; </text>

<path d="M107.8,460.5l719.4,0l0,-20.5l-719.4,0l0,20.5Z" class="g2_82" />
<text 
x="209" 
y="457" 
class="s5_82"
>} </text>

<text 
x="226" 
y="457" 
dx="0,-0.3,0,-0.3,0" 
class="s9_82"
>else </text>

<text 
x="267" 
y="457" 
dx="0,-0.3" 
class="s5_82"
>{ </text>

<path d="M107.8,481.4l719.4,0l0,-20.9l-719.4,0l0,20.9Z" class="g2_82" />
<text 
x="242" 
y="477" 
dx="0,-0.3,0,-0.3,0,0,-0.3,0,-0.3,0,-0.3,0,0,-0.3,0,-0.3,0,-0.3,0,0,-0.3,0,-0.3,-0.3" 
class="s10_82"
>// Language not a match </text>

<path d="M107.8,502l719.4,0l0,-20.6l-719.4,0l0,20.6Z" class="g2_82" />
<text 
x="242" 
y="498" 
dx="0,-0.3,0" 
class="s9_82"
>if </text>

<text 
x="267" 
y="498" 
class="s5_82"
>(</text>

<text 
x="275" 
y="498" 
dx="0,0,-0.3,0,-0.3,0,-0.3,0,0,-0.3,0,-0.3" 
class="s4_82"
>textLanguage</text>

<text 
x="375" 
y="498" 
class="s5_82"
>[</text>

<text 
x="383" 
y="498" 
class="s4_82"
>i </text>

<text 
x="400" 
y="498" 
dx="0,-0.3" 
class="s5_82"
>+ </text>

<text 
x="416" 
y="498" 
class="s7_82"
>1</text>

<text 
x="424" 
y="498" 
class="s5_82"
>].</text>

<text 
x="441" 
y="498" 
dx="0,-0.3,0,-0.3,0,-0.3,0,0,-0.3,0" 
class="s4_82"
>punctuated</text>

<text 
x="523" 
y="498" 
dx="0,0,0,-0.3" 
class="s5_82"
>) { </text>

<path d="M107.8,522.5l719.4,0l0,-20.5l-719.4,0l0,20.5Z" class="g2_82" />
<text 
x="275" 
y="519" 
dx="0,0,-0.3,0,-0.3,0,-0.3,0,0,-0.3,0,-0.3,0,-0.3" 
class="s10_82"
>// Punctuated </text>

<path d="M107.8,543l719.4,0l0,-20.5l-719.4,0l0,20.5Z" class="g2_82" />
<text 
x="275" 
y="539" 
dx="0,0,-0.3,0,-0.3,0,-0.3,0,0" 
class="s4_82"
>chunkNow </text>

<text 
x="350" 
y="539" 
class="s5_82"
>= </text>

<text 
x="366" 
y="539" 
dx="0,0,-0.3,0" 
class="s3_82"
>true</text>

<text 
x="400" 
y="539" 
dx="0,-0.3" 
class="s5_82"
>; </text>

<path d="M107.8,563.9l719.4,0l0,-20.9l-719.4,0l0,20.9Z" class="g2_82" />
<text 
x="242" 
y="560" 
dx="0,-0.3" 
class="s5_82"
>} </text>

<path d="M107.8,584.5l719.4,0l0,-20.6l-719.4,0l0,20.6Z" class="g2_82" />
<text 
x="209" 
y="581" 
dx="0,-0.3" 
class="s5_82"
>} </text>

<path d="M107.8,605l719.4,0l0,-20.5l-719.4,0l0,20.5Z" class="g2_82" />
<text 
x="176" 
y="601" 
dx="0,-0.3" 
class="s5_82"
>} </text>

<path d="M107.8,625.5l719.4,0l0,-20.5l-719.4,0l0,20.5Z" class="g2_82" />
<path d="M107.8,646.4l719.4,0l0,-20.9l-719.4,0l0,20.9Z" class="g2_82" />
<text 
x="176" 
y="642" 
dx="0,0,-0.3,0,-0.3,0,0" 
class="s11_82"
>console</text>

<text 
x="234" 
y="642" 
class="s5_82"
>.</text>

<text 
x="242" 
y="642" 
dx="0,-0.3,0" 
class="s6_82"
>log</text>

<text 
x="267" 
y="642" 
class="s5_82"
>(</text>

<text 
x="275" 
y="642" 
dx="0,0,-0.3,0,-0.3,0,-0.3,0,0,-0.3,0,-0.3,0,-0.3,0,0,-0.3,0,-0.3,0" 
class="s4_82"
>translateTheseChunks</text>

<text 
x="441" 
y="642" 
dx="0,-0.3,-0.3" 
class="s5_82"
>); </text>

<path d="M107.8,667l719.4,0l0,-20.6l-719.4,0l0,20.6Z" class="g2_82" />
<text 
x="176" 
y="663" 
dx="0,0,-0.3,0,-0.3,0,0" 
class="s11_82"
>console</text>

<text 
x="234" 
y="663" 
class="s5_82"
>.</text>

<text 
x="242" 
y="663" 
dx="0,-0.3,0" 
class="s6_82"
>log</text>

<text 
x="267" 
y="663" 
class="s5_82"
>(</text>

<text 
x="275" 
y="663" 
dx="0,0,-0.3,0,-0.3,0,-0.3,0,0,-0.3,0,-0.3,0,-0.3,0,0,-0.3,0,-0.3,0,0,-0.3,0,-0.3,0,-0.3,0,0,-0.3,0,-0.3,0,0,-0.3,0,-0.3,0.2" 
class="s8_82"
>'-----------------------------------'</text>

<text 
x="581" 
y="663" 
dx="0,0,-0.3" 
class="s5_82"
>); </text>

<path d="M107.8,687.5l719.4,0l0,-20.5l-719.4,0l0,20.5Z" class="g2_82" />
<path d="M107.8,708l719.4,0l0,-20.5l-719.4,0l0,20.5Z" class="g2_82" />
<text 
x="176" 
y="704" 
dx="0,0,-0.3,0,-0.3,0,0,-0.3,0,-0.3,0,-0.3,0,0,-0.3,0,-0.3,0,-0.3,0,0,-0.4" 
class="s10_82"
>// Detected languages </text>

<path d="M107.8,728.9l719.4,0l0,-20.9l-719.4,0l0,20.9Z" class="g2_82" />
<text 
x="176" 
y="725" 
dx="0,0,-0.3,0,-0.3,0" 
class="s3_82"
>const </text>

<text 
x="226" 
y="725" 
dx="0,-0.3,0,-0.3,0,-0.3,0,0,-0.3,0,-0.3,0,-0.3,0,0,-0.3,0,-0.3" 
class="s4_82"
>detectedLanguages </text>

<text 
x="375" 
y="725" 
dx="0,-0.3,0,0,-0.3,-0.3" 
class="s5_82"
>= []; </text>

<path d="M107.8,749.5l719.4,0l0,-20.6l-719.4,0l0,20.6Z" class="g2_82" />
<text 
x="176" 
y="746" 
dx="0,0,-0.3,0" 
class="s9_82"
>for </text>

<text 
x="209" 
y="746" 
class="s5_82"
>(</text>

<text 
x="217" 
y="746" 
dx="0,0,-0.3,0,-0.3,0" 
class="s3_82"
>const </text>

<text 
x="267" 
y="746" 
dx="0,0,0,-0.3,0,-0.3" 
class="s4_82"
>chunk </text>

<text 
x="317" 
y="746" 
dx="0,-0.3,0" 
class="s3_82"
>of </text>

<text 
x="342" 
y="746" 
dx="0,-0.3,0,-0.3,0,-0.3,0,0,-0.3,0,-0.3,0,0,-0.3,0,-0.3,0,-0.3,0,0" 
class="s4_82"
>translateTheseChunks</text>

<text 
x="507" 
y="746" 
dx="0,0,-0.3,-0.3" 
class="s5_82"
>) { </text>

<path d="M107.8,770l719.4,0l0,-20.5l-719.4,0l0,20.5Z" class="g2_82" />
<text 
x="209" 
y="766" 
class="s9_82"
>if </text>

<text 
x="234" 
y="766" 
class="s5_82"
>(</text>

<text 
x="242" 
y="766" 
dx="0,-0.3,0,-0.3,0,0,-0.3,0,-0.3,0,-0.3,0,0,-0.3,0,-0.3,0" 
class="s4_82"
>detectedLanguages</text>

<text 
x="383" 
y="766" 
class="s5_82"
>.</text>

<text 
x="391" 
y="766" 
dx="0,0,-0.3,0,-0.3,0,0" 
class="s6_82"
>indexOf</text>

<text 
x="449" 
y="766" 
class="s5_82"
>(</text>

<text 
x="457" 
y="766" 
dx="0,-0.3,0,-0.3,0" 
class="s4_82"
>chunk</text>

<text 
x="499" 
y="766" 
class="s5_82"
>.</text>

<text 
x="507" 
y="766" 
dx="0,0,-0.3,0,0,-0.3,0,-0.3" 
class="s4_82"
>language</text>

<text 
x="573" 
y="766" 
dx="0,-0.3,0,0" 
class="s5_82"
>) &lt; </text>

<text 
x="606" 
y="766" 
class="s7_82"
>0 </text>

<text 
x="623" 
y="766" 
dx="0,0,-0.3" 
class="s5_82"
>&amp;&amp; </text>

<text 
x="648" 
y="766" 
dx="0,0,-0.3,0,-0.3" 
class="s4_82"
>chunk</text>

<text 
x="689" 
y="766" 
class="s5_82"
>.</text>

<text 
x="697" 
y="766" 
dx="0,0,0,-0.3,0,-0.3,0,-0.3,0.1" 
class="s4_82"
>language </text>

<text 
x="772" 
y="766" 
dx="0,-0.3,0,-0.3" 
class="s5_82"
>!== </text>

<path d="M107.8,790.5l719.4,0l0,-20.5l-719.4,0l0,20.5Z" class="g2_82" />
<text 
x="110" 
y="787" 
dx="0,0,0,-0.3,0" 
class="s8_82"
>'und'</text>

<text 
x="151" 
y="787" 
dx="0,0,0,-0.3" 
class="s5_82"
>) { </text>

<path d="M107.8,811.4l719.4,0l0,-20.9l-719.4,0l0,20.9Z" class="g2_82" />
<text 
x="242" 
y="807" 
dx="0,-0.3,0,-0.3,0,0,-0.3,0,-0.3,0,-0.3,0,0,-0.3,0,-0.3,0" 
class="s4_82"
>detectedLanguages</text>

<text 
x="383" 
y="807" 
class="s5_82"
>.</text>

<text 
x="391" 
y="807" 
dx="0,0,-0.3,0" 
class="s6_82"
>push</text>

<text 
x="424" 
y="807" 
class="s5_82"
>(</text>

<text 
x="433" 
y="807" 
dx="0,0,-0.3,0,-0.3" 
class="s4_82"
>chunk</text>

<text 
x="474" 
y="807" 
class="s5_82"
>.</text>

<text 
x="482" 
y="807" 
dx="0,0,0,-0.3,0,-0.3,0,0" 
class="s4_82"
>language</text>

<text 
x="548" 
y="807" 
dx="0,0,-0.3" 
class="s5_82"
>); </text>

<path d="M107.8,832l719.4,0l0,-20.6l-719.4,0l0,20.6Z" class="g2_82" />
<text 
x="209" 
y="828" 
dx="0,-0.3" 
class="s5_82"
>} </text>

<path d="M107.8,852.5l719.4,0l0,-20.5l-719.4,0l0,20.5Z" class="g2_82" />
<text 
x="176" 
y="849" 
dx="0,-0.3" 
class="s5_82"
>} </text>

<path d="M107.8,873l719.4,0l0,-20.5l-719.4,0l0,20.5Z" class="g2_82" />
<path d="M107.8,893.9l719.4,0l0,-20.9l-719.4,0l0,20.9Z" class="g2_82" />
<text 
x="176" 
y="890" 
dx="0,0,-0.3,0,-0.3,0" 
class="s3_82"
>const </text>

<text 
x="226" 
y="890" 
dx="0,-0.3,0,-0.3,0,-0.3,0,0,-0.3,0,-0.3,0.1" 
class="s4_82"
>numberRegex </text>

<text 
x="325" 
y="890" 
class="s5_82"
>= </text>

<text 
x="342" 
y="890" 
dx="0,-0.3,0,-0.3" 
class="s3_82"
>new </text>

<text 
x="375" 
y="890" 
dx="0,-0.3,0,0,-0.3,0" 
class="s11_82"
>RegExp</text>

<text 
x="424" 
y="890" 
class="s5_82"
>(</text>

<text 
x="433" 
y="890" 
dx="0,0,-0.3,0,-0.3,0,-0.3,0" 
class="s8_82"
>'^\\d+$'</text>

<text 
x="499" 
y="890" 
dx="0,-0.3,-0.3" 
class="s5_82"
>); </text>

<path d="M107.8,914.5l719.4,0l0,-20.6l-719.4,0l0,20.6Z" class="g2_82" />
<text 
x="176" 
y="911" 
dx="0,0,-0.3,0" 
class="s3_82"
>let </text>

<text 
x="209" 
y="911" 
dx="0,0,0,-0.3,0,-0.3,0,-0.3,0,0,-0.3" 
class="s4_82"
>destination</text>

<text 
x="300" 
y="911" 
dx="0,-0.3" 
class="s5_82"
>: </text>

<text 
x="317" 
y="911" 
dx="0,-0.3,0,0.1" 
class="s11_82"
>any </text>

<text 
x="350" 
y="911" 
class="s5_82"
>= </text>

<text 
x="366" 
y="911" 
class="s8_82"
>''</text>

<text 
x="383" 
y="911" 
dx="0,-0.3" 
class="s5_82"
>; </text>

<path d="M107.8,935l719.4,0l0,-20.5l-719.4,0l0,20.5Z" class="g2_82" />
<path d="M107.8,955.5l719.4,0l0,-20.5l-719.4,0l0,20.5Z" class="g2_82" />
<text 
x="176" 
y="952" 
dx="0,0,-0.3,0" 
class="s9_82"
>for </text>

<text 
x="209" 
y="952" 
class="s5_82"
>(</text>

<text 
x="217" 
y="952" 
dx="0,0,-0.3,0,-0.3,0" 
class="s3_82"
>const </text>

<text 
x="267" 
y="952" 
dx="0,0,0,-0.3,0,-0.3" 
class="s4_82"
>chunk </text>

<text 
x="317" 
y="952" 
dx="0,-0.3,0" 
class="s3_82"
>of </text>

<text 
x="342" 
y="952" 
dx="0,-0.3,0,-0.3,0,-0.3,0,0,-0.3,0,-0.3,0,0,-0.3,0,-0.3,0,-0.3,0,0" 
class="s4_82"
>translateTheseChunks</text>

<text 
x="507" 
y="952" 
dx="0,0,-0.3,-0.3" 
class="s5_82"
>) { </text>

<path d="M107.8,976.4l719.4,0l0,-20.9l-719.4,0l0,20.9Z" class="g2_82" />
<text 
x="209" 
y="972" 
class="s9_82"
>if </text>

<text 
x="234" 
y="972" 
class="s5_82"
>(</text>

<text 
x="242" 
y="972" 
dx="0,-0.3,0,-0.3,0" 
class="s4_82"
>chunk</text>

<text 
x="284" 
y="972" 
class="s5_82"
>.</text>

<text 
x="292" 
y="972" 
dx="0,0,-0.3,0,-0.3,0" 
class="s4_82"
>chunk </text>

<text 
x="342" 
y="972" 
dx="0,-0.3,0,-0.3" 
class="s5_82"
>!== </text>

<text 
x="375" 
y="972" 
dx="0,-0.3" 
class="s8_82"
>''</text>

<text 
x="391" 
y="972" 
dx="0,0,-0.3,-0.3" 
class="s5_82"
>) { </text>

<path d="M107.8,997l719.4,0l0,-20.6l-719.4,0l0,20.6Z" class="g2_82" />
<text 
x="242" 
y="993" 
dx="0,-0.3,0" 
class="s9_82"
>if </text>

<text 
x="267" 
y="993" 
class="s5_82"
>(</text>

<text 
x="275" 
y="993" 
dx="0,0,-0.3,0,-0.3,0,-0.3,0,0,-0.3,0" 
class="s4_82"
>numberRegex</text>

<text 
x="366" 
y="993" 
class="s5_82"
>.</text>

<text 
x="375" 
y="993" 
dx="0,-0.3,0,0" 
class="s6_82"
>test</text>

<text 
x="408" 
y="993" 
class="s5_82"
>(</text>

<text 
x="416" 
y="993" 
dx="0,-0.3,0,0,-0.3" 
class="s4_82"
>chunk</text>

<text 
x="457" 
y="993" 
class="s5_82"
>.</text>

<text 
x="466" 
y="993" 
dx="0,0,-0.3,0,0" 
class="s4_82"
>chunk</text>

<text 
x="507" 
y="993" 
dx="0,0,-0.3,0,0,-0.3" 
class="s5_82"
>) === </text>

<text 
x="557" 
y="993" 
dx="0,-0.3,0,-0.3" 
class="s3_82"
>true</text>

<text 
x="590" 
y="993" 
dx="0,0,-0.3,-0.3" 
class="s5_82"
>) { </text>

<path d="M107.8,1017.5l719.4,0l0,-20.5l-719.4,0l0,20.5Z" class="g2_82" />
<text 
x="275" 
y="1014" 
dx="0,0,-0.3,0,-0.3,0,-0.3,0,0,-0.3,0,-0.3" 
class="s4_82"
>destination </text>

<text 
x="375" 
y="1014" 
dx="0,-0.3,0" 
class="s5_82"
>+= </text>

<text 
x="400" 
y="1014" 
dx="0,-0.3,0,-0.3,0" 
class="s4_82"
>chunk</text>

<text 
x="441" 
y="1014" 
class="s5_82"
>.</text>

<text 
x="449" 
y="1014" 
dx="0,0,-0.3,0,-0.3,0" 
class="s4_82"
>chunk </text>

<text 
x="499" 
y="1014" 
dx="0,-0.3" 
class="s5_82"
>+ </text>

<text 
x="515" 
y="1014" 
dx="0,-0.3,0" 
class="s8_82"
>' '</text>

<text 
x="540" 
y="1014" 
dx="0,-0.3" 
class="s5_82"
>; </text>

<path d="M107.8,1038l719.4,0l0,-20.5l-719.4,0l0,20.5Z" class="g2_82" />
<text 
x="242" 
y="1034" 
dx="0,-0.3" 
class="s5_82"
>} </text>

<text 
x="259" 
y="1034" 
dx="0,-0.3,0,0,-0.3" 
class="s9_82"
>else </text>

<text 
x="300" 
y="1034" 
dx="0,-0.3" 
class="s5_82"
>{ </text>

<path d="M107.8,1058.9l719.4,0l0,-20.9l-719.4,0l0,20.9Z" class="g2_82" />
<text 
x="275" 
y="1055" 
dx="0,0,-0.3" 
class="s9_82"
>if </text>

<text 
x="300" 
y="1055" 
class="s5_82"
>(</text>

<text 
x="308" 
y="1055" 
dx="0,0,-0.3,0,0,-0.3,0,-0.3,0,-0.3,0,0,-0.3,0,-0.3,0,0,-0.3,0,-0.3,0" 
class="s4_82"
>doublePassTranslation</text>

<text 
x="482" 
y="1055" 
dx="0,0,0,-0.3" 
class="s5_82"
>) { </text>



<!-- Any embedded fonts defined here -->
<style type="text/css" ><![CDATA[

@font-face {
	font-family: ArialNovaCond-Bold_d;
	src: url("fonts/ArialNovaCond-Bold_d.woff") format("woff");
}

@font-face {
	font-family: Menlo-Regular_bu;
	src: url("fonts/Menlo-Regular_bu.woff") format("woff");
}

@font-face {
	font-family: ArialNova-Light_n;
	src: url("fonts/ArialNova-Light_n.woff") format("woff");
}

]]></style>

</svg>
