<?xml version="1.0" encoding="UTF-8" standalone="no"?>
<!DOCTYPE svg PUBLIC "-//W3C//DTD SVG 1.1//EN"
"http://www.w3.org/Graphics/SVG/1.1/DTD/svg11.dtd">


<!-- Page 83 -->
<svg x="0" y="0" width="935" height="1210" viewBox="0 0 935 1210" version="1.1" xmlns="http://www.w3.org/2000/svg" xmlns:xlink="http://www.w3.org/1999/xlink"
style="display: block;margin-left: auto;margin-right: auto;">
<defs>

<style type="text/css"><![CDATA[

.g1_83{
fill: #D9D9D9;
}
.g2_83{
fill: #FFFFFF;
}

.s1_83{
font-size: 18.33px;
font-family: ArialNovaCond-Bold_d;
fill: #5A5A5A;
}
.s2_83{
font-size: 12.10px;
font-family: ArialNova-Light_n;
fill: #7F7F7F;
}
.s3_83{
font-size: 13.93px;
font-family: Menlo-Regular_bu;
fill: #001080;
}
.s4_83{
font-size: 13.93px;
font-family: Menlo-Regular_bu;
fill: #000000;
}
.s5_83{
font-size: 13.93px;
font-family: Menlo-Regular_bu;
fill: #AF00DB;
}
.s6_83{
font-size: 13.93px;
font-family: Menlo-Regular_bu;
fill: #795E26;
}
.s7_83{
font-size: 13.93px;
font-family: Menlo-Regular_bu;
fill: #0000FF;
}
.s8_83{
font-size: 13.93px;
font-family: Menlo-Regular_bu;
fill: #A31515;
}
.s9_83{
font-size: 13.93px;
font-family: Menlo-Regular_bu;
fill: #008000;
}
.s10_83{
font-size: 13.93px;
font-family: Menlo-Regular_bu;
fill: #267F99;
}

]]></style>

</defs>
<path d="M0,0
L0,1210
L935,1210
L935,0 Z " 
fill="#FFFFFF" stroke="none" />
<text 
x="110" 
y="1106" 
dx="0,0,0,0.2" 
class="s1_83"
>83 |</text>

<text 
x="141" 
y="1106" 
dx="0,4.3,4.9,0,1.9,0,1.6,0,1.3,0,1.7,0,1.7,0,1.2,0,1.9,0,1.6,4.7,4.9,0,1.3,0,1.7,0,1.6,0,1.5,0,1.6,0,1.9,0,1.2,0,1.5,0,1.9,0,1.5,4.5,4.9,0,1.7,0,1.2,0,1.9,0,1.9,0,1.2,4.5,4.5,0,1.9,0,1.5,4.7,4.9,0,1.3,0,1.5,0,1.9,0,1.5,0,1.5,0,1.5,0,1.5,0,1.9,0,1.3,0,1.9,0,1.6,4.6,4.5,0,1.9,0,1.5,0,1.7,0,1.6,0,1.4,0,1.9,0,1.3,0,1.9,0,1.5,0,1.7,0,1.5,0,1.5,0,1.9" 
class="s2_83"
>A W e b - b a s e d T r a n s l a t i o n S y s t e m f o r M u l t i l i n g u a l C o d e - s w i t c h i n g</text>

<path d="M107.8,1086.4l719.4,0l0,-0.7l-719.4,0l0,0.7Z" class="g1_83" />
<path d="M107.8,130.5l719.4,0l0,-20.5l-719.4,0l0,20.5Z" class="g2_83" />
<text 
x="308" 
y="127" 
dx="0,0,-0.3,0,0,-0.3,0,-0.3,0,-0.3,0,0" 
class="s3_83"
>destination </text>

<text 
x="408" 
y="127" 
dx="0,0,-0.3" 
class="s4_83"
>+= </text>

<text 
x="433" 
y="127" 
dx="0,0,-0.3,0,-0.3,0" 
class="s5_83"
>await </text>

<text 
x="482" 
y="127" 
dx="0,0,0,-0.3,0,-0.3,0,0,-0.3,0,-0.3,0,-0.3,0,0" 
class="s6_83"
>googleTranslate</text>

<text 
x="606" 
y="127" 
class="s4_83"
>(</text>

<text 
x="615" 
y="127" 
dx="0,-0.3,0,-0.3,0" 
class="s3_83"
>chunk</text>

<text 
x="656" 
y="127" 
class="s4_83"
>.</text>

<text 
x="664" 
y="127" 
dx="0,0,-0.3,0,-0.3" 
class="s3_83"
>chunk</text>

<text 
x="706" 
y="127" 
class="s4_83"
>, </text>

<path d="M107.8,151.4l719.4,0l0,-20.9l-719.4,0l0,20.9Z" class="g2_83" />
<text 
x="110" 
y="147" 
dx="0,0,0,-0.3,0" 
class="s3_83"
>chunk</text>

<text 
x="151" 
y="147" 
class="s4_83"
>.</text>

<text 
x="159" 
y="147" 
dx="0,0,-0.3,0,-0.3,0,-0.3,0" 
class="s3_83"
>language</text>

<text 
x="226" 
y="147" 
dx="0,-0.3" 
class="s4_83"
>, </text>

<text 
x="242" 
y="147" 
dx="0,-0.3,0,-0.3,0,0,-0.3,0,-0.3,0,-0.3,0,0,-0.3" 
class="s3_83"
>matrixLanguage</text>

<text 
x="358" 
y="147" 
dx="0,-0.3" 
class="s4_83"
>, </text>

<text 
x="375" 
y="147" 
dx="0,-0.3,0,0,-0.3" 
class="s7_83"
>false</text>

<text 
x="416" 
y="147" 
dx="0,-0.3" 
class="s4_83"
>).</text>

<text 
x="433" 
y="147" 
dx="0,0,-0.3,0,-0.3" 
class="s6_83"
>catch</text>

<text 
x="474" 
y="147" 
dx="0,-0.3" 
class="s4_83"
>((</text>

<text 
x="490" 
y="147" 
class="s3_83"
>e</text>

<text 
x="499" 
y="147" 
dx="0,-0.3" 
class="s4_83"
>) </text>

<text 
x="515" 
y="147" 
dx="0,-0.3,0" 
class="s7_83"
>=&gt; </text>

<text 
x="540" 
y="147" 
dx="0,-0.3" 
class="s4_83"
>{ </text>

<path d="M107.8,172l719.4,0l0,-20.6l-719.4,0l0,20.6Z" class="g2_83" />
<text 
x="342" 
y="168" 
dx="0,-0.3,0,-0.3,0,-0.3,0,0,-0.3,0,-0.3,0,0,-0.3,0,-0.3,0,-0.3" 
class="s3_83"
>languageCodeError </text>

<text 
x="490" 
y="168" 
class="s4_83"
>= </text>

<text 
x="507" 
y="168" 
dx="0,0,-0.3,0" 
class="s7_83"
>true</text>

<text 
x="540" 
y="168" 
dx="0,-0.3" 
class="s4_83"
>; </text>

<path d="M107.8,192.5l719.4,0l0,-20.5l-719.4,0l0,20.5Z" class="g2_83" />
<text 
x="308" 
y="189" 
dx="0,0,-0.3,-0.3" 
class="s4_83"
>}); </text>

<path d="M107.8,213l719.4,0l0,-20.5l-719.4,0l0,20.5Z" class="g2_83" />
<text 
x="275" 
y="209" 
class="s4_83"
>} </text>

<text 
x="292" 
y="209" 
dx="0,0,-0.3,0,-0.3" 
class="s5_83"
>else </text>

<text 
x="333" 
y="209" 
dx="0,-0.3" 
class="s4_83"
>{ </text>

<path d="M107.8,233.9l719.4,0l0,-20.9l-719.4,0l0,20.9Z" class="g2_83" />
<text 
x="308" 
y="230" 
dx="0,0,-0.3,0,0,-0.3,0,-0.3,0,-0.3,0,0" 
class="s3_83"
>destination </text>

<text 
x="408" 
y="230" 
dx="0,0,-0.3" 
class="s4_83"
>+= </text>

<text 
x="433" 
y="230" 
dx="0,0,-0.3,0,-0.3,0" 
class="s5_83"
>await </text>

<text 
x="482" 
y="230" 
dx="0,0,0,-0.3,0,-0.3,0,0,-0.3,0,-0.3,0,-0.3,0,0" 
class="s6_83"
>googleTranslate</text>

<text 
x="606" 
y="230" 
class="s4_83"
>(</text>

<text 
x="615" 
y="230" 
dx="0,-0.3,0,-0.3,0" 
class="s3_83"
>chunk</text>

<text 
x="656" 
y="230" 
class="s4_83"
>.</text>

<text 
x="664" 
y="230" 
dx="0,0,-0.3,0,-0.3" 
class="s3_83"
>chunk</text>

<text 
x="706" 
y="230" 
class="s4_83"
>, </text>

<path d="M107.8,254.5l719.4,0l0,-20.6l-719.4,0l0,20.6Z" class="g2_83" />
<text 
x="110" 
y="251" 
dx="0,0,0,-0.3,0" 
class="s3_83"
>chunk</text>

<text 
x="151" 
y="251" 
class="s4_83"
>.</text>

<text 
x="159" 
y="251" 
dx="0,0,-0.3,0,-0.3,0,-0.3,0" 
class="s3_83"
>language</text>

<text 
x="226" 
y="251" 
dx="0,-0.3" 
class="s4_83"
>, </text>

<text 
x="242" 
y="251" 
dx="0,-0.3,0,-0.3,0,0,-0.3,0,-0.3,0,-0.3,0,0,-0.3" 
class="s3_83"
>targetLanguage</text>

<text 
x="358" 
y="251" 
dx="0,-0.3" 
class="s4_83"
>, </text>

<text 
x="375" 
y="251" 
dx="0,-0.3,0,0,-0.3" 
class="s7_83"
>false</text>

<text 
x="416" 
y="251" 
dx="0,-0.3" 
class="s4_83"
>).</text>

<text 
x="433" 
y="251" 
dx="0,0,-0.3,0,-0.3" 
class="s6_83"
>catch</text>

<text 
x="474" 
y="251" 
dx="0,-0.3" 
class="s4_83"
>((</text>

<text 
x="490" 
y="251" 
class="s3_83"
>e</text>

<text 
x="499" 
y="251" 
dx="0,-0.3" 
class="s4_83"
>) </text>

<text 
x="515" 
y="251" 
dx="0,-0.3,0" 
class="s7_83"
>=&gt; </text>

<text 
x="540" 
y="251" 
dx="0,-0.3" 
class="s4_83"
>{ </text>

<path d="M107.8,275l719.4,0l0,-20.5l-719.4,0l0,20.5Z" class="g2_83" />
<text 
x="342" 
y="271" 
dx="0,-0.3,0,-0.3,0,-0.3,0,0,-0.3,0,-0.3,0,0,-0.3,0,-0.3,0,-0.3" 
class="s3_83"
>languageCodeError </text>

<text 
x="490" 
y="271" 
class="s4_83"
>= </text>

<text 
x="507" 
y="271" 
dx="0,0,-0.3,0" 
class="s7_83"
>true</text>

<text 
x="540" 
y="271" 
dx="0,-0.3" 
class="s4_83"
>; </text>

<path d="M107.8,295.5l719.4,0l0,-20.5l-719.4,0l0,20.5Z" class="g2_83" />
<text 
x="308" 
y="292" 
dx="0,0,-0.3,-0.3" 
class="s4_83"
>}); </text>

<path d="M107.8,316.4l719.4,0l0,-20.9l-719.4,0l0,20.9Z" class="g2_83" />
<text 
x="275" 
y="312" 
dx="0,-0.3" 
class="s4_83"
>} </text>

<path d="M107.8,337l719.4,0l0,-20.6l-719.4,0l0,20.6Z" class="g2_83" />
<text 
x="275" 
y="333" 
dx="0,0,-0.3,0,-0.3,0,-0.3,0,0,-0.3,0,-0.3" 
class="s3_83"
>destination </text>

<text 
x="375" 
y="333" 
dx="0,-0.3,0" 
class="s4_83"
>+= </text>

<text 
x="400" 
y="333" 
dx="0,-0.3,0" 
class="s8_83"
>' '</text>

<text 
x="424" 
y="333" 
dx="0,-0.3" 
class="s4_83"
>; </text>

<path d="M107.8,357.5l719.4,0l0,-20.5l-719.4,0l0,20.5Z" class="g2_83" />
<path d="M107.8,378l719.4,0l0,-20.5l-719.4,0l0,20.5Z" class="g2_83" />
<text 
x="242" 
y="374" 
dx="0,-0.3" 
class="s4_83"
>} </text>

<path d="M107.8,398.9l719.4,0l0,-20.9l-719.4,0l0,20.9Z" class="g2_83" />
<text 
x="209" 
y="395" 
dx="0,-0.3" 
class="s4_83"
>} </text>

<path d="M107.8,419.5l719.4,0l0,-20.6l-719.4,0l0,20.6Z" class="g2_83" />
<text 
x="209" 
y="416" 
dx="0,0,0,-0.3,0,-0.3,0,-0.3,0,0,-0.3,0,-0.3,0,-0.3,0,0,-0.3,0,-0.3,0,-0.3,0,0,-0.3,0,-0.3,0,0,-0.3,0,-0.3,-0.4" 
class="s9_83"
>// Check for language code error </text>

<path d="M107.8,440l719.4,0l0,-20.5l-719.4,0l0,20.5Z" class="g2_83" />
<text 
x="209" 
y="436" 
class="s5_83"
>if </text>

<text 
x="234" 
y="436" 
class="s4_83"
>(</text>

<text 
x="242" 
y="436" 
dx="0,-0.3,0,-0.3,0,0,-0.3,0,-0.3,0,-0.3,0,0,-0.3,0,-0.3,0" 
class="s3_83"
>languageCodeError</text>

<text 
x="383" 
y="436" 
dx="0,0,0,-0.3" 
class="s4_83"
>) { </text>

<path d="M107.8,460.5l719.4,0l0,-20.5l-719.4,0l0,20.5Z" class="g2_83" />
<text 
x="242" 
y="457" 
dx="0,-0.3,0,-0.3,0,0,-0.3" 
class="s5_83"
>return </text>

<text 
x="300" 
y="457" 
dx="0,-0.3" 
class="s4_83"
>{ </text>

<path d="M107.8,481.4l719.4,0l0,-20.9l-719.4,0l0,20.9Z" class="g2_83" />
<text 
x="275" 
y="477" 
dx="0,0,-0.3,0,-0.3,0,-0.3" 
class="s3_83"
>error: </text>

<text 
x="333" 
y="477" 
dx="0,0,-0.3,0,-0.3,0,-0.3,0,0,-0.3,0,-0.3,0,0,-0.3,0,-0.3,0,-0.3,0,0,-0.3,0,-0.3,0,0,-0.3,0,-0.3,0,-0.4" 
class="s8_83"
>'Invalid target language code' </text>

<path d="M107.8,502l719.4,0l0,-20.6l-719.4,0l0,20.6Z" class="g2_83" />
<text 
x="242" 
y="498" 
dx="0,-0.3" 
class="s4_83"
>} </text>

<path d="M107.8,522.5l719.4,0l0,-20.5l-719.4,0l0,20.5Z" class="g2_83" />
<text 
x="209" 
y="519" 
dx="0,-0.3" 
class="s4_83"
>} </text>

<path d="M107.8,543l719.4,0l0,-20.5l-719.4,0l0,20.5Z" class="g2_83" />
<text 
x="176" 
y="539" 
dx="0,-0.3" 
class="s4_83"
>} </text>

<path d="M107.8,563.9l719.4,0l0,-20.9l-719.4,0l0,20.9Z" class="g2_83" />
<path d="M107.8,584.5l719.4,0l0,-20.6l-719.4,0l0,20.6Z" class="g2_83" />
<text 
x="176" 
y="581" 
dx="0,0,-0.3,0,-0.3,0,0" 
class="s10_83"
>console</text>

<text 
x="234" 
y="581" 
class="s4_83"
>.</text>

<text 
x="242" 
y="581" 
dx="0,-0.3,0" 
class="s6_83"
>log</text>

<text 
x="267" 
y="581" 
class="s4_83"
>(</text>

<text 
x="275" 
y="581" 
dx="0,0,-0.3,0,-0.3,0,-0.3,0,0,-0.3,0" 
class="s3_83"
>destination</text>

<text 
x="366" 
y="581" 
dx="0,0,-0.3" 
class="s4_83"
>); </text>

<path d="M107.8,605l719.4,0l0,-20.5l-719.4,0l0,20.5Z" class="g2_83" />
<text 
x="176" 
y="601" 
dx="0,0,-0.3,0,-0.3,0,0" 
class="s10_83"
>console</text>

<text 
x="234" 
y="601" 
class="s4_83"
>.</text>

<text 
x="242" 
y="601" 
dx="0,-0.3,0" 
class="s6_83"
>log</text>

<text 
x="267" 
y="601" 
class="s4_83"
>(</text>

<text 
x="275" 
y="601" 
dx="0,0,-0.3,0,-0.3,0,-0.3,0,0,-0.3,0,-0.3,0,-0.3,0,0,-0.3,0,-0.3,0,0,-0.3,0,-0.3,0,-0.3,0,0,-0.3,0,-0.3,0,0,-0.3,0,-0.4,0,-0.3,0,0,-0.3" 
class="s8_83"
>'-----Framework Language To English-----'</text>

<text 
x="615" 
y="601" 
dx="0,-0.3,-0.3" 
class="s4_83"
>); </text>

<path d="M107.8,625.5l719.4,0l0,-20.5l-719.4,0l0,20.5Z" class="g2_83" />
<path d="M107.8,646.4l719.4,0l0,-20.9l-719.4,0l0,20.9Z" class="g2_83" />
<text 
x="176" 
y="642" 
dx="0,0,-0.3,0,-0.3,0,0,-0.3,0,-0.3,0,-0.3,0,0,-0.3,0,-0.3,0,-0.3,0,0,-0.3,-0.4" 
class="s9_83"
>// Replace apostrophes </text>

<path d="M107.8,667l719.4,0l0,-20.6l-719.4,0l0,20.6Z" class="g2_83" />
<text 
x="176" 
y="663" 
dx="0,0,-0.3,0,-0.3,0,0,-0.3,0,-0.3,0,-0.3" 
class="s3_83"
>destination </text>

<text 
x="275" 
y="663" 
class="s4_83"
>= </text>

<text 
x="292" 
y="663" 
dx="0,0,-0.3,0,-0.3,0,0,-0.3,0,-0.3,0,-0.3,0,0,-0.3,0,-0.3,0" 
class="s6_83"
>convertPunctuation</text>

<text 
x="441" 
y="663" 
class="s4_83"
>(</text>

<text 
x="449" 
y="663" 
dx="0,0,-0.3,0,-0.3,0,0,-0.3,0,-0.3,0" 
class="s3_83"
>destination</text>

<text 
x="540" 
y="663" 
dx="0,-0.3,-0.3" 
class="s4_83"
>); </text>

<path d="M107.8,687.5l719.4,0l0,-20.5l-719.4,0l0,20.5Z" class="g2_83" />
<path d="M107.8,708l719.4,0l0,-20.5l-719.4,0l0,20.5Z" class="g2_83" />
<text 
x="176" 
y="704" 
dx="0,0,-0.3,0,-0.3,0,0,-0.3,0,-0.3,0,-0.3,0,0,-0.3,0,-0.3,0,-0.3,0,0,-0.3,0,-0.3,0,-0.3,0,0,-0.3,0,-0.3,0,0,-0.4" 
class="s9_83"
>// Use neural machine translation </text>

<path d="M107.8,728.9l719.4,0l0,-20.9l-719.4,0l0,20.9Z" class="g2_83" />
<text 
x="176" 
y="725" 
dx="0,0,-0.3" 
class="s5_83"
>if </text>

<text 
x="201" 
y="725" 
class="s4_83"
>(</text>

<text 
x="209" 
y="725" 
dx="0,0,0,-0.3,0,-0.3,0,-0.3,0,0,-0.3,0,-0.3,0,-0.3,0,0,-0.3,0,-0.3,0" 
class="s3_83"
>doublePassTranslation</text>

<text 
x="383" 
y="725" 
dx="0,0,0,-0.3" 
class="s4_83"
>) { </text>

<path d="M107.8,749.5l719.4,0l0,-20.6l-719.4,0l0,20.6Z" class="g2_83" />
<text 
x="209" 
y="746" 
dx="0,0,0,-0.3,0,-0.3,0,-0.3,0,0,-0.3,0" 
class="s3_83"
>destination </text>

<text 
x="308" 
y="746" 
class="s4_83"
>= </text>

<text 
x="325" 
y="746" 
dx="0,0,0,-0.3,0,-0.3" 
class="s5_83"
>await </text>

<text 
x="375" 
y="746" 
dx="0,-0.3,0,0,-0.3,0,-0.3,0,0,-0.3,0,-0.3,0,-0.3,0" 
class="s6_83"
>googleTranslate</text>

<text 
x="499" 
y="746" 
class="s4_83"
>(</text>

<text 
x="507" 
y="746" 
dx="0,0,-0.3,0,0,-0.3,0,-0.3,0,-0.3,0" 
class="s3_83"
>destination</text>

<text 
x="598" 
y="746" 
dx="0,-0.3" 
class="s4_83"
>, </text>

<text 
x="615" 
y="746" 
dx="0,-0.3,0,-0.3,0,0,-0.3,0,-0.3,0,-0.3,0,0,-0.3" 
class="s3_83"
>matrixLanguage</text>

<text 
x="731" 
y="746" 
dx="0,-0.3" 
class="s4_83"
>, </text>

<path d="M107.8,770l719.4,0l0,-20.5l-719.4,0l0,20.5Z" class="g2_83" />
<text 
x="110" 
y="766" 
dx="0,0,0,-0.3,0,-0.3,0,0,-0.3,0,-0.3,0,-0.3,0" 
class="s3_83"
>targetLanguage</text>

<text 
x="226" 
y="766" 
dx="0,-0.3" 
class="s4_83"
>, </text>

<text 
x="242" 
y="766" 
dx="0,-0.3,0,-0.3" 
class="s7_83"
>true</text>

<text 
x="275" 
y="766" 
class="s4_83"
>).</text>

<text 
x="292" 
y="766" 
dx="0,0,-0.3,0,-0.3" 
class="s6_83"
>catch</text>

<text 
x="333" 
y="766" 
class="s4_83"
>((</text>

<text 
x="350" 
y="766" 
class="s3_83"
>e</text>

<text 
x="358" 
y="766" 
dx="0,-0.3" 
class="s4_83"
>) </text>

<text 
x="375" 
y="766" 
dx="0,-0.3,0" 
class="s7_83"
>=&gt; </text>

<text 
x="400" 
y="766" 
dx="0,-0.3" 
class="s4_83"
>{ </text>

<path d="M107.8,790.5l719.4,0l0,-20.5l-719.4,0l0,20.5Z" class="g2_83" />
<text 
x="242" 
y="787" 
dx="0,-0.3,0,-0.3,0,0,-0.3,0,-0.3,0,-0.3,0,0,-0.3,0,-0.3,0,-0.3" 
class="s3_83"
>languageCodeError </text>

<text 
x="391" 
y="787" 
class="s4_83"
>= </text>

<text 
x="408" 
y="787" 
dx="0,0,-0.3,0" 
class="s7_83"
>true</text>

<text 
x="441" 
y="787" 
dx="0,-0.3" 
class="s4_83"
>; </text>

<path d="M107.8,811.4l719.4,0l0,-20.9l-719.4,0l0,20.9Z" class="g2_83" />
<text 
x="209" 
y="807" 
dx="0,0,0,-0.3" 
class="s4_83"
>}); </text>

<path d="M107.8,832l719.4,0l0,-20.6l-719.4,0l0,20.6Z" class="g2_83" />
<text 
x="176" 
y="828" 
dx="0,-0.3" 
class="s4_83"
>} </text>

<path d="M107.8,852.5l719.4,0l0,-20.5l-719.4,0l0,20.5Z" class="g2_83" />
<path d="M107.8,873l719.4,0l0,-20.5l-719.4,0l0,20.5Z" class="g2_83" />
<text 
x="176" 
y="869" 
dx="0,0,-0.3,0,-0.3,0,0,-0.3,0,-0.3,0,-0.3,0,0,-0.3,0,-0.3,0,-0.3,0,0,-0.3,0,-0.3,0,-0.3,0,0,-0.3,0,-0.3,0,-0.4" 
class="s9_83"
>// Check for language code error </text>

<path d="M107.8,893.9l719.4,0l0,-20.9l-719.4,0l0,20.9Z" class="g2_83" />
<text 
x="176" 
y="890" 
dx="0,0,-0.3" 
class="s5_83"
>if </text>

<text 
x="201" 
y="890" 
class="s4_83"
>(</text>

<text 
x="209" 
y="890" 
dx="0,0,0,-0.3,0,-0.3,0,-0.3,0,0,-0.3,0,-0.3,0,-0.3,0,0" 
class="s3_83"
>languageCodeError</text>

<text 
x="350" 
y="890" 
dx="0,0,-0.3,-0.3" 
class="s4_83"
>) { </text>

<path d="M107.8,914.5l719.4,0l0,-20.6l-719.4,0l0,20.6Z" class="g2_83" />
<text 
x="209" 
y="911" 
dx="0,0,0,-0.3,0,-0.3,0" 
class="s5_83"
>return </text>

<text 
x="267" 
y="911" 
dx="0,-0.3" 
class="s4_83"
>{ </text>

<path d="M107.8,935l719.4,0l0,-20.5l-719.4,0l0,20.5Z" class="g2_83" />
<text 
x="242" 
y="931" 
dx="0,-0.3,0,-0.3,0,0,-0.3" 
class="s3_83"
>error: </text>

<text 
x="300" 
y="931" 
dx="0,-0.3,0,-0.3,0,0,-0.3,0,-0.3,0.1,-0.3,0,0,-0.3,0,-0.3,0,0,-0.3,0,-0.3,0,-0.3,0,0,-0.3,0,-0.3,0,0,-0.3" 
class="s8_83"
>'Invalid target language code' </text>

<path d="M107.8,955.5l719.4,0l0,-20.5l-719.4,0l0,20.5Z" class="g2_83" />
<text 
x="209" 
y="952" 
dx="0,-0.3" 
class="s4_83"
>} </text>

<path d="M107.8,976.4l719.4,0l0,-20.9l-719.4,0l0,20.9Z" class="g2_83" />
<text 
x="176" 
y="972" 
dx="0,-0.3" 
class="s4_83"
>} </text>

<path d="M107.8,997l719.4,0l0,-20.6l-719.4,0l0,20.6Z" class="g2_83" />
<path d="M107.8,1017.5l719.4,0l0,-20.5l-719.4,0l0,20.5Z" class="g2_83" />
<text 
x="176" 
y="1014" 
dx="0,0,-0.3,0,-0.3,0,0,-0.3,0,-0.3,0,-0.3,0,0,-0.3,0,-0.3,0,-0.3,0,0,-0.3,-0.4" 
class="s9_83"
>// Replace apostrophes </text>

<path d="M107.8,1038l719.4,0l0,-20.5l-719.4,0l0,20.5Z" class="g2_83" />
<text 
x="176" 
y="1034" 
dx="0,0,-0.3,0,-0.3,0,0,-0.3,0,-0.3,0,-0.3" 
class="s3_83"
>destination </text>

<text 
x="275" 
y="1034" 
class="s4_83"
>= </text>

<text 
x="292" 
y="1034" 
dx="0,0,-0.3,0,-0.3,0,0,-0.3,0,-0.3,0,-0.3,0,0,-0.3,0,-0.3,0" 
class="s6_83"
>convertPunctuation</text>

<text 
x="441" 
y="1034" 
class="s4_83"
>(</text>

<text 
x="449" 
y="1034" 
dx="0,0,-0.3,0,-0.3,0,0,-0.3,0,-0.3,0" 
class="s3_83"
>destination</text>

<text 
x="540" 
y="1034" 
dx="0,-0.3,-0.3" 
class="s4_83"
>); </text>

<path d="M107.8,1058.9l719.4,0l0,-20.9l-719.4,0l0,20.9Z" class="g2_83" />
<path d="M107.8,1079.5l719.4,0l0,-20.6l-719.4,0l0,20.6Z" class="g2_83" />
<text 
x="176" 
y="1076" 
dx="0,0,-0.3,0,-0.3,0,0,-0.3,0,-0.3,0,-0.3,0,0,-0.3" 
class="s3_83"
>matrixLanguage </text>

<text 
x="300" 
y="1076" 
dx="0,-0.3" 
class="s4_83"
>= </text>

<text 
x="317" 
y="1076" 
dx="0,-0.3,0,0" 
class="s7_83"
>null</text>

<text 
x="350" 
y="1076" 
dx="0,-0.3" 
class="s4_83"
>; </text>



<!-- Any embedded fonts defined here -->
<style type="text/css" ><![CDATA[

@font-face {
	font-family: ArialNovaCond-Bold_d;
	src: url("fonts/ArialNovaCond-Bold_d.woff") format("woff");
}

@font-face {
	font-family: Menlo-Regular_bu;
	src: url("fonts/Menlo-Regular_bu.woff") format("woff");
}

@font-face {
	font-family: ArialNova-Light_n;
	src: url("fonts/ArialNova-Light_n.woff") format("woff");
}

]]></style>

</svg>
