<?xml version="1.0" encoding="UTF-8" standalone="no"?>
<!DOCTYPE svg PUBLIC "-//W3C//DTD SVG 1.1//EN"
"http://www.w3.org/Graphics/SVG/1.1/DTD/svg11.dtd">


<!-- Page 86 -->
<svg x="0" y="0" width="935" height="1210" viewBox="0 0 935 1210" version="1.1" xmlns="http://www.w3.org/2000/svg" xmlns:xlink="http://www.w3.org/1999/xlink"
style="display: block;margin-left: auto;margin-right: auto;">
<defs>

<style type="text/css"><![CDATA[

.g1_86{
fill: #D9D9D9;
}
.g2_86{
fill: #FFFFFF;
}

.s1_86{
font-size: 18.33px;
font-family: ArialNovaCond-Bold_d;
fill: #5A5A5A;
}
.s2_86{
font-size: 12.10px;
font-family: ArialNova-Light_n;
fill: #7F7F7F;
}
.s3_86{
font-size: 13.93px;
font-family: Menlo-Regular_bu;
fill: #0000FF;
}
.s4_86{
font-size: 13.93px;
font-family: Menlo-Regular_bu;
fill: #001080;
}
.s5_86{
font-size: 13.93px;
font-family: Menlo-Regular_bu;
fill: #000000;
}
.s6_86{
font-size: 13.93px;
font-family: Menlo-Regular_bu;
fill: #A31515;
}
.s7_86{
font-size: 13.93px;
font-family: Menlo-Regular_bu;
fill: #795E26;
}
.s8_86{
font-size: 13.93px;
font-family: Menlo-Regular_bu;
fill: #267F99;
}
.s9_86{
font-size: 13.93px;
font-family: Menlo-Regular_bu;
fill: #811F3F;
}
.s10_86{
font-size: 13.93px;
font-family: Menlo-Regular_bu;
fill: #D16969;
}
.s11_86{
font-size: 13.93px;
font-family: Menlo-Regular_bu;
fill: #09885A;
}
.s12_86{
font-size: 13.93px;
font-family: Menlo-Regular_bu;
fill: #AF00DB;
}

]]></style>

</defs>
<path d="M0,0
L0,1210
L935,1210
L935,0 Z " 
fill="#FFFFFF" stroke="none" />
<text 
x="110" 
y="1106" 
dx="0,0,0,0.2" 
class="s1_86"
>86 |</text>

<text 
x="141" 
y="1106" 
dx="0,4.3,4.9,0,1.9,0,1.6,0,1.3,0,1.7,0,1.7,0,1.2,0,1.9,0,1.6,4.7,4.9,0,1.3,0,1.7,0,1.6,0,1.5,0,1.6,0,1.9,0,1.2,0,1.5,0,1.9,0,1.5,4.5,4.9,0,1.7,0,1.2,0,1.9,0,1.9,0,1.2,4.5,4.5,0,1.9,0,1.5,4.7,4.9,0,1.3,0,1.5,0,1.9,0,1.5,0,1.5,0,1.5,0,1.5,0,1.9,0,1.3,0,1.9,0,1.6,4.6,4.5,0,1.9,0,1.5,0,1.7,0,1.6,0,1.4,0,1.9,0,1.3,0,1.9,0,1.5,0,1.7,0,1.5,0,1.5,0,1.9" 
class="s2_86"
>A W e b - b a s e d T r a n s l a t i o n S y s t e m f o r M u l t i l i n g u a l C o d e - s w i t c h i n g</text>

<path d="M107.8,1086.4l719.4,0l0,-0.7l-719.4,0l0,0.7Z" class="g1_86" />
<path d="M107.8,130.5l719.4,0l0,-20.5l-719.4,0l0,20.5Z" class="g2_86" />
<text 
x="176" 
y="127" 
dx="0,0,-0.3,0" 
class="s3_86"
>let </text>

<text 
x="209" 
y="127" 
dx="0,0,0,-0.3,0,-0.3,0,-0.3,0" 
class="s4_86"
>sentence </text>

<text 
x="284" 
y="127" 
dx="0,-0.3" 
class="s5_86"
>= </text>

<text 
x="300" 
y="127" 
dx="0,-0.3" 
class="s6_86"
>''</text>

<text 
x="317" 
y="127" 
dx="0,-0.3" 
class="s5_86"
>; </text>

<path d="M107.8,151.4l719.4,0l0,-20.9l-719.4,0l0,20.9Z" class="g2_86" />
<text 
x="176" 
y="147" 
dx="0,0,-0.3,0,-0.3,0" 
class="s3_86"
>const </text>

<text 
x="226" 
y="147" 
dx="0,-0.3,0,-0.3,0.1" 
class="s4_86"
>temp </text>

<text 
x="267" 
y="147" 
class="s5_86"
>= </text>

<text 
x="284" 
y="147" 
dx="0,-0.3,0,-0.3,0,-0.3,0,0,-0.3,0,-0.3,0,-0.3,0,0,-0.3" 
class="s7_86"
>asianPunctuation</text>

<text 
x="416" 
y="147" 
class="s5_86"
>(</text>

<text 
x="424" 
y="147" 
dx="0,0,0,-0.3" 
class="s4_86"
>text</text>

<text 
x="457" 
y="147" 
dx="0,-0.3,-0.3" 
class="s5_86"
>); </text>

<path d="M107.8,172l719.4,0l0,-20.6l-719.4,0l0,20.6Z" class="g2_86" />
<text 
x="176" 
y="168" 
dx="0,0,-0.3,0,-0.3,0" 
class="s3_86"
>const </text>

<text 
x="226" 
y="168" 
dx="0,-0.3,0,-0.3,0,-0.3,0,0,-0.3,0,-0.3,0,-0.3,0,0,-0.3,0.1" 
class="s4_86"
>punctuationRegex </text>

<text 
x="366" 
y="168" 
class="s5_86"
>= </text>

<text 
x="383" 
y="168" 
dx="0,0,0,-0.3" 
class="s3_86"
>new </text>

<text 
x="416" 
y="168" 
dx="0,-0.3,0,0,-0.3,0" 
class="s8_86"
>RegExp</text>

<text 
x="466" 
y="168" 
class="s5_86"
>(</text>

<text 
x="474" 
y="168" 
class="s9_86"
>/</text>

<text 
x="482" 
y="168" 
class="s10_86"
>[</text>

<text 
x="490" 
y="168" 
class="s9_86"
>.,</text>

<text 
x="507" 
y="168" 
class="s6_86"
>\/</text>

<text 
x="523" 
y="168" 
class="s9_86"
>#</text>

<text 
x="532" 
y="168" 
class="s6_86"
>\?</text>

<text 
x="548" 
y="168" 
dx="0,0,-0.3" 
class="s9_86"
>!$%</text>

<text 
x="573" 
y="168" 
dx="0,-0.3" 
class="s6_86"
>\^</text>

<text 
x="590" 
y="168" 
class="s9_86"
>&amp;</text>

<text 
x="598" 
y="168" 
dx="0,-0.3" 
class="s6_86"
>\*</text>

<text 
x="615" 
y="168" 
dx="0,-0.3,0,-0.3,0,0.1,-0.3,0,-0.3,0,-0.3,0" 
class="s9_86"
>;:{}=\-_`~()</text>

<text 
x="714" 
y="168" 
class="s10_86"
>]</text>

<text 
x="722" 
y="168" 
class="s9_86"
>/</text>

<text 
x="731" 
y="168" 
dx="0,-0.3,-0.3" 
class="s5_86"
>); </text>

<path d="M107.8,192.5l719.4,0l0,-20.5l-719.4,0l0,20.5Z" class="g2_86" />
<text 
x="176" 
y="189" 
dx="0,0,-0.3,0" 
class="s3_86"
>let </text>

<text 
x="209" 
y="189" 
dx="0,0,0,-0.3,0" 
class="s4_86"
>head </text>

<text 
x="250" 
y="189" 
class="s5_86"
>= </text>

<text 
x="267" 
y="189" 
class="s11_86"
>0</text>

<text 
x="275" 
y="189" 
dx="0,-0.3" 
class="s5_86"
>; </text>

<path d="M107.8,213l719.4,0l0,-20.5l-719.4,0l0,20.5Z" class="g2_86" />
<text 
x="176" 
y="209" 
dx="0,0,-0.3,0" 
class="s3_86"
>let </text>

<text 
x="209" 
y="209" 
dx="0,0,0,-0.3,0,-0.3,0,-0.3,0,0" 
class="s4_86"
>preceding </text>

<text 
x="292" 
y="209" 
class="s5_86"
>= </text>

<text 
x="308" 
y="209" 
dx="0,0,-0.3,0" 
class="s3_86"
>null</text>

<text 
x="342" 
y="209" 
dx="0,-0.3" 
class="s5_86"
>; </text>

<path d="M107.8,233.9l719.4,0l0,-20.9l-719.4,0l0,20.9Z" class="g2_86" />
<text 
x="176" 
y="230" 
dx="0,0,-0.3,0" 
class="s12_86"
>for </text>

<text 
x="209" 
y="230" 
class="s5_86"
>(</text>

<text 
x="217" 
y="230" 
dx="0,0,-0.3,0" 
class="s3_86"
>let </text>

<text 
x="250" 
y="230" 
class="s4_86"
>i </text>

<text 
x="267" 
y="230" 
class="s5_86"
>= </text>

<text 
x="284" 
y="230" 
class="s11_86"
>0</text>

<text 
x="292" 
y="230" 
class="s5_86"
>; </text>

<text 
x="308" 
y="230" 
class="s4_86"
>i </text>

<text 
x="325" 
y="230" 
class="s5_86"
>&lt; </text>

<text 
x="342" 
y="230" 
dx="0,-0.3,0,-0.3" 
class="s4_86"
>temp</text>

<text 
x="375" 
y="230" 
class="s5_86"
>.</text>

<text 
x="383" 
y="230" 
dx="0,0,0,-0.3,0,-0.3" 
class="s4_86"
>length</text>

<text 
x="433" 
y="230" 
class="s5_86"
>; </text>

<text 
x="449" 
y="230" 
class="s4_86"
>i</text>

<text 
x="457" 
y="230" 
dx="0,-0.3,0,-0.3,0,-0.3" 
class="s5_86"
>++) { </text>

<path d="M107.8,254.5l719.4,0l0,-20.6l-719.4,0l0,20.6Z" class="g2_86" />
<text 
x="209" 
y="251" 
class="s12_86"
>if </text>

<text 
x="234" 
y="251" 
class="s5_86"
>(</text>

<text 
x="242" 
y="251" 
dx="0,-0.3,0,-0.3,0,0,-0.3,0,-0.3,0.1" 
class="s4_86"
>preceding </text>

<text 
x="325" 
y="251" 
dx="0,0,0,-0.3" 
class="s5_86"
>=== </text>

<text 
x="358" 
y="251" 
dx="0,-0.3,0,-0.3" 
class="s3_86"
>null</text>

<text 
x="391" 
y="251" 
dx="0,0,-0.3,-0.3" 
class="s5_86"
>) { </text>

<path d="M107.8,275l719.4,0l0,-20.5l-719.4,0l0,20.5Z" class="g2_86" />
<text 
x="242" 
y="271" 
dx="0,-0.3,0,-0.3,0,0,-0.3,0,-0.3,0.1" 
class="s4_86"
>preceding </text>

<text 
x="325" 
y="271" 
class="s5_86"
>= </text>

<text 
x="342" 
y="271" 
dx="0,-0.3,0,-0.3,0,-0.3,0,0,-0.3,0,-0.3" 
class="s4_86"
>asianRegexp</text>

<text 
x="433" 
y="271" 
class="s5_86"
>.</text>

<text 
x="441" 
y="271" 
dx="0,-0.3,0,-0.3" 
class="s7_86"
>test</text>

<text 
x="474" 
y="271" 
class="s5_86"
>(</text>

<text 
x="482" 
y="271" 
dx="0,0,0,-0.3" 
class="s4_86"
>temp</text>

<text 
x="515" 
y="271" 
class="s5_86"
>[</text>

<text 
x="523" 
y="271" 
class="s11_86"
>0</text>

<text 
x="532" 
y="271" 
dx="0,0,-0.3,-0.3" 
class="s5_86"
>]); </text>

<path d="M107.8,295.5l719.4,0l0,-20.5l-719.4,0l0,20.5Z" class="g2_86" />
<text 
x="209" 
y="292" 
dx="0,-0.3" 
class="s5_86"
>} </text>

<path d="M107.8,316.4l719.4,0l0,-20.9l-719.4,0l0,20.9Z" class="g2_86" />
<text 
x="209" 
y="312" 
class="s12_86"
>if </text>

<text 
x="234" 
y="312" 
class="s5_86"
>(</text>

<text 
x="242" 
y="312" 
dx="0,-0.3" 
class="s4_86"
>i </text>

<text 
x="259" 
y="312" 
dx="0,-0.3,0,0" 
class="s5_86"
>=== </text>

<text 
x="292" 
y="312" 
dx="0,0,-0.3,0" 
class="s4_86"
>temp</text>

<text 
x="325" 
y="312" 
class="s5_86"
>.</text>

<text 
x="333" 
y="312" 
dx="0,0,-0.3,0,-0.3,0,-0.3" 
class="s4_86"
>length </text>

<text 
x="391" 
y="312" 
class="s5_86"
>- </text>

<text 
x="408" 
y="312" 
class="s11_86"
>1</text>

<text 
x="416" 
y="312" 
dx="0,-0.3,0,-0.3" 
class="s5_86"
>) { </text>

<path d="M107.8,337l719.4,0l0,-20.6l-719.4,0l0,20.6Z" class="g2_86" />
<text 
x="242" 
y="333" 
dx="0,-0.3,0,-0.3,0,0,-0.3,0,-0.3" 
class="s4_86"
>sentence </text>

<text 
x="317" 
y="333" 
dx="0,-0.3,0" 
class="s5_86"
>+= </text>

<text 
x="342" 
y="333" 
dx="0,-0.3,0,-0.3" 
class="s4_86"
>temp</text>

<text 
x="375" 
y="333" 
class="s5_86"
>.</text>

<text 
x="383" 
y="333" 
dx="0,0,0,-0.3,0" 
class="s7_86"
>slice</text>

<text 
x="424" 
y="333" 
class="s5_86"
>(</text>

<text 
x="433" 
y="333" 
dx="0,0,-0.3,0" 
class="s4_86"
>head</text>

<text 
x="466" 
y="333" 
class="s5_86"
>, </text>

<text 
x="482" 
y="333" 
dx="0,0,0,-0.3" 
class="s4_86"
>temp</text>

<text 
x="515" 
y="333" 
class="s5_86"
>.</text>

<text 
x="523" 
y="333" 
dx="0,0,0,-0.3,0,-0.3" 
class="s4_86"
>length</text>

<text 
x="573" 
y="333" 
dx="0,-0.3,0,0" 
class="s5_86"
>) + </text>

<text 
x="606" 
y="333" 
dx="0,0,-0.3" 
class="s6_86"
>' '</text>

<text 
x="631" 
y="333" 
dx="0,-0.3" 
class="s5_86"
>; </text>

<path d="M107.8,357.5l719.4,0l0,-20.5l-719.4,0l0,20.5Z" class="g2_86" />
<text 
x="209" 
y="354" 
class="s5_86"
>} </text>

<text 
x="226" 
y="354" 
dx="0,-0.3,0,-0.3,0.1" 
class="s12_86"
>else </text>

<text 
x="267" 
y="354" 
dx="0,-0.3" 
class="s5_86"
>{ </text>

<path d="M107.8,378l719.4,0l0,-20.5l-719.4,0l0,20.5Z" class="g2_86" />
<text 
x="242" 
y="374" 
dx="0,-0.3,0" 
class="s12_86"
>if </text>

<text 
x="267" 
y="374" 
class="s5_86"
>(</text>

<text 
x="275" 
y="374" 
dx="0,0,-0.3,0,-0.3,0,-0.3,0,0" 
class="s4_86"
>preceding</text>

<text 
x="350" 
y="374" 
dx="0,0,-0.3,-0.3" 
class="s5_86"
>) { </text>

<path d="M107.8,398.9l719.4,0l0,-20.9l-719.4,0l0,20.9Z" class="g2_86" />
<text 
x="275" 
y="395" 
dx="0,0,-0.3" 
class="s12_86"
>if </text>

<text 
x="300" 
y="395" 
class="s5_86"
>(</text>

<text 
x="308" 
y="395" 
dx="0,0,-0.3,0,0,-0.3,0,-0.3,0,-0.3,0" 
class="s4_86"
>asianRegexp</text>

<text 
x="400" 
y="395" 
class="s5_86"
>.</text>

<text 
x="408" 
y="395" 
dx="0,0,-0.3,0" 
class="s7_86"
>test</text>

<text 
x="441" 
y="395" 
class="s5_86"
>(</text>

<text 
x="449" 
y="395" 
dx="0,0,-0.3,0" 
class="s4_86"
>temp</text>

<text 
x="482" 
y="395" 
class="s5_86"
>[</text>

<text 
x="490" 
y="395" 
class="s4_86"
>i</text>

<text 
x="499" 
y="395" 
dx="0,-0.3,0,-0.3,0,-0.3" 
class="s5_86"
>])) { </text>

<path d="M107.8,419.5l719.4,0l0,-20.6l-719.4,0l0,20.6Z" class="g2_86" />
<text 
x="308" 
y="416" 
dx="0,0,-0.3" 
class="s12_86"
>if </text>

<text 
x="333" 
y="416" 
class="s5_86"
>(!</text>

<text 
x="350" 
y="416" 
dx="0,0,-0.3,0,-0.3,0,0,-0.3,0,-0.3,0" 
class="s4_86"
>asianRegexp</text>

<text 
x="441" 
y="416" 
class="s5_86"
>.</text>

<text 
x="449" 
y="416" 
dx="0,0,-0.3,0" 
class="s7_86"
>test</text>

<text 
x="482" 
y="416" 
class="s5_86"
>(</text>

<text 
x="490" 
y="416" 
dx="0,0,-0.3,0" 
class="s4_86"
>temp</text>

<text 
x="523" 
y="416" 
class="s5_86"
>[</text>

<text 
x="532" 
y="416" 
class="s4_86"
>i </text>

<text 
x="548" 
y="416" 
class="s5_86"
>+ </text>

<text 
x="565" 
y="416" 
class="s11_86"
>1</text>

<text 
x="573" 
y="416" 
dx="0,-0.3,0,0,-0.3,0" 
class="s5_86"
>]) &amp;&amp; </text>

<path d="M107.8,440l719.4,0l0,-20.5l-719.4,0l0,20.5Z" class="g2_86" />
<text 
x="110" 
y="436" 
dx="0,0,0,-0.3,0,-0.3,0,0,-0.3,0,-0.3,0,-0.3,0,0,-0.3" 
class="s4_86"
>punctuationRegex</text>

<text 
x="242" 
y="436" 
class="s5_86"
>.</text>

<text 
x="250" 
y="436" 
dx="0,0,-0.3,0" 
class="s7_86"
>test</text>

<text 
x="284" 
y="436" 
class="s5_86"
>(</text>

<text 
x="292" 
y="436" 
dx="0,0,-0.3,0" 
class="s4_86"
>temp</text>

<text 
x="325" 
y="436" 
class="s5_86"
>[</text>

<text 
x="333" 
y="436" 
class="s4_86"
>i </text>

<text 
x="350" 
y="436" 
class="s5_86"
>+ </text>

<text 
x="366" 
y="436" 
class="s11_86"
>1</text>

<text 
x="375" 
y="436" 
dx="0,-0.3,0,0,-0.3,0,-0.3" 
class="s5_86"
>]) === </text>

<text 
x="433" 
y="436" 
dx="0,0,-0.3,0,-0.3" 
class="s3_86"
>false</text>

<text 
x="474" 
y="436" 
dx="0,-0.3,0,-0.3" 
class="s5_86"
>) { </text>

<path d="M107.8,460.5l719.4,0l0,-20.5l-719.4,0l0,20.5Z" class="g2_86" />
<text 
x="342" 
y="457" 
dx="0,-0.3,0,-0.3,0,-0.3,0,0,-0.3" 
class="s4_86"
>sentence </text>

<text 
x="416" 
y="457" 
dx="0,-0.3,0" 
class="s5_86"
>+= </text>

<text 
x="441" 
y="457" 
dx="0,-0.3,0,-0.3" 
class="s4_86"
>temp</text>

<text 
x="474" 
y="457" 
class="s5_86"
>.</text>

<text 
x="482" 
y="457" 
dx="0,0,0,-0.3,0" 
class="s7_86"
>slice</text>

<text 
x="523" 
y="457" 
class="s5_86"
>(</text>

<text 
x="532" 
y="457" 
dx="0,0,-0.3,0" 
class="s4_86"
>head</text>

<text 
x="565" 
y="457" 
class="s5_86"
>, </text>

<text 
x="581" 
y="457" 
class="s4_86"
>i </text>

<text 
x="598" 
y="457" 
dx="0,-0.3" 
class="s5_86"
>+ </text>

<text 
x="615" 
y="457" 
class="s11_86"
>1</text>

<text 
x="623" 
y="457" 
dx="0,0,-0.3,0" 
class="s5_86"
>) + </text>

<text 
x="656" 
y="457" 
dx="0,-0.3,0" 
class="s6_86"
>' '</text>

<text 
x="681" 
y="457" 
dx="0,-0.3" 
class="s5_86"
>; </text>

<path d="M107.8,481.4l719.4,0l0,-20.9l-719.4,0l0,20.9Z" class="g2_86" />
<text 
x="342" 
y="477" 
dx="0,-0.3,0,-0.3,0.1" 
class="s4_86"
>head </text>

<text 
x="383" 
y="477" 
class="s5_86"
>= </text>

<text 
x="400" 
y="477" 
dx="0,-0.3" 
class="s4_86"
>i </text>

<text 
x="416" 
y="477" 
dx="0,-0.3" 
class="s5_86"
>+ </text>

<text 
x="433" 
y="477" 
class="s11_86"
>1</text>

<text 
x="441" 
y="477" 
dx="0,-0.3" 
class="s5_86"
>; </text>

<path d="M107.8,502l719.4,0l0,-20.6l-719.4,0l0,20.6Z" class="g2_86" />
<text 
x="342" 
y="498" 
dx="0,-0.3,0,-0.3,0,-0.3,0,0,-0.3,0.1" 
class="s4_86"
>preceding </text>

<text 
x="424" 
y="498" 
class="s5_86"
>= </text>

<text 
x="441" 
y="498" 
dx="0,-0.3,0,-0.3,0" 
class="s3_86"
>false</text>

<text 
x="482" 
y="498" 
class="s5_86"
>; </text>

<path d="M107.8,522.5l719.4,0l0,-20.5l-719.4,0l0,20.5Z" class="g2_86" />
<text 
x="308" 
y="519" 
dx="0,-0.3" 
class="s5_86"
>} </text>

<path d="M107.8,543l719.4,0l0,-20.5l-719.4,0l0,20.5Z" class="g2_86" />
<text 
x="275" 
y="539" 
dx="0,-0.3" 
class="s5_86"
>} </text>

<path d="M107.8,563.9l719.4,0l0,-20.9l-719.4,0l0,20.9Z" class="g2_86" />
<text 
x="242" 
y="560" 
dx="0,-0.3" 
class="s5_86"
>} </text>

<text 
x="259" 
y="560" 
dx="0,-0.3,0,0,-0.3" 
class="s12_86"
>else </text>

<text 
x="300" 
y="560" 
dx="0,-0.3" 
class="s5_86"
>{ </text>

<path d="M107.8,584.5l719.4,0l0,-20.6l-719.4,0l0,20.6Z" class="g2_86" />
<text 
x="275" 
y="581" 
dx="0,0,-0.3" 
class="s12_86"
>if </text>

<text 
x="300" 
y="581" 
dx="0,-0.3" 
class="s5_86"
>(!</text>

<text 
x="317" 
y="581" 
dx="0,-0.3,0,0,-0.3,0,-0.3,0,-0.3,0,0" 
class="s4_86"
>asianRegexp</text>

<text 
x="408" 
y="581" 
class="s5_86"
>.</text>

<text 
x="416" 
y="581" 
dx="0,-0.3,0,0" 
class="s7_86"
>test</text>

<text 
x="449" 
y="581" 
class="s5_86"
>(</text>

<text 
x="457" 
y="581" 
dx="0,-0.3,0,-0.3" 
class="s4_86"
>temp</text>

<text 
x="490" 
y="581" 
class="s5_86"
>[</text>

<text 
x="499" 
y="581" 
class="s4_86"
>i</text>

<text 
x="507" 
y="581" 
dx="0,0,-0.3,0,0,-0.3" 
class="s5_86"
>])) { </text>

<path d="M107.8,605l719.4,0l0,-20.5l-719.4,0l0,20.5Z" class="g2_86" />
<text 
x="308" 
y="601" 
dx="0,0,-0.3" 
class="s12_86"
>if </text>

<text 
x="333" 
y="601" 
class="s5_86"
>(</text>

<text 
x="342" 
y="601" 
dx="0,-0.3,0,-0.3,0,-0.3,0,0,-0.3,0,-0.3" 
class="s4_86"
>asianRegexp</text>

<text 
x="433" 
y="601" 
class="s5_86"
>.</text>

<text 
x="441" 
y="601" 
dx="0,-0.3,0,-0.3" 
class="s7_86"
>test</text>

<text 
x="474" 
y="601" 
class="s5_86"
>(</text>

<text 
x="482" 
y="601" 
dx="0,0,0,-0.3" 
class="s4_86"
>temp</text>

<text 
x="515" 
y="601" 
class="s5_86"
>[</text>

<text 
x="523" 
y="601" 
class="s4_86"
>i </text>

<text 
x="540" 
y="601" 
dx="0,-0.3" 
class="s5_86"
>+ </text>

<text 
x="557" 
y="601" 
class="s11_86"
>1</text>

<text 
x="565" 
y="601" 
dx="0,0,-0.3,0,0,-0.3" 
class="s5_86"
>]) &amp;&amp; </text>

<path d="M107.8,625.5l719.4,0l0,-20.5l-719.4,0l0,20.5Z" class="g2_86" />
<text 
x="110" 
y="622" 
dx="0,0,0,-0.3,0,-0.3,0,0,-0.3,0,-0.3,0,-0.3,0,0,-0.3" 
class="s4_86"
>punctuationRegex</text>

<text 
x="242" 
y="622" 
class="s5_86"
>.</text>

<text 
x="250" 
y="622" 
dx="0,0,-0.3,0" 
class="s7_86"
>test</text>

<text 
x="284" 
y="622" 
class="s5_86"
>(</text>

<text 
x="292" 
y="622" 
dx="0,0,-0.3,0" 
class="s4_86"
>temp</text>

<text 
x="325" 
y="622" 
class="s5_86"
>[</text>

<text 
x="333" 
y="622" 
class="s4_86"
>i </text>

<text 
x="350" 
y="622" 
class="s5_86"
>+ </text>

<text 
x="366" 
y="622" 
class="s11_86"
>1</text>

<text 
x="375" 
y="622" 
dx="0,-0.3,0,0,-0.3,0,-0.3" 
class="s5_86"
>]) === </text>

<text 
x="433" 
y="622" 
dx="0,0,-0.3,0,-0.3" 
class="s3_86"
>false</text>

<text 
x="474" 
y="622" 
dx="0,-0.3,0,-0.3" 
class="s5_86"
>) { </text>

<path d="M107.8,646.4l719.4,0l0,-20.9l-719.4,0l0,20.9Z" class="g2_86" />
<text 
x="342" 
y="642" 
dx="0,-0.3,0,-0.3,0,-0.3,0,0,-0.3" 
class="s4_86"
>sentence </text>

<text 
x="416" 
y="642" 
dx="0,-0.3,0" 
class="s5_86"
>+= </text>

<text 
x="441" 
y="642" 
dx="0,-0.3,0,-0.3" 
class="s4_86"
>temp</text>

<text 
x="474" 
y="642" 
class="s5_86"
>.</text>

<text 
x="482" 
y="642" 
dx="0,0,0,-0.3,0" 
class="s7_86"
>slice</text>

<text 
x="523" 
y="642" 
class="s5_86"
>(</text>

<text 
x="532" 
y="642" 
dx="0,0,-0.3,0" 
class="s4_86"
>head</text>

<text 
x="565" 
y="642" 
class="s5_86"
>, </text>

<text 
x="581" 
y="642" 
class="s4_86"
>i </text>

<text 
x="598" 
y="642" 
dx="0,-0.3" 
class="s5_86"
>+ </text>

<text 
x="615" 
y="642" 
class="s11_86"
>1</text>

<text 
x="623" 
y="642" 
dx="0,0,-0.3,0" 
class="s5_86"
>) + </text>

<text 
x="656" 
y="642" 
dx="0,-0.3,0" 
class="s6_86"
>' '</text>

<text 
x="681" 
y="642" 
dx="0,-0.3" 
class="s5_86"
>; </text>

<path d="M107.8,667l719.4,0l0,-20.6l-719.4,0l0,20.6Z" class="g2_86" />
<text 
x="342" 
y="663" 
dx="0,-0.3,0,-0.3,0.1" 
class="s4_86"
>head </text>

<text 
x="383" 
y="663" 
class="s5_86"
>= </text>

<text 
x="400" 
y="663" 
dx="0,-0.3" 
class="s4_86"
>i </text>

<text 
x="416" 
y="663" 
dx="0,-0.3" 
class="s5_86"
>+ </text>

<text 
x="433" 
y="663" 
class="s11_86"
>1</text>

<text 
x="441" 
y="663" 
dx="0,-0.3" 
class="s5_86"
>; </text>

<path d="M107.8,687.5l719.4,0l0,-20.5l-719.4,0l0,20.5Z" class="g2_86" />
<text 
x="342" 
y="684" 
dx="0,-0.3,0,-0.3,0,-0.3,0,0,-0.3,0.1" 
class="s4_86"
>preceding </text>

<text 
x="424" 
y="684" 
class="s5_86"
>= </text>

<text 
x="441" 
y="684" 
dx="0,-0.3,0,-0.3" 
class="s3_86"
>true</text>

<text 
x="474" 
y="684" 
dx="0,-0.3" 
class="s5_86"
>; </text>

<path d="M107.8,708l719.4,0l0,-20.5l-719.4,0l0,20.5Z" class="g2_86" />
<text 
x="308" 
y="704" 
dx="0,-0.3" 
class="s5_86"
>} </text>

<path d="M107.8,728.9l719.4,0l0,-20.9l-719.4,0l0,20.9Z" class="g2_86" />
<text 
x="275" 
y="725" 
dx="0,-0.3" 
class="s5_86"
>} </text>

<path d="M107.8,749.5l719.4,0l0,-20.6l-719.4,0l0,20.6Z" class="g2_86" />
<text 
x="242" 
y="746" 
dx="0,-0.3" 
class="s5_86"
>} </text>

<path d="M107.8,770l719.4,0l0,-20.5l-719.4,0l0,20.5Z" class="g2_86" />
<text 
x="209" 
y="766" 
dx="0,-0.3" 
class="s5_86"
>} </text>

<path d="M107.8,790.5l719.4,0l0,-20.5l-719.4,0l0,20.5Z" class="g2_86" />
<text 
x="176" 
y="787" 
dx="0,-0.3" 
class="s5_86"
>} </text>

<path d="M107.8,811.4l719.4,0l0,-20.9l-719.4,0l0,20.9Z" class="g2_86" />
<text 
x="176" 
y="807" 
dx="0,0,-0.3,0,-0.3,0,0" 
class="s12_86"
>return </text>

<text 
x="234" 
y="807" 
dx="0,0,-0.3,0,-0.3,0,0,-0.3" 
class="s4_86"
>sentence</text>

<text 
x="300" 
y="807" 
dx="0,-0.3" 
class="s5_86"
>; </text>

<path d="M107.8,832l719.4,0l0,-20.6l-719.4,0l0,20.6Z" class="g2_86" />
<text 
x="143" 
y="828" 
dx="0,-0.3" 
class="s5_86"
>} </text>

<path d="M107.8,852.5l719.4,0l0,-20.5l-719.4,0l0,20.5Z" class="g2_86" />
<path d="M107.8,873l719.4,0l0,-20.5l-719.4,0l0,20.5Z" class="g2_86" />
<text 
x="110" 
y="869" 
class="s5_86"
>} </text>

<path d="M107.8,893.9l719.4,0l0,-20.9l-719.4,0l0,20.9Z" class="g2_86" />
<path d="M107.8,914.5l719.4,0l0,-20.6l-719.4,0l0,20.6Z" class="g2_86" />
<text 
x="110" 
y="911" 
dx="0,0,0,-0.3,0,-0.3,0,0,-0.3" 
class="s3_86"
>function </text>

<text 
x="184" 
y="911" 
dx="0,-0.3,0,-0.3,0,0,-0.3,0,-0.3,0,-0.3,0,0,-0.3,0,-0.3,0,-0.3" 
class="s7_86"
>convertPunctuation</text>

<text 
x="333" 
y="911" 
class="s5_86"
>(</text>

<text 
x="342" 
y="911" 
dx="0,-0.3,0,-0.3,0,-0.3,0,0" 
class="s4_86"
>sentence</text>

<text 
x="408" 
y="911" 
dx="0,0,-0.3,-0.3" 
class="s5_86"
>) { </text>

<path d="M107.8,935l719.4,0l0,-20.5l-719.4,0l0,20.5Z" class="g2_86" />
<text 
x="143" 
y="931" 
dx="0,-0.3,0,0,-0.3,0,-0.3" 
class="s12_86"
>return </text>

<text 
x="201" 
y="931" 
dx="0,-0.3,0,0,-0.3,0,-0.3,0" 
class="s4_86"
>entities</text>

<text 
x="267" 
y="931" 
class="s5_86"
>.</text>

<text 
x="275" 
y="931" 
dx="0,0,-0.3,0,-0.3,0" 
class="s7_86"
>decode</text>

<text 
x="325" 
y="931" 
class="s5_86"
>(</text>

<text 
x="333" 
y="931" 
dx="0,0,-0.3,0,-0.3,0,-0.3,0" 
class="s4_86"
>sentence</text>

<text 
x="400" 
y="931" 
dx="0,-0.3,-0.3" 
class="s5_86"
>); </text>

<path d="M107.8,955.5l719.4,0l0,-20.5l-719.4,0l0,20.5Z" class="g2_86" />
<text 
x="110" 
y="952" 
class="s5_86"
>} </text>

<path d="M107.8,976.4l719.4,0l0,-20.9l-719.4,0l0,20.9Z" class="g2_86" />
<path d="M107.8,997l719.4,0l0,-20.6l-719.4,0l0,20.6Z" class="g2_86" />
<text 
x="110" 
y="993" 
dx="0,0,0,-0.3,0,-0.3,0" 
class="s4_86"
>process</text>

<text 
x="168" 
y="993" 
class="s5_86"
>.</text>

<text 
x="176" 
y="993" 
class="s7_86"
>on</text>

<text 
x="192" 
y="993" 
class="s5_86"
>(</text>

<text 
x="201" 
y="993" 
dx="0,-0.3,0,0,-0.3,0,-0.3,0,-0.3,0,0,-0.3,0,-0.3,0,-0.3,0,0,-0.3,0" 
class="s6_86"
>'unhandledRejection'</text>

<text 
x="366" 
y="993" 
dx="0,0,-0.3" 
class="s5_86"
>, (</text>

<text 
x="391" 
y="993" 
dx="0,0,-0.3,0,-0.3,0" 
class="s4_86"
>reason</text>

<text 
x="441" 
y="993" 
dx="0,-0.3" 
class="s5_86"
>) </text>

<text 
x="457" 
y="993" 
dx="0,-0.3,0" 
class="s3_86"
>=&gt; </text>

<text 
x="482" 
y="993" 
class="s5_86"
>{ </text>

<path d="M107.8,1017.5l719.4,0l0,-20.5l-719.4,0l0,20.5Z" class="g2_86" />
<text 
x="143" 
y="1014" 
dx="0,-0.3,0,0,-0.3,0,-0.3" 
class="s8_86"
>console</text>

<text 
x="201" 
y="1014" 
class="s5_86"
>.</text>

<text 
x="209" 
y="1014" 
class="s7_86"
>log</text>

<text 
x="234" 
y="1014" 
class="s5_86"
>(</text>

<text 
x="242" 
y="1014" 
dx="0,-0.3,0,-0.3,0,0,-0.3,0,-0.3,0,-0.3" 
class="s6_86"
>'Reason: ' </text>

<text 
x="333" 
y="1014" 
class="s5_86"
>+ </text>

<text 
x="350" 
y="1014" 
dx="0,0,-0.3,0,-0.3,0" 
class="s4_86"
>reason</text>

<text 
x="400" 
y="1014" 
dx="0,-0.3,-0.3" 
class="s5_86"
>); </text>

<path d="M107.8,1038l719.4,0l0,-20.5l-719.4,0l0,20.5Z" class="g2_86" />
<text 
x="110" 
y="1034" 
dx="0,0,0,-0.3" 
class="s5_86"
>}); </text>

<path d="M107.8,1058.9l719.4,0l0,-20.9l-719.4,0l0,20.9Z" class="g2_86" />
<path d="M107.8,1079.5l719.4,0l0,-20.6l-719.4,0l0,20.6Z" class="g2_86" />
<text 
x="110" 
y="1076" 
dx="0,0,0,-0.3,0,-0.3,0" 
class="s12_86"
>export </text>

<text 
x="168" 
y="1076" 
dx="0,-0.3" 
class="s5_86"
>{ </text>

<text 
x="184" 
y="1076" 
dx="0,-0.3,0,-0.3,0,0,-0.3,0,-0.3,0,-0.3" 
class="s4_86"
>translator </text>

<text 
x="275" 
y="1076" 
class="s5_86"
>};</text>



<!-- Any embedded fonts defined here -->
<style type="text/css" ><![CDATA[

@font-face {
	font-family: ArialNovaCond-Bold_d;
	src: url("fonts/ArialNovaCond-Bold_d.woff") format("woff");
}

@font-face {
	font-family: Menlo-Regular_bu;
	src: url("fonts/Menlo-Regular_bu.woff") format("woff");
}

@font-face {
	font-family: ArialNova-Light_n;
	src: url("fonts/ArialNova-Light_n.woff") format("woff");
}

]]></style>

</svg>
