<?xml version="1.0" encoding="UTF-8" standalone="no"?>
<!DOCTYPE svg PUBLIC "-//W3C//DTD SVG 1.1//EN"
"http://www.w3.org/Graphics/SVG/1.1/DTD/svg11.dtd">


<!-- Page 87 -->
<svg x="0" y="0" width="935" height="1210" viewBox="0 0 935 1210" version="1.1" xmlns="http://www.w3.org/2000/svg" xmlns:xlink="http://www.w3.org/1999/xlink"
style="display: block;margin-left: auto;margin-right: auto;">
<defs>

<style type="text/css"><![CDATA[

.g1_87{
fill: #D9D9D9;
}
.g2_87{
fill: #FFFFFF;
}

.s1_87{
font-size: 18.33px;
font-family: ArialNovaCond-Bold_d;
fill: #5A5A5A;
}
.s2_87{
font-size: 12.10px;
font-family: ArialNova-Light_n;
fill: #7F7F7F;
}
.s3_87{
font-size: 21.27px;
font-family: Calibri-Light_r;
fill: #323E4F;
}
.s4_87{
font-size: 16.87px;
font-family: Calibri-Light_r;
fill: #323E4F;
}
.s5_87{
font-size: 18.33px;
font-family: Calibri-Light_r;
fill: #44546A;
}
.s6_87{
font-size: 14.67px;
font-family: Calibri-Light_r;
fill: #44546A;
}
.s7_87{
font-size: 16.13px;
font-family: Consolas_c7;
fill: #000000;
}
.s8_87{
font-size: 16.13px;
font-family: Consolas_c7;
fill: #A31515;
}
.s9_87{
font-size: 16.13px;
font-family: Consolas_c7;
fill: #0000FF;
}
.s10_87{
font-size: 16.13px;
font-family: Consolas_c7;
fill: #008000;
}
.s11_87{
font-size: 16.13px;
font-family: Consolas_c7;
fill: #09885A;
}
.s12_87{
font-size: 16.13px;
font-family: Consolas_c7;
fill: #811F3F;
}

]]></style>

</defs>
<path d="M0,0
L0,1210
L935,1210
L935,0 Z " 
fill="#FFFFFF" stroke="none" />
<text 
x="110" 
y="1106" 
dx="0,0,0,0.2" 
class="s1_87"
>87 |</text>

<text 
x="141" 
y="1106" 
dx="0,4.3,4.9,0,1.9,0,1.6,0,1.3,0,1.7,0,1.7,0,1.2,0,1.9,0,1.6,4.7,4.9,0,1.3,0,1.7,0,1.6,0,1.5,0,1.6,0,1.9,0,1.2,0,1.5,0,1.9,0,1.5,4.5,4.9,0,1.7,0,1.2,0,1.9,0,1.9,0,1.2,4.5,4.5,0,1.9,0,1.5,4.7,4.9,0,1.3,0,1.5,0,1.9,0,1.5,0,1.5,0,1.5,0,1.5,0,1.9,0,1.3,0,1.9,0,1.6,4.6,4.5,0,1.9,0,1.5,0,1.7,0,1.6,0,1.4,0,1.9,0,1.3,0,1.9,0,1.5,0,1.7,0,1.5,0,1.5,0,1.9" 
class="s2_87"
>A W e b - b a s e d T r a n s l a t i o n S y s t e m f o r M u l t i l i n g u a l C o d e - s w i t c h i n g</text>

<path d="M107.8,1086.4l719.4,0l0,-0.7l-719.4,0l0,0.7Z" class="g1_87" />
<text 
x="110" 
y="130" 
class="s3_87"
>A</text>

<text 
x="123" 
y="130" 
dx="0,1.3,1.3,1.7,1.3,1.5,1.4,1.8" 
class="s4_87"
>PPENDIX </text>

<text 
x="198" 
y="130" 
class="s3_87"
>C</text>

<text 
x="216" 
y="130" 
class="s3_87"
>–</text>

<text 
x="233" 
y="130" 
class="s3_87"
>S</text>

<text 
x="244" 
y="130" 
dx="0,1.8,1.4,1.7,1.6,1.7" 
class="s4_87"
>OURCE </text>

<text 
x="306" 
y="130" 
class="s3_87"
>C</text>

<text 
x="319" 
y="130" 
dx="0,1.4,1.5,1.7,1.3,1.4,1.4,1.7" 
class="s4_87"
>ODE FOR </text>

<text 
x="395" 
y="130" 
class="s3_87"
>H</text>

<text 
x="410" 
y="130" 
dx="0,1.4,1.5,1.4,1.5,1.7,1.9,1.3,1.7" 
class="s4_87"
>OMOGRAPH </text>

<text 
x="512" 
y="130" 
class="s3_87"
>B</text>

<text 
x="525" 
y="130" 
dx="0,1.7,1.4,1.4,1.5,1.7" 
class="s4_87"
>UILDER</text>

<text 
x="110" 
y="163" 
class="s5_87"
>F</text>

<text 
x="119" 
y="163" 
dx="0,1.6,1.6" 
class="s6_87"
>ILE</text>

<text 
x="141" 
y="163" 
class="s5_87"
>:</text>

<text 
x="152" 
y="163" 
dx="0,1.6,1.6,1.4,1.6" 
class="s6_87"
>INDEX</text>

<text 
x="196" 
y="163" 
class="s5_87"
>.</text>

<text 
x="202" 
y="163" 
dx="0,1.6" 
class="s6_87"
>JS</text>

<path d="M107.8,194l719.4,0l0,-18.7l-719.4,0l0,18.7Z" class="g2_87" />
<text 
x="110" 
y="189" 
dx="0,-0.1,-0.1,-0.1,-0.1,-0.1,-0.1,-0.1,-0.1,-0.1,-0.1,-0.1" 
class="s7_87"
>console.log(</text>

<text 
x="215" 
y="189" 
dx="0,-0.1,-0.1,-0.1,-0.1,-0.1,-0.1,-0.1,-0.1,-0.1,-0.1,-0.1,-0.1,-0.1,-0.1,-0.1" 
class="s8_87"
>"Running script"</text>

<text 
x="356" 
y="189" 
dx="0,0.3,0.3" 
class="s7_87"
>); </text>

<path d="M107.8,215.6l719.4,0l0,-21.6l-719.4,0l0,21.6Z" class="g2_87" />
<path d="M107.8,237.6l719.4,0l0,-22l-719.4,0l0,22Z" class="g2_87" />
<text 
x="110" 
y="233" 
class="s7_87"
>(</text>

<text 
x="118" 
y="233" 
dx="0,-0.1,-0.1,-0.1,-0.1,-0.1" 
class="s9_87"
>async </text>

<text 
x="171" 
y="233" 
dx="0,-0.1,-0.1" 
class="s7_87"
>() </text>

<text 
x="198" 
y="233" 
dx="0,-0.1,-0.1" 
class="s9_87"
>=&gt; </text>

<text 
x="224" 
y="233" 
dx="0,0.3" 
class="s7_87"
>{ </text>

<path d="M107.8,259.2l719.4,0l0,-21.6l-719.4,0l0,21.6Z" class="g2_87" />
<text 
x="127" 
y="255" 
dx="0,-0.1,-0.1,-0.1,-0.1,-0.1" 
class="s9_87"
>const </text>

<text 
x="180" 
y="255" 
dx="0,-0.1,-0.1,-0.1,-0.1,-0.1,-0.1,-0.1,-0.1,-0.1,-0.1,-0.1,-0.1" 
class="s7_87"
>fs = require(</text>

<text 
x="294" 
y="255" 
dx="0,-0.1,-0.1,-0.1" 
class="s8_87"
>"fs"</text>

<text 
x="330" 
y="255" 
dx="0,-0.1,0.3" 
class="s7_87"
>); </text>

<path d="M107.8,281.2l719.4,0l0,-22l-719.4,0l0,22Z" class="g2_87" />
<path d="M107.8,302.9l719.4,0l0,-21.7l-719.4,0l0,21.7Z" class="g2_87" />
<text 
x="127" 
y="298" 
dx="0,-0.1,-0.1,-0.1" 
class="s9_87"
>let </text>

<text 
x="162" 
y="298" 
dx="0,-0.1,-0.1,-0.1,-0.1,-0.1,-0.1,-0.1,-0.1,-0.1,-0.1,-0.1,-0.1,-0.1,-0.1,-0.1,-0.1,-0.1,-0.1,-0.1,-0.1,-0.1,-0.1" 
class="s7_87"
>indo = fs.readFileSync(</text>

<text 
x="365" 
y="298" 
dx="0,-0.1,-0.1,-0.1,-0.1,-0.1,-0.1,-0.1,-0.1,-0.1,-0.1,-0.1,-0.1,0.3,-0.1,-0.1,-0.1,-0.1,-0.1,-0.1" 
class="s8_87"
>"malaywordlist3.txt"</text>

<text 
x="541" 
y="298" 
dx="0,-0.1" 
class="s7_87"
>, </text>

<text 
x="559" 
y="298" 
dx="0,-0.1,-0.1,-0.1,-0.1,-0.1,-0.1" 
class="s8_87"
>"utf-8"</text>

<text 
x="621" 
y="298" 
dx="0,-0.1,0.3" 
class="s7_87"
>); </text>

<path d="M107.8,324.5l719.4,0l0,-21.6l-719.4,0l0,21.6Z" class="g2_87" />
<text 
x="127" 
y="320" 
dx="0,-0.1,-0.1,-0.1,-0.1,-0.1,-0.1,-0.1,-0.1,-0.1,-0.1,-0.1,-0.1,-0.1,-0.1,-0.1,-0.1,-0.1,-0.1,-0.1,-0.1,-0.1,-0.1,-0.1,-0.1,-0.1,-0.1,0.3,-0.1,-0.1,-0.1,0.3" 
class="s7_87"
>indo = removePunctuation(indo); </text>

<path d="M107.8,346.5l719.4,0l0,-22l-719.4,0l0,22Z" class="g2_87" />
<text 
x="127" 
y="342" 
dx="0,-0.1,-0.1,-0.1" 
class="s9_87"
>let </text>

<text 
x="162" 
y="342" 
dx="0,-0.1,-0.1,-0.1,-0.1,-0.1,-0.1,-0.1,-0.1,-0.1,-0.1,-0.1,-0.1,-0.1,-0.1,-0.1,-0.1,-0.1,-0.1,-0.1,-0.1,-0.1,-0.1" 
class="s7_87"
>indoWords = indo.split(</text>

<text 
x="365" 
y="342" 
dx="0,-0.1,-0.1,-0.1,-0.1,-0.1" 
class="s8_87"
>"\r\n"</text>

<text 
x="418" 
y="342" 
dx="0,-0.1,0.3" 
class="s7_87"
>); </text>

<path d="M107.8,368.1l719.4,0l0,-21.6l-719.4,0l0,21.6Z" class="g2_87" />
<text 
x="127" 
y="364" 
dx="0,-0.1,-0.1,-0.1,-0.1,-0.1" 
class="s9_87"
>const </text>

<text 
x="180" 
y="364" 
dx="0,-0.1,-0.1,-0.1,-0.1,-0.1,-0.1,-0.1,-0.1,-0.1,-0.1,-0.1,-0.1,-0.1,-0.1,-0.1,-0.1,-0.1,-0.1,-0.1,-0.1,0.3,-0.1,-0.1,-0.1,-0.1,-0.1,-0.1,-0.1,-0.1,-0.1,-0.1,-0.1,-0.1,0.3,-0.1,-0.1,-0.1,-0.1,-0.1,-0.1" 
class="s7_87"
>indoUnique = findUniqueWords(indoWords); </text>

<path d="M107.8,389.8l719.4,0l0,-21.7l-719.4,0l0,21.7Z" class="g2_87" />
<path d="M107.8,411.8l719.4,0l0,-22l-719.4,0l0,22Z" class="g2_87" />
<text 
x="127" 
y="407" 
dx="0,-0.1,-0.1,-0.1" 
class="s9_87"
>let </text>

<text 
x="162" 
y="407" 
dx="0,-0.1,-0.1,-0.1,-0.1,-0.1,-0.1,-0.1,-0.1,-0.1,-0.1,-0.1,-0.1,-0.1,-0.1,-0.1,-0.1,-0.1,-0.1,-0.1,-0.1,-0.1,-0.1,0.3,-0.1,-0.1,-0.1,-0.1,-0.1,-0.1,-0.1,-0.1" 
class="s7_87"
>engDictionary = fs.readFileSync(</text>

<text 
x="444" 
y="407" 
dx="0,-0.1,-0.1,-0.1,0.3,-0.1,-0.1,-0.1,-0.1,-0.1,-0.1,-0.1,-0.1,-0.1,-0.1,-0.1,-0.1,-0.1,-0.1" 
class="s8_87"
>"3rdDictionary.txt"</text>

<text 
x="612" 
y="407" 
dx="0,-0.1" 
class="s7_87"
>, </text>

<text 
x="629" 
y="407" 
dx="0,-0.1,-0.1,-0.1,-0.1,-0.1,-0.1" 
class="s8_87"
>"utf-8"</text>

<text 
x="691" 
y="407" 
dx="0,-0.1,0.3" 
class="s7_87"
>); </text>

<path d="M107.8,433.4l719.4,0l0,-21.6l-719.4,0l0,21.6Z" class="g2_87" />
<text 
x="127" 
y="429" 
dx="0,-0.1,-0.1,-0.1,-0.1,-0.1,-0.1,-0.1,-0.1,-0.1,-0.1,-0.1,-0.1,-0.1,-0.1,-0.1,-0.1,-0.1,-0.1,-0.1,-0.1,-0.1,-0.1,-0.1,-0.1,-0.1,-0.1,0.3,-0.1,-0.1,-0.1,-0.1,-0.1,-0.1,-0.1,-0.1" 
class="s7_87"
>engDictionary = engDictionary.split(</text>

<text 
x="444" 
y="429" 
dx="0,-0.1,-0.1,-0.1,0.3,-0.1" 
class="s8_87"
>"\r\n"</text>

<text 
x="497" 
y="429" 
dx="0,-0.1,-0.1" 
class="s7_87"
>); </text>

<path d="M107.8,455.4l719.4,0l0,-22l-719.4,0l0,22Z" class="g2_87" />
<path d="M107.8,477l719.4,0l0,-21.6l-719.4,0l0,21.6Z" class="g2_87" />
<text 
x="127" 
y="473" 
dx="0,-0.1,-0.1,-0.1,-0.1,-0.1,-0.1,-0.1,-0.1,-0.1,-0.1,-0.1,-0.1,-0.1,-0.1,-0.1,-0.1,-0.1,-0.1,-0.1,-0.1,-0.1,-0.1,-0.1,-0.1,-0.1,-0.1,0.3,-0.1,-0.1,-0.1,-0.1,-0.1,-0.1,-0.1,-0.1,-0.1,-0.1,-0.1,-0.1,0.3,-0.1,-0.1,-0.1,-0.1,-0.1,-0.1,-0.1,-0.1" 
class="s10_87"
>// Find matching unique words from both corpuses </text>

<path d="M107.8,498.7l719.4,0l0,-21.7l-719.4,0l0,21.7Z" class="g2_87" />
<text 
x="127" 
y="494" 
dx="0,-0.1,-0.1,-0.1" 
class="s9_87"
>let </text>

<text 
x="162" 
y="494" 
dx="0,-0.1,-0.1,-0.1,-0.1,-0.1,-0.1,-0.1,-0.1,-0.1,-0.1,-0.1,-0.1,-0.1,-0.1,-0.1,-0.1,-0.1,-0.1,-0.1,-0.1,-0.1,-0.1,0.3,-0.1,-0.1,-0.1,-0.1,-0.1,-0.1,-0.1,-0.1,-0.1,-0.1,-0.1,-0.1,0.3,-0.1,-0.1,-0.1,-0.1,-0.1,-0.1,-0.1,-0.1,-0.1,-0.1,-0.1,-0.1,-0.1,-0.1,-0.1,-0.1,-0.1,-0.1,-0.1,-0.1,-0.1,-0.1,-0.1,-0.1,-0.1,-0.1,-0.1,0.3" 
class="s7_87"
>mutualUniqueWords = findMutualUnique(indoUnique, engDictionary); </text>

<path d="M107.8,520.7l719.4,0l0,-22l-719.4,0l0,22Z" class="g2_87" />
<text 
x="127" 
y="516" 
dx="0,-0.1,-0.1,-0.1" 
class="s9_87"
>let </text>

<text 
x="162" 
y="516" 
dx="0,-0.1,-0.1,-0.1,-0.1,-0.1,-0.1,-0.1,-0.1,-0.1,-0.1,-0.1,-0.1,-0.1,-0.1,-0.1,-0.1,-0.1,0.3" 
class="s7_87"
>filterMutual = []; </text>

<path d="M107.8,542.3l719.4,0l0,-21.6l-719.4,0l0,21.6Z" class="g2_87" />
<text 
x="127" 
y="538" 
dx="0,-0.1,-0.1,-0.1" 
class="s9_87"
>for </text>

<text 
x="162" 
y="538" 
class="s7_87"
>(</text>

<text 
x="171" 
y="538" 
dx="0,-0.1,-0.1,-0.1" 
class="s9_87"
>let </text>

<text 
x="206" 
y="538" 
dx="0,-0.1,-0.1,-0.1,-0.1" 
class="s7_87"
>word </text>

<text 
x="250" 
y="538" 
dx="0,-0.1,-0.1" 
class="s9_87"
>of </text>

<text 
x="277" 
y="538" 
dx="0,-0.1,-0.1,-0.1,-0.1,-0.1,-0.1,-0.1,-0.1,-0.1,0.3,-0.1,-0.1,-0.1,-0.1,-0.1,-0.1,-0.1,-0.1,-0.1,0.3" 
class="s7_87"
>mutualUniqueWords) { </text>

<path d="M107.8,563.9l719.4,0l0,-21.6l-719.4,0l0,21.6Z" class="g2_87" />
<text 
x="145" 
y="559" 
dx="0,-0.1,-0.1" 
class="s9_87"
>if </text>

<text 
x="171" 
y="559" 
dx="0,-0.1" 
class="s7_87"
>( </text>

<path d="M107.8,585.9l719.4,0l0,-22l-719.4,0l0,22Z" class="g2_87" />
<text 
x="162" 
y="581" 
dx="0,-0.1,-0.1,-0.1,-0.1,-0.1,-0.1,-0.1,-0.1,-0.1,-0.1,-0.1,-0.1,-0.1" 
class="s7_87"
>(word.indexOf(</text>

<text 
x="286" 
y="581" 
dx="0,-0.1,-0.1" 
class="s8_87"
>"a"</text>

<text 
x="312" 
y="581" 
dx="0,-0.1,-0.1,-0.1" 
class="s7_87"
>) &gt; </text>

<text 
x="347" 
y="581" 
dx="0,-0.1" 
class="s11_87"
>0 </text>

<text 
x="365" 
y="581" 
dx="0,-0.1,0.3" 
class="s7_87"
>|| </text>

<path d="M107.8,607.6l719.4,0l0,-21.7l-719.4,0l0,21.7Z" class="g2_87" />
<text 
x="180" 
y="603" 
dx="0,-0.1,-0.1,-0.1,-0.1,-0.1,-0.1,-0.1,-0.1,-0.1,-0.1,-0.1,-0.1" 
class="s7_87"
>word.indexOf(</text>

<text 
x="294" 
y="603" 
dx="0,-0.1,-0.1" 
class="s8_87"
>"e"</text>

<text 
x="321" 
y="603" 
dx="0,-0.1,-0.1,-0.1" 
class="s7_87"
>) &gt; </text>

<text 
x="356" 
y="603" 
dx="0,0.3" 
class="s11_87"
>0 </text>

<text 
x="374" 
y="603" 
dx="0,-0.1,0.3" 
class="s7_87"
>|| </text>

<path d="M107.8,629.6l719.4,0l0,-22l-719.4,0l0,22Z" class="g2_87" />
<text 
x="180" 
y="625" 
dx="0,-0.1,-0.1,-0.1,-0.1,-0.1,-0.1,-0.1,-0.1,-0.1,-0.1,-0.1,-0.1" 
class="s7_87"
>word.indexOf(</text>

<text 
x="294" 
y="625" 
dx="0,-0.1,-0.1" 
class="s8_87"
>"i"</text>

<text 
x="321" 
y="625" 
dx="0,-0.1,-0.1,-0.1" 
class="s7_87"
>) &gt; </text>

<text 
x="356" 
y="625" 
dx="0,0.3" 
class="s11_87"
>0 </text>

<text 
x="374" 
y="625" 
dx="0,-0.1,0.3" 
class="s7_87"
>|| </text>

<path d="M107.8,651.2l719.4,0l0,-21.6l-719.4,0l0,21.6Z" class="g2_87" />
<text 
x="180" 
y="647" 
dx="0,-0.1,-0.1,-0.1,-0.1,-0.1,-0.1,-0.1,-0.1,-0.1,-0.1,-0.1,-0.1" 
class="s7_87"
>word.indexOf(</text>

<text 
x="294" 
y="647" 
dx="0,-0.1,-0.1" 
class="s8_87"
>"o"</text>

<text 
x="321" 
y="647" 
dx="0,-0.1,-0.1,-0.1" 
class="s7_87"
>) &gt; </text>

<text 
x="356" 
y="647" 
dx="0,0.3" 
class="s11_87"
>0 </text>

<text 
x="374" 
y="647" 
dx="0,-0.1,0.3" 
class="s7_87"
>|| </text>

<path d="M107.8,672.8l719.4,0l0,-21.6l-719.4,0l0,21.6Z" class="g2_87" />
<text 
x="180" 
y="668" 
dx="0,-0.1,-0.1,-0.1,-0.1,-0.1,-0.1,-0.1,-0.1,-0.1,-0.1,-0.1,-0.1" 
class="s7_87"
>word.indexOf(</text>

<text 
x="294" 
y="668" 
dx="0,-0.1,-0.1" 
class="s8_87"
>"u"</text>

<text 
x="321" 
y="668" 
dx="0,-0.1,-0.1,-0.1" 
class="s7_87"
>) &gt; </text>

<text 
x="356" 
y="668" 
class="s11_87"
>0</text>

<text 
x="365" 
y="668" 
dx="0,-0.1,-0.1,-0.1,0.3" 
class="s7_87"
>) &amp;&amp; </text>

<path d="M107.8,694.8l719.4,0l0,-22l-719.4,0l0,22Z" class="g2_87" />
<text 
x="162" 
y="690" 
dx="0,-0.1,-0.1,-0.1,-0.1,-0.1,-0.1,-0.1,-0.1,-0.1,-0.1,-0.1,-0.1,-0.1" 
class="s7_87"
>word.length &gt; </text>

<text 
x="286" 
y="690" 
dx="0,0.3" 
class="s11_87"
>2 </text>

<path d="M107.8,716.5l719.4,0l0,-21.7l-719.4,0l0,21.7Z" class="g2_87" />
<text 
x="145" 
y="712" 
dx="0,-0.1,-0.1,-0.1" 
class="s7_87"
>) { </text>

<path d="M107.8,738.1l719.4,0l0,-21.6l-719.4,0l0,21.6Z" class="g2_87" />
<text 
x="162" 
y="734" 
dx="0,-0.1,-0.1,-0.1,-0.1,-0.1,-0.1,-0.1,-0.1,-0.1,-0.1,-0.1,-0.1,-0.1,-0.1,-0.1,-0.1,-0.1,-0.1,-0.1,-0.1,-0.1,-0.1,0.3,0.3" 
class="s7_87"
>filterMutual.push(word); </text>

<path d="M107.8,760.1l719.4,0l0,-22l-719.4,0l0,22Z" class="g2_87" />
<text 
x="145" 
y="755" 
dx="0,-0.1" 
class="s7_87"
>} </text>

<path d="M107.8,781.7l719.4,0l0,-21.6l-719.4,0l0,21.6Z" class="g2_87" />
<text 
x="127" 
y="777" 
dx="0,-0.1" 
class="s7_87"
>} </text>

<path d="M107.8,803.7l719.4,0l0,-22l-719.4,0l0,22Z" class="g2_87" />
<text 
x="127" 
y="799" 
dx="0,-0.1,-0.1,-0.1,-0.1,-0.1,-0.1,-0.1,-0.1,-0.1,-0.1,-0.1,-0.1,-0.1,-0.1,-0.1,-0.1,-0.1,-0.1,-0.1,-0.1,-0.1,-0.1,-0.1,-0.1,-0.1,0.3" 
class="s7_87"
>console.log(filterMutual); </text>

<path d="M107.8,825.4l719.4,0l0,-21.7l-719.4,0l0,21.7Z" class="g2_87" />
<text 
x="127" 
y="821" 
dx="0,-0.1,-0.1,-0.1,-0.1,-0.1,-0.1,-0.1,-0.1,-0.1,-0.1,-0.1,-0.1,-0.1,-0.1,-0.1,-0.1" 
class="s7_87"
>fs.writeFileSync(</text>

<text 
x="277" 
y="821" 
dx="0,-0.1,-0.1,-0.1,-0.1,-0.1,-0.1,-0.1,-0.1,-0.1,0.3,-0.1,-0.1,-0.1,-0.1,-0.1,-0.1,-0.1,-0.1,-0.1,-0.1,-0.1,-0.1" 
class="s8_87"
>"commonUniqueWords.txt"</text>

<text 
x="480" 
y="821" 
dx="0,-0.1,-0.1,-0.1,-0.1,-0.1,-0.1,-0.1,-0.1,-0.1,-0.1,-0.1,-0.1,-0.1,-0.1,-0.1,0.3" 
class="s7_87"
>, filterMutual); </text>

<path d="M107.8,847l719.4,0l0,-21.6l-719.4,0l0,21.6Z" class="g2_87" />
<path d="M107.8,869l719.4,0l0,-22l-719.4,0l0,22Z" class="g2_87" />
<text 
x="110" 
y="864" 
dx="0,-0.1,-0.1,-0.1,-0.1,-0.1" 
class="s7_87"
>})(); </text>

<path d="M107.8,890.6l719.4,0l0,-21.6l-719.4,0l0,21.6Z" class="g2_87" />
<path d="M107.8,912.3l719.4,0l0,-21.7l-719.4,0l0,21.7Z" class="g2_87" />
<text 
x="110" 
y="908" 
dx="0,-0.1,-0.1,-0.1,-0.1,-0.1,-0.1,-0.1,-0.1" 
class="s9_87"
>function </text>

<text 
x="189" 
y="908" 
dx="0,-0.1,-0.1,-0.1,-0.1,-0.1,-0.1,-0.1,-0.1,-0.1,-0.1,-0.1,-0.1,-0.1,-0.1,-0.1,-0.1,-0.1,-0.1,-0.1,0.3,-0.1,-0.1,-0.1,0.3" 
class="s7_87"
>findUniqueWords(words) { </text>

<path d="M107.8,934.3l719.4,0l0,-22l-719.4,0l0,22Z" class="g2_87" />
<text 
x="127" 
y="929" 
dx="0,-0.1,-0.1,-0.1,-0.1,-0.1" 
class="s9_87"
>const </text>

<text 
x="180" 
y="929" 
dx="0,-0.1,-0.1,-0.1,-0.1,-0.1,-0.1,-0.1,-0.1,-0.1,-0.1,-0.1,-0.1,-0.1,-0.1,-0.1,-0.1,0.3" 
class="s7_87"
>uniqueWords = []; </text>

<path d="M107.8,955.9l719.4,0l0,-21.6l-719.4,0l0,21.6Z" class="g2_87" />
<text 
x="127" 
y="951" 
dx="0,-0.1,-0.1,-0.1" 
class="s9_87"
>for </text>

<text 
x="162" 
y="951" 
class="s7_87"
>(</text>

<text 
x="171" 
y="951" 
dx="0,-0.1,-0.1,-0.1" 
class="s9_87"
>let </text>

<text 
x="206" 
y="951" 
dx="0,-0.1,-0.1,-0.1,-0.1" 
class="s7_87"
>word </text>

<text 
x="250" 
y="951" 
dx="0,-0.1,-0.1" 
class="s9_87"
>of </text>

<text 
x="277" 
y="951" 
dx="0,-0.1,-0.1,-0.1,-0.1,-0.1,-0.1,-0.1,0.3" 
class="s7_87"
>words) { </text>

<path d="M107.8,977.9l719.4,0l0,-22l-719.4,0l0,22Z" class="g2_87" />
<text 
x="145" 
y="973" 
dx="0,-0.1,-0.1" 
class="s9_87"
>if </text>

<text 
x="171" 
y="973" 
dx="0,-0.1,-0.1,-0.1,-0.1,-0.1,-0.1,-0.1,-0.1,-0.1,-0.1,-0.1" 
class="s7_87"
>(word.match(</text>

<text 
x="277" 
y="973" 
dx="0,-0.1,-0.1,-0.1,-0.1,-0.1,-0.1,-0.1,-0.1" 
class="s12_87"
>/[a-zA-Z]</text>

<text 
x="356" 
y="973" 
class="s7_87"
>+</text>

<text 
x="365" 
y="973" 
class="s12_87"
>/</text>

<text 
x="374" 
y="973" 
class="s9_87"
>g</text>

<text 
x="383" 
y="973" 
dx="0,-0.1,-0.1,-0.1,-0.1,-0.1" 
class="s7_87"
>) !== </text>

<text 
x="435" 
y="973" 
dx="0,-0.1,-0.1" 
class="s8_87"
>"" </text>

<text 
x="462" 
y="973" 
dx="0,-0.1,0.3,-0.1,-0.1,-0.1,-0.1,-0.1,-0.1,-0.1,-0.1,-0.1,-0.1,-0.1" 
class="s7_87"
>&amp;&amp; word.match(</text>

<text 
x="585" 
y="973" 
dx="0,-0.1,-0.1,-0.1,-0.1,-0.1,-0.1,-0.1,-0.1" 
class="s12_87"
>/[a-zA-Z]</text>

<text 
x="665" 
y="973" 
class="s7_87"
>+</text>

<text 
x="673" 
y="973" 
class="s12_87"
>/</text>

<text 
x="682" 
y="973" 
class="s9_87"
>g</text>

<text 
x="691" 
y="973" 
dx="0,-0.1,-0.1,-0.1,-0.1,0.3" 
class="s7_87"
>) !== </text>

<text 
x="744" 
y="973" 
dx="0,-0.1,-0.1,-0.1" 
class="s9_87"
>null</text>

<text 
x="779" 
y="973" 
dx="0,-0.1,-0.1,0.3" 
class="s7_87"
>) { </text>

<path d="M107.8,999.5l719.4,0l0,-21.6l-719.4,0l0,21.6Z" class="g2_87" />
<text 
x="162" 
y="995" 
dx="0,-0.1,-0.1" 
class="s9_87"
>if </text>

<text 
x="189" 
y="995" 
dx="0,-0.1,-0.1,-0.1,-0.1,-0.1,-0.1,-0.1,-0.1,-0.1,-0.1,-0.1,-0.1,-0.1,-0.1,-0.1,-0.1,-0.1,-0.1,-0.1,0.3,-0.1,-0.1,-0.1,-0.1,-0.1,-0.1,-0.1,-0.1,-0.1,-0.1" 
class="s7_87"
>(uniqueWords.indexOf(word) == -</text>

<text 
x="462" 
y="995" 
class="s11_87"
>1</text>

<text 
x="471" 
y="995" 
dx="0,0.3,-0.1,-0.1" 
class="s7_87"
>) { </text>

<path d="M107.8,1021.2l719.4,0l0,-21.7l-719.4,0l0,21.7Z" class="g2_87" />
<text 
x="180" 
y="1017" 
dx="0,-0.1,-0.1,-0.1,-0.1,-0.1,-0.1,-0.1,-0.1,-0.1,-0.1,-0.1,-0.1,-0.1,-0.1,-0.1,-0.1,-0.1,-0.1,-0.1,-0.1,0.3,-0.1,0.3" 
class="s7_87"
>uniqueWords.push(word); </text>

<path d="M107.8,1043.2l719.4,0l0,-22l-719.4,0l0,22Z" class="g2_87" />
<text 
x="162" 
y="1038" 
dx="0,-0.1" 
class="s7_87"
>} </text>

<path d="M107.8,1064.8l719.4,0l0,-21.6l-719.4,0l0,21.6Z" class="g2_87" />
<text 
x="145" 
y="1060" 
dx="0,-0.1" 
class="s7_87"
>} </text>



<!-- Any embedded fonts defined here -->
<style type="text/css" ><![CDATA[

@font-face {
	font-family: ArialNovaCond-Bold_d;
	src: url("fonts/ArialNovaCond-Bold_d.woff") format("woff");
}

@font-face {
	font-family: ArialNova-Light_n;
	src: url("fonts/ArialNova-Light_n.woff") format("woff");
}

@font-face {
	font-family: Calibri-Light_r;
	src: url("fonts/Calibri-Light_r.woff") format("woff");
}

@font-face {
	font-family: Consolas_c7;
	src: url("fonts/Consolas_c7.woff") format("woff");
}

]]></style>

</svg>
