<?xml version="1.0" encoding="UTF-8" standalone="no"?>
<!DOCTYPE svg PUBLIC "-//W3C//DTD SVG 1.1//EN"
"http://www.w3.org/Graphics/SVG/1.1/DTD/svg11.dtd">


<!-- Page 88 -->
<svg x="0" y="0" width="935" height="1210" viewBox="0 0 935 1210" version="1.1" xmlns="http://www.w3.org/2000/svg" xmlns:xlink="http://www.w3.org/1999/xlink"
style="display: block;margin-left: auto;margin-right: auto;">
<defs>

<style type="text/css"><![CDATA[

.g1_88{
fill: #D9D9D9;
}
.g2_88{
fill: #FFFFFF;
}

.s1_88{
font-size: 18.33px;
font-family: ArialNovaCond-Bold_d;
fill: #5A5A5A;
}
.s2_88{
font-size: 12.10px;
font-family: ArialNova-Light_n;
fill: #7F7F7F;
}
.s3_88{
font-size: 16.13px;
font-family: Consolas_c7;
fill: #000000;
}
.s4_88{
font-size: 16.13px;
font-family: Consolas_c7;
fill: #0000FF;
}
.s5_88{
font-size: 16.13px;
font-family: Consolas_c7;
fill: #811F3F;
}
.s6_88{
font-size: 16.13px;
font-family: Consolas_c7;
fill: #A31515;
}
.s7_88{
font-size: 16.13px;
font-family: Consolas_c7;
fill: #09885A;
}

]]></style>

</defs>
<path d="M0,0
L0,1210
L935,1210
L935,0 Z " 
fill="#FFFFFF" stroke="none" />
<text 
x="110" 
y="1106" 
dx="0,0,0,0.2" 
class="s1_88"
>88 |</text>

<text 
x="141" 
y="1106" 
dx="0,4.3,4.9,0,1.9,0,1.6,0,1.3,0,1.7,0,1.7,0,1.2,0,1.9,0,1.6,4.7,4.9,0,1.3,0,1.7,0,1.6,0,1.5,0,1.6,0,1.9,0,1.2,0,1.5,0,1.9,0,1.5,4.5,4.9,0,1.7,0,1.2,0,1.9,0,1.9,0,1.2,4.5,4.5,0,1.9,0,1.5,4.7,4.9,0,1.3,0,1.5,0,1.9,0,1.5,0,1.5,0,1.5,0,1.5,0,1.9,0,1.3,0,1.9,0,1.6,4.6,4.5,0,1.9,0,1.5,0,1.7,0,1.6,0,1.4,0,1.9,0,1.3,0,1.9,0,1.5,0,1.7,0,1.5,0,1.5,0,1.9" 
class="s2_88"
>A W e b - b a s e d T r a n s l a t i o n S y s t e m f o r M u l t i l i n g u a l C o d e - s w i t c h i n g</text>

<path d="M107.8,1086.4l719.4,0l0,-0.7l-719.4,0l0,0.7Z" class="g1_88" />
<path d="M107.8,131.6l719.4,0l0,-21.6l-719.4,0l0,21.6Z" class="g2_88" />
<text 
x="127" 
y="127" 
dx="0,-0.1" 
class="s3_88"
>} </text>

<path d="M107.8,153.6l719.4,0l0,-22l-719.4,0l0,22Z" class="g2_88" />
<text 
x="127" 
y="149" 
dx="0,-0.1,-0.1,-0.1,-0.1,-0.1,-0.1" 
class="s4_88"
>return </text>

<text 
x="189" 
y="149" 
dx="0,-0.1,-0.1,-0.1,-0.1,-0.1,-0.1,-0.1,-0.1,-0.1,-0.1,-0.1,0.3" 
class="s3_88"
>uniqueWords; </text>

<path d="M107.8,175.3l719.4,0l0,-21.7l-719.4,0l0,21.7Z" class="g2_88" />
<text 
x="110" 
y="171" 
dx="0,-0.1" 
class="s3_88"
>} </text>

<path d="M107.8,197.3l719.4,0l0,-22l-719.4,0l0,22Z" class="g2_88" />
<path d="M107.8,218.9l719.4,0l0,-21.6l-719.4,0l0,21.6Z" class="g2_88" />
<text 
x="110" 
y="214" 
dx="0,-0.1,-0.1,-0.1,-0.1,-0.1,-0.1,-0.1,-0.1" 
class="s4_88"
>function </text>

<text 
x="189" 
y="214" 
dx="0,-0.1,-0.1,-0.1,-0.1,-0.1,-0.1,-0.1,-0.1,-0.1,-0.1,-0.1,-0.1,-0.1,-0.1,-0.1,-0.1,-0.1,-0.1,-0.1,0.3,-0.1,-0.1,-0.1,-0.1,0.3" 
class="s3_88"
>removePunctuation(text) { </text>

<path d="M107.8,240.5l719.4,0l0,-21.6l-719.4,0l0,21.6Z" class="g2_88" />
<text 
x="127" 
y="236" 
dx="0,-0.1,-0.1,-0.1,-0.1,-0.1,-0.1,-0.1,-0.1,-0.1,-0.1,-0.1,-0.1,-0.1,-0.1,-0.1,-0.1,-0.1,-0.1,-0.1,-0.1,-0.1,-0.1,-0.1,-0.1,-0.1,0.3" 
class="s3_88"
>text = text.toLowerCase(); </text>

<path d="M107.8,262.5l719.4,0l0,-22l-719.4,0l0,22Z" class="g2_88" />
<text 
x="127" 
y="258" 
dx="0,-0.1,-0.1,-0.1,-0.1,-0.1,-0.1,-0.1,-0.1,-0.1,-0.1,-0.1,-0.1,-0.1,-0.1,-0.1,-0.1,-0.1,-0.1,-0.1" 
class="s3_88"
>text = text.replace(</text>

<text 
x="303" 
y="258" 
dx="0,-0.1,-0.1,-0.1" 
class="s5_88"
>/\//</text>

<text 
x="338" 
y="258" 
class="s4_88"
>g</text>

<text 
x="347" 
y="258" 
dx="0,-0.1" 
class="s3_88"
>, </text>

<text 
x="365" 
y="258" 
dx="0,-0.1" 
class="s6_88"
>""</text>

<text 
x="383" 
y="258" 
dx="0,-0.1,0.3" 
class="s3_88"
>); </text>

<path d="M107.8,284.2l719.4,0l0,-21.7l-719.4,0l0,21.7Z" class="g2_88" />
<text 
x="127" 
y="280" 
dx="0,-0.1,-0.1,-0.1,-0.1,-0.1,-0.1,-0.1,-0.1,-0.1,-0.1,-0.1,-0.1,-0.1,-0.1,-0.1,-0.1,-0.1,-0.1,-0.1" 
class="s3_88"
>text = text.replace(</text>

<text 
x="303" 
y="280" 
dx="0,-0.1,-0.1" 
class="s5_88"
>/'/</text>

<text 
x="330" 
y="280" 
class="s4_88"
>g</text>

<text 
x="338" 
y="280" 
dx="0,-0.1" 
class="s3_88"
>, </text>

<text 
x="356" 
y="280" 
dx="0,0.3" 
class="s6_88"
>""</text>

<text 
x="374" 
y="280" 
dx="0,-0.1,0.3" 
class="s3_88"
>); </text>

<path d="M107.8,305.8l719.4,0l0,-21.6l-719.4,0l0,21.6Z" class="g2_88" />
<text 
x="127" 
y="301" 
dx="0,-0.1,-0.1,-0.1,-0.1,-0.1,-0.1,-0.1,-0.1,-0.1,-0.1,-0.1,-0.1,-0.1,-0.1,-0.1,-0.1,-0.1,-0.1,-0.1" 
class="s3_88"
>text = text.replace(</text>

<text 
x="303" 
y="301" 
dx="0,-0.1,-0.1" 
class="s5_88"
>/"/</text>

<text 
x="330" 
y="301" 
class="s4_88"
>g</text>

<text 
x="338" 
y="301" 
dx="0,-0.1" 
class="s3_88"
>, </text>

<text 
x="356" 
y="301" 
dx="0,0.3" 
class="s6_88"
>""</text>

<text 
x="374" 
y="301" 
dx="0,-0.1,0.3" 
class="s3_88"
>); </text>

<path d="M107.8,327.8l719.4,0l0,-22l-719.4,0l0,22Z" class="g2_88" />
<text 
x="127" 
y="323" 
dx="0,-0.1,-0.1,-0.1,-0.1,-0.1,-0.1,-0.1,-0.1,-0.1,-0.1,-0.1,-0.1,-0.1,-0.1,-0.1,-0.1,-0.1,-0.1,-0.1" 
class="s3_88"
>text = text.replace(</text>

<text 
x="303" 
y="323" 
dx="0,-0.1,-0.1,-0.1" 
class="s5_88"
>/\?/</text>

<text 
x="338" 
y="323" 
class="s4_88"
>g</text>

<text 
x="347" 
y="323" 
dx="0,-0.1" 
class="s3_88"
>, </text>

<text 
x="365" 
y="323" 
dx="0,-0.1" 
class="s6_88"
>""</text>

<text 
x="383" 
y="323" 
dx="0,-0.1,0.3" 
class="s3_88"
>); </text>

<path d="M107.8,349.4l719.4,0l0,-21.6l-719.4,0l0,21.6Z" class="g2_88" />
<text 
x="127" 
y="345" 
dx="0,-0.1,-0.1,-0.1,-0.1,-0.1,-0.1,-0.1,-0.1,-0.1,-0.1,-0.1,-0.1,-0.1,-0.1,-0.1,-0.1,-0.1,-0.1,-0.1" 
class="s3_88"
>text = text.replace(</text>

<text 
x="303" 
y="345" 
dx="0,-0.1,-0.1,-0.1" 
class="s5_88"
>/\-/</text>

<text 
x="338" 
y="345" 
class="s4_88"
>g</text>

<text 
x="347" 
y="345" 
dx="0,-0.1" 
class="s3_88"
>, </text>

<text 
x="365" 
y="345" 
dx="0,-0.1" 
class="s6_88"
>""</text>

<text 
x="383" 
y="345" 
dx="0,-0.1,0.3" 
class="s3_88"
>); </text>

<path d="M107.8,371.4l719.4,0l0,-22l-719.4,0l0,22Z" class="g2_88" />
<text 
x="127" 
y="367" 
dx="0,-0.1,-0.1,-0.1,-0.1,-0.1,-0.1,-0.1,-0.1,-0.1,-0.1,-0.1,-0.1,-0.1,-0.1,-0.1,-0.1,-0.1,-0.1,-0.1" 
class="s3_88"
>text = text.replace(</text>

<text 
x="303" 
y="367" 
dx="0,-0.1,-0.1,-0.1" 
class="s5_88"
>/\—/</text>

<text 
x="338" 
y="367" 
class="s4_88"
>g</text>

<text 
x="347" 
y="367" 
dx="0,-0.1" 
class="s3_88"
>, </text>

<text 
x="365" 
y="367" 
dx="0,-0.1" 
class="s6_88"
>""</text>

<text 
x="383" 
y="367" 
dx="0,-0.1,0.3" 
class="s3_88"
>); </text>

<path d="M107.8,393.1l719.4,0l0,-21.7l-719.4,0l0,21.7Z" class="g2_88" />
<text 
x="127" 
y="389" 
dx="0,-0.1,-0.1,-0.1,-0.1,-0.1,-0.1,-0.1,-0.1,-0.1,-0.1,-0.1,-0.1,-0.1,-0.1,-0.1,-0.1,-0.1,-0.1,-0.1" 
class="s3_88"
>text = text.replace(</text>

<text 
x="303" 
y="389" 
dx="0,-0.1,-0.1,-0.1" 
class="s5_88"
>/\./</text>

<text 
x="338" 
y="389" 
class="s4_88"
>g</text>

<text 
x="347" 
y="389" 
dx="0,-0.1" 
class="s3_88"
>, </text>

<text 
x="365" 
y="389" 
dx="0,-0.1" 
class="s6_88"
>""</text>

<text 
x="383" 
y="389" 
dx="0,-0.1,0.3" 
class="s3_88"
>); </text>

<path d="M107.8,414.7l719.4,0l0,-21.6l-719.4,0l0,21.6Z" class="g2_88" />
<text 
x="127" 
y="410" 
dx="0,-0.1,-0.1,-0.1,-0.1,-0.1,-0.1,-0.1,-0.1,-0.1,-0.1,-0.1,-0.1,-0.1,-0.1,-0.1,-0.1,-0.1,-0.1,-0.1" 
class="s3_88"
>text = text.replace(</text>

<text 
x="303" 
y="410" 
dx="0,-0.1,-0.1" 
class="s5_88"
>/,/</text>

<text 
x="330" 
y="410" 
class="s4_88"
>g</text>

<text 
x="338" 
y="410" 
dx="0,-0.1" 
class="s3_88"
>, </text>

<text 
x="356" 
y="410" 
dx="0,0.3" 
class="s6_88"
>""</text>

<text 
x="374" 
y="410" 
dx="0,-0.1,0.3" 
class="s3_88"
>); </text>

<path d="M107.8,436.7l719.4,0l0,-22l-719.4,0l0,22Z" class="g2_88" />
<text 
x="127" 
y="432" 
dx="0,-0.1,-0.1,-0.1,-0.1,-0.1,-0.1,-0.1,-0.1,-0.1,-0.1,-0.1,-0.1,-0.1,-0.1,-0.1,-0.1,-0.1,-0.1,-0.1" 
class="s3_88"
>text = text.replace(</text>

<text 
x="303" 
y="432" 
dx="0,-0.1,-0.1" 
class="s5_88"
>/!/</text>

<text 
x="330" 
y="432" 
class="s4_88"
>g</text>

<text 
x="338" 
y="432" 
dx="0,-0.1" 
class="s3_88"
>, </text>

<text 
x="356" 
y="432" 
dx="0,0.3" 
class="s6_88"
>""</text>

<text 
x="374" 
y="432" 
dx="0,-0.1,0.3" 
class="s3_88"
>); </text>

<path d="M107.8,458.3l719.4,0l0,-21.6l-719.4,0l0,21.6Z" class="g2_88" />
<text 
x="127" 
y="454" 
dx="0,-0.1,-0.1,-0.1,-0.1,-0.1,-0.1,-0.1,-0.1,-0.1,-0.1,-0.1,-0.1,-0.1,-0.1,-0.1,-0.1,-0.1,-0.1,-0.1" 
class="s3_88"
>text = text.replace(</text>

<text 
x="303" 
y="454" 
dx="0,-0.1,-0.1,-0.1" 
class="s5_88"
>/\(/</text>

<text 
x="338" 
y="454" 
class="s4_88"
>g</text>

<text 
x="347" 
y="454" 
dx="0,-0.1" 
class="s3_88"
>, </text>

<text 
x="365" 
y="454" 
dx="0,-0.1" 
class="s6_88"
>""</text>

<text 
x="383" 
y="454" 
dx="0,-0.1,0.3" 
class="s3_88"
>); </text>

<path d="M107.8,480l719.4,0l0,-21.7l-719.4,0l0,21.7Z" class="g2_88" />
<text 
x="127" 
y="475" 
dx="0,-0.1,-0.1,-0.1,-0.1,-0.1,-0.1,-0.1,-0.1,-0.1,-0.1,-0.1,-0.1,-0.1,-0.1,-0.1,-0.1,-0.1,-0.1,-0.1" 
class="s3_88"
>text = text.replace(</text>

<text 
x="303" 
y="475" 
dx="0,-0.1,-0.1,-0.1" 
class="s5_88"
>/\)/</text>

<text 
x="338" 
y="475" 
class="s4_88"
>g</text>

<text 
x="347" 
y="475" 
dx="0,-0.1" 
class="s3_88"
>, </text>

<text 
x="365" 
y="475" 
dx="0,-0.1" 
class="s6_88"
>""</text>

<text 
x="383" 
y="475" 
dx="0,-0.1,0.3" 
class="s3_88"
>); </text>

<path d="M107.8,502l719.4,0l0,-22l-719.4,0l0,22Z" class="g2_88" />
<text 
x="127" 
y="497" 
dx="0,-0.1,-0.1,-0.1,-0.1,-0.1,-0.1,-0.1,-0.1,-0.1,-0.1,-0.1,-0.1,-0.1,-0.1,-0.1,-0.1,-0.1,-0.1,-0.1" 
class="s3_88"
>text = text.replace(</text>

<text 
x="303" 
y="497" 
dx="0,-0.1,-0.1" 
class="s5_88"
>/:/</text>

<text 
x="330" 
y="497" 
class="s4_88"
>g</text>

<text 
x="338" 
y="497" 
dx="0,-0.1" 
class="s3_88"
>, </text>

<text 
x="356" 
y="497" 
dx="0,0.3" 
class="s6_88"
>""</text>

<text 
x="374" 
y="497" 
dx="0,-0.1,0.3" 
class="s3_88"
>); </text>

<path d="M107.8,523.6l719.4,0l0,-21.6l-719.4,0l0,21.6Z" class="g2_88" />
<text 
x="127" 
y="519" 
dx="0,-0.1,-0.1,-0.1,-0.1,-0.1,-0.1,-0.1,-0.1,-0.1,-0.1,-0.1,-0.1,-0.1,-0.1,-0.1,-0.1,-0.1,-0.1,-0.1" 
class="s3_88"
>text = text.replace(</text>

<text 
x="303" 
y="519" 
dx="0,-0.1,-0.1,-0.1" 
class="s5_88"
>/\|/</text>

<text 
x="338" 
y="519" 
class="s4_88"
>g</text>

<text 
x="347" 
y="519" 
dx="0,-0.1" 
class="s3_88"
>, </text>

<text 
x="365" 
y="519" 
dx="0,-0.1" 
class="s6_88"
>""</text>

<text 
x="383" 
y="519" 
dx="0,-0.1,0.3" 
class="s3_88"
>); </text>

<path d="M107.8,545.6l719.4,0l0,-22l-719.4,0l0,22Z" class="g2_88" />
<path d="M107.8,567.2l719.4,0l0,-21.6l-719.4,0l0,21.6Z" class="g2_88" />
<text 
x="127" 
y="563" 
dx="0,-0.1,-0.1,-0.1,-0.1,-0.1,-0.1" 
class="s4_88"
>return </text>

<text 
x="189" 
y="563" 
dx="0,-0.1,-0.1,-0.1,-0.1,0.3" 
class="s3_88"
>text; </text>

<path d="M107.8,588.9l719.4,0l0,-21.7l-719.4,0l0,21.7Z" class="g2_88" />
<text 
x="110" 
y="584" 
dx="0,-0.1" 
class="s3_88"
>} </text>

<path d="M107.8,610.9l719.4,0l0,-22l-719.4,0l0,22Z" class="g2_88" />
<path d="M107.8,632.5l719.4,0l0,-21.6l-719.4,0l0,21.6Z" class="g2_88" />
<text 
x="110" 
y="628" 
dx="0,-0.1,-0.1,-0.1,-0.1,-0.1,-0.1,-0.1,-0.1" 
class="s4_88"
>function </text>

<text 
x="189" 
y="628" 
dx="0,-0.1,-0.1,-0.1,-0.1,-0.1,-0.1,-0.1,-0.1,-0.1,-0.1,-0.1,-0.1,-0.1,-0.1,-0.1,-0.1,-0.1,-0.1,-0.1,0.3,-0.1,-0.1,-0.1,-0.1,-0.1,-0.1,-0.1,-0.1,-0.1,-0.1,-0.1,-0.1,0.3,-0.1,-0.1,-0.1,-0.1" 
class="s3_88"
>findMutualUnique(words, dictionary) { </text>

<path d="M107.8,654.1l719.4,0l0,-21.6l-719.4,0l0,21.6Z" class="g2_88" />
<text 
x="127" 
y="650" 
dx="0,-0.1,-0.1,-0.1,-0.1,-0.1" 
class="s4_88"
>const </text>

<text 
x="180" 
y="650" 
dx="0,-0.1,-0.1,-0.1,-0.1,-0.1,-0.1,-0.1,-0.1,-0.1,-0.1,-0.1,-0.1,-0.1,-0.1,-0.1,-0.1,-0.1,-0.1,-0.1,-0.1,0.3" 
class="s3_88"
>matchingUniques = []; </text>

<path d="M107.8,676.1l719.4,0l0,-22l-719.4,0l0,22Z" class="g2_88" />
<text 
x="127" 
y="671" 
dx="0,-0.1,-0.1,-0.1" 
class="s4_88"
>for </text>

<text 
x="162" 
y="671" 
class="s3_88"
>(</text>

<text 
x="171" 
y="671" 
dx="0,-0.1,-0.1,-0.1,-0.1,-0.1" 
class="s4_88"
>const </text>

<text 
x="224" 
y="671" 
dx="0,-0.1,-0.1,-0.1,-0.1" 
class="s3_88"
>word </text>

<text 
x="268" 
y="671" 
dx="0,-0.1,-0.1" 
class="s4_88"
>of </text>

<text 
x="294" 
y="671" 
dx="0,-0.1,-0.1,-0.1,-0.1,-0.1,-0.1,-0.1,0.3" 
class="s3_88"
>words) { </text>

<path d="M107.8,697.8l719.4,0l0,-21.7l-719.4,0l0,21.7Z" class="g2_88" />
<text 
x="145" 
y="693" 
dx="0,-0.1,-0.1" 
class="s4_88"
>if </text>

<text 
x="171" 
y="693" 
dx="0,-0.1,-0.1,-0.1,-0.1,-0.1,-0.1,-0.1,-0.1,-0.1,-0.1,-0.1,-0.1,-0.1,-0.1,-0.1,-0.1,-0.1,-0.1,-0.1,-0.1,-0.1,0.3,-0.1,-0.1,-0.1,-0.1,-0.1,-0.1" 
class="s3_88"
>(dictionary.indexOf(word) &gt; -</text>

<text 
x="427" 
y="693" 
class="s7_88"
>1</text>

<text 
x="435" 
y="693" 
dx="0,-0.1,-0.1,0.3" 
class="s3_88"
>) { </text>

<path d="M107.8,719.8l719.4,0l0,-22l-719.4,0l0,22Z" class="g2_88" />
<text 
x="162" 
y="715" 
dx="0,-0.1,-0.1,-0.1,-0.1,-0.1,-0.1,-0.1,-0.1,-0.1,-0.1,-0.1,-0.1,-0.1,-0.1,-0.1,-0.1,-0.1,-0.1,-0.1,-0.1,-0.1,-0.1,0.3,-0.1,-0.1,-0.1,0.3" 
class="s3_88"
>matchingUniques.push(word); </text>

<path d="M107.8,741.4l719.4,0l0,-21.6l-719.4,0l0,21.6Z" class="g2_88" />
<text 
x="145" 
y="737" 
dx="0,-0.1" 
class="s3_88"
>} </text>

<path d="M107.8,763l719.4,0l0,-21.6l-719.4,0l0,21.6Z" class="g2_88" />
<text 
x="127" 
y="759" 
dx="0,-0.1" 
class="s3_88"
>} </text>

<path d="M107.8,785l719.4,0l0,-22l-719.4,0l0,22Z" class="g2_88" />
<text 
x="127" 
y="780" 
dx="0,-0.1,-0.1,-0.1,-0.1,-0.1,-0.1" 
class="s4_88"
>return </text>

<text 
x="189" 
y="780" 
dx="0,-0.1,-0.1,-0.1,-0.1,-0.1,-0.1,-0.1,-0.1,-0.1,-0.1,-0.1,-0.1,-0.1,-0.1,-0.1,0.3" 
class="s3_88"
>matchingUniques; </text>

<path d="M107.8,806.7l719.4,0l0,-21.7l-719.4,0l0,21.7Z" class="g2_88" />
<text 
x="110" 
y="802" 
dx="0,-0.1" 
class="s3_88"
>} </text>

<path d="M107.8,828.3l719.4,0l0,-21.6l-719.4,0l0,21.6Z" class="g2_88" />
<path d="M107.8,850.3l719.4,0l0,-22l-719.4,0l0,22Z" class="g2_88" />
<path d="M107.8,871.9l719.4,0l0,-21.6l-719.4,0l0,21.6Z" class="g2_88" />
<path d="M107.8,893.9l719.4,0l0,-22l-719.4,0l0,22Z" class="g2_88" />
<path d="M107.8,915.6l719.4,0l0,-21.7l-719.4,0l0,21.7Z" class="g2_88" />
<path d="M107.8,937.2l719.4,0l0,-21.6l-719.4,0l0,21.6Z" class="g2_88" />
<path d="M107.8,959.2l719.4,0l0,-22l-719.4,0l0,22Z" class="g2_88" />
<path d="M107.8,980.8l719.4,0l0,-21.6l-719.4,0l0,21.6Z" class="g2_88" />
<path d="M107.8,1002.5l719.4,0l0,-21.7l-719.4,0l0,21.7Z" class="g2_88" />
<path d="M107.8,1024.5l719.4,0l0,-22l-719.4,0l0,22Z" class="g2_88" />


<!-- Any embedded fonts defined here -->
<style type="text/css" ><![CDATA[

@font-face {
	font-family: ArialNovaCond-Bold_d;
	src: url("fonts/ArialNovaCond-Bold_d.woff") format("woff");
}

@font-face {
	font-family: ArialNova-Light_n;
	src: url("fonts/ArialNova-Light_n.woff") format("woff");
}

@font-face {
	font-family: Consolas_c7;
	src: url("fonts/Consolas_c7.woff") format("woff");
}

]]></style>

</svg>
